<?xml version="1.0" encoding="UTF-8" standalone="no"?>
<!DOCTYPE svg PUBLIC "-//W3C//DTD SVG 1.1//EN" "http://www.w3.org/Graphics/SVG/1.1/DTD/svg11.dtd">
<svg width="100%" height="100%" viewBox="0 0 1067 1067" version="1.1" xmlns="http://www.w3.org/2000/svg" xmlns:xlink="http://www.w3.org/1999/xlink" xml:space="preserve" xmlns:serif="http://www.serif.com/" style="fill-rule:evenodd;clip-rule:evenodd;stroke-linejoin:round;stroke-miterlimit:2;">
    <g transform="matrix(1.33333,0,0,1.33333,0,0)">
        <rect id="Artboard1" x="0" y="0" width="800" height="800" style="fill:none;"/>
        <g id="Artboard11" serif:id="Artboard1">
            <g id="Layer1">
                <g transform="matrix(3.93083,0,0,3.85851,-995.227,-1080.7)">
                    <path d="M354.945,305.999C327.062,305.999 302.341,315.246 287.014,329.413C276.624,339.017 270.526,350.884 270.526,363.695C270.526,376.505 276.624,388.373 287.014,397.977C302.341,412.143 327.062,421.39 354.945,421.39C382.827,421.39 407.548,412.143 422.875,397.977C433.266,388.373 439.364,376.505 439.364,363.695C439.364,350.884 433.266,339.017 422.875,329.413C407.548,315.246 382.827,305.999 354.945,305.999ZM354.945,308.89C382.033,308.89 406.078,317.791 420.968,331.554C430.722,340.569 436.526,351.669 436.526,363.695C436.526,375.72 430.722,386.82 420.968,395.836C406.078,409.599 382.033,418.499 354.945,418.499C327.856,418.499 303.812,409.599 288.921,395.836C279.167,386.82 273.364,375.72 273.364,363.695C273.364,351.669 279.167,340.569 288.921,331.554C303.812,317.791 327.856,308.89 354.945,308.89Z"/>
                </g>
                <g transform="matrix(3.66148,0,0,3.59411,-899.622,-984.542)">
                    <ellipse cx="354.945" cy="363.695" rx="83" ry="56.25" style="fill:url(#_Radial1);"/>
                </g>
                <g transform="matrix(3.66148,0,0,3.59411,-899.622,-984.542)">
                    <path d="M354.945,306.41C327.175,306.41 302.55,315.608 287.285,329.717C276.985,339.238 270.929,350.996 270.929,363.695C270.929,376.394 276.985,388.152 287.285,397.672C302.55,411.782 327.175,420.979 354.945,420.979C382.714,420.979 407.339,411.782 422.604,397.672C432.904,388.152 438.96,376.394 438.96,363.695C438.96,350.996 432.904,339.238 422.604,329.717C407.339,315.608 382.714,306.41 354.945,306.41ZM354.945,308.479C382.146,308.479 406.287,317.429 421.239,331.249C431.084,340.349 436.929,351.558 436.929,363.695C436.929,375.832 431.084,387.041 421.239,396.14C406.287,409.961 382.146,418.91 354.945,418.91C327.743,418.91 303.603,409.961 288.65,396.14C278.806,387.041 272.96,375.832 272.96,363.695C272.96,351.558 278.806,340.349 288.65,331.249C303.603,317.429 327.743,308.479 354.945,308.479Z" style="fill:rgb(99,101,105);"/>
                </g>
                <g transform="matrix(3.71805,0,0,3.71805,-912.266,-1026.36)">
                    <path d="M276.445,324.445L276.445,339.445L298.195,339.445L298.195,404.445L318.195,404.445L318.195,372.445L322.695,372.445L349.195,404.945L417.945,404.945L417.945,389.445L380.945,389.445L380.945,326.695L345.945,326.695L339.445,337.5L339.445,324.4L276.445,324.445ZM335.695,364.672L364.695,397.695L364.695,329.695L335.695,364.672ZM318.195,339.4L318.195,357.195L322.945,357.195L337.745,339.4L318.195,339.4Z" style="fill:rgb(0,174,239);"/>
                </g>
                <g transform="matrix(3.71805,0,0,3.71805,-912.266,-1026.36)">
                    <path d="M276.443,322.445C275.339,322.446 274.445,323.341 274.445,324.445L274.445,339.445C274.445,340.549 275.34,341.445 276.445,341.445L296.195,341.445C296.195,341.445 296.195,404.445 296.195,404.445C296.195,405.549 297.09,406.445 298.195,406.445L318.195,406.445C319.299,406.445 320.195,405.549 320.195,404.445L320.195,374.445C320.195,374.445 321.745,374.445 321.745,374.445C321.745,374.445 347.645,406.209 347.645,406.209C348.025,406.674 348.594,406.945 349.195,406.945L417.945,406.945C419.049,406.945 419.945,406.049 419.945,404.945L419.945,389.445C419.945,388.34 419.049,387.445 417.945,387.445L382.945,387.445C382.945,387.445 382.945,326.695 382.945,326.695C382.945,325.59 382.049,324.695 380.945,324.695L345.945,324.695C345.243,324.695 344.593,325.063 344.231,325.664L341.445,330.295C341.445,330.295 341.445,324.4 341.445,324.4C341.445,323.869 341.234,323.36 340.858,322.985C340.483,322.61 339.974,322.4 339.443,322.4L276.443,322.445ZM337.445,337.4L337.445,326.401L278.445,326.443L278.445,337.445L298.195,337.445C299.299,337.445 300.195,338.34 300.195,339.445C300.195,339.445 300.195,402.445 300.195,402.445C300.195,402.445 316.195,402.445 316.195,402.445L316.195,372.445C316.195,371.34 317.09,370.445 318.195,370.445L322.695,370.445C323.296,370.445 323.865,370.715 324.245,371.181C324.245,371.181 350.145,402.945 350.145,402.945C350.145,402.945 415.945,402.945 415.945,402.945C415.945,402.945 415.945,391.445 415.945,391.445L380.945,391.445C379.84,391.445 378.945,390.549 378.945,389.445C378.945,389.445 378.945,328.695 378.945,328.695L366.426,328.695C366.599,328.992 366.695,329.335 366.695,329.695L366.695,397.695C366.695,398.527 366.179,399.273 365.4,399.566C364.621,399.86 363.741,399.64 363.192,399.014L334.192,365.992C333.543,365.253 333.528,364.153 334.155,363.396L362.926,328.695L347.076,328.695L341.159,338.531C340.844,339.054 340.318,339.391 339.742,339.478C339.726,339.91 339.57,340.333 339.282,340.679L324.482,358.474C324.102,358.931 323.539,359.195 322.945,359.195L318.195,359.195C317.09,359.195 316.195,358.299 316.195,357.195L316.195,339.4C316.195,338.295 317.09,337.4 318.195,337.4L337.445,337.4ZM338.324,364.635L362.695,335.241C362.695,335.241 362.695,392.386 362.695,392.386L338.324,364.635ZM320.195,341.4L333.48,341.4C333.48,341.4 322.007,355.195 322.007,355.195C322.007,355.195 320.195,355.195 320.195,355.195L320.195,341.4Z" style="fill:white;"/>
                </g>
                <g transform="matrix(3.63831,-0.76591,0.76591,3.63831,-1219.7,-770.231)">
                    <path d="M432.044,438.246L294.946,439.585L288.869,445.578L426.945,444.445L432.044,438.246Z"/>
                </g>
                <g transform="matrix(3.96455,0,0,3.71805,-921.845,-993.83)">
                    <path d="M291.507,429.945C284.463,429.945 278.788,435.713 278.788,442.757C278.788,449.801 284.463,455.57 291.507,455.57C298.551,455.57 304.226,449.801 304.226,442.757C304.226,435.713 298.551,429.945 291.507,429.945ZM291.507,432.945C296.95,432.945 301.413,437.314 301.413,442.757C301.413,448.2 296.95,452.57 291.507,452.57C286.064,452.57 281.601,448.2 281.601,442.757C281.601,437.314 286.064,432.945 291.507,432.945Z"/>
                </g>
                <g transform="matrix(2.95801,0,0,2.77409,-628.43,-575.885)">
                    <circle cx="291.507" cy="442.757" r="11.312" style="fill:rgb(0,174,239);"/>
                </g>
                <g transform="matrix(2.95801,0,0,2.77409,-430.444,-613.065)">
                    <circle cx="291.507" cy="442.757" r="11.312" style="fill:rgb(0,174,239);"/>
                </g>
                <g transform="matrix(2.95801,0,0,2.77409,-248.26,-654.894)">
                    <circle cx="291.507" cy="442.757" r="11.312" style="fill:rgb(0,174,239);"/>
                </g>
                <g transform="matrix(3.96455,0,0,3.71805,-723.859,-1031.01)">
                    <path d="M291.507,429.945C284.463,429.945 278.788,435.713 278.788,442.757C278.788,449.801 284.463,455.57 291.507,455.57C298.551,455.57 304.226,449.801 304.226,442.757C304.226,435.713 298.551,429.945 291.507,429.945ZM291.507,432.945C296.95,432.945 301.413,437.314 301.413,442.757C301.413,448.2 296.95,452.57 291.507,452.57C286.064,452.57 281.601,448.2 281.601,442.757C281.601,437.314 286.064,432.945 291.507,432.945Z"/>
                </g>
                <g transform="matrix(3.96455,0,0,3.71805,-541.675,-1072.84)">
                    <path d="M291.507,429.945C284.463,429.945 278.788,435.713 278.788,442.757C278.788,449.801 284.463,455.57 291.507,455.57C298.551,455.57 304.226,449.801 304.226,442.757C304.226,435.713 298.551,429.945 291.507,429.945ZM291.507,432.945C296.95,432.945 301.413,437.314 301.413,442.757C301.413,448.2 296.95,452.57 291.507,452.57C286.064,452.57 281.601,448.2 281.601,442.757C281.601,437.314 286.064,432.945 291.507,432.945Z"/>
                </g>
            </g>
        </g>
    </g>
    <defs>
        <radialGradient id="_Radial1" cx="0" cy="0" r="1" gradientUnits="userSpaceOnUse" gradientTransform="matrix(83.4443,0,-0,85.0083,354.5,363.695)"><stop offset="0" style="stop-color:white;stop-opacity:1"/><stop offset="1" style="stop-color:rgb(157,159,162);stop-opacity:1"/></radialGradient>
    </defs>
</svg>
