<?xml version="1.0" standalone="no"?>
<!DOCTYPE svg PUBLIC "-//W3C//DTD SVG 1.1//EN" "http://www.w3.org/Graphics/SVG/1.1/DTD/svg11.dtd" >
<svg xmlns="http://www.w3.org/2000/svg" xmlns:xlink="http://www.w3.org/1999/xlink" version="1.1">
<metadata>
Created by FontForge 20201107 at Wed Jun 13 18:11:32 2007
 By Jimmy Wärting
Copyright 1985, 1987, 1990, 1994, 2001, 2002 Adobe Systems Incorporated. All rights reserved. Friz Quadrata
</metadata>
<defs>
<font id="FrizQuadrataStd-Bold" horiz-adv-x="600" >
  <font-face 
    font-family="Friz Quadrata Std"
    font-weight="700"
    font-stretch="normal"
    units-per-em="1000"
    panose-1="2 14 9 2 4 5 4 2 4 4"
    ascent="674"
    descent="-326"
    x-height="460"
    cap-height="658"
    bbox="-129 -250 1155 879"
    underline-thickness="50"
    underline-position="-100"
    stemh="96"
    stemv="173"
    unicode-range="U+0020-FB02"
  />
<missing-glyph horiz-adv-x="500" 
d="M0 0v700h500v-700h-500zM250 395l170 255h-340zM280 350l170 -255v510zM80 50h340l-170 255zM50 605v-510l170 255z" />
    <glyph glyph-name="f_i" unicode="fi" 
d="M236 368v-257c0 -47 -2 -76 35 -108v-3h-242v3c37 32 33 61 34 108v257h-64l64 92v14c0 70 8 124 70 161c57 34 127 39 191 39c68 0 223 -6 223 -102c0 -45 -32 -74 -75 -74c-37 0 -68 19 -84 51c-7 14 -8 21 -21 27c-14 8 -33 10 -49 10c-83 0 -82 -39 -82 -104v-22h234
c28 0 57 3 77 15h3v-364c0 -47 -3 -76 34 -108v-3h-241v3c37 32 34 61 34 108v257h-141z" />
    <glyph glyph-name="f_l" unicode="fl" 
d="M-1 368l66 94v10c0 59 -3 105 44 148c47 42 107 54 169 54l93 -9c31 -5 51 -8 83 -8c34 0 67 3 94 17h3v-564c0 -46 -3 -75 35 -107v-3h-243v3c38 32 35 61 35 107v410c0 15 0 56 -67 56c-71 0 -73 -40 -73 -99v-15h111v-112h-3c-24 20 -49 18 -81 18h-27v-257
c0 -47 -3 -76 34 -108v-3h-242v3c37 32 35 61 35 108v257h-66z" />
    <glyph glyph-name=".notdef" horiz-adv-x="500" 
d="M0 0v700h500v-700h-500zM250 395l170 255h-340zM280 350l170 -255v510zM80 50h340l-170 255zM50 605v-510l170 255z" />
    <glyph glyph-name="space" unicode=" " horiz-adv-x="300" 
 />
    <glyph glyph-name="exclam" unicode="!" horiz-adv-x="340" 
d="M273 658l-26 -449h-149l-25 449h200zM174 -13c-49 0 -91 43 -91 92c0 54 41 98 96 98c51 0 93 -42 93 -94c0 -54 -43 -96 -98 -96z" />
    <glyph glyph-name="quotedbl" unicode="&#x22;" horiz-adv-x="320" 
d="M50 427v231h82v-231h-82zM188 427v231h82v-231h-82z" />
    <glyph glyph-name="numbersign" unicode="#" horiz-adv-x="560" 
d="M494 294v-86h-101l-31 -208h-88l31 208h-84l-31 -208h-87l31 208h-98v86h111l14 82h-98v87h110l29 195h85l-28 -195h84l29 195h88l-29 -195h88v-87h-101l-11 -82h87zM331 376h-85l-11 -82h82z" />
    <glyph glyph-name="dollar" unicode="$" horiz-adv-x="560" 
d="M88 58l-31 127c51 -41 122 -67 187 -67c41 0 94 11 94 62c0 107 -271 85 -271 282c0 103 88 161 182 169v78h78v-78c34 -3 72 -11 108 -24v-103c-35 23 -84 41 -125 41c-34 0 -77 -16 -77 -57c0 -38 37 -51 66 -64l69 -33c76 -35 134 -84 134 -173
c0 -104 -77 -176 -175 -190v-96h-78v96c-55 1 -110 10 -161 30z" />
    <glyph glyph-name="percent" unicode="%" horiz-adv-x="820" 
d="M632 -8c-44 0 -90 26 -116 61c-29 41 -39 96 -39 146c0 96 49 203 160 203c109 0 156 -104 156 -199c0 -48 -8 -98 -35 -138c-28 -45 -73 -73 -126 -73zM634 63c49 0 54 110 54 143c0 34 -2 125 -51 125c-53 0 -55 -106 -55 -139c0 -32 3 -129 52 -129zM178 256
c-44 0 -90 25 -116 60c-29 41 -39 96 -39 146c0 96 48 204 160 204c109 0 156 -105 156 -200c0 -48 -8 -98 -34 -138c-29 -44 -74 -72 -127 -72zM180 327c49 0 54 111 54 144s-2 124 -51 124c-53 0 -55 -106 -55 -139c0 -32 3 -129 52 -129zM643 658l-378 -658h-88l376 658
h90z" />
    <glyph glyph-name="ampersand" unicode="&#x26;" horiz-adv-x="820" 
d="M374 393l100 -100c111 -110 232 -213 372 -282v-3l-170 -13c-85 0 -148 15 -211 75c-55 -65 -123 -83 -206 -83c-55 0 -110 11 -156 42c-50 33 -81 84 -81 145c0 88 78 155 145 201c-36 41 -79 92 -79 150c0 105 99 145 190 145c40 0 79 -6 114 -28
c38 -24 64 -63 64 -109c0 -64 -37 -100 -82 -140zM398 136l-153 157c-28 -23 -41 -55 -41 -91c0 -63 41 -113 106 -113c36 0 67 18 88 47zM296 468c18 15 37 33 37 58s-20 45 -45 45c-20 0 -37 -13 -37 -34c0 -24 29 -51 45 -69z" />
    <glyph glyph-name="quoteright" unicode="&#x2019;" horiz-adv-x="280" 
d="M47 419l21 17c25 20 52 41 70 70c-44 -2 -80 31 -80 75c0 42 38 77 78 77c50 0 84 -41 84 -89c0 -46 -27 -83 -57 -114c-15 -16 -42 -46 -67 -46c-16 0 -34 3 -49 10z" />
    <glyph glyph-name="parenleft" unicode="(" horiz-adv-x="280" 
d="M272 -121h-81c-88 112 -134 255 -134 397c0 137 49 290 134 398h81c-64 -118 -98 -259 -98 -393c0 -140 33 -278 98 -402z" />
    <glyph glyph-name="parenright" unicode=")" horiz-adv-x="280" 
d="M12 674h81c85 -108 134 -261 134 -398c0 -142 -46 -285 -134 -397h-81c65 124 98 262 98 402c0 134 -33 275 -98 393z" />
    <glyph glyph-name="asterisk" unicode="*" horiz-adv-x="420" 
d="M155 495l12 15l-1 7c-19 6 -40 9 -60 9c-13 0 -25 -2 -38 -5l33 93c20 -25 48 -38 78 -48l6 3c0 31 -7 63 -26 89h100c-19 -24 -23 -57 -23 -87l4 -5c31 10 62 22 78 52l33 -91l-27 2c-22 0 -43 -6 -70 -14l12 -15c21 -24 33 -36 64 -47l-80 -58c-3 32 -17 59 -36 85
l-6 2c-18 -26 -31 -55 -36 -86l-79 57c31 11 40 17 62 42z" />
    <glyph glyph-name="plus" unicode="+" 
d="M66 277h191v191h85v-191h191v-86h-191v-191h-85v191h-191v86z" />
    <glyph glyph-name="comma" unicode="," horiz-adv-x="280" 
d="M86 -125l-46 3c39 36 76 75 90 121c-48 0 -85 38 -85 85c0 52 43 93 95 93c56 0 94 -46 94 -101c0 -52 -37 -117 -69 -156c-27 -34 -35 -45 -79 -45z" />
    <glyph glyph-name="hyphen" unicode="-" horiz-adv-x="440" 
d="M160 301h119c42 0 81 4 121 15l-51 -73c-6 -8 -24 -38 -32 -43c-9 -7 -27 -5 -37 -5h-119c-42 0 -81 -4 -121 -15l51 73c6 8 24 38 32 43c9 7 27 5 37 5z" />
    <glyph glyph-name="period" unicode="." horiz-adv-x="280" 
d="M136 -13c-49 0 -91 43 -91 92c0 54 41 98 96 98c51 0 93 -42 93 -94c0 -54 -43 -96 -98 -96z" />
    <glyph glyph-name="slash" unicode="/" horiz-adv-x="440" 
d="M3 -126l316 796h117l-313 -796h-120z" />
    <glyph glyph-name="zero" unicode="0" horiz-adv-x="560" 
d="M281 -13c-80 0 -157 41 -202 108c-44 66 -62 155 -62 233c0 76 17 159 56 226c45 73 123 120 210 120c81 0 147 -36 194 -101c50 -70 66 -154 66 -238c0 -80 -16 -164 -60 -231c-45 -67 -120 -117 -202 -117zM277 107c83 0 90 184 90 241c0 56 -2 209 -85 209
c-36 0 -61 -41 -72 -71c-18 -49 -19 -116 -19 -169s7 -210 86 -210z" />
    <glyph glyph-name="one" unicode="1" horiz-adv-x="560" 
d="M375 674v-536c0 -51 -3 -108 51 -135v-3h-287v3c58 36 60 79 60 140v342l-99 26v3c105 31 204 76 272 160h3z" />
    <glyph glyph-name="two" unicode="2" horiz-adv-x="560" 
d="M59 504l42 137c54 22 118 33 176 33c97 0 209 -56 209 -166c0 -68 -45 -142 -78 -201l-117 -184l-12 -18c26 -6 52 -8 79 -8c68 0 117 18 178 48l-46 -145h-473l153 251l77 140c17 31 42 77 42 113c0 42 -32 66 -71 66c-58 0 -114 -33 -159 -66z" />
    <glyph glyph-name="three" unicode="3" horiz-adv-x="560" 
d="M129 318v89h21c63 0 140 11 140 92c0 57 -47 80 -97 80c-44 0 -97 -21 -136 -41l33 112c53 15 109 24 164 24c48 0 101 -10 143 -33c44 -25 81 -68 81 -122c0 -67 -48 -120 -111 -137c86 -19 151 -83 151 -175c0 -157 -165 -220 -298 -220c-51 0 -102 7 -152 19l-28 121
c45 -25 104 -42 155 -42c72 0 131 49 131 123c0 34 -13 63 -40 84c-33 24 -71 26 -110 26h-47z" />
    <glyph glyph-name="four" unicode="4" horiz-adv-x="560" 
d="M283 142h-308l277 516h208v-428c45 -1 79 7 113 35h3l-40 -123h-77v-10c0 -58 -2 -85 40 -129v-3h-263v3c46 31 47 70 47 121v18zM283 230v305h-2l-161 -305h163z" />
    <glyph glyph-name="five" unicode="5" horiz-adv-x="560" 
d="M76 8l-33 116c46 -26 105 -45 159 -45c78 0 137 51 137 131c0 96 -64 135 -154 135c-41 0 -82 -7 -121 -18l17 331h397v-131h-3c-39 31 -109 35 -159 35c-27 0 -55 -3 -82 -5l-6 -126c20 6 40 8 61 8c132 0 244 -80 244 -220c0 -67 -35 -132 -87 -173
c-55 -42 -125 -59 -193 -59c-60 0 -119 10 -177 21z" />
    <glyph glyph-name="six" unicode="6" horiz-adv-x="560" 
d="M495 674l-38 -83c-170 -46 -259 -158 -259 -334c0 -59 16 -171 95 -171c65 0 78 79 78 128c0 58 -21 135 -93 135c-15 0 -30 -4 -41 -10h-3l73 99l34 2c125 0 204 -95 204 -215c0 -146 -113 -238 -255 -238c-170 0 -269 116 -269 280c0 120 52 218 144 294
c86 71 200 113 330 113z" />
    <glyph glyph-name="seven" unicode="7" horiz-adv-x="560" 
d="M72 658h476l-195 -515c-9 -24 -25 -59 -25 -85c0 -24 14 -42 31 -55v-3h-259v3l226 548c-40 9 -81 12 -121 12c-68 0 -126 -11 -181 -46h-3z" />
    <glyph glyph-name="eight" unicode="8" horiz-adv-x="560" 
d="M10 179c0 78 49 131 120 155c-59 34 -100 86 -100 157c0 61 31 115 85 145c51 30 112 38 170 38c49 0 108 -8 152 -32c51 -28 89 -82 89 -142c0 -63 -39 -109 -98 -130c75 -36 124 -88 124 -176c0 -151 -133 -207 -265 -207c-62 0 -126 10 -181 39c-58 31 -96 88 -96 153
zM263 261l-62 28c-32 -19 -51 -55 -51 -92c0 -66 52 -116 119 -116c49 0 100 27 100 80c0 56 -64 80 -106 100zM328 421l24 -11c23 16 32 43 32 70c0 57 -39 105 -100 105c-37 0 -75 -20 -75 -62c0 -56 76 -83 119 -102z" />
    <glyph glyph-name="nine" unicode="9" horiz-adv-x="560" 
d="M64 -20l38 83c171 46 259 160 259 337c0 61 -15 174 -94 174c-66 0 -79 -79 -79 -129c0 -59 21 -137 93 -137c16 0 30 4 41 10h3l-73 -100l-22 -2c-53 0 -106 12 -147 50c-47 42 -69 104 -69 167c0 149 113 241 255 241c170 0 269 -117 269 -283
c0 -121 -52 -221 -144 -297c-86 -73 -200 -115 -312 -115z" />
    <glyph glyph-name="colon" unicode=":" horiz-adv-x="280" 
d="M137 250c-49 0 -91 43 -91 92c0 54 41 98 96 98c51 0 93 -42 93 -94c0 -54 -43 -96 -98 -96zM137 -13c-49 0 -91 43 -91 92c0 54 41 98 96 98c51 0 93 -42 93 -94c0 -54 -43 -96 -98 -96z" />
    <glyph glyph-name="semicolon" unicode=";" horiz-adv-x="280" 
d="M82 -125l-46 3c39 36 76 75 90 121c-48 0 -85 38 -85 85c0 52 43 93 95 93c56 0 94 -46 94 -101c0 -52 -37 -117 -69 -156c-27 -34 -35 -45 -79 -45zM132 250c-49 0 -91 43 -91 92c0 54 41 98 96 98c51 0 93 -42 93 -94c0 -54 -43 -96 -98 -96z" />
    <glyph glyph-name="less" unicode="&#x3c;" 
d="M549 74v-74l-498 199v71l498 200v-74l-414 -162z" />
    <glyph glyph-name="equal" unicode="=" 
d="M66 349h467v-86h-467v86zM66 205h467v-86h-467v86z" />
    <glyph glyph-name="greater" unicode="&#x3e;" 
d="M51 74l414 160l-414 162v74l498 -200v-71l-498 -199v74z" />
    <glyph glyph-name="question" unicode="?" horiz-adv-x="460" 
d="M249 209h-132l-3 36c0 115 124 133 124 227c0 59 -52 90 -108 90c-36 0 -74 -16 -103 -33l41 123c39 18 83 22 125 22c58 0 111 -10 158 -45c46 -35 72 -83 72 -139c0 -157 -178 -173 -178 -257c0 -7 2 -16 4 -24zM188 -13c-49 0 -91 43 -91 92c0 54 41 98 96 98
c51 0 93 -42 93 -94c0 -54 -43 -96 -98 -96z" />
    <glyph glyph-name="at" unicode="@" horiz-adv-x="780" 
d="M595 502l-89 -216c-5 -10 -15 -34 -15 -46s11 -17 23 -17c38 0 76 31 99 56c32 37 48 76 48 122c0 63 -23 111 -77 148c-49 36 -116 57 -178 57c-162 0 -295 -126 -295 -276c0 -159 136 -274 302 -274c102 0 203 40 258 123h66c-49 -130 -187 -192 -327 -192
c-97 0 -189 30 -259 91c-74 64 -117 158 -117 252s38 177 109 244c73 68 164 100 268 100c80 0 158 -20 221 -68c64 -48 106 -123 106 -201c0 -132 -108 -256 -255 -256c-33 0 -70 14 -69 49c-32 -25 -67 -46 -111 -46c-74 0 -107 52 -107 115c0 105 85 250 211 250
c29 0 51 -10 71 -28l6 13h111zM330 223c43 0 113 169 113 204c0 9 -5 16 -15 16c-53 0 -116 -157 -116 -199c0 -9 5 -21 18 -21z" />
    <glyph glyph-name="A" unicode="A" horiz-adv-x="720" 
d="M415 199h-198l-24 -68c-7 -20 -18 -51 -18 -72c0 -28 18 -41 36 -56v-3h-205v3c38 35 51 64 69 115l138 399c6 20 22 59 22 80c0 27 -18 45 -38 58v3h245l189 -515c24 -64 29 -87 86 -140v-3h-302v3c23 15 41 29 41 61c0 17 -2 22 -8 38zM382 292l-69 197h-1l-66 -197
h136z" />
    <glyph glyph-name="B" unicode="B" horiz-adv-x="580" 
d="M19 658h298c53 0 97 0 139 -33c41 -32 67 -72 67 -124c0 -67 -46 -107 -106 -127c86 -12 144 -84 144 -171c0 -62 -24 -114 -71 -155c-54 -47 -107 -48 -178 -48h-293v3c49 31 42 87 42 140v373c0 52 7 109 -42 139v3zM246 559v-153c7 -2 12 -4 19 -4c48 0 73 43 73 86
c0 39 -20 77 -63 77c-10 0 -19 -2 -29 -6zM246 316v-210c15 -10 26 -12 44 -12c65 0 91 54 91 112c0 76 -35 110 -111 110h-24z" />
    <glyph glyph-name="C" unicode="C" horiz-adv-x="660" 
d="M558 661l7 -140c-49 33 -107 52 -167 52c-137 0 -176 -110 -176 -231c0 -138 67 -250 216 -250c78 0 149 29 216 65l-50 -146c-65 -18 -132 -24 -199 -24c-102 0 -188 17 -268 86c-77 65 -118 159 -118 261c0 92 39 189 109 251c76 65 181 89 279 89z" />
    <glyph glyph-name="D" unicode="D" horiz-adv-x="680" 
d="M58 143v307c0 34 0 125 -5 154c-4 20 -19 42 -37 51v3h212c108 0 209 5 299 -58s135 -166 135 -274c0 -97 -41 -197 -118 -258c-91 -73 -191 -68 -303 -68h-225v3c49 31 42 88 42 140zM243 545v-438c18 -6 36 -8 54 -8c63 0 103 19 136 74c27 46 35 100 35 153
c0 103 -36 226 -159 226c-22 0 -44 -3 -66 -7z" />
    <glyph glyph-name="E" unicode="E" horiz-adv-x="500" 
d="M240 299v-188c33 -13 70 -15 105 -15c56 0 108 9 146 55h5l-40 -151h-443v3c49 31 42 87 42 139v374c0 52 7 109 -42 139v3h350c15 0 31 0 42 5h3v-145h-3c-27 47 -84 42 -133 42h-32v-162h93c14 0 28 1 37 5h5v-140h-5c-14 40 -60 36 -97 36h-33z" />
    <glyph glyph-name="F" unicode="F" horiz-adv-x="420" 
d="M242 300v-154c0 -58 1 -103 44 -143v-3h-271v3c49 31 42 87 42 140v373c0 52 7 109 -42 139v3h350c15 0 31 0 42 6h3v-145h-3c-27 47 -84 41 -133 41h-32v-162h73c15 0 28 1 37 5h5v-140h-5c-13 38 -54 36 -90 36z" />
    <glyph glyph-name="G" unicode="G" horiz-adv-x="620" 
d="M607 342v-324c-69 -19 -141 -31 -213 -31c-208 0 -376 118 -376 340c0 215 165 347 372 347c52 0 105 -6 155 -20v-139h-5c-34 32 -96 53 -147 53c-130 0 -186 -91 -186 -212c0 -123 43 -265 188 -265c13 0 27 0 40 3v148c0 45 -2 69 -38 97v3h210z" />
    <glyph glyph-name="H" unicode="H" horiz-adv-x="660" 
d="M239 300v-157c0 -52 -7 -109 42 -140v-3h-269v3c49 31 42 88 42 140v372c0 52 7 109 -42 140v3h269v-3c-50 -31 -42 -88 -42 -140v-114h179v114c0 52 7 109 -42 140v3h269v-3c-49 -31 -42 -88 -42 -140v-372c0 -52 -7 -109 42 -140v-3h-269v3c49 31 42 88 42 140v157
h-179z" />
    <glyph glyph-name="I" unicode="I" horiz-adv-x="300" 
d="M242 515v-373c0 -52 -7 -108 42 -139v-3h-269v3c49 31 42 87 42 139v373c0 52 7 109 -42 140v3h269v-3c-49 -31 -42 -88 -42 -140z" />
    <glyph glyph-name="J" unicode="J" horiz-adv-x="300" 
d="M59 79v436c0 52 7 109 -42 140v3h269v-3c-49 -31 -42 -88 -42 -140v-488c0 -82 -11 -125 -86 -172c-50 -31 -117 -62 -178 -64c23 30 42 64 56 99c26 65 23 121 23 189z" />
    <glyph glyph-name="K" unicode="K" horiz-adv-x="660" 
d="M404 391l203 -321c16 -26 35 -50 58 -67v-3c-231 0 -246 0 -312 114l-104 179v-150c0 -52 -7 -109 42 -140v-3h-269v3c49 31 42 88 42 140v372c0 53 7 109 -42 140v3h269v-3c-49 -31 -42 -88 -42 -140v-153l125 159c17 21 46 51 46 80c0 26 -21 43 -40 54v3h245v-3z" />
    <glyph glyph-name="L" unicode="L" horiz-adv-x="500" 
d="M243 514v-401c32 -15 69 -17 105 -17c55 0 98 11 142 44l-38 -140h-436v3c49 31 42 87 42 139v373c0 52 7 109 -42 140v3h269v-3c-49 -31 -42 -88 -42 -141z" />
    <glyph glyph-name="M" unicode="M" horiz-adv-x="880" 
d="M445 272l116 383v3h239v-3c-24 -22 -39 -32 -35 -68l47 -433c6 -56 11 -112 55 -151v-3h-264v3c17 17 35 44 32 71l-36 351h-3l-130 -436c-34 8 -66 27 -95 46c-47 31 -59 73 -78 124l-98 266h-3l-34 -345c-3 -34 15 -62 44 -77v-3h-197v3c44 36 46 86 52 140l48 420
c4 38 -11 68 -38 92v3h230v-3z" />
    <glyph glyph-name="N" unicode="N" horiz-adv-x="700" 
d="M633 512v-533c-35 0 -90 25 -120 40c-74 37 -93 71 -142 135l-192 256h-3v-264c0 -58 1 -102 44 -143v-3h-193v3c44 41 45 85 45 143v345c0 77 -4 104 -58 164v3h208v-3l307 -402v259c0 58 -1 102 -44 143v3h192v-3c-43 -41 -44 -85 -44 -143z" />
    <glyph glyph-name="O" unicode="O" horiz-adv-x="780" 
d="M25 331c0 213 173 343 376 343c210 0 364 -122 364 -342c0 -218 -173 -345 -376 -345c-205 0 -364 133 -364 344zM219 358c0 -58 19 -135 47 -185c28 -48 78 -86 135 -86c53 0 101 27 133 70c30 40 37 91 37 140c0 114 -45 277 -182 277c-118 0 -170 -113 -170 -216z" />
    <glyph glyph-name="P" unicode="P" horiz-adv-x="520" 
d="M233 559v-414c0 -57 1 -102 44 -142v-3h-267v3c49 31 42 88 42 140v372c0 52 7 109 -42 140v3h236c56 0 129 1 179 -24c61 -30 95 -88 95 -156c0 -142 -120 -197 -245 -197c-12 0 -24 0 -36 2c62 26 97 79 97 146c0 71 -25 127 -103 130z" />
    <glyph glyph-name="Q" unicode="Q" horiz-adv-x="720" 
d="M417 -8l-64 -5c-196 0 -328 160 -328 346c0 203 151 341 353 341c91 0 172 -26 237 -91c64 -64 99 -158 99 -248c0 -102 -40 -206 -119 -273c72 -70 154 -150 261 -157c-43 -37 -113 -66 -170 -66c-96 0 -199 94 -269 153zM388 86c111 0 141 109 141 199
c0 60 -11 125 -34 180c-26 61 -61 110 -134 110c-114 0 -148 -103 -148 -199c0 -106 37 -290 175 -290z" />
    <glyph glyph-name="R" unicode="R" horiz-adv-x="620" 
d="M240 282v-139c0 -52 -7 -109 42 -140v-3h-269v3c49 31 42 88 42 140v372c0 52 7 109 -42 140v3h296c49 0 89 1 134 -23c59 -32 89 -85 89 -152c0 -75 -53 -130 -119 -158l119 -199c27 -45 56 -87 96 -120l-138 -9c-67 -4 -99 5 -134 67zM250 561h-10v-226
c62 11 108 64 108 127c0 32 -13 66 -40 85c-17 12 -38 14 -58 14z" />
    <glyph glyph-name="S" unicode="S" horiz-adv-x="520" 
d="M43 23l-33 144c56 -46 138 -78 210 -78c45 0 106 15 106 71c0 122 -305 97 -305 321c0 57 28 112 74 145c51 36 113 48 174 48c56 0 116 -10 168 -30v-117c-42 27 -91 47 -141 47c-39 0 -87 -17 -87 -64c0 -48 58 -67 95 -83c48 -21 93 -40 133 -75
c48 -42 74 -87 74 -151c0 -65 -27 -123 -80 -162c-59 -43 -123 -52 -194 -52c-66 0 -132 12 -194 36z" />
    <glyph glyph-name="T" unicode="T" horiz-adv-x="500" 
d="M336 545v-400c0 -57 1 -102 44 -142v-3h-271v3c49 31 42 88 42 140v402c-17 4 -32 4 -50 4c-46 0 -75 -11 -113 -37l-7 -5l39 154l19 -3h464l-34 -151c-15 34 -46 44 -82 44c-18 0 -34 -1 -51 -6z" />
    <glyph glyph-name="U" unicode="U" horiz-adv-x="680" 
d="M427 0v81c-39 -57 -100 -94 -174 -94c-54 0 -107 17 -146 57c-44 46 -47 95 -47 156v315c0 52 7 109 -42 140v3h266v-3c-49 -31 -42 -88 -42 -140v-273c0 -39 -2 -77 22 -110c15 -20 40 -31 65 -31c91 0 98 107 98 174v240c0 52 7 109 -42 140v3h267v-3
c-49 -31 -42 -88 -42 -140v-372c0 -52 -7 -109 42 -140v-3h-225z" />
    <glyph glyph-name="V" unicode="V" horiz-adv-x="640" 
d="M379 169l118 362c6 18 14 39 14 58c0 33 -19 51 -44 66v3h179v-3l-231 -676c-43 14 -88 27 -126 50c-55 33 -70 61 -92 120l-152 419c-12 35 -23 62 -49 87v3h226v-3l-1 -5c0 -28 22 -86 31 -113z" />
    <glyph glyph-name="W" unicode="W" horiz-adv-x="960" 
d="M485 386l-104 -397c-35 4 -75 21 -105 39c-64 38 -77 76 -97 144l-109 374c-13 45 -29 80 -65 109v3h217v-1l122 -455h3l70 274c5 20 15 56 15 76c0 30 -21 84 -45 103v3h210v-3c-2 -4 -4 -11 -4 -17c0 -38 12 -72 23 -108l96 -328h3l84 298c7 24 17 55 17 80
c0 30 -15 55 -34 75v3h169v-3l-205 -668c-36 8 -71 24 -103 42c-51 28 -68 62 -84 115z" />
    <glyph glyph-name="X" unicode="X" horiz-adv-x="660" 
d="M430 356l127 -210c31 -51 61 -106 108 -143v-3h-235v3l-143 253l-82 -128c-10 -18 -23 -36 -23 -58c0 -26 11 -53 31 -67v-3h-221v3l237 341l-125 216c-23 40 -42 72 -80 95v3h235v-3l115 -209l50 77c14 21 33 53 33 79c0 22 -17 46 -37 53v3h219v-3z" />
    <glyph glyph-name="Y" unicode="Y" horiz-adv-x="560" 
d="M389 298v-152c0 -58 1 -102 44 -143v-3h-271v3c49 31 42 89 42 141v154l-149 280c-17 32 -33 59 -63 77v3h232v-3l116 -236l56 114c9 18 23 48 23 69c0 27 -10 41 -31 53v3h180v-3z" />
    <glyph glyph-name="Z" unicode="Z" 
d="M555 658l-296 -553l121 -9c88 0 137 16 212 62l-56 -158h-538l298 559l-79 5c-67 0 -115 -16 -174 -48l53 142h459z" />
    <glyph glyph-name="bracketleft" unicode="[" horiz-adv-x="300" 
d="M194 608v-663h72v-66h-220c37 31 34 75 34 119v559c0 42 2 88 -34 117h220v-66h-72z" />
    <glyph glyph-name="backslash" unicode="\" horiz-adv-x="580" 
d="M191 670l316 -796h-120l-313 796h117z" />
    <glyph glyph-name="bracketright" unicode="]" horiz-adv-x="300" 
d="M102 -55v663h-72v66h220c-36 -29 -34 -75 -34 -117v-559c0 -44 -3 -88 34 -119h-220v66h72z" />
    <glyph glyph-name="asciicircum" unicode="^" 
d="M114 160h-83l226 498h82l230 -498h-83l-189 408z" />
    <glyph glyph-name="underscore" unicode="_" horiz-adv-x="500" 
d="M0 -75h500v-50h-500v50z" />
    <glyph glyph-name="quoteleft" unicode="&#x2018;" horiz-adv-x="280" 
d="M232 648l-21 -17c-25 -20 -52 -41 -70 -70c44 2 80 -31 80 -75c0 -42 -38 -77 -78 -77c-50 0 -84 41 -84 89c0 46 27 83 57 114c15 16 42 46 67 46c16 0 34 -3 49 -10z" />
    <glyph glyph-name="a" unicode="a" horiz-adv-x="520" 
d="M532 77l-41 -87l-40 -3c-51 0 -98 11 -136 46c-47 44 -43 90 -43 149v33l-32 -15c-25 -12 -57 -27 -57 -60c0 -35 25 -65 61 -65c7 0 13 1 20 2l-43 -87l-51 -3c-34 0 -78 6 -107 24c-40 24 -66 71 -66 117c0 185 275 124 275 208c0 31 -39 42 -64 42
c-41 0 -89 -14 -126 -33l47 114c41 11 83 14 126 14c47 0 100 -9 139 -38c50 -38 55 -96 55 -154v-80c0 -67 -3 -122 83 -124z" />
    <glyph glyph-name="b" unicode="b" 
d="M227 674v-590c10 -3 20 -5 30 -5c87 0 119 68 119 146c0 84 -34 154 -125 158l47 85c15 5 30 6 46 6c54 0 115 -25 153 -64c41 -41 63 -104 63 -162c0 -77 -30 -148 -91 -198c-63 -51 -142 -63 -222 -63c-72 0 -147 11 -217 27v3c25 22 24 41 24 75v456
c-1 46 3 75 -34 107v3h132c28 0 50 0 72 16h3z" />
    <glyph glyph-name="c" unicode="c" horiz-adv-x="500" 
d="M429 463v-115h-3c-30 20 -62 33 -102 33c-29 0 -58 -12 -76 -35c-22 -28 -26 -66 -26 -99c0 -41 13 -93 42 -125c22 -26 58 -35 91 -35c46 0 98 20 132 47h3l-32 -109c-53 -26 -113 -38 -172 -38c-138 0 -257 91 -257 236c0 165 128 250 282 250c39 0 79 -7 118 -10z" />
    <glyph glyph-name="d" unicode="d" 
d="M360 0v281c0 21 1 41 -12 61c-12 19 -32 29 -54 29c-70 0 -83 -81 -83 -136c0 -39 6 -83 32 -114c18 -22 48 -37 77 -37h14l-47 -85c-13 -6 -27 -6 -41 -6c-129 0 -220 110 -220 235c0 128 84 246 221 246c40 0 77 -12 113 -34v108c-3 47 1 76 -36 107v3h121
c33 0 58 0 85 16h3v-528c0 -58 0 -103 44 -143v-3h-217z" />
    <glyph glyph-name="e" unicode="e" horiz-adv-x="540" 
d="M515 131l-39 -113c-48 -21 -104 -31 -157 -31c-68 0 -144 8 -200 49c-64 46 -91 121 -91 196c0 140 106 241 245 241c158 0 234 -91 237 -245h-310c0 -86 58 -148 147 -148c56 0 118 25 168 51zM200 313h140c0 39 -19 73 -67 73c-44 0 -68 -33 -73 -73z" />
    <glyph glyph-name="f" unicode="f" horiz-adv-x="340" 
d="M235 367v-256c1 -48 -1 -77 35 -108v-3h-242v3c37 31 33 60 34 108v256h-67l67 96v13c0 62 7 110 57 151c47 39 99 47 156 47c47 0 86 -2 121 -14l-67 -102c-13 10 -24 17 -41 17c-58 0 -53 -49 -53 -91v-21h113v-116h-3c-24 24 -45 20 -82 20h-28z" />
    <glyph glyph-name="g" unicode="g" horiz-adv-x="520" 
d="M533 468l-45 -93h-46c24 -22 37 -54 37 -87c0 -48 -26 -86 -63 -114c-40 -30 -100 -45 -148 -45c-13 0 -50 -3 -50 -22c0 -8 9 -12 16 -12l103 6c41 0 91 -7 127 -27c43 -24 72 -69 72 -119c0 -64 -45 -111 -101 -135c-53 -22 -126 -27 -183 -27c-47 0 -100 3 -145 15
c-46 13 -98 43 -98 97c0 56 52 87 103 87c26 0 52 -4 75 -17c-23 -4 -38 -17 -38 -42c0 -48 55 -56 93 -56c48 0 114 16 108 74c-2 19 -13 36 -26 50c-18 20 -45 23 -71 23c-27 0 -54 -5 -81 -5c-24 0 -42 8 -57 28c-10 12 -29 43 -29 60s27 23 38 27l28 11
c-69 25 -119 74 -119 152c0 116 105 176 210 176c26 0 53 -5 78 -11zM193 307c0 -37 14 -89 60 -89c43 0 59 35 59 72c0 39 -13 94 -61 94c-44 0 -58 -39 -58 -77z" />
    <glyph glyph-name="h" unicode="h" horiz-adv-x="580" 
d="M228 674v-243c33 33 81 42 125 42c55 0 104 -16 141 -58c34 -38 28 -92 28 -140v-165c0 -47 -3 -76 35 -107v-3h-243v3c38 31 35 60 35 107v157c0 22 2 51 -8 71s-31 31 -53 31c-25 0 -49 -14 -56 -40c-6 -21 -4 -49 -4 -71v-148c1 -47 -3 -76 34 -107v-3h-241v3
c37 31 34 60 34 107v438c0 47 3 76 -34 107v3h133c27 0 49 3 71 16h3z" />
    <glyph glyph-name="i" unicode="i" horiz-adv-x="280" 
d="M19 460h136c27 0 49 3 68 15h3v-365c0 -46 -3 -75 35 -107v-3h-243v3c38 32 35 61 35 107v240c0 47 3 76 -34 107v3zM130 480c-49 0 -91 44 -91 92c0 54 40 99 95 99c52 0 94 -43 94 -94c0 -55 -44 -97 -98 -97z" />
    <glyph glyph-name="j" unicode="j" horiz-adv-x="260" 
d="M7 460h137c30 0 52 1 75 15h3v-451c0 -67 7 -136 -57 -178c-51 -33 -129 -58 -191 -57l5 5c72 77 70 97 70 199v325c0 52 7 108 -42 139v3zM126 480c-49 0 -91 44 -91 92c0 54 40 99 95 99c52 0 94 -43 94 -94c0 -55 -44 -97 -98 -97z" />
    <glyph glyph-name="k" unicode="k" horiz-adv-x="560" 
d="M225 674v-412l80 92c14 16 31 30 31 52c0 23 -19 43 -37 51v3h231v-3l-155 -172l132 -206c19 -30 38 -59 67 -76v-3c-57 0 -115 -5 -172 -5c-46 0 -64 30 -85 66l-92 152v-102c0 -47 -2 -76 35 -108v-3h-243v3c38 32 34 61 35 108v437c-1 46 3 75 -35 107v3h139
c24 0 46 5 66 16h3z" />
    <glyph glyph-name="l" unicode="l" horiz-adv-x="280" 
d="M18 658h112c35 0 62 5 90 16h3v-564c0 -46 -3 -75 34 -107v-3h-241v3c37 32 34 61 34 107v437c0 50 3 73 -32 108v3z" />
    <glyph glyph-name="m" unicode="m" horiz-adv-x="840" 
d="M224 475v-60c29 39 70 58 121 58c48 0 89 -20 120 -58c38 42 90 58 146 58c43 0 88 -11 122 -38c43 -34 51 -72 51 -124v-201c0 -46 -3 -75 35 -107v-3h-242v3c37 32 34 60 34 107v165c0 40 5 94 -52 94c-58 0 -55 -56 -55 -94v-165c0 -46 -3 -75 35 -107v-3h-242v3
c37 32 34 60 34 107v150c0 42 7 109 -54 109c-62 0 -53 -68 -53 -109v-150c0 -46 -3 -75 35 -107v-3h-242v3c37 32 34 60 34 107v240c0 47 3 76 -34 107v3h139c22 0 45 5 65 15h3z" />
    <glyph glyph-name="n" unicode="n" horiz-adv-x="580" 
d="M225 475v-55c29 37 72 53 123 53c54 0 104 -14 141 -57s34 -88 34 -141v-165c0 -47 -3 -76 35 -107v-3h-243v3c38 31 35 60 35 107v169c0 22 0 45 -14 64c-11 18 -31 28 -52 28c-17 0 -35 -9 -45 -23c-15 -19 -14 -47 -14 -69v-169c0 -47 -3 -76 35 -107v-3h-243v3
c38 31 35 60 35 107v240c0 46 3 75 -35 107v3h134c24 0 45 4 71 15h3z" />
    <glyph glyph-name="o" unicode="o" horiz-adv-x="580" 
d="M281 -13c-143 0 -252 91 -252 239c0 153 110 247 260 247c64 0 126 -15 175 -57c52 -43 83 -112 83 -180c0 -158 -114 -249 -266 -249zM293 80c76 0 86 76 86 135c0 62 -13 162 -94 162c-71 0 -88 -66 -88 -125c0 -67 8 -172 96 -172z" />
    <glyph glyph-name="p" unicode="p" 
d="M224 475v-63c29 42 78 61 128 61c137 0 212 -104 212 -235c0 -62 -19 -129 -59 -177c-47 -58 -108 -75 -180 -75l-43 4l-36 93c10 -2 20 -4 31 -4c86 0 100 73 100 144c0 52 -11 147 -82 147c-72 0 -71 -65 -71 -118v-350c1 -47 -3 -76 35 -107v-3h-242v3
c37 31 34 60 34 107v448c0 46 3 75 -34 107v3h136c25 0 48 3 68 15h3z" />
    <glyph glyph-name="q" unicode="q" 
d="M368 -98v455c-16 8 -34 9 -52 9c-74 0 -105 -70 -105 -135c0 -75 36 -162 125 -154l-46 -84c-14 -4 -29 -6 -44 -6c-134 0 -218 101 -218 231c0 74 31 142 90 189c57 47 117 53 188 53h269v-3c-37 -31 -33 -60 -34 -107v-448c1 -46 -3 -75 34 -107v-3h-241v3
c37 32 34 61 34 107z" />
    <glyph glyph-name="r" unicode="r" horiz-adv-x="360" 
d="M228 475v-73c15 46 57 71 108 71l37 -3v-122c-17 4 -35 8 -52 8c-30 0 -58 -11 -79 -34c-17 -19 -14 -36 -14 -61v-151c0 -46 -3 -76 34 -107v-3h-241v3c37 31 34 60 34 107v240c0 46 3 76 -34 107v3h140c23 0 45 4 64 15h3z" />
    <glyph glyph-name="s" unicode="s" horiz-adv-x="480" 
d="M38 10l-22 115c53 -32 114 -55 177 -55c28 0 71 7 71 44c0 67 -239 71 -239 206c0 54 28 95 74 121c46 27 100 32 152 32s104 -7 155 -19v-104c-38 25 -83 39 -128 39c-20 0 -59 -5 -59 -32c0 -31 33 -39 57 -46c36 -11 77 -22 109 -43c42 -27 76 -66 76 -117
c0 -134 -149 -164 -255 -164c-56 0 -113 11 -168 23z" />
    <glyph glyph-name="t" unicode="t" horiz-adv-x="320" 
d="M38 155v213h-60v69c86 7 156 82 164 166h69v-143h111v-122h-3c-27 31 -41 29 -83 29h-25v-187c0 -36 -1 -62 31 -83c24 -16 53 -17 80 -18l-44 -85c-26 -2 -53 -7 -79 -7c-41 0 -93 11 -125 39c-38 34 -36 82 -36 129z" />
    <glyph glyph-name="u" unicode="u" horiz-adv-x="580" 
d="M230 475v-257c0 -44 -10 -128 56 -128c18 0 37 7 47 22c16 24 14 50 14 76v162c0 47 2 76 -35 107v3h137c26 0 48 3 68 15h3v-365c1 -47 -3 -76 34 -107v-3h-207v53c-33 -45 -78 -66 -137 -66c-39 0 -82 11 -113 38c-40 35 -40 81 -40 131v194c0 47 2 76 -35 107v3h138
c26 0 48 3 67 15h3z" />
    <glyph glyph-name="v" unicode="v" horiz-adv-x="460" 
d="M261 184l58 159c8 20 18 43 18 65s-8 36 -23 49v3h143l-185 -484c-20 2 -40 12 -57 22c-75 40 -85 60 -114 137l-83 222c-15 40 -26 71 -57 100v3h124c25 0 50 -2 68 15h3z" />
    <glyph glyph-name="w" unicode="w" horiz-adv-x="800" 
d="M298 198l60 168c-5 37 -23 72 -53 91v3h199l88 -261l49 132c7 17 18 45 18 62c0 23 -14 51 -30 64v3h158l-184 -476c-33 7 -86 28 -110 49c-32 28 -56 115 -69 153l-18 53l-102 -255c-31 10 -62 20 -90 38c-32 21 -37 29 -50 63l-90 240c-17 46 -33 96 -67 132v3h116
c30 0 54 0 78 15h3z" />
    <glyph glyph-name="x" unicode="x" horiz-adv-x="520" 
d="M339 262l113 -184c18 -28 35 -57 62 -75v-3h-220v3c-10 28 -27 57 -43 85l-36 63l-39 -58c-10 -14 -21 -29 -21 -46c0 -18 12 -34 23 -44v-3h-176v3l167 227l-95 150c-19 30 -35 60 -65 77v3h218v-3c5 -39 25 -79 62 -120l11 15c14 19 34 44 34 70c0 14 -9 28 -19 35v3
h165v-3z" />
    <glyph glyph-name="y" unicode="y" horiz-adv-x="480" 
d="M290 190l56 160c6 17 13 39 13 58c0 22 -10 36 -24 49v3h147v-3l-188 -494c-24 -65 -41 -108 -106 -143c-46 -23 -99 -28 -150 -28l-45 3l79 100c7 -2 14 -4 22 -4c75 0 105 55 123 119c-43 28 -64 60 -84 108l-104 248c-15 35 -33 72 -64 91v3h220v-3
c3 -17 12 -35 19 -54l9 -23z" />
    <glyph glyph-name="z" unicode="z" horiz-adv-x="480" 
d="M-7 0l215 367c-20 5 -40 7 -60 7c-44 0 -76 -5 -115 -24l36 110h387l-208 -364c29 -7 59 -10 90 -10c48 0 100 4 144 26l-40 -112h-449z" />
    <glyph glyph-name="braceleft" unicode="{" horiz-adv-x="300" 
d="M198 159v-173c0 -58 14 -88 71 -107c-46 0 -85 -4 -125 24c-35 24 -38 60 -38 100v172c0 29 1 49 -19 73c-14 16 -33 27 -54 31c62 15 73 44 73 104v151c0 38 1 81 28 109c34 35 91 33 135 31c-54 -16 -71 -50 -71 -105v-162c0 -66 -10 -113 -80 -128
c67 -16 80 -55 80 -120z" />
    <glyph glyph-name="bar" unicode="|" 
d="M257 750h85v-1000h-85v1000z" />
    <glyph glyph-name="braceright" unicode="}" horiz-adv-x="300" 
d="M197 175v-172c0 -40 -3 -76 -38 -100c-40 -28 -79 -24 -125 -24c57 19 71 49 71 107v173c0 65 13 104 80 120c-70 15 -80 62 -80 128v162c0 55 -17 89 -71 105c44 2 101 4 135 -31c27 -28 28 -71 28 -109v-151c0 -60 11 -89 73 -104c-21 -4 -40 -15 -54 -31
c-20 -24 -19 -44 -19 -73z" />
    <glyph glyph-name="asciitilde" unicode="~" 
d="M496 314l67 -42c-39 -54 -76 -110 -150 -110c-35 0 -63 11 -96 23l-42 16c-23 9 -55 23 -80 23c-48 0 -69 -42 -92 -77l-66 43c36 58 80 116 155 116c79 0 167 -62 221 -62c40 0 63 41 83 70z" />
    <glyph glyph-name="exclamdown" unicode="&#xa1;" horiz-adv-x="340" 
d="M72 -198l26 449h149l25 -449h-200zM171 473c49 0 91 -43 91 -92c0 -54 -41 -98 -96 -98c-51 0 -93 42 -93 94c0 54 43 96 98 96z" />
    <glyph glyph-name="cent" unicode="&#xa2;" horiz-adv-x="560" 
d="M480 219l-5 -97c-31 -10 -63 -20 -95 -22v-99h-76v99c-129 4 -224 110 -224 238c0 125 97 233 224 240v79h76v-79c32 -1 64 -7 95 -15v-102c-34 19 -74 27 -113 27c-93 0 -115 -69 -115 -149s18 -149 112 -149c37 0 89 11 121 29z" />
    <glyph glyph-name="sterling" unicode="&#xa3;" horiz-adv-x="560" 
d="M287 408h143v-80h-106c21 -40 45 -79 45 -125c0 -20 -6 -40 -12 -59c27 -7 55 -13 83 -13c35 0 68 9 91 37v-162c-34 -14 -60 -18 -96 -18c-57 0 -99 18 -149 41c-33 -29 -83 -41 -126 -41c-58 0 -131 30 -131 98c0 70 58 111 124 111c29 0 54 -7 80 -19
c0 32 -19 63 -36 89l-41 61h-103v80h60c-11 24 -16 50 -16 76c0 55 37 112 82 143c49 33 114 44 172 44c46 0 92 -7 134 -24v-116h-3c-37 24 -64 40 -105 40c-60 0 -104 -42 -104 -102c0 -21 5 -43 14 -61zM202 85c-12 12 -35 20 -51 20c-12 0 -30 -5 -30 -19
c0 -15 20 -20 31 -20c18 0 38 6 50 19z" />
    <glyph glyph-name="fraction" unicode="&#x2044;" horiz-adv-x="200" 
d="M341 658l-375 -658h-95l376 658h94z" />
    <glyph glyph-name="yen" unicode="&#xa5;" horiz-adv-x="560" 
d="M218 122v100h-172v75h166l-34 66h-132v75h94l-50 106c-20 41 -45 85 -81 111v3h198l117 -251l58 133c8 18 20 46 20 66c0 23 -16 37 -32 49v3h181l-105 -220h97v-75h-134l-32 -66h166v-75h-173v-101c0 -53 6 -81 44 -118v-3h-241v3c45 31 45 67 45 119z" />
    <glyph glyph-name="florin" unicode="&#x192;" horiz-adv-x="560" 
d="M189 111l54 308h-81l13 73h81l4 25c10 55 20 114 59 156c41 43 105 63 162 63c53 0 106 -13 152 -41l-99 -79c-12 12 -26 19 -43 19c-62 0 -67 -70 -76 -117l-4 -26h82l-13 -73h-82l-56 -313c-11 -60 -17 -116 -59 -164c-42 -49 -116 -80 -180 -80c-71 0 -126 27 -177 73
l112 63c15 -23 33 -35 61 -35c31 0 55 16 66 45c12 31 18 70 24 103z" />
    <glyph glyph-name="section" unicode="&#xa7;" horiz-adv-x="500" 
d="M427 646v-161c-46 36 -86 69 -148 69c-20 0 -66 -5 -66 -33c0 -10 3 -15 10 -20c16 -13 36 -22 54 -32c43 -21 86 -44 124 -73c42 -31 62 -74 62 -125c0 -49 -18 -81 -46 -120c22 -27 31 -60 31 -94c0 -60 -28 -115 -74 -152c-47 -38 -106 -52 -165 -52
c-60 0 -119 15 -172 37v161c48 -33 104 -68 167 -68c34 0 91 17 91 59c0 73 -258 99 -258 259c0 49 22 93 56 128c-22 25 -29 59 -29 91c0 110 107 154 201 154c55 0 110 -10 162 -28zM259 316l-32 18l-35 20c-3 -9 -8 -18 -8 -28c0 -44 105 -79 135 -103c3 7 4 13 4 21
c0 38 -35 56 -64 72z" />
    <glyph glyph-name="currency" unicode="&#xa4;" horiz-adv-x="560" 
d="M53 169l40 40c-22 39 -34 72 -34 117s11 83 34 120l-40 40l70 72l41 -41c34 22 77 35 118 35c43 0 86 -12 122 -35l41 41l69 -72l-41 -40c24 -36 35 -75 35 -119c0 -41 -11 -84 -35 -118l41 -40l-69 -71l-41 40c-36 -21 -75 -35 -118 -35s-86 11 -122 35l-41 -40z
M287 415c-50 0 -91 -37 -91 -89c0 -50 41 -86 91 -86c47 0 84 42 84 88c0 45 -37 87 -84 87z" />
    <glyph glyph-name="quotesingle" unicode="'" horiz-adv-x="200" 
d="M141 427h-82v231h82v-231z" />
    <glyph glyph-name="quotedblleft" unicode="&#x201c;" horiz-adv-x="500" 
d="M445 648l-21 -17c-25 -20 -52 -41 -70 -70c44 2 80 -31 80 -75c0 -42 -38 -77 -78 -77c-50 0 -84 41 -84 89c0 46 27 83 57 114c15 16 42 46 67 46c16 0 34 -3 49 -10zM233 648l-21 -17c-25 -20 -52 -41 -70 -70c44 2 80 -31 80 -75c0 -42 -38 -77 -78 -77
c-50 0 -84 41 -84 89c0 46 27 83 57 114c15 16 42 46 67 46c16 0 34 -3 49 -10z" />
    <glyph glyph-name="guillemotleft" unicode="&#xab;" horiz-adv-x="520" 
d="M180 248l89 -140h-92l-118 140l118 142h92zM363 248l89 -140h-92l-118 140l118 142h92z" />
    <glyph glyph-name="guilsinglleft" unicode="&#x2039;" horiz-adv-x="320" 
d="M180 246l89 -138h-92l-118 140l118 142h92z" />
    <glyph glyph-name="guilsinglright" unicode="&#x203a;" horiz-adv-x="320" 
d="M269 248l-118 -140h-92l89 140l-89 142h92z" />
    <glyph glyph-name="fi" unicode="&#xfb01;" 
d="M236 368v-257c0 -47 -2 -76 35 -108v-3h-242v3c37 32 33 61 34 108v257h-64l64 92v14c0 70 8 124 70 161c57 34 127 39 191 39c68 0 223 -6 223 -102c0 -45 -32 -74 -75 -74c-37 0 -68 19 -84 51c-7 14 -8 21 -21 27c-14 8 -33 10 -49 10c-83 0 -82 -39 -82 -104v-22h234
c28 0 57 3 77 15h3v-364c0 -47 -3 -76 34 -108v-3h-241v3c37 32 34 61 34 108v257h-141z" />
    <glyph glyph-name="fl" unicode="&#xfb02;" 
d="M-1 368l66 94v10c0 59 -3 105 44 148c47 42 107 54 169 54l93 -9c31 -5 51 -8 83 -8c34 0 67 3 94 17h3v-564c0 -46 -3 -75 35 -107v-3h-243v3c38 32 35 61 35 107v410c0 15 0 56 -67 56c-71 0 -73 -40 -73 -99v-15h111v-112h-3c-24 20 -49 18 -81 18h-27v-257
c0 -47 -3 -76 34 -108v-3h-242v3c37 32 35 61 35 108v257h-66z" />
    <glyph glyph-name="endash" unicode="&#x2013;" horiz-adv-x="500" 
d="M70 301h359c42 0 81 4 121 15l-51 -73c-6 -8 -24 -38 -32 -43c-9 -7 -27 -5 -37 -5h-359c-42 0 -81 -4 -121 -15l51 73c6 8 24 38 32 43c9 7 27 5 37 5z" />
    <glyph glyph-name="dagger" unicode="&#x2020;" horiz-adv-x="580" 
d="M350 358v-363c0 -45 -5 -95 24 -130v-3h-163v3c29 35 26 85 26 130v363h-70c-46 0 -81 0 -119 -26h-3v155h3c35 -22 77 -22 120 -22h69v77c0 39 -1 83 -26 113v3h163v-3c-24 -34 -24 -70 -24 -113v-77h70c44 0 78 4 117 22h3v-155h-3c-36 23 -73 26 -117 26h-70z" />
    <glyph glyph-name="daggerdbl" unicode="&#x2021;" horiz-adv-x="580" 
d="M350 104v-109c0 -45 -5 -96 24 -130v-3h-163v3c29 35 26 84 26 130v109h-69c-46 0 -81 0 -120 -24h-3v155h3c35 -25 83 -25 126 -25h63v149h-70c-46 0 -81 0 -119 -26h-3v154h3c35 -22 77 -22 120 -22h69v77c0 39 -1 83 -26 113v3h163v-3c-24 -34 -24 -70 -24 -113v-77
h70c44 0 78 4 117 22h3v-154h-3c-36 23 -73 26 -117 26h-70v-149h69c45 0 80 2 118 25h3v-155h-3c-30 21 -82 24 -120 24h-67z" />
    <glyph glyph-name="periodcentered" unicode="&#xb7;" horiz-adv-x="280" 
d="M136 139c-49 0 -91 43 -91 92c0 54 41 98 96 98c51 0 93 -42 93 -94c0 -55 -43 -96 -98 -96z" />
    <glyph glyph-name="paragraph" unicode="&#xb6;" horiz-adv-x="540" 
d="M377 564h-68v-677h-127v3c37 31 33 60 34 107v298c-100 -3 -183 82 -183 181c0 57 22 107 67 142c49 39 90 40 149 40h255v-3c-37 -31 -33 -60 -34 -107v-551c1 -47 -3 -76 34 -107v-3h-127v677z" />
    <glyph glyph-name="bullet" unicode="&#x2022;" horiz-adv-x="380" 
d="M185 199c-73 0 -137 66 -137 139c0 81 61 147 144 147c77 0 140 -63 140 -141c0 -82 -65 -145 -147 -145z" />
    <glyph glyph-name="quotesinglbase" unicode="&#x201a;" horiz-adv-x="280" 
d="M48 -91l21 17c25 20 52 41 70 70c-44 -2 -80 31 -80 75c0 42 38 77 78 77c50 0 84 -41 84 -89c0 -46 -27 -83 -57 -114c-15 -16 -42 -46 -67 -46c-16 0 -34 3 -49 10z" />
    <glyph glyph-name="quotedblbase" unicode="&#x201e;" horiz-adv-x="500" 
d="M260 -91l21 17c25 20 52 41 70 70c-44 -2 -80 31 -80 75c0 42 38 77 78 77c50 0 84 -41 84 -89c0 -46 -27 -83 -57 -114c-15 -16 -42 -46 -67 -46c-16 0 -34 3 -49 10zM48 -91l21 17c25 20 52 41 70 70c-44 -2 -80 31 -80 75c0 42 38 77 78 77c50 0 84 -41 84 -89
c0 -46 -27 -83 -57 -114c-15 -16 -42 -46 -67 -46c-16 0 -34 3 -49 10z" />
    <glyph glyph-name="quotedblright" unicode="&#x201d;" horiz-adv-x="500" 
d="M260 419l21 17c25 20 52 41 70 70c-44 -2 -80 31 -80 75c0 42 38 77 78 77c50 0 84 -41 84 -89c0 -46 -27 -83 -57 -114c-15 -16 -42 -46 -67 -46c-16 0 -34 3 -49 10zM48 419l21 17c25 20 52 41 70 70c-44 -2 -80 31 -80 75c0 42 38 77 78 77c50 0 84 -41 84 -89
c0 -46 -27 -83 -57 -114c-15 -16 -42 -46 -67 -46c-16 0 -34 3 -49 10z" />
    <glyph glyph-name="guillemotright" unicode="&#xbb;" horiz-adv-x="520" 
d="M452 248l-118 -140h-92l89 140l-89 142h92zM269 248l-118 -140h-92l89 140l-89 142h92z" />
    <glyph glyph-name="ellipsis" unicode="&#x2026;" horiz-adv-x="1000" 
d="M163 -13c-49 0 -91 43 -91 92c0 54 41 98 96 98c51 0 93 -42 93 -94c0 -54 -43 -96 -98 -96zM496 -13c-49 0 -91 43 -91 92c0 54 41 98 96 98c51 0 93 -42 93 -94c0 -54 -43 -96 -98 -96zM829 -13c-49 0 -91 43 -91 92c0 54 41 98 96 98c51 0 93 -42 93 -94
c0 -54 -43 -96 -98 -96z" />
    <glyph glyph-name="perthousand" unicode="&#x2030;" horiz-adv-x="1180" 
d="M632 -8c-44 0 -90 25 -116 60c-29 41 -39 96 -39 146c0 96 48 204 160 204c109 0 156 -105 156 -200c0 -48 -8 -98 -34 -138c-29 -44 -74 -72 -127 -72zM634 63c49 0 54 111 54 144s-2 124 -51 124c-53 0 -55 -106 -55 -139c0 -32 3 -129 52 -129zM994 -8
c-44 0 -90 25 -116 60c-29 41 -39 96 -39 146c0 96 48 204 160 204c109 0 156 -105 156 -200c0 -48 -8 -98 -34 -138c-29 -44 -74 -72 -127 -72zM996 63c49 0 54 111 54 144s-2 124 -51 124c-53 0 -55 -106 -55 -139c0 -32 3 -129 52 -129zM178 256c-44 0 -90 25 -116 60
c-29 41 -39 96 -39 146c0 96 48 204 160 204c109 0 156 -105 156 -200c0 -48 -8 -98 -34 -138c-29 -44 -74 -72 -127 -72zM180 327c49 0 54 111 54 144s-2 124 -51 124c-53 0 -55 -106 -55 -139c0 -32 3 -129 52 -129zM642 658l-377 -658h-88l376 658h89z" />
    <glyph glyph-name="questiondown" unicode="&#xbf;" horiz-adv-x="460" 
d="M211 251h132l4 -38c0 -119 -124 -137 -124 -234c0 -61 51 -94 107 -94c36 0 74 15 103 35l-40 -129c-39 -17 -84 -22 -126 -22c-58 0 -111 10 -158 47c-46 36 -71 85 -71 143c0 164 177 180 177 266c0 9 -2 17 -4 26zM273 473c49 0 91 -43 91 -92c0 -54 -41 -98 -96 -98
c-51 0 -93 42 -93 94c0 54 43 96 98 96z" />
    <glyph glyph-name="grave" unicode="`" horiz-adv-x="420" 
d="M116 680l242 -138l-58 -35l-234 87z" />
    <glyph glyph-name="acute" unicode="&#xb4;" horiz-adv-x="420" 
d="M308 680l50 -86l-234 -87l-58 35z" />
    <glyph glyph-name="circumflex" unicode="&#x2c6;" 
d="M296 580l-166 -72l-64 39l230 134l233 -134l-66 -39z" />
    <glyph glyph-name="tilde" unicode="&#x2dc;" horiz-adv-x="520" 
d="M66 528l26 101c27 12 56 21 86 21c34 0 70 -10 102 -19c23 -7 48 -15 73 -15c34 0 77 16 107 32l-31 -99c-25 -15 -50 -21 -79 -21c-60 0 -115 30 -175 30c-41 0 -73 -12 -109 -30z" />
    <glyph glyph-name="macron" unicode="&#xaf;" horiz-adv-x="580" 
d="M512 637v-96h-446v96h446z" />
    <glyph glyph-name="breve" unicode="&#x2d8;" horiz-adv-x="480" 
d="M66 632l54 24c25 -45 70 -57 120 -57c49 0 94 12 120 57l54 -24c-35 -79 -89 -110 -174 -110c-86 0 -139 31 -174 110z" />
    <glyph glyph-name="dotaccent" unicode="&#x2d9;" horiz-adv-x="320" 
d="M157 494c-49 0 -91 43 -91 92c0 54 41 98 95 98c52 0 94 -42 94 -94c0 -55 -44 -96 -98 -96z" />
    <glyph glyph-name="dieresis" unicode="&#xa8;" horiz-adv-x="500" 
d="M341 507c-41 0 -78 37 -78 79c0 46 35 85 82 85c45 0 81 -36 81 -81c0 -48 -38 -83 -85 -83zM144 507c-42 0 -78 37 -78 79c0 46 35 85 82 85c45 0 81 -36 81 -81c0 -48 -38 -83 -85 -83z" />
    <glyph glyph-name="ring" unicode="&#x2da;" horiz-adv-x="320" 
d="M157 500c-52 0 -91 40 -91 92c0 51 44 88 93 88c48 0 88 -43 88 -90c0 -49 -41 -90 -90 -90zM156 559c16 0 30 14 30 31s-13 32 -31 32s-30 -16 -30 -34c0 -16 15 -29 31 -29z" />
    <glyph glyph-name="cedilla" unicode="&#xb8;" horiz-adv-x="300" 
d="M187 0l-18 -43c35 -4 66 -27 66 -65c0 -52 -60 -77 -104 -77c-16 0 -32 3 -48 8l-17 57c17 -8 46 -16 64 -16c14 0 45 5 45 24c0 25 -29 28 -47 28c-10 0 -20 -1 -29 -3l33 87h55z" />
    <glyph glyph-name="hungarumlaut" unicode="&#x2dd;" horiz-adv-x="520" 
d="M66 520l147 156l63 -57l-156 -118zM243 520l148 156l62 -57l-155 -118z" />
    <glyph glyph-name="ogonek" unicode="&#x2db;" horiz-adv-x="280" 
d="M209 -81l-36 -66c-9 -1 -19 -3 -28 -3c-38 0 -79 21 -79 63c0 32 23 64 43 87h68c-12 -16 -29 -35 -29 -57c0 -20 16 -30 34 -30c10 0 18 3 27 6z" />
    <glyph glyph-name="caron" unicode="&#x2c7;" 
d="M296 609l167 72l66 -39l-233 -134l-230 134l64 39z" />
    <glyph glyph-name="emdash" unicode="&#x2014;" horiz-adv-x="1000" 
d="M70 301h859c42 0 81 4 121 15l-51 -73c-6 -8 -24 -38 -32 -43c-9 -7 -27 -5 -37 -5h-859c-42 0 -81 -4 -121 -15l51 73c6 8 24 38 32 43c9 7 27 5 37 5z" />
    <glyph glyph-name="AE" unicode="&#xc6;" horiz-adv-x="800" 
d="M706 663v-145h-3c-28 46 -85 41 -134 41h-31v-162h92c15 0 29 1 37 5h5v-139h-5c-15 40 -58 36 -97 36h-32v-188c34 -12 70 -15 105 -15c59 0 100 9 144 48h5l-45 -144h-436v3c52 31 42 100 42 154v33h-132l-23 -50c-10 -21 -25 -46 -25 -70c0 -30 25 -55 48 -67v-3h-227
v3c45 31 64 87 87 136l169 365c13 24 33 66 33 94s-19 46 -41 57v3h418c15 0 32 0 43 5h3zM353 285v200h-1l-89 -200h90z" />
    <glyph glyph-name="ordfeminine" unicode="&#xaa;" horiz-adv-x="380" 
d="M337 448l-23 -50h-23c-25 0 -50 5 -70 20c-32 25 -30 52 -30 89v19l-18 -9c-14 -7 -32 -15 -32 -33c0 -20 14 -37 35 -37c3 0 7 1 10 1l-24 -48l-28 -2c-18 0 -41 2 -57 11c-24 13 -41 40 -41 67c0 105 155 71 155 118c0 17 -22 23 -36 23c-23 0 -50 -8 -71 -18l26 64
c23 6 47 8 71 8c29 0 61 -6 84 -26c28 -25 25 -68 25 -102c0 -39 -11 -96 47 -95z" />
    <glyph glyph-name="Lslash" unicode="&#x141;" horiz-adv-x="520" 
d="M261 366v-253c33 -15 71 -17 106 -17c55 0 99 11 142 44l-37 -139v-1h-439v3c49 31 42 87 42 140v102l-78 -76v64c0 18 -2 41 7 58c11 21 36 41 53 58l18 16v149c0 52 7 109 -42 141v3h270v-3c-51 -31 -42 -97 -42 -149v-20l96 95v-71c0 -56 -11 -64 -50 -101z" />
    <glyph glyph-name="Oslash" unicode="&#xd8;" horiz-adv-x="780" 
d="M227 19l-46 -69h-93l71 106c-87 67 -134 157 -134 266c0 222 164 352 376 352c53 0 106 -7 156 -23l49 74h96l-76 -111c90 -59 138 -179 138 -284c0 -222 -177 -343 -383 -343c-56 0 -103 10 -154 32zM252 193l232 345c-26 26 -62 36 -97 36c-57 0 -106 -31 -135 -79
c-26 -45 -33 -101 -33 -152c0 -53 11 -103 33 -150zM531 478l-235 -350c29 -28 70 -44 111 -44c48 0 98 28 127 67c29 40 39 92 39 141c0 67 -14 127 -42 186z" />
    <glyph glyph-name="OE" unicode="&#x152;" horiz-adv-x="980" 
d="M944 0h-459c-19 -4 -38 -7 -58 -9c-20 -3 -39 -4 -59 -4c-198 0 -347 140 -347 342c0 96 34 183 104 251c72 68 172 94 269 94c21 0 42 -4 62 -8c21 -4 41 -8 61 -8h341c16 0 32 0 43 8h3v-147h-3c-28 50 -84 43 -134 43h-31v-162h92c14 0 29 0 38 5h5v-140h-5
c-16 39 -60 36 -98 36h-32v-190c35 -13 73 -15 110 -15c55 0 96 12 135 49h5zM251 500c-26 -41 -38 -95 -38 -145c0 -54 12 -121 40 -174s72 -93 137 -93c116 0 164 103 164 205c0 107 -48 277 -178 277c-58 0 -99 -29 -125 -70z" />
    <glyph glyph-name="ordmasculine" unicode="&#xba;" horiz-adv-x="380" 
d="M183 398c-84 0 -142 52 -142 137s65 136 146 136c83 0 145 -52 145 -137c0 -87 -68 -136 -149 -136zM189 450c43 0 48 43 48 76c0 35 -7 91 -52 91c-40 0 -50 -37 -50 -71c0 -37 5 -96 54 -96z" />
    <glyph glyph-name="ae" unicode="&#xe6;" horiz-adv-x="780" 
d="M761 137l-38 -120c-59 -21 -123 -30 -185 -30c-137 0 -281 75 -271 230l-31 -15c-33 -15 -58 -25 -58 -65c0 -39 36 -61 71 -61c10 0 19 2 29 4l-42 -88l-56 -5c-96 0 -187 38 -187 148c0 42 22 84 58 106c39 24 88 34 132 43c29 6 84 14 84 52c0 32 -34 42 -60 42
c-43 0 -88 -12 -127 -30l47 111c36 9 71 14 108 14c53 0 100 -5 145 -34c48 24 83 34 137 34c154 0 237 -93 238 -244h-313v-20c0 -83 68 -127 145 -127c62 0 121 23 174 55zM442 315h141c2 41 -20 73 -64 73c-49 0 -71 -35 -77 -73z" />
    <glyph glyph-name="dotlessi" unicode="&#x131;" horiz-adv-x="280" 
d="M19 460h136c27 0 49 3 68 15h3v-365c0 -46 -3 -75 35 -107v-3h-243v3c38 32 35 61 35 107v240c0 47 3 76 -34 107v3z" />
    <glyph glyph-name="lslash" unicode="&#x142;" horiz-adv-x="320" 
d="M43 658h112c35 0 62 5 91 16h3v-182l71 69v-31c0 -78 -2 -73 -56 -128l-15 -14v-278c0 -46 -2 -75 35 -107v-3h-242v3c37 32 34 60 34 107v166l-71 -67v26c0 48 -5 68 30 104l41 41v168c0 49 2 72 -33 107v3z" />
    <glyph glyph-name="oslash" unicode="&#xf8;" horiz-adv-x="580" 
d="M170 7l-47 -66h-81l70 100c-58 46 -83 115 -83 188c0 151 113 244 259 244c40 0 78 -5 116 -21l51 72h79l-74 -104c57 -49 87 -117 87 -192c0 -152 -123 -241 -267 -241c-37 0 -75 6 -110 20zM205 164l135 191c-16 16 -35 21 -57 21c-72 0 -87 -70 -87 -129
c0 -28 3 -56 9 -83zM368 297l-136 -195c15 -16 38 -23 60 -23c76 0 85 77 85 135c0 28 -3 56 -9 83z" />
    <glyph glyph-name="oe" unicode="&#x153;" horiz-adv-x="920" 
d="M894 134l-40 -118c-53 -18 -110 -29 -167 -29c-73 0 -134 13 -195 54c-55 -40 -125 -54 -192 -54c-147 0 -273 84 -273 241c0 160 135 245 283 245c64 0 128 -14 182 -49c54 35 101 49 166 49c75 0 130 -20 178 -78c39 -48 52 -104 50 -165h-309c0 -87 56 -149 146 -149
c60 0 116 28 171 53zM577 314h139c-1 40 -20 73 -63 73c-40 0 -76 -37 -76 -73zM209 241c0 -66 17 -160 102 -160c77 0 92 69 92 131c0 69 -11 164 -100 164c-75 0 -94 -72 -94 -135z" />
    <glyph glyph-name="germandbls" unicode="&#xdf;" horiz-adv-x="620" 
d="M67 365h-51l51 96v10c0 61 7 111 58 151c48 38 116 49 176 49c50 0 99 -5 145 -30c48 -26 81 -66 81 -122c0 -99 -113 -120 -113 -140c0 -7 9 -11 14 -13c89 -33 173 -88 173 -193c0 -119 -105 -185 -215 -185c-19 0 -37 2 -55 6l-52 106c17 -6 30 -10 48 -10
c50 0 95 34 95 86c0 56 -54 100 -94 131c-21 16 -50 36 -50 65c0 24 12 36 31 48c17 12 25 16 33 37c5 14 7 31 7 46c0 36 -12 74 -55 74c-22 0 -41 -15 -48 -36c-8 -26 -5 -73 -5 -101v-330c0 -46 -4 -75 34 -107v-3h-243v3c38 32 34 61 35 107v255z" />
    <glyph glyph-name="onesuperior" unicode="&#xb9;" horiz-adv-x="336" 
d="M234 674v-322c0 -30 -2 -64 33 -79v-3h-186v3c37 20 39 46 39 82v206l-65 14v3c68 19 133 46 176 96h3z" />
    <glyph glyph-name="logicalnot" unicode="&#xac;" 
d="M450 65v198h-383v86h467v-284h-84z" />
    <glyph glyph-name="mu" unicode="&#xb5;" horiz-adv-x="580" 
d="M347 0v53c-29 -39 -66 -60 -115 -65l11 -196h-200l17 294c-3 29 -3 49 -3 70v194c0 47 2 76 -35 107v3h138c26 0 48 3 67 15h3v-257c0 -44 -10 -128 56 -128c18 0 37 7 47 22c16 24 14 50 14 76v162c0 47 2 76 -35 107v3h137c26 0 48 3 68 15h3v-365
c1 -47 -3 -76 34 -107v-3h-207z" />
    <glyph glyph-name="trademark" unicode="&#x2122;" horiz-adv-x="920" 
d="M779 658v-375h-58v322l-130 -322h-35l-126 322v-322h-60v375h96l107 -265l112 265h94zM304 658v-53h-119v-322h-65v322h-120v53h304z" />
    <glyph glyph-name="Eth" unicode="&#xd0;" horiz-adv-x="680" 
d="M243 545v-143h135v-80h-135v-215c18 -6 36 -8 54 -8c63 0 104 19 136 74c27 46 35 100 35 153c0 103 -36 226 -159 226c-22 0 -44 -3 -66 -7zM58 123v199h-58v80h58v103c0 117 -11 129 -42 150v3h212c155 0 223 -5 299 -58c90 -63 135 -166 135 -274
c0 -97 -41 -197 -118 -258c-82 -65 -146 -68 -303 -68h-225v3c27 18 42 37 42 120z" />
    <glyph glyph-name="onehalf" unicode="&#xbd;" horiz-adv-x="840" 
d="M637 658l-375 -658h-95l376 658h94zM224 666v-322c0 -30 -2 -64 33 -79v-3h-186v3c37 20 39 46 39 82v206l-65 14v3c68 19 133 46 176 96h3zM505 302l28 82c35 13 76 20 114 20c63 0 136 -34 136 -100c0 -40 -29 -85 -51 -120l-76 -111l-8 -10c17 -4 34 -5 52 -5
c44 0 76 11 115 29l-30 -87h-307l99 150l51 84c11 19 27 46 27 68c0 25 -21 40 -46 40c-38 0 -74 -20 -104 -40z" />
    <glyph glyph-name="plusminus" unicode="&#xb1;" 
d="M66 342h191v126h86v-126h191v-86h-191v-126h-86v126h-191v86zM66 0v86h468v-86h-468z" />
    <glyph glyph-name="Thorn" unicode="&#xde;" horiz-adv-x="520" 
d="M52 126v401c0 88 -8 103 -42 128v3h267v-3c-33 -19 -44 -48 -44 -115c86 0 145 -1 192 -24c61 -30 95 -88 95 -156c0 -142 -120 -197 -245 -197c-12 0 -24 0 -36 2c62 26 97 79 97 146c0 71 -25 127 -103 130v-296c0 -82 11 -111 44 -142v-3h-267v3c31 22 42 42 42 123z
" />
    <glyph glyph-name="onequarter" unicode="&#xbc;" horiz-adv-x="840" 
d="M785 0h-171v3c30 17 31 41 31 71v11h-201l180 310h136v-257c29 -1 51 4 72 21h3l-26 -74h-50v-6c0 -35 -1 -51 26 -76v-3zM637 658l-375 -658h-95l376 658h94zM645 138v183l-106 -183h106zM224 666v-322c0 -30 -2 -64 33 -79v-3h-186v3c37 20 39 46 39 82v206l-65 14v3
c68 19 133 46 176 96h3z" />
    <glyph glyph-name="divide" unicode="&#xf7;" 
d="M66 277h468v-86h-468v86zM300 0c-41 0 -75 34 -75 75s34 75 75 75s75 -34 75 -75s-34 -75 -75 -75zM300 318c-41 0 -75 34 -75 75s34 75 75 75s75 -34 75 -75s-34 -75 -75 -75z" />
    <glyph glyph-name="brokenbar" unicode="&#xa6;" 
d="M257 675h85v-350h-85v350zM257 175h85v-350h-85v350z" />
    <glyph glyph-name="degree" unicode="&#xb0;" horiz-adv-x="400" 
d="M350 524c0 -83 -67 -150 -150 -150s-150 67 -150 150c-1 83 67 150 150 150s150 -67 150 -150zM300 524c0 55 -45 100 -100 100s-101 -45 -100 -100c0 -55 45 -100 100 -100s100 45 100 100z" />
    <glyph glyph-name="thorn" unicode="&#xfe;" 
d="M51 -98v666c0 46 -13 69 -34 87v3h132c28 0 50 0 72 16h3v-262h2c27 42 76 61 126 61c137 0 212 -104 212 -235c0 -62 -20 -128 -59 -177c-46 -58 -108 -74 -180 -74c-14 0 -29 2 -43 3l-36 92c10 -2 20 -4 31 -4c86 0 100 74 100 145c0 52 -11 147 -82 147
c-65 0 -71 -46 -71 -118v-350c0 -67 6 -81 35 -107v-3h-242v3c28 26 34 36 34 107z" />
    <glyph glyph-name="threequarters" unicode="&#xbe;" horiz-adv-x="840" 
d="M665 138v183l-106 -183h106zM677 658l-375 -658h-95l376 658h94zM805 0h-171v3c30 17 31 41 31 71v11h-201l180 310h136v-257c29 -1 51 4 72 21h3l-26 -74h-50v-6c0 -35 -1 -51 26 -76v-3zM122 452h-34v54h13c41 0 91 6 91 55c0 34 -30 48 -63 48c-28 0 -63 -13 -88 -25
l21 68c35 9 71 14 107 14c75 0 146 -35 146 -93c0 -40 -32 -72 -73 -81v-2c56 -11 99 -49 99 -104c0 -94 -108 -132 -194 -132c-33 0 -66 4 -99 11l-18 73c29 -15 68 -25 101 -25c46 0 85 29 85 73c0 34 -16 66 -94 66z" />
    <glyph glyph-name="twosuperior" unicode="&#xb2;" horiz-adv-x="336" 
d="M27 572l28 82c35 13 76 20 114 20c63 0 136 -34 136 -100c0 -40 -29 -85 -51 -120l-76 -111l-8 -10c17 -4 34 -5 52 -5c44 0 76 11 115 29l-30 -87h-307l99 150l51 84c11 19 27 46 27 68c0 25 -21 40 -46 40c-38 0 -74 -20 -104 -40z" />
    <glyph glyph-name="registered" unicode="&#xae;" horiz-adv-x="720" 
d="M359 -13c-189 0 -338 157 -338 346c0 191 154 341 342 341c187 0 337 -154 337 -343c0 -191 -153 -344 -341 -344zM358 34c165 0 297 132 297 299c0 164 -134 295 -296 295c-159 0 -291 -134 -291 -294c0 -163 127 -300 290 -300zM427 315l116 -185h-67l-109 185h-88
v-185h-57v410h182c78 0 146 -18 146 -112c0 -77 -51 -111 -123 -113zM279 360h105c51 0 109 6 109 72c0 59 -56 65 -102 65h-112v-137z" />
    <glyph glyph-name="minus" unicode="&#x2212;" 
d="M533 191h-467v86h467v-86z" />
    <glyph glyph-name="eth" unicode="&#xf0;" horiz-adv-x="580" 
d="M293 80c76 0 86 76 86 135c0 62 -13 162 -94 162c-71 0 -88 -66 -88 -125c0 -67 8 -172 96 -172zM156 510l-54 52l96 44c-27 16 -56 28 -83 34l129 71c30 -11 58 -26 84 -44l106 49l56 -52l-100 -46c97 -90 157 -222 157 -364c0 -176 -103 -267 -266 -267
c-143 0 -252 91 -252 233c0 153 113 247 243 247c37 0 54 -9 70 -17l3 1c-17 41 -46 79 -82 108z" />
    <glyph glyph-name="multiply" unicode="&#xd7;" 
d="M127 0l-61 61l173 173l-173 173l61 61l173 -173l173 173l61 -61l-173 -173l173 -173l-61 -61l-173 173z" />
    <glyph glyph-name="threesuperior" unicode="&#xb3;" horiz-adv-x="336" 
d="M102 460h-34v54h13c41 0 91 6 91 55c0 34 -30 48 -63 48c-28 0 -63 -13 -88 -25l21 68c35 9 71 14 107 14c75 0 146 -35 146 -93c0 -40 -32 -72 -73 -81v-2c56 -11 99 -49 99 -104c0 -94 -108 -132 -194 -132c-33 0 -66 4 -99 11l-18 73c29 -15 68 -25 101 -25
c46 0 85 29 85 73c0 34 -16 66 -94 66z" />
    <glyph glyph-name="copyright" unicode="&#xa9;" horiz-adv-x="720" 
d="M357 -13c-186 0 -336 157 -336 344c0 190 152 343 340 343c185 0 338 -153 338 -341c0 -193 -150 -346 -342 -346zM362 35c159 0 291 132 291 294c0 166 -130 299 -294 299c-161 0 -292 -134 -292 -296c0 -165 132 -297 295 -297zM490 260l55 -16
c-26 -79 -106 -116 -184 -116c-118 0 -193 84 -193 200c0 121 84 211 205 211c71 0 155 -37 172 -114l-62 -14c-11 59 -54 89 -113 89c-94 0 -141 -82 -141 -169s45 -162 139 -162c61 0 103 35 122 91z" />
    <glyph glyph-name="Aacute" unicode="&#xc1;" horiz-adv-x="720" 
d="M415 199h-198l-24 -68c-7 -20 -18 -51 -18 -72c0 -28 18 -41 36 -56v-3h-205v3c38 35 51 64 69 115l138 399c6 20 22 59 22 80c0 27 -18 45 -38 58v3h245l189 -515c24 -64 29 -87 86 -140v-3h-302v3c23 15 41 29 41 61c0 17 -2 22 -8 38zM382 292l-69 197h-1l-66 -197
h136zM458 878l50 -86l-234 -87l-58 35z" />
    <glyph glyph-name="Acircumflex" unicode="&#xc2;" horiz-adv-x="720" 
d="M415 199h-198l-24 -68c-7 -20 -18 -51 -18 -72c0 -28 18 -41 36 -56v-3h-205v3c38 35 51 64 69 115l138 399c6 20 22 59 22 80c0 27 -18 45 -38 58v3h245l189 -515c24 -64 29 -87 86 -140v-3h-302v3c23 15 41 29 41 61c0 17 -2 22 -8 38zM382 292l-69 197h-1l-66 -197
h136zM356 778l-166 -72l-64 39l230 134l233 -134l-66 -39z" />
    <glyph glyph-name="Adieresis" unicode="&#xc4;" horiz-adv-x="720" 
d="M415 199h-198l-24 -68c-7 -20 -18 -51 -18 -72c0 -28 18 -41 36 -56v-3h-205v3c38 35 51 64 69 115l138 399c6 20 22 59 22 80c0 27 -18 45 -38 58v3h245l189 -515c24 -64 29 -87 86 -140v-3h-302v3c23 15 41 29 41 61c0 17 -2 22 -8 38zM382 292l-69 197h-1l-66 -197
h136zM451 705c-41 0 -78 37 -78 79c0 46 35 85 82 85c45 0 81 -36 81 -81c0 -48 -38 -83 -85 -83zM254 705c-42 0 -78 37 -78 79c0 46 35 85 82 85c45 0 81 -36 81 -81c0 -48 -38 -83 -85 -83z" />
    <glyph glyph-name="Agrave" unicode="&#xc0;" horiz-adv-x="720" 
d="M415 199h-198l-24 -68c-7 -20 -18 -51 -18 -72c0 -28 18 -41 36 -56v-3h-205v3c38 35 51 64 69 115l138 399c6 20 22 59 22 80c0 27 -18 45 -38 58v3h245l189 -515c24 -64 29 -87 86 -140v-3h-302v3c23 15 41 29 41 61c0 17 -2 22 -8 38zM382 292l-69 197h-1l-66 -197
h136zM266 878l242 -138l-58 -35l-234 87z" />
    <glyph glyph-name="Aring" unicode="&#xc5;" horiz-adv-x="720" 
d="M415 199h-198l-24 -68c-7 -20 -18 -51 -18 -72c0 -28 18 -41 36 -56v-3h-205v3c38 35 51 64 69 115l138 399c6 20 22 59 22 80c0 27 -18 45 -38 58v3h245l189 -515c24 -64 29 -87 86 -140v-3h-302v3c23 15 41 29 41 61c0 17 -2 22 -8 38zM382 292l-69 197h-1l-66 -197
h136zM357 698c-52 0 -91 40 -91 92c0 51 44 88 93 88c48 0 88 -43 88 -90c0 -49 -41 -90 -90 -90zM356 757c16 0 30 14 30 31s-13 32 -31 32s-30 -16 -30 -34c0 -16 15 -29 31 -29z" />
    <glyph glyph-name="Atilde" unicode="&#xc3;" horiz-adv-x="720" 
d="M415 199h-198l-24 -68c-7 -20 -18 -51 -18 -72c0 -28 18 -41 36 -56v-3h-205v3c38 35 51 64 69 115l138 399c6 20 22 59 22 80c0 27 -18 45 -38 58v3h245l189 -515c24 -64 29 -87 86 -140v-3h-302v3c23 15 41 29 41 61c0 17 -2 22 -8 38zM382 292l-69 197h-1l-66 -197
h136zM166 726l26 101c27 12 56 21 86 21c34 0 70 -10 102 -19c23 -7 48 -15 73 -15c34 0 77 16 107 32l-31 -99c-25 -15 -50 -21 -79 -21c-60 0 -115 30 -175 30c-41 0 -73 -12 -109 -30z" />
    <glyph glyph-name="Ccedilla" unicode="&#xc7;" horiz-adv-x="660" 
d="M558 661l7 -140c-49 33 -107 52 -167 52c-137 0 -176 -110 -176 -231c0 -138 67 -250 216 -250c78 0 149 29 216 65l-50 -146c-65 -18 -132 -24 -199 -24c-14 0 -28 0 -43 2l-13 -32c35 -4 66 -27 66 -65c0 -52 -60 -77 -104 -77c-16 0 -32 3 -48 8l-17 57
c17 -8 46 -16 64 -16c14 0 45 5 45 24c0 25 -29 28 -47 28c-10 0 -20 -1 -29 -3l31 81c-62 9 -119 32 -173 79c-77 65 -118 159 -118 261c0 92 39 189 109 251c76 65 181 89 279 89z" />
    <glyph glyph-name="Eacute" unicode="&#xc9;" horiz-adv-x="500" 
d="M240 299v-188c33 -13 70 -15 105 -15c56 0 108 9 146 55h5l-40 -151h-443v3c49 31 42 87 42 139v374c0 52 7 109 -42 139v3h350c15 0 31 0 42 5h3v-145h-3c-27 47 -84 42 -133 42h-32v-162h93c14 0 28 1 37 5h5v-140h-5c-14 40 -60 36 -97 36h-33zM348 878l50 -86
l-234 -87l-58 35z" />
    <glyph glyph-name="Ecircumflex" unicode="&#xca;" horiz-adv-x="500" 
d="M240 299v-188c33 -13 70 -15 105 -15c56 0 108 9 146 55h5l-40 -151h-443v3c49 31 42 87 42 139v374c0 52 7 109 -42 139v3h350c15 0 31 0 42 5h3v-145h-3c-27 47 -84 42 -133 42h-32v-162h93c14 0 28 1 37 5h5v-140h-5c-14 40 -60 36 -97 36h-33zM246 778l-166 -72
l-64 39l230 134l233 -134l-66 -39z" />
    <glyph glyph-name="Edieresis" unicode="&#xcb;" horiz-adv-x="500" 
d="M240 299v-188c33 -13 70 -15 105 -15c56 0 108 9 146 55h5l-40 -151h-443v3c49 31 42 87 42 139v374c0 52 7 109 -42 139v3h350c15 0 31 0 42 5h3v-145h-3c-27 47 -84 42 -133 42h-32v-162h93c14 0 28 1 37 5h5v-140h-5c-14 40 -60 36 -97 36h-33zM341 705
c-41 0 -78 37 -78 79c0 46 35 85 82 85c45 0 81 -36 81 -81c0 -48 -38 -83 -85 -83zM144 705c-42 0 -78 37 -78 79c0 46 35 85 82 85c45 0 81 -36 81 -81c0 -48 -38 -83 -85 -83z" />
    <glyph glyph-name="Egrave" unicode="&#xc8;" horiz-adv-x="500" 
d="M240 299v-188c33 -13 70 -15 105 -15c56 0 108 9 146 55h5l-40 -151h-443v3c49 31 42 87 42 139v374c0 52 7 109 -42 139v3h350c15 0 31 0 42 5h3v-145h-3c-27 47 -84 42 -133 42h-32v-162h93c14 0 28 1 37 5h5v-140h-5c-14 40 -60 36 -97 36h-33zM156 878l242 -138
l-58 -35l-234 87z" />
    <glyph glyph-name="Iacute" unicode="&#xcd;" horiz-adv-x="300" 
d="M242 515v-373c0 -52 -7 -108 42 -139v-3h-269v3c49 31 42 87 42 139v373c0 52 7 109 -42 140v3h269v-3c-49 -31 -42 -88 -42 -140zM248 878l50 -86l-234 -87l-58 35z" />
    <glyph glyph-name="Icircumflex" unicode="&#xce;" horiz-adv-x="300" 
d="M242 515v-373c0 -52 -7 -108 42 -139v-3h-269v3c49 31 42 87 42 139v373c0 52 7 109 -42 140v3h269v-3c-49 -31 -42 -88 -42 -140zM146 778l-166 -72l-64 39l230 134l233 -134l-66 -39z" />
    <glyph glyph-name="Idieresis" unicode="&#xcf;" horiz-adv-x="300" 
d="M242 515v-373c0 -52 -7 -108 42 -139v-3h-269v3c49 31 42 87 42 139v373c0 52 7 109 -42 140v3h269v-3c-49 -31 -42 -88 -42 -140zM241 705c-41 0 -78 37 -78 79c0 46 35 85 82 85c45 0 81 -36 81 -81c0 -48 -38 -83 -85 -83zM44 705c-42 0 -78 37 -78 79
c0 46 35 85 82 85c45 0 81 -36 81 -81c0 -48 -38 -83 -85 -83z" />
    <glyph glyph-name="Igrave" unicode="&#xcc;" horiz-adv-x="300" 
d="M242 515v-373c0 -52 -7 -108 42 -139v-3h-269v3c49 31 42 87 42 139v373c0 52 7 109 -42 140v3h269v-3c-49 -31 -42 -88 -42 -140zM56 878l242 -138l-58 -35l-234 87z" />
    <glyph glyph-name="Ntilde" unicode="&#xd1;" horiz-adv-x="700" 
d="M633 512v-533c-35 0 -90 25 -120 40c-74 37 -93 71 -142 135l-192 256h-3v-264c0 -58 1 -102 44 -143v-3h-193v3c44 41 45 85 45 143v345c0 77 -4 104 -58 164v3h208v-3l307 -402v259c0 58 -1 102 -44 143v3h192v-3c-43 -41 -44 -85 -44 -143zM156 726l26 101
c27 12 56 21 86 21c34 0 70 -10 102 -19c23 -7 48 -15 73 -15c34 0 77 16 107 32l-31 -99c-25 -15 -50 -21 -79 -21c-60 0 -115 30 -175 30c-41 0 -73 -12 -109 -30z" />
    <glyph glyph-name="Oacute" unicode="&#xd3;" horiz-adv-x="780" 
d="M25 331c0 213 173 343 376 343c210 0 364 -122 364 -342c0 -218 -173 -345 -376 -345c-205 0 -364 133 -364 344zM219 358c0 -58 19 -135 47 -185c28 -48 78 -86 135 -86c53 0 101 27 133 70c30 40 37 91 37 140c0 114 -45 277 -182 277c-118 0 -170 -113 -170 -216z
M488 878l50 -86l-234 -87l-58 35z" />
    <glyph glyph-name="Ocircumflex" unicode="&#xd4;" horiz-adv-x="780" 
d="M25 331c0 213 173 343 376 343c210 0 364 -122 364 -342c0 -218 -173 -345 -376 -345c-205 0 -364 133 -364 344zM219 358c0 -58 19 -135 47 -185c28 -48 78 -86 135 -86c53 0 101 27 133 70c30 40 37 91 37 140c0 114 -45 277 -182 277c-118 0 -170 -113 -170 -216z
M386 778l-166 -72l-64 39l230 134l233 -134l-66 -39z" />
    <glyph glyph-name="Odieresis" unicode="&#xd6;" horiz-adv-x="780" 
d="M25 331c0 213 173 343 376 343c210 0 364 -122 364 -342c0 -218 -173 -345 -376 -345c-205 0 -364 133 -364 344zM219 358c0 -58 19 -135 47 -185c28 -48 78 -86 135 -86c53 0 101 27 133 70c30 40 37 91 37 140c0 114 -45 277 -182 277c-118 0 -170 -113 -170 -216z
M481 705c-41 0 -78 37 -78 79c0 46 35 85 82 85c45 0 81 -36 81 -81c0 -48 -38 -83 -85 -83zM284 705c-42 0 -78 37 -78 79c0 46 35 85 82 85c45 0 81 -36 81 -81c0 -48 -38 -83 -85 -83z" />
    <glyph glyph-name="Ograve" unicode="&#xd2;" horiz-adv-x="780" 
d="M25 331c0 213 173 343 376 343c210 0 364 -122 364 -342c0 -218 -173 -345 -376 -345c-205 0 -364 133 -364 344zM219 358c0 -58 19 -135 47 -185c28 -48 78 -86 135 -86c53 0 101 27 133 70c30 40 37 91 37 140c0 114 -45 277 -182 277c-118 0 -170 -113 -170 -216z
M296 878l242 -138l-58 -35l-234 87z" />
    <glyph glyph-name="Otilde" unicode="&#xd5;" horiz-adv-x="780" 
d="M25 331c0 213 173 343 376 343c210 0 364 -122 364 -342c0 -218 -173 -345 -376 -345c-205 0 -364 133 -364 344zM219 358c0 -58 19 -135 47 -185c28 -48 78 -86 135 -86c53 0 101 27 133 70c30 40 37 91 37 140c0 114 -45 277 -182 277c-118 0 -170 -113 -170 -216z
M196 726l26 101c27 12 56 21 86 21c34 0 70 -10 102 -19c23 -7 48 -15 73 -15c34 0 77 16 107 32l-31 -99c-25 -15 -50 -21 -79 -21c-60 0 -115 30 -175 30c-41 0 -73 -12 -109 -30z" />
    <glyph glyph-name="Scaron" unicode="&#x160;" horiz-adv-x="520" 
d="M43 23l-33 144c56 -46 138 -78 210 -78c45 0 106 15 106 71c0 122 -305 97 -305 321c0 57 28 112 74 145c51 36 113 48 174 48c56 0 116 -10 168 -30v-117c-42 27 -91 47 -141 47c-39 0 -87 -17 -87 -64c0 -48 58 -67 95 -83c48 -21 93 -40 133 -75
c48 -42 74 -87 74 -151c0 -65 -27 -123 -80 -162c-59 -43 -123 -52 -194 -52c-66 0 -132 12 -194 36zM256 807l167 72l66 -39l-233 -134l-230 134l64 39z" />
    <glyph glyph-name="Uacute" unicode="&#xda;" horiz-adv-x="680" 
d="M427 0v81c-39 -57 -100 -94 -174 -94c-54 0 -107 17 -146 57c-44 46 -47 95 -47 156v315c0 52 7 109 -42 140v3h266v-3c-49 -31 -42 -88 -42 -140v-273c0 -39 -2 -77 22 -110c15 -20 40 -31 65 -31c91 0 98 107 98 174v240c0 52 7 109 -42 140v3h267v-3
c-49 -31 -42 -88 -42 -140v-372c0 -52 -7 -109 42 -140v-3h-225zM438 878l50 -86l-234 -87l-58 35z" />
    <glyph glyph-name="Ucircumflex" unicode="&#xdb;" horiz-adv-x="680" 
d="M427 0v81c-39 -57 -100 -94 -174 -94c-54 0 -107 17 -146 57c-44 46 -47 95 -47 156v315c0 52 7 109 -42 140v3h266v-3c-49 -31 -42 -88 -42 -140v-273c0 -39 -2 -77 22 -110c15 -20 40 -31 65 -31c91 0 98 107 98 174v240c0 52 7 109 -42 140v3h267v-3
c-49 -31 -42 -88 -42 -140v-372c0 -52 -7 -109 42 -140v-3h-225zM336 778l-166 -72l-64 39l230 134l233 -134l-66 -39z" />
    <glyph glyph-name="Udieresis" unicode="&#xdc;" horiz-adv-x="680" 
d="M427 0v81c-39 -57 -100 -94 -174 -94c-54 0 -107 17 -146 57c-44 46 -47 95 -47 156v315c0 52 7 109 -42 140v3h266v-3c-49 -31 -42 -88 -42 -140v-273c0 -39 -2 -77 22 -110c15 -20 40 -31 65 -31c91 0 98 107 98 174v240c0 52 7 109 -42 140v3h267v-3
c-49 -31 -42 -88 -42 -140v-372c0 -52 -7 -109 42 -140v-3h-225zM431 705c-41 0 -78 37 -78 79c0 46 35 85 82 85c45 0 81 -36 81 -81c0 -48 -38 -83 -85 -83zM234 705c-42 0 -78 37 -78 79c0 46 35 85 82 85c45 0 81 -36 81 -81c0 -48 -38 -83 -85 -83z" />
    <glyph glyph-name="Ugrave" unicode="&#xd9;" horiz-adv-x="680" 
d="M427 0v81c-39 -57 -100 -94 -174 -94c-54 0 -107 17 -146 57c-44 46 -47 95 -47 156v315c0 52 7 109 -42 140v3h266v-3c-49 -31 -42 -88 -42 -140v-273c0 -39 -2 -77 22 -110c15 -20 40 -31 65 -31c91 0 98 107 98 174v240c0 52 7 109 -42 140v3h267v-3
c-49 -31 -42 -88 -42 -140v-372c0 -52 -7 -109 42 -140v-3h-225zM246 878l242 -138l-58 -35l-234 87z" />
    <glyph glyph-name="Yacute" unicode="&#xdd;" horiz-adv-x="560" 
d="M389 298v-152c0 -58 1 -102 44 -143v-3h-271v3c49 31 42 89 42 141v154l-149 280c-17 32 -33 59 -63 77v3h232v-3l116 -236l56 114c9 18 23 48 23 69c0 27 -10 41 -31 53v3h180v-3zM438 878l50 -86l-234 -87l-58 35z" />
    <glyph glyph-name="Ydieresis" unicode="&#x178;" horiz-adv-x="560" 
d="M389 298v-152c0 -58 1 -102 44 -143v-3h-271v3c49 31 42 89 42 141v154l-149 280c-17 32 -33 59 -63 77v3h232v-3l116 -236l56 114c9 18 23 48 23 69c0 27 -10 41 -31 53v3h180v-3zM431 705c-41 0 -78 37 -78 79c0 46 35 85 82 85c45 0 81 -36 81 -81
c0 -48 -38 -83 -85 -83zM234 705c-42 0 -78 37 -78 79c0 46 35 85 82 85c45 0 81 -36 81 -81c0 -48 -38 -83 -85 -83z" />
    <glyph glyph-name="Zcaron" unicode="&#x17d;" 
d="M555 658l-296 -553l121 -9c88 0 137 16 212 62l-56 -158h-538l298 559l-79 5c-67 0 -115 -16 -174 -48l53 142h459zM296 807l167 72l66 -39l-233 -134l-230 134l64 39z" />
    <glyph glyph-name="aacute" unicode="&#xe1;" horiz-adv-x="520" 
d="M532 77l-41 -87l-40 -3c-51 0 -98 11 -136 46c-47 44 -43 90 -43 149v33l-32 -15c-25 -12 -57 -27 -57 -60c0 -35 25 -65 61 -65c7 0 13 1 20 2l-43 -87l-51 -3c-34 0 -78 6 -107 24c-40 24 -66 71 -66 117c0 185 275 124 275 208c0 31 -39 42 -64 42
c-41 0 -89 -14 -126 -33l47 114c41 11 83 14 126 14c47 0 100 -9 139 -38c50 -38 55 -96 55 -154v-80c0 -67 -3 -122 83 -124zM358 680l50 -86l-234 -87l-58 35z" />
    <glyph glyph-name="acircumflex" unicode="&#xe2;" horiz-adv-x="520" 
d="M532 77l-41 -87l-40 -3c-51 0 -98 11 -136 46c-47 44 -43 90 -43 149v33l-32 -15c-25 -12 -57 -27 -57 -60c0 -35 25 -65 61 -65c7 0 13 1 20 2l-43 -87l-51 -3c-34 0 -78 6 -107 24c-40 24 -66 71 -66 117c0 185 275 124 275 208c0 31 -39 42 -64 42
c-41 0 -89 -14 -126 -33l47 114c41 11 83 14 126 14c47 0 100 -9 139 -38c50 -38 55 -96 55 -154v-80c0 -67 -3 -122 83 -124zM256 580l-166 -72l-64 39l230 134l233 -134l-66 -39z" />
    <glyph glyph-name="adieresis" unicode="&#xe4;" horiz-adv-x="520" 
d="M532 77l-41 -87l-40 -3c-51 0 -98 11 -136 46c-47 44 -43 90 -43 149v33l-32 -15c-25 -12 -57 -27 -57 -60c0 -35 25 -65 61 -65c7 0 13 1 20 2l-43 -87l-51 -3c-34 0 -78 6 -107 24c-40 24 -66 71 -66 117c0 185 275 124 275 208c0 31 -39 42 -64 42
c-41 0 -89 -14 -126 -33l47 114c41 11 83 14 126 14c47 0 100 -9 139 -38c50 -38 55 -96 55 -154v-80c0 -67 -3 -122 83 -124zM351 507c-41 0 -78 37 -78 79c0 46 35 85 82 85c45 0 81 -36 81 -81c0 -48 -38 -83 -85 -83zM154 507c-42 0 -78 37 -78 79c0 46 35 85 82 85
c45 0 81 -36 81 -81c0 -48 -38 -83 -85 -83z" />
    <glyph glyph-name="agrave" unicode="&#xe0;" horiz-adv-x="520" 
d="M532 77l-41 -87l-40 -3c-51 0 -98 11 -136 46c-47 44 -43 90 -43 149v33l-32 -15c-25 -12 -57 -27 -57 -60c0 -35 25 -65 61 -65c7 0 13 1 20 2l-43 -87l-51 -3c-34 0 -78 6 -107 24c-40 24 -66 71 -66 117c0 185 275 124 275 208c0 31 -39 42 -64 42
c-41 0 -89 -14 -126 -33l47 114c41 11 83 14 126 14c47 0 100 -9 139 -38c50 -38 55 -96 55 -154v-80c0 -67 -3 -122 83 -124zM166 680l242 -138l-58 -35l-234 87z" />
    <glyph glyph-name="aring" unicode="&#xe5;" horiz-adv-x="520" 
d="M532 77l-41 -87l-40 -3c-51 0 -98 11 -136 46c-47 44 -43 90 -43 149v33l-32 -15c-25 -12 -57 -27 -57 -60c0 -35 25 -65 61 -65c7 0 13 1 20 2l-43 -87l-51 -3c-34 0 -78 6 -107 24c-40 24 -66 71 -66 117c0 185 275 124 275 208c0 31 -39 42 -64 42
c-41 0 -89 -14 -126 -33l47 114c41 11 83 14 126 14c47 0 100 -9 139 -38c50 -38 55 -96 55 -154v-80c0 -67 -3 -122 83 -124zM257 500c-52 0 -91 40 -91 92c0 51 44 88 93 88c48 0 88 -43 88 -90c0 -49 -41 -90 -90 -90zM256 559c16 0 30 14 30 31s-13 32 -31 32
s-30 -16 -30 -34c0 -16 15 -29 31 -29z" />
    <glyph glyph-name="atilde" unicode="&#xe3;" horiz-adv-x="520" 
d="M532 77l-41 -87l-40 -3c-51 0 -98 11 -136 46c-47 44 -43 90 -43 149v33l-32 -15c-25 -12 -57 -27 -57 -60c0 -35 25 -65 61 -65c7 0 13 1 20 2l-43 -87l-51 -3c-34 0 -78 6 -107 24c-40 24 -66 71 -66 117c0 185 275 124 275 208c0 31 -39 42 -64 42
c-41 0 -89 -14 -126 -33l47 114c41 11 83 14 126 14c47 0 100 -9 139 -38c50 -38 55 -96 55 -154v-80c0 -67 -3 -122 83 -124zM66 528l26 101c27 12 56 21 86 21c34 0 70 -10 102 -19c23 -7 48 -15 73 -15c34 0 77 16 107 32l-31 -99c-25 -15 -50 -21 -79 -21
c-60 0 -115 30 -175 30c-41 0 -73 -12 -109 -30z" />
    <glyph glyph-name="ccedilla" unicode="&#xe7;" horiz-adv-x="500" 
d="M429 463v-115h-3c-30 20 -62 33 -102 33c-29 0 -58 -12 -76 -35c-22 -28 -26 -66 -26 -99c0 -41 13 -93 42 -125c22 -26 58 -35 91 -35c46 0 98 20 132 47h3l-32 -109c-53 -26 -113 -38 -172 -38h-4l-13 -30c35 -4 66 -27 66 -65c0 -52 -60 -77 -104 -77
c-16 0 -32 3 -48 8l-17 57c17 -8 46 -16 64 -16c14 0 45 5 45 24c0 25 -29 28 -47 28c-10 0 -20 -1 -29 -3l30 80c-113 22 -200 106 -200 230c0 165 128 250 282 250c39 0 79 -7 118 -10z" />
    <glyph glyph-name="eacute" unicode="&#xe9;" horiz-adv-x="540" 
d="M515 131l-39 -113c-48 -21 -104 -31 -157 -31c-68 0 -144 8 -200 49c-64 46 -91 121 -91 196c0 140 106 241 245 241c158 0 234 -91 237 -245h-310c0 -86 58 -148 147 -148c56 0 118 25 168 51zM200 313h140c0 39 -19 73 -67 73c-44 0 -68 -33 -73 -73zM418 680l50 -86
l-234 -87l-58 35z" />
    <glyph glyph-name="ecircumflex" unicode="&#xea;" horiz-adv-x="540" 
d="M515 131l-39 -113c-48 -21 -104 -31 -157 -31c-68 0 -144 8 -200 49c-64 46 -91 121 -91 196c0 140 106 241 245 241c158 0 234 -91 237 -245h-310c0 -86 58 -148 147 -148c56 0 118 25 168 51zM200 313h140c0 39 -19 73 -67 73c-44 0 -68 -33 -73 -73zM266 580l-166 -72
l-64 39l230 134l233 -134l-66 -39z" />
    <glyph glyph-name="edieresis" unicode="&#xeb;" horiz-adv-x="540" 
d="M515 131l-39 -113c-48 -21 -104 -31 -157 -31c-68 0 -144 8 -200 49c-64 46 -91 121 -91 196c0 140 106 241 245 241c158 0 234 -91 237 -245h-310c0 -86 58 -148 147 -148c56 0 118 25 168 51zM200 313h140c0 39 -19 73 -67 73c-44 0 -68 -33 -73 -73zM361 507
c-41 0 -78 37 -78 79c0 46 35 85 82 85c45 0 81 -36 81 -81c0 -48 -38 -83 -85 -83zM164 507c-42 0 -78 37 -78 79c0 46 35 85 82 85c45 0 81 -36 81 -81c0 -48 -38 -83 -85 -83z" />
    <glyph glyph-name="egrave" unicode="&#xe8;" horiz-adv-x="540" 
d="M515 131l-39 -113c-48 -21 -104 -31 -157 -31c-68 0 -144 8 -200 49c-64 46 -91 121 -91 196c0 140 106 241 245 241c158 0 234 -91 237 -245h-310c0 -86 58 -148 147 -148c56 0 118 25 168 51zM200 313h140c0 39 -19 73 -67 73c-44 0 -68 -33 -73 -73zM176 680l242 -138
l-58 -35l-234 87z" />
    <glyph glyph-name="iacute" unicode="&#xed;" horiz-adv-x="280" 
d="M19 460h136c27 0 49 3 68 15h3v-365c0 -46 -3 -75 35 -107v-3h-243v3c38 32 35 61 35 107v240c0 47 3 76 -34 107v3zM238 680l50 -86l-234 -87l-58 35z" />
    <glyph glyph-name="icircumflex" unicode="&#xee;" horiz-adv-x="280" 
d="M19 460h136c27 0 49 3 68 15h3v-365c0 -46 -3 -75 35 -107v-3h-243v3c38 32 35 61 35 107v240c0 47 3 76 -34 107v3zM136 580l-166 -72l-64 39l230 134l233 -134l-66 -39z" />
    <glyph glyph-name="idieresis" unicode="&#xef;" horiz-adv-x="280" 
d="M19 460h136c27 0 49 3 68 15h3v-365c0 -46 -3 -75 35 -107v-3h-243v3c38 32 35 61 35 107v240c0 47 3 76 -34 107v3zM231 507c-41 0 -78 37 -78 79c0 46 35 85 82 85c45 0 81 -36 81 -81c0 -48 -38 -83 -85 -83zM34 507c-42 0 -78 37 -78 79c0 46 35 85 82 85
c45 0 81 -36 81 -81c0 -48 -38 -83 -85 -83z" />
    <glyph glyph-name="igrave" unicode="&#xec;" horiz-adv-x="280" 
d="M19 460h136c27 0 49 3 68 15h3v-365c0 -46 -3 -75 35 -107v-3h-243v3c38 32 35 61 35 107v240c0 47 3 76 -34 107v3zM46 680l242 -138l-58 -35l-234 87z" />
    <glyph glyph-name="ntilde" unicode="&#xf1;" horiz-adv-x="580" 
d="M225 475v-55c29 37 72 53 123 53c54 0 104 -14 141 -57s34 -88 34 -141v-165c0 -47 -3 -76 35 -107v-3h-243v3c38 31 35 60 35 107v169c0 22 0 45 -14 64c-11 18 -31 28 -52 28c-17 0 -35 -9 -45 -23c-15 -19 -14 -47 -14 -69v-169c0 -47 -3 -76 35 -107v-3h-243v3
c38 31 35 60 35 107v240c0 46 3 75 -35 107v3h134c24 0 45 4 71 15h3zM96 528l26 101c27 12 56 21 86 21c34 0 70 -10 102 -19c23 -7 48 -15 73 -15c34 0 77 16 107 32l-31 -99c-25 -15 -50 -21 -79 -21c-60 0 -115 30 -175 30c-41 0 -73 -12 -109 -30z" />
    <glyph glyph-name="oacute" unicode="&#xf3;" horiz-adv-x="580" 
d="M281 -13c-143 0 -252 91 -252 239c0 153 110 247 260 247c64 0 126 -15 175 -57c52 -43 83 -112 83 -180c0 -158 -114 -249 -266 -249zM293 80c76 0 86 76 86 135c0 62 -13 162 -94 162c-71 0 -88 -66 -88 -125c0 -67 8 -172 96 -172zM388 680l50 -86l-234 -87l-58 35z
" />
    <glyph glyph-name="ocircumflex" unicode="&#xf4;" horiz-adv-x="580" 
d="M281 -13c-143 0 -252 91 -252 239c0 153 110 247 260 247c64 0 126 -15 175 -57c52 -43 83 -112 83 -180c0 -158 -114 -249 -266 -249zM293 80c76 0 86 76 86 135c0 62 -13 162 -94 162c-71 0 -88 -66 -88 -125c0 -67 8 -172 96 -172zM286 580l-166 -72l-64 39l230 134
l233 -134l-66 -39z" />
    <glyph glyph-name="odieresis" unicode="&#xf6;" horiz-adv-x="580" 
d="M281 -13c-143 0 -252 91 -252 239c0 153 110 247 260 247c64 0 126 -15 175 -57c52 -43 83 -112 83 -180c0 -158 -114 -249 -266 -249zM293 80c76 0 86 76 86 135c0 62 -13 162 -94 162c-71 0 -88 -66 -88 -125c0 -67 8 -172 96 -172zM381 507c-41 0 -78 37 -78 79
c0 46 35 85 82 85c45 0 81 -36 81 -81c0 -48 -38 -83 -85 -83zM184 507c-42 0 -78 37 -78 79c0 46 35 85 82 85c45 0 81 -36 81 -81c0 -48 -38 -83 -85 -83z" />
    <glyph glyph-name="ograve" unicode="&#xf2;" horiz-adv-x="580" 
d="M281 -13c-143 0 -252 91 -252 239c0 153 110 247 260 247c64 0 126 -15 175 -57c52 -43 83 -112 83 -180c0 -158 -114 -249 -266 -249zM293 80c76 0 86 76 86 135c0 62 -13 162 -94 162c-71 0 -88 -66 -88 -125c0 -67 8 -172 96 -172zM196 680l242 -138l-58 -35l-234 87z
" />
    <glyph glyph-name="otilde" unicode="&#xf5;" horiz-adv-x="580" 
d="M281 -13c-143 0 -252 91 -252 239c0 153 110 247 260 247c64 0 126 -15 175 -57c52 -43 83 -112 83 -180c0 -158 -114 -249 -266 -249zM293 80c76 0 86 76 86 135c0 62 -13 162 -94 162c-71 0 -88 -66 -88 -125c0 -67 8 -172 96 -172zM96 528l26 101c27 12 56 21 86 21
c34 0 70 -10 102 -19c23 -7 48 -15 73 -15c34 0 77 16 107 32l-31 -99c-25 -15 -50 -21 -79 -21c-60 0 -115 30 -175 30c-41 0 -73 -12 -109 -30z" />
    <glyph glyph-name="scaron" unicode="&#x161;" horiz-adv-x="480" 
d="M38 10l-22 115c53 -32 114 -55 177 -55c28 0 71 7 71 44c0 67 -239 71 -239 206c0 54 28 95 74 121c46 27 100 32 152 32s104 -7 155 -19v-104c-38 25 -83 39 -128 39c-20 0 -59 -5 -59 -32c0 -31 33 -39 57 -46c36 -11 77 -22 109 -43c42 -27 76 -66 76 -117
c0 -134 -149 -164 -255 -164c-56 0 -113 11 -168 23zM236 609l167 72l66 -39l-233 -134l-230 134l64 39z" />
    <glyph glyph-name="uacute" unicode="&#xfa;" horiz-adv-x="580" 
d="M230 475v-257c0 -44 -10 -128 56 -128c18 0 37 7 47 22c16 24 14 50 14 76v162c0 47 2 76 -35 107v3h137c26 0 48 3 68 15h3v-365c1 -47 -3 -76 34 -107v-3h-207v53c-33 -45 -78 -66 -137 -66c-39 0 -82 11 -113 38c-40 35 -40 81 -40 131v194c0 47 2 76 -35 107v3h138
c26 0 48 3 67 15h3zM388 680l50 -86l-234 -87l-58 35z" />
    <glyph glyph-name="ucircumflex" unicode="&#xfb;" horiz-adv-x="580" 
d="M230 475v-257c0 -44 -10 -128 56 -128c18 0 37 7 47 22c16 24 14 50 14 76v162c0 47 2 76 -35 107v3h137c26 0 48 3 68 15h3v-365c1 -47 -3 -76 34 -107v-3h-207v53c-33 -45 -78 -66 -137 -66c-39 0 -82 11 -113 38c-40 35 -40 81 -40 131v194c0 47 2 76 -35 107v3h138
c26 0 48 3 67 15h3zM286 580l-166 -72l-64 39l230 134l233 -134l-66 -39z" />
    <glyph glyph-name="udieresis" unicode="&#xfc;" horiz-adv-x="580" 
d="M230 475v-257c0 -44 -10 -128 56 -128c18 0 37 7 47 22c16 24 14 50 14 76v162c0 47 2 76 -35 107v3h137c26 0 48 3 68 15h3v-365c1 -47 -3 -76 34 -107v-3h-207v53c-33 -45 -78 -66 -137 -66c-39 0 -82 11 -113 38c-40 35 -40 81 -40 131v194c0 47 2 76 -35 107v3h138
c26 0 48 3 67 15h3zM381 507c-41 0 -78 37 -78 79c0 46 35 85 82 85c45 0 81 -36 81 -81c0 -48 -38 -83 -85 -83zM184 507c-42 0 -78 37 -78 79c0 46 35 85 82 85c45 0 81 -36 81 -81c0 -48 -38 -83 -85 -83z" />
    <glyph glyph-name="ugrave" unicode="&#xf9;" horiz-adv-x="580" 
d="M230 475v-257c0 -44 -10 -128 56 -128c18 0 37 7 47 22c16 24 14 50 14 76v162c0 47 2 76 -35 107v3h137c26 0 48 3 68 15h3v-365c1 -47 -3 -76 34 -107v-3h-207v53c-33 -45 -78 -66 -137 -66c-39 0 -82 11 -113 38c-40 35 -40 81 -40 131v194c0 47 2 76 -35 107v3h138
c26 0 48 3 67 15h3zM196 680l242 -138l-58 -35l-234 87z" />
    <glyph glyph-name="yacute" unicode="&#xfd;" horiz-adv-x="480" 
d="M290 190l56 160c6 17 13 39 13 58c0 22 -10 36 -24 49v3h147v-3l-188 -494c-24 -65 -41 -108 -106 -143c-46 -23 -99 -28 -150 -28l-45 3l79 100c7 -2 14 -4 22 -4c75 0 105 55 123 119c-43 28 -64 60 -84 108l-104 248c-15 35 -33 72 -64 91v3h220v-3
c3 -17 12 -35 19 -54l9 -23zM388 680l50 -86l-234 -87l-58 35z" />
    <glyph glyph-name="ydieresis" unicode="&#xff;" horiz-adv-x="480" 
d="M290 190l56 160c6 17 13 39 13 58c0 22 -10 36 -24 49v3h147v-3l-188 -494c-24 -65 -41 -108 -106 -143c-46 -23 -99 -28 -150 -28l-45 3l79 100c7 -2 14 -4 22 -4c75 0 105 55 123 119c-43 28 -64 60 -84 108l-104 248c-15 35 -33 72 -64 91v3h220v-3
c3 -17 12 -35 19 -54l9 -23zM331 507c-41 0 -78 37 -78 79c0 46 35 85 82 85c45 0 81 -36 81 -81c0 -48 -38 -83 -85 -83zM134 507c-42 0 -78 37 -78 79c0 46 35 85 82 85c45 0 81 -36 81 -81c0 -48 -38 -83 -85 -83z" />
    <glyph glyph-name="zcaron" unicode="&#x17e;" horiz-adv-x="480" 
d="M-7 0l215 367c-20 5 -40 7 -60 7c-44 0 -76 -5 -115 -24l36 110h387l-208 -364c29 -7 59 -10 90 -10c48 0 100 4 144 26l-40 -112h-449zM236 609l167 72l66 -39l-233 -134l-230 134l64 39z" />
    <glyph glyph-name="Omega" unicode="&#x2126;" horiz-adv-x="707" 
d="M165 114v3c-57 50 -118 136 -118 254c0 160 122 301 308 301c198 0 302 -159 302 -295c0 -118 -58 -207 -120 -260v-3h134v-114h-275v85c60 37 114 115 114 262c0 114 -55 208 -155 208c-95 0 -160 -88 -160 -214c0 -132 53 -222 115 -256v-85h-276v114h131z" />
    <glyph glyph-name="pi" unicode="&#x3c0;" horiz-adv-x="610" 
d="M587 379h-67v-233c0 -68 6 -115 13 -146h-141c-13 21 -18 75 -18 139v240h-120c-4 -98 -26 -283 -60 -379h-141c31 110 57 283 57 379c-41 0 -70 -2 -93 -8l-15 93c25 21 80 35 170 35h426z" />
    <glyph glyph-name="Euro" unicode="&#x20ac;" horiz-adv-x="560" 
d="M424 247h-158c20 -81 68 -140 141 -140c43 0 94 10 136 38l-35 -141c-40 -13 -83 -17 -127 -17c-71 0 -140 17 -204 86c-43 46 -72 107 -86 174h-67v75h58v12c0 14 1 29 2 43h-60v75h75c15 51 39 98 71 133c60 66 134 89 213 89c47 0 120 -13 121 -13l5 -150
c-39 33 -85 52 -133 52c-61 0 -95 -47 -110 -111h158v-75h-168c-1 -12 -1 -23 -1 -35v-20h169v-75z" />
    <glyph glyph-name="estimated" unicode="&#x212e;" horiz-adv-x="828" 
d="M795 321h-618c-3 0 -5 -1 -5 -4v-187c0 -8 3 -15 8 -22c60 -62 143 -101 234 -101c99 0 186 45 246 114h55c-68 -81 -179 -133 -302 -133c-210 0 -381 153 -381 342c0 190 171 344 381 344c212 0 382 -154 382 -344v-9zM655 345v188c0 8 -3 17 -9 23
c-60 59 -141 97 -232 97c-90 0 -173 -39 -233 -100c-6 -7 -9 -15 -9 -24v-184c0 -2 2 -6 5 -6h474c3 0 4 4 4 6z" />
    <glyph glyph-name="partialdiff" unicode="&#x2202;" horiz-adv-x="580" 
d="M101 586l-40 105c30 21 92 56 190 56c155 0 284 -128 284 -363c0 -238 -111 -393 -288 -393c-146 0 -213 129 -213 228c0 151 93 250 215 250c80 0 128 -51 143 -74h1v27c0 105 -59 209 -161 209c-62 0 -106 -26 -131 -45zM262 108h1c66 0 107 98 117 174
c-8 27 -43 74 -100 74c-62 0 -103 -68 -103 -142c0 -58 34 -106 85 -106z" />
    <glyph glyph-name="product" unicode="&#x220f;" horiz-adv-x="722" 
d="M698 534h-99v-625h-143v625h-192v-625h-143v625h-99v128h676v-128z" />
    <glyph glyph-name="summation" unicode="&#x2211;" horiz-adv-x="557" 
d="M540 -91h-518v88l229 288l-220 278v99h492v-121h-298v-3l188 -231l-210 -266v-3h337v-129z" />
    <glyph glyph-name="uni2219" unicode="&#x2219;" horiz-adv-x="280" 
d="M136 139c-49 0 -91 43 -91 92c0 54 41 98 96 98c51 0 93 -42 93 -94c0 -55 -43 -96 -98 -96z" />
    <glyph glyph-name="radical" unicode="&#x221a;" horiz-adv-x="595" 
d="M608 795l-225 -926h-113l-145 406l-73 -29l-23 76l180 73l97 -287c7 -31 15 -62 21 -85l1 -1c4 22 9 57 17 93l163 680h100z" />
    <glyph glyph-name="infinity" unicode="&#x221e;" horiz-adv-x="755" 
d="M709 274v-2c0 -108 -78 -172 -159 -172c-53 0 -109 21 -172 108c-50 -63 -100 -108 -177 -108c-82 0 -156 67 -156 167c0 101 71 171 164 171c72 0 123 -40 173 -105c37 43 85 105 173 105c85 -1 154 -65 154 -164zM210 176h1c52 0 91 45 126 88c-39 53 -69 100 -130 100
c-52 0 -85 -40 -85 -97c0 -50 38 -91 88 -91zM547 364h-1c-56 0 -96 -58 -126 -93c56 -73 86 -95 132 -95c51 0 80 51 80 91c0 55 -33 97 -85 97z" />
    <glyph glyph-name="integral" unicode="&#x222b;" horiz-adv-x="396" 
d="M376 811l-13 -95c-10 4 -22 7 -36 7c-19 0 -37 -7 -49 -25c-19 -25 -24 -79 -24 -155c0 -156 15 -271 15 -446c0 -85 -13 -149 -33 -188c-29 -56 -85 -77 -137 -77c-32 0 -64 7 -80 15l16 100c10 -5 25 -10 43 -10c16 0 32 5 43 18c17 23 25 61 25 141
c0 179 -16 296 -16 461c0 113 18 174 61 219c30 32 78 46 123 46c26 0 50 -6 62 -11z" />
    <glyph glyph-name="approxequal" unicode="&#x2248;" horiz-adv-x="539" 
d="M453 439l49 -47c-34 -61 -83 -101 -136 -101c-40 0 -66 12 -109 38c-28 17 -51 31 -82 31c-43 0 -67 -34 -92 -68l-50 47c29 56 85 101 147 101c47 0 76 -19 102 -34c36 -22 54 -35 83 -35c37 0 61 28 88 68zM453 253l49 -47c-34 -60 -82 -101 -137 -101
c-40 0 -67 13 -108 38c-29 18 -52 32 -82 32c-44 0 -67 -34 -92 -69l-50 47c29 56 86 101 147 101c47 0 77 -19 101 -33c30 -18 52 -36 83 -36c38 0 60 27 89 68z" />
    <glyph glyph-name="notequal" unicode="&#x2260;" horiz-adv-x="539" 
d="M400 493l-35 -81h127v-81h-158l-55 -125h213v-81h-244l-48 -109l-63 26l36 83h-127v81h158l55 125h-213v81h244l47 107z" />
    <glyph glyph-name="lessequal" unicode="&#x2264;" horiz-adv-x="539" 
d="M490 98l-440 213v88l439 212v-92l-359 -163v-2l360 -164v-92zM493 -18h-446v82h446v-82z" />
    <glyph glyph-name="greaterequal" unicode="&#x2265;" horiz-adv-x="539" 
d="M52 611l439 -213v-87l-439 -213v92l359 164v2l-359 163v92zM490 -18h-442v82h442v-82z" />
    <glyph glyph-name="lozenge" unicode="&#x25ca;" horiz-adv-x="594" 
d="M547 330l-196 -378h-114l-190 378l195 379h114zM421 327l-104 214c-7 17 -15 40 -18 56h-3c-5 -17 -12 -38 -19 -56l-105 -208l106 -218c6 -17 13 -40 16 -52h4c4 13 12 41 17 51z" />
    <glyph glyph-name="uni02C9" unicode="&#x2c9;" horiz-adv-x="580" 
d="M512 637v-96h-446v96h446z" />
    <glyph glyph-name="uni00AD" unicode="&#xad;" horiz-adv-x="440" 
d="M160 301h119c42 0 81 4 121 15l-51 -73c-6 -8 -24 -38 -32 -43c-9 -7 -27 -5 -37 -5h-119c-42 0 -81 -4 -121 -15l51 73c6 8 24 38 32 43c9 7 27 5 37 5z" />
    <glyph glyph-name="uni03A9" unicode="&#x3a9;" horiz-adv-x="707" 
d="M165 114v3c-57 50 -118 136 -118 254c0 160 122 301 308 301c198 0 302 -159 302 -295c0 -118 -58 -207 -120 -260v-3h134v-114h-275v85c60 37 114 115 114 262c0 114 -55 208 -155 208c-95 0 -160 -88 -160 -214c0 -132 53 -222 115 -256v-85h-276v114h131z" />
    <glyph glyph-name="uni00A0" unicode="&#xa0;" horiz-adv-x="300" 
 />
    <glyph glyph-name="afii61289" unicode="&#x2113;" horiz-adv-x="525" 
d="M449 190l58 -60c-56 -106 -138 -140 -217 -140c-117 0 -169 65 -184 147v9c-16 -11 -32 -24 -49 -36l-35 75c28 23 56 42 82 64v226c0 172 80 251 186 251c103 0 148 -79 148 -174c0 -112 -74 -214 -195 -324l1 -38c2 -53 35 -85 80 -85c51 0 96 42 125 85zM243 484v-129
c61 68 102 144 102 202c0 44 -12 70 -47 70c-26 0 -55 -31 -55 -143z" />
    <glyph glyph-name="uni03BC" unicode="&#x3bc;" horiz-adv-x="580" 
d="M347 0v53c-29 -39 -66 -60 -115 -65l11 -196h-200l17 294c-3 29 -3 49 -3 70v194c0 47 2 76 -35 107v3h138c26 0 48 3 67 15h3v-257c0 -44 -10 -128 56 -128c18 0 37 7 47 22c16 24 14 50 14 76v162c0 47 2 76 -35 107v3h137c26 0 48 3 68 15h3v-365
c1 -47 -3 -76 34 -107v-3h-207z" />
    <glyph glyph-name="uni2215" unicode="&#x2215;" horiz-adv-x="200" 
d="M341 658l-375 -658h-95l376 658h94z" />
    <glyph glyph-name="a.superior" horiz-adv-x="380" 
d="M337 448l-23 -50h-23c-25 0 -50 5 -70 20c-32 25 -30 52 -30 89v19l-18 -9c-14 -7 -32 -15 -32 -33c0 -20 14 -37 35 -37c3 0 7 1 10 1l-24 -48l-28 -2c-18 0 -41 2 -57 11c-24 13 -41 40 -41 67c0 105 155 71 155 118c0 17 -22 23 -36 23c-23 0 -50 -8 -71 -18l26 64
c23 6 47 8 71 8c29 0 61 -6 84 -26c28 -25 25 -68 25 -102c0 -39 -11 -96 47 -95z" />
    <glyph glyph-name="o.superior" horiz-adv-x="380" 
d="M183 398c-84 0 -142 52 -142 137s65 136 146 136c83 0 145 -52 145 -137c0 -87 -68 -136 -149 -136zM189 450c43 0 48 43 48 76c0 35 -7 91 -52 91c-40 0 -50 -37 -50 -71c0 -37 5 -96 54 -96z" />
    <glyph glyph-name="one.superior" horiz-adv-x="336" 
d="M234 674v-322c0 -30 -2 -64 33 -79v-3h-186v3c37 20 39 46 39 82v206l-65 14v3c68 19 133 46 176 96h3z" />
    <glyph glyph-name="two.superior" horiz-adv-x="336" 
d="M27 572l28 82c35 13 76 20 114 20c63 0 136 -34 136 -100c0 -40 -29 -85 -51 -120l-76 -111l-8 -10c17 -4 34 -5 52 -5c44 0 76 11 115 29l-30 -87h-307l99 150l51 84c11 19 27 46 27 68c0 25 -21 40 -46 40c-38 0 -74 -20 -104 -40z" />
    <glyph glyph-name="three.superior" horiz-adv-x="336" 
d="M102 460h-34v54h13c41 0 91 6 91 55c0 34 -30 48 -63 48c-28 0 -63 -13 -88 -25l21 68c35 9 71 14 107 14c75 0 146 -35 146 -93c0 -40 -32 -72 -73 -81v-2c56 -11 99 -49 99 -104c0 -94 -108 -132 -194 -132c-33 0 -66 4 -99 11l-18 73c29 -15 68 -25 101 -25
c46 0 85 29 85 73c0 34 -16 66 -94 66z" />
    <glyph glyph-name="uni2206" unicode="&#x2206;" horiz-adv-x="657" 
d="M24 0v79l220 596h174l214 -594v-81h-608zM175 114h298l-96 252c-14 49 -40 124 -51 164h-3c-8 -31 -33 -99 -47 -150z" />
    <glyph glyph-name="uni2010" unicode="&#x2010;" horiz-adv-x="440" 
d="M160 301h119c42 0 81 4 121 15l-51 -73c-6 -8 -24 -38 -32 -43c-9 -7 -27 -5 -37 -5h-119c-42 0 -81 -4 -121 -15l51 73c6 8 24 38 32 43c9 7 27 5 37 5z" />
    </font>
</defs>
</svg>
