<?xml version="1.0" standalone="no"?>
<!DOCTYPE svg PUBLIC "-//W3C//DTD SVG 1.1//EN" "http://www.w3.org/Graphics/SVG/1.1/DTD/svg11.dtd" >
<svg xmlns="http://www.w3.org/2000/svg" xmlns:xlink="http://www.w3.org/1999/xlink" version="1.1">
<metadata>
Created by FontForge 20201107 at Wed Jun 13 18:11:30 2007
 By Jimmy Wärting
Copyright 1985, 1987, 1990, 1994, 2001, 2002 Adobe Systems Incorporated. All rights reserved. Friz Quadrata
</metadata>
<defs>
<font id="FrizQuadrataStd" horiz-adv-x="560" >
  <font-face 
    font-family="Friz Quadrata Std"
    font-weight="500"
    font-stretch="normal"
    units-per-em="1000"
    panose-1="2 14 6 2 4 5 4 2 4 4"
    ascent="674"
    descent="-326"
    x-height="460"
    cap-height="658"
    bbox="-147 -250 1138 884"
    underline-thickness="50"
    underline-position="-100"
    stemh="72"
    stemv="91"
    unicode-range="U+0020-FB02"
  />
<missing-glyph horiz-adv-x="500" 
d="M0 0v700h500v-700h-500zM250 395l170 255h-340zM280 350l170 -255v510zM80 50h340l-170 255zM50 605v-510l170 255z" />
    <glyph glyph-name="f_i" unicode="fi" horiz-adv-x="520" 
d="M170 460h174c27 0 69 -3 88 13h3v-363c0 -46 -6 -82 38 -107v-3h-167v3c44 25 38 61 38 107v240c0 43 -6 44 -49 44h-126v-284c0 -46 -5 -82 39 -107v-3h-167v3c43 24 37 61 37 107v284h-49l49 66v20c0 53 -2 91 36 136c42 48 103 63 165 63c95 0 163 -41 163 -95
c0 -35 -22 -58 -57 -58c-26 0 -49 21 -49 48c0 10 3 17 7 25c-24 8 -52 14 -79 14c-74 0 -94 -17 -94 -95v-58z" />
    <glyph glyph-name="f_l" unicode="fl" horiz-adv-x="500" 
d="M23 394l48 66c0 65 -3 104 36 148c41 46 99 66 159 66c53 0 81 -18 112 -18c16 0 33 7 43 18h3v-564c0 -46 -6 -83 38 -107v-3h-167v3c44 24 38 61 38 107v480c-25 13 -55 18 -84 18c-92 0 -87 -48 -87 -148h136v-80h-3c-4 11 -19 14 -31 14h-102v-284
c0 -46 -6 -82 38 -107v-3h-167v3c44 24 38 61 38 107v284h-48z" />
    <glyph glyph-name=".notdef" horiz-adv-x="500" 
d="M0 0v700h500v-700h-500zM250 395l170 255h-340zM280 350l170 -255v510zM80 50h340l-170 255zM50 605v-510l170 255z" />
    <glyph glyph-name="space" unicode=" " horiz-adv-x="280" 
 />
    <glyph glyph-name="exclam" unicode="!" horiz-adv-x="280" 
d="M200 49c0 -33 -26 -62 -60 -62c-38 0 -64 29 -64 65c0 35 31 59 64 59c34 0 60 -29 60 -62zM173 170h-72l-16 376c-1 24 -1 77 -10 99c-7 14 -16 21 -29 26v3h121c9 0 29 4 29 -10l-1 -19z" />
    <glyph glyph-name="quotedbl" unicode="&#x22;" horiz-adv-x="260" 
d="M50 457v201h46v-201h-46zM164 457v201h46v-201h-46z" />
    <glyph glyph-name="numbersign" unicode="#" 
d="M375 231l-32 -231h-63l34 231h-95l-33 -231h-62l33 231h-121v60h130l13 92h-119v60h126l33 215h61l-31 -215h94l32 215h62l-30 -215h109v-60h-119l-13 -92h110v-60h-119zM336 383h-95l-13 -92h94z" />
    <glyph glyph-name="dollar" unicode="$" 
d="M310 0v-86h-54v86l-178 15v117h3c49 -43 107 -66 175 -66v251c-83 35 -186 75 -186 182c0 97 99 153 186 159v77h54v-77c42 -4 85 -11 126 -25v-105h-3c-30 34 -76 64 -123 64v-192c90 -47 196 -91 196 -210c0 -112 -95 -174 -196 -190zM310 291v-225
c49 4 105 54 105 116c0 57 -60 88 -105 109zM256 421v171c-46 0 -95 -34 -95 -85c0 -46 59 -69 95 -86z" />
    <glyph glyph-name="percent" unicode="%" horiz-adv-x="780" 
d="M174 260c-115 0 -160 112 -160 211c0 96 53 203 161 203c109 0 157 -107 157 -202c0 -110 -60 -216 -158 -212zM171 626c-75 0 -93 -95 -93 -153c0 -61 19 -165 97 -165c76 0 93 99 93 158c0 57 -23 160 -97 160zM608 -16c-115 0 -160 112 -160 211c0 96 53 203 161 203
c109 0 157 -107 157 -202c0 -118 -64 -210 -158 -212zM605 350c-75 0 -93 -95 -93 -153c0 -60 19 -165 97 -165c77 0 93 100 93 158s-23 160 -97 160zM581 658l-323 -658h-59l324 658h58z" />
    <glyph glyph-name="ampersand" unicode="&#x26;" horiz-adv-x="780" 
d="M807 0h-109c-35 0 -67 2 -94 16c-36 19 -88 58 -119 88c-51 -82 -112 -117 -208 -117c-113 0 -226 67 -226 191c0 99 65 158 138 216c-37 38 -80 85 -80 141c0 83 78 139 156 139c80 0 144 -55 144 -138c0 -66 -41 -107 -87 -148c149 -143 296 -298 485 -385v-3zM265 447
c32 23 65 59 65 100c0 38 -32 61 -69 61c-36 0 -66 -19 -66 -57c0 -40 43 -80 70 -104zM445 139l-197 193c-49 -35 -90 -86 -90 -148c0 -82 63 -131 140 -131c61 0 112 40 147 86z" />
    <glyph glyph-name="quoteright" unicode="&#x2019;" horiz-adv-x="280" 
d="M94 483l-10 8c13 14 53 57 53 77c0 7 -6 9 -12 10c-27 4 -49 21 -49 51c0 32 26 57 57 57c37 0 64 -30 64 -67c0 -39 -25 -78 -48 -108c-7 -9 -22 -32 -37 -32c-6 0 -12 2 -18 4z" />
    <glyph glyph-name="parenleft" unicode="(" horiz-adv-x="300" 
d="M192 658h67c-79 -118 -126 -258 -126 -400c0 -135 46 -285 126 -395h-67c-78 113 -136 260 -136 398c0 144 56 279 136 397z" />
    <glyph glyph-name="parenright" unicode=")" horiz-adv-x="300" 
d="M100 -137h-66c79 110 125 260 125 395c0 142 -47 282 -125 400h66c81 -118 136 -253 136 -397c0 -138 -58 -285 -136 -398z" />
    <glyph glyph-name="asterisk" unicode="*" horiz-adv-x="420" 
d="M153 485l16 20l7 10l-9 3c-22 7 -47 12 -71 12c-10 0 -20 -1 -30 -3l27 77c22 -24 52 -36 82 -46l12 -4v9c0 33 -4 67 -23 95h83c-17 -26 -19 -60 -19 -91v-13l8 3c31 10 67 22 85 50l27 -75l-18 1c-27 0 -51 -7 -76 -15l-12 -3l20 -24c18 -21 33 -39 59 -48l-66 -48
c-4 32 -21 60 -40 86l-7 10l-5 -7c-19 -27 -36 -57 -41 -89l-66 48c27 9 38 21 57 42z" />
    <glyph glyph-name="plus" unicode="+" horiz-adv-x="600" 
d="M66 262h205v206h56v-206h205v-56h-205v-206h-56v206h-205v56z" />
    <glyph glyph-name="comma" unicode="," horiz-adv-x="280" 
d="M108 -107l-38 3c17 14 73 73 73 93c0 7 -8 9 -13 10c-26 7 -47 24 -47 53c0 34 26 59 60 59c39 0 62 -31 62 -68c0 -48 -28 -93 -59 -126c-11 -11 -22 -24 -38 -24z" />
    <glyph glyph-name="hyphen" unicode="-" horiz-adv-x="360" 
d="M207 211h-101c-35 0 -54 0 -87 -12l-2 2l53 60c7 7 13 16 23 21c11 5 47 4 60 4h101c35 0 54 0 87 12l2 -2l-53 -60c-7 -7 -13 -16 -23 -21c-11 -5 -47 -4 -60 -4z" />
    <glyph glyph-name="period" unicode="." horiz-adv-x="280" 
d="M202 50c0 -34 -27 -63 -61 -63c-37 0 -63 29 -63 66c0 34 31 58 64 58s60 -29 60 -61z" />
    <glyph glyph-name="slash" unicode="/" horiz-adv-x="400" 
d="M2 -137l315 795h72l-313 -795h-74z" />
    <glyph glyph-name="zero" unicode="0" 
d="M277 -16c-157 2 -263 158 -263 343s91 347 267 347c185 0 264 -179 264 -341c0 -163 -80 -349 -268 -349zM277 596c-126 0 -156 -162 -156 -259c0 -101 33 -275 162 -275c99 0 155 122 155 263c0 143 -60 269 -161 271z" />
    <glyph glyph-name="one" unicode="1" 
d="M125 527v3c89 31 168 95 214 175h3v-564c0 -57 -4 -103 50 -138v-3h-210v3c62 30 59 77 59 138v386h-116z" />
    <glyph glyph-name="two" unicode="2" 
d="M487 0h-459l252 365c27 39 68 86 68 136c0 60 -57 95 -112 95c-64 0 -123 -31 -173 -64h-3l60 122c42 12 87 20 131 20c111 0 211 -59 211 -149c0 -46 -19 -82 -42 -120l-219 -323l132 -10c72 0 145 13 206 46h3z" />
    <glyph glyph-name="three" unicode="3" 
d="M157 315v83l46 -3c91 -6 150 43 150 101c0 66 -69 100 -126 100s-107 -22 -152 -51h-3l41 107c42 16 88 22 133 22c93 0 213 -45 213 -156c0 -76 -54 -122 -122 -141c92 -17 172 -72 172 -175c0 -169 -184 -218 -321 -218l-104 8l-49 120h3c54 -29 118 -50 182 -50
c85 0 175 47 175 144c0 74 -51 119 -159 119c-26 0 -53 -2 -79 -10z" />
    <glyph glyph-name="four" unicode="4" 
d="M337 136h-348l311 522h138v-444c46 0 92 13 127 42l-48 -120h-79v-20c0 -44 1 -91 44 -113v-3h-194v3c55 20 49 56 49 107v26zM337 214v371l-211 -364c52 -3 124 -7 211 -7z" />
    <glyph glyph-name="five" unicode="5" 
d="M458 658v-121h-3c-37 40 -106 43 -159 43l-109 -6l-9 -165c32 9 64 13 97 13c131 0 242 -74 242 -214c0 -134 -128 -224 -297 -224c-43 0 -86 6 -129 16l-47 102c54 -28 114 -40 175 -40c92 0 184 42 184 147c0 96 -92 135 -174 135c-49 0 -108 -13 -153 -33l22 347h360z
" />
    <glyph glyph-name="six" unicode="6" 
d="M474 677l-48 -63c-68 -10 -147 -61 -197 -107c-68 -64 -108 -148 -108 -242c0 -104 59 -215 176 -215c88 0 140 67 140 153c0 101 -53 168 -155 168c-39 0 -76 -15 -110 -34l63 79c28 15 58 21 89 21c125 0 214 -88 214 -213c0 -141 -113 -240 -251 -240
c-158 0 -267 126 -267 280c0 238 239 393 454 413z" />
    <glyph glyph-name="seven" unicode="7" 
d="M98 658h431l-195 -456c-58 -135 -78 -179 -31 -199v-3h-167l252 574c-46 10 -93 18 -140 18c-70 0 -137 -12 -192 -54h-3z" />
    <glyph glyph-name="eight" unicode="8" 
d="M164 346c-69 28 -126 78 -126 158c0 102 100 170 238 170c102 0 234 -45 234 -166c0 -72 -64 -119 -122 -148c84 -40 160 -78 160 -184c0 -114 -116 -192 -269 -192c-143 0 -265 70 -265 186c0 93 72 144 150 176zM225 315c-52 -21 -110 -71 -110 -131
c0 -82 67 -134 171 -134c71 0 161 32 161 114c0 100 -147 128 -222 151zM327 385c41 22 82 64 82 114c0 63 -51 109 -147 109c-54 0 -123 -23 -123 -87c0 -85 123 -115 188 -136z" />
    <glyph glyph-name="nine" unicode="9" 
d="M84 -20l50 62c160 33 306 179 306 347c0 102 -57 214 -172 214c-86 0 -146 -67 -146 -151c0 -91 60 -163 152 -163c37 0 74 13 106 32l-68 -83c-26 -10 -53 -15 -81 -15c-117 0 -210 87 -210 208c0 146 119 243 260 243c157 0 260 -123 260 -274
c0 -115 -61 -226 -150 -297c-91 -72 -193 -108 -307 -123z" />
    <glyph glyph-name="colon" unicode=":" horiz-adv-x="280" 
d="M204 316c0 -33 -26 -62 -60 -62c-38 0 -64 29 -64 65c0 35 31 59 64 59s60 -29 60 -62zM200 50c0 -34 -26 -63 -60 -63c-38 0 -64 29 -64 66c0 34 31 58 64 58s60 -29 60 -61z" />
    <glyph glyph-name="semicolon" unicode=";" horiz-adv-x="280" 
d="M202 316c0 -33 -26 -62 -60 -62c-38 0 -64 29 -64 65c0 35 31 59 64 59s60 -29 60 -62zM108 -107l-38 3c17 14 73 73 73 93c0 7 -8 9 -13 10c-26 7 -47 24 -47 53c0 34 26 59 60 59c39 0 62 -31 62 -68c0 -48 -28 -93 -59 -126c-11 -11 -22 -24 -38 -24z" />
    <glyph glyph-name="less" unicode="&#x3c;" horiz-adv-x="600" 
d="M548 37v-57l-498 227v52l498 229v-58l-433 -198z" />
    <glyph glyph-name="equal" unicode="=" horiz-adv-x="600" 
d="M66 331h466v-56h-466v56zM66 193h466v-56h-466v56z" />
    <glyph glyph-name="greater" unicode="&#x3e;" horiz-adv-x="600" 
d="M50 37l433 195l-433 198v58l498 -229v-52l-498 -227v57z" />
    <glyph glyph-name="question" unicode="?" horiz-adv-x="480" 
d="M251 49c0 -34 -26 -62 -60 -62c-37 0 -64 28 -64 65c0 34 31 59 64 59c34 0 60 -30 60 -62zM222 158l-78 -9c-3 13 -5 26 -5 38c0 68 35 102 83 143c44 37 90 82 90 143c0 81 -68 129 -144 129c-49 0 -91 -19 -133 -42l56 93c32 14 66 21 100 21c106 0 222 -57 222 -178
c0 -81 -48 -129 -105 -180c-24 -22 -51 -44 -72 -69c-15 -16 -19 -32 -19 -53c0 -12 2 -24 5 -36z" />
    <glyph glyph-name="at" unicode="@" horiz-adv-x="700" 
d="M561 514l-106 -274c-5 -13 -15 -39 -15 -53c0 -11 10 -18 21 -18c46 0 89 36 116 70c33 41 50 92 50 145c0 139 -123 240 -256 240c-166 0 -298 -139 -298 -303c0 -153 133 -287 284 -287c111 0 204 55 265 146h55c-61 -125 -182 -196 -315 -196
c-188 0 -343 153 -343 341c0 195 162 349 354 349c189 0 308 -144 308 -282c0 -156 -127 -268 -238 -268c-33 0 -71 17 -70 56c-33 -27 -69 -54 -114 -54c-73 0 -111 54 -111 124c0 119 89 283 223 283c39 0 64 -11 89 -39l10 20h91zM267 174c59 0 96 78 117 125
c14 29 49 116 49 147c0 22 -15 39 -38 39c-46 0 -93 -73 -113 -108c-23 -44 -51 -110 -51 -160c0 -23 10 -43 36 -43z" />
    <glyph glyph-name="A" unicode="A" horiz-adv-x="720" 
d="M473 247h-252l-52 -141c-21 -56 -28 -85 20 -103v-3h-184v3c58 29 75 85 97 142l167 417c14 36 33 78 -15 93v3h158l208 -513c23 -57 41 -113 98 -142v-3h-205v3c49 22 41 33 14 103zM444 321l-98 252l-99 -252h197z" />
    <glyph glyph-name="B" unicode="B" horiz-adv-x="580" 
d="M83 141v377c0 45 7 118 -44 137v3h237c132 0 209 -56 209 -145c0 -67 -43 -105 -100 -130c90 -19 163 -79 163 -177c0 -77 -53 -143 -120 -175c-70 -34 -149 -31 -224 -31h-165v3c50 19 44 92 44 138zM185 80l87 -8c82 -8 165 30 165 125c0 97 -94 139 -182 134l-70 -4
v-247zM185 393h33c65 0 158 22 158 104c0 69 -64 105 -124 99l-67 -7v-196z" />
    <glyph glyph-name="C" unicode="C" horiz-adv-x="600" 
d="M553 649v-115c-55 35 -119 57 -185 57c-138 0 -234 -101 -234 -246c0 -147 100 -278 254 -278c75 0 150 27 213 63h3l-51 -116c-47 -22 -99 -30 -151 -30c-236 0 -382 132 -382 346c0 207 146 344 351 344c61 0 123 -11 182 -25z" />
    <glyph glyph-name="D" unicode="D" horiz-adv-x="680" 
d="M80 144v377c0 46 7 119 -44 134v3h245c228 0 370 -124 370 -323c0 -197 -151 -335 -375 -335h-240v3c50 34 44 82 44 141zM182 575v-496c24 -5 48 -7 73 -7c149 0 282 78 282 251c0 175 -98 263 -265 263c-30 0 -60 -4 -90 -11z" />
    <glyph glyph-name="E" unicode="E" horiz-adv-x="520" 
d="M189 321v-237l127 -12c66 -6 135 15 185 59h3l-45 -131h-417v3c51 18 45 92 45 137v377c0 46 6 119 -45 138v3h320c17 0 34 -2 47 5h3v-117h-3c-31 36 -72 40 -118 40c-35 0 -70 -1 -102 -7v-186h119c16 0 32 0 44 6h3v-106h-3c-16 29 -58 28 -89 28h-74z" />
    <glyph glyph-name="F" unicode="F" horiz-adv-x="420" 
d="M182 321v-181c0 -45 -8 -118 42 -137v-3h-189v3c51 18 45 92 45 137v377c0 46 6 119 -45 138v3h320c17 0 34 -2 47 5h3v-116h-3c-31 35 -72 39 -118 39c-35 0 -70 -1 -102 -7v-186h120c15 0 31 0 43 6h3v-106h-3c-16 30 -58 28 -89 28h-74z" />
    <glyph glyph-name="G" unicode="G" horiz-adv-x="680" 
d="M591 657v-115h-3c-41 46 -117 60 -178 60c-156 0 -275 -102 -275 -263s128 -283 286 -283c46 0 94 6 139 19v144c0 46 -1 95 -46 113v3h153v-3c-5 -12 -5 -28 -5 -43v-230c0 -15 -1 -31 5 -45c-80 -15 -158 -30 -239 -30c-256 0 -407 140 -407 341c0 215 171 349 413 349
c53 0 105 -6 157 -17z" />
    <glyph glyph-name="H" unicode="H" horiz-adv-x="720" 
d="M540 321h-361v-181c0 -45 -6 -118 44 -137v-3h-190v3c50 19 44 92 44 137v378c0 45 7 118 -44 137v3h190v-3c-50 -19 -44 -92 -44 -138v-124h361v124c0 46 7 119 -44 138v3h191v-3c-51 -19 -45 -92 -45 -137v-378c0 -45 -6 -118 45 -137v-3h-191v3c51 19 44 92 44 137
v181z" />
    <glyph glyph-name="I" unicode="I" horiz-adv-x="260" 
d="M81 140v377c0 46 7 119 -44 138v3h190v-3c-50 -19 -44 -93 -44 -138v-377c0 -45 -6 -118 44 -137v-3h-190v3c50 18 44 92 44 137z" />
    <glyph glyph-name="J" unicode="J" horiz-adv-x="260" 
d="M87 12v505c0 46 6 119 -45 138v3h191v-3c-50 -19 -44 -92 -44 -138v-567c0 -106 -77 -164 -224 -180v3c111 71 122 131 122 239z" />
    <glyph glyph-name="K" unicode="K" horiz-adv-x="600" 
d="M83 141v377c0 45 6 118 -45 137v3h192v-3c-51 -18 -45 -92 -45 -137v-377c0 -46 -6 -119 45 -138v-3h-192v3c51 19 45 93 45 138zM198 342l131 174c33 47 93 109 26 139v3h180v-1l-230 -295l202 -265c31 -41 69 -69 120 -94v-3h-94c-49 0 -95 19 -113 43z" />
    <glyph glyph-name="L" unicode="L" horiz-adv-x="520" 
d="M190 81l136 -9c68 -4 127 19 177 61h3l-52 -133h-411v3c51 18 45 92 45 137v377c0 46 6 119 -45 138v3h191v-3c-51 -19 -44 -93 -44 -138v-436z" />
    <glyph glyph-name="M" unicode="M" horiz-adv-x="900" 
d="M461 171l166 424c8 21 15 41 15 62v1h173v-3c-24 -7 -31 -36 -31 -59l66 -491c6 -47 11 -74 51 -102v-3h-193v3c35 11 41 41 41 75l-57 482l-224 -573c-50 38 -64 65 -88 121l-190 451l-57 -430c-8 -61 -15 -105 32 -126v-3h-163v3c42 37 48 86 56 140l57 419
c4 28 15 68 -31 93v3h175v-1c0 -16 8 -31 14 -45z" />
    <glyph glyph-name="N" unicode="N" horiz-adv-x="720" 
d="M158 517v-387c0 -56 -1 -96 52 -127v-3h-177v3c53 31 53 71 53 127v399c0 56 0 96 -52 126v3h146v-1c4 -12 8 -17 15 -25l14 -20l366 -462v379c0 56 1 96 -52 126v3h176v-3c-52 -30 -52 -70 -52 -126v-561c-71 24 -102 57 -146 114z" />
    <glyph glyph-name="O" unicode="O" horiz-adv-x="780" 
d="M398 675c210 1 358 -159 358 -339c0 -204 -169 -352 -368 -352c-198 0 -365 142 -365 347c0 190 165 349 375 344zM391 603c-155 0 -254 -112 -254 -263c0 -140 99 -284 256 -284c152 0 249 111 249 260c0 146 -93 287 -251 287z" />
    <glyph glyph-name="P" unicode="P" horiz-adv-x="520" 
d="M45 658h243c130 0 229 -63 229 -175c0 -115 -107 -188 -220 -188c-25 0 -50 3 -73 14c86 5 179 58 179 154c0 88 -62 123 -142 123c-24 0 -47 -2 -70 -6v-451c0 -56 -1 -96 52 -126v-3h-199v3c51 18 45 92 45 137v377c0 45 6 118 -44 138v3z" />
    <glyph glyph-name="Q" unicode="Q" horiz-adv-x="780" 
d="M885 -129h14c-34 -32 -80 -51 -127 -51c-99 0 -242 113 -319 174c-13 -3 -27 -5 -41 -7c-13 -2 -27 -3 -41 -3c-195 0 -354 147 -354 345c0 205 174 345 371 345s362 -135 362 -339c0 -118 -68 -245 -178 -296c83 -75 196 -168 313 -168zM387 56c150 0 249 112 249 259
c0 139 -86 287 -254 287c-160 0 -251 -124 -251 -255c0 -163 105 -291 256 -291z" />
    <glyph glyph-name="R" unicode="R" horiz-adv-x="540" 
d="M39 658h238c134 0 207 -70 207 -161c0 -88 -77 -157 -159 -176l144 -181c42 -52 105 -104 162 -140h-92c-53 0 -86 13 -116 50l-122 151l-92 141c80 12 173 49 173 143c0 72 -62 114 -129 111c-23 -1 -45 -4 -68 -8v-448c0 -46 -6 -119 45 -137v-3h-191v3
c51 18 44 92 44 137v377c0 46 7 119 -44 138v3z" />
    <glyph glyph-name="S" unicode="S" horiz-adv-x="520" 
d="M428 652v-113c-39 40 -101 63 -157 63c-57 0 -129 -22 -129 -91c0 -137 344 -135 344 -320c0 -107 -112 -207 -268 -207c-61 0 -122 9 -179 30l-29 125c59 -51 141 -83 219 -83c57 0 143 34 143 104c0 156 -344 128 -344 340c0 126 129 174 251 174c50 0 101 -7 149 -22z
" />
    <glyph glyph-name="T" unicode="T" horiz-adv-x="460" 
d="M275 586v-456c0 -57 -1 -96 52 -127v-3h-198v3c50 19 44 92 44 137v446h-88c-43 0 -88 -11 -119 -40h-3l35 119h3c12 -5 25 -5 38 -7h398c17 0 33 1 46 7h3l-32 -119h-3c-13 35 -53 40 -86 40h-90z" />
    <glyph glyph-name="U" unicode="U" horiz-adv-x="680" 
d="M496 0v66c-44 -58 -126 -82 -196 -82c-66 0 -136 21 -181 70c-53 58 -51 125 -51 197v267c0 45 7 118 -44 137v3h190v-3c-50 -19 -44 -92 -44 -137v-267c0 -133 56 -195 159 -195c56 0 113 23 146 70c22 30 21 55 21 91v301c0 45 6 118 -44 137v3h190l1 -3
c-51 -19 -45 -92 -45 -138v-377c0 -45 -6 -118 45 -137v-3h-147z" />
    <glyph glyph-name="V" unicode="V" horiz-adv-x="600" 
d="M315 118l136 359c27 71 61 153 -1 178v3h149l-264 -688c-70 46 -93 54 -122 133l-151 409c-19 51 -34 109 -78 143v3h146l-1 -12c0 -22 19 -71 27 -93z" />
    <glyph glyph-name="W" unicode="W" horiz-adv-x="940" 
d="M490 475l-156 -505c-91 66 -100 59 -133 162l-118 369c-18 55 -33 120 -83 154v3h146c-4 -22 6 -53 12 -72l149 -465l117 380c19 61 39 126 -16 154v3h141c-6 -25 1 -57 15 -101l139 -433l113 366c18 57 51 138 -27 165v3h154l-211 -688c-92 63 -99 58 -132 161z" />
    <glyph glyph-name="X" unicode="X" horiz-adv-x="620" 
d="M298 286l-139 -184c-24 -32 -54 -75 7 -99v-3h-194v3l277 348l-145 210c-26 38 -54 78 -96 97h116c31 0 40 -8 50 -24l145 -209l99 134c25 34 59 88 -9 96v3h183l-227 -296l160 -238c32 -48 63 -103 120 -124h-115c-41 0 -58 26 -65 35z" />
    <glyph glyph-name="Y" unicode="Y" horiz-adv-x="540" 
d="M331 288v-158c0 -60 0 -90 51 -127v-3h-195v3c49 25 42 90 42 137v148l-166 267c-27 44 -47 77 -95 103h91c32 0 62 -7 75 -28l160 -261l124 186c17 25 40 73 -16 100v3h175z" />
    <glyph glyph-name="Z" unicode="Z" horiz-adv-x="600" 
d="M536 0h-527l362 576l-170 10c-62 4 -98 -9 -150 -43h-3l51 115h442l-360 -574l210 -12c73 -4 136 18 198 55h3z" />
    <glyph glyph-name="bracketleft" unicode="[" horiz-adv-x="300" 
d="M51 658h220v-54h-101v-686h101v-54h-220v3c40 26 34 80 34 123v548c0 42 3 92 -34 117v3z" />
    <glyph glyph-name="backslash" unicode="\" horiz-adv-x="540" 
d="M149 658l315 -795h-74l-313 795h72z" />
    <glyph glyph-name="bracketright" unicode="]" horiz-adv-x="300" 
d="M246 -136h-220v54h101v686h-101v54h220v-3c-37 -25 -34 -75 -34 -117v-548c0 -43 -6 -97 34 -123v-3z" />
    <glyph glyph-name="asciicircum" unicode="^" horiz-adv-x="600" 
d="M123 258h-59l209 400h51l211 -400h-59l-179 346z" />
    <glyph glyph-name="underscore" unicode="_" horiz-adv-x="500" 
d="M0 -75h500v-50h-500v50z" />
    <glyph glyph-name="quoteleft" unicode="&#x2018;" horiz-adv-x="280" 
d="M185 682l10 -8c-13 -14 -53 -57 -53 -77c0 -7 6 -9 12 -10c27 -4 49 -21 49 -51c0 -32 -26 -57 -57 -57c-37 0 -64 30 -64 67c0 39 25 78 48 108c7 9 22 32 37 32c6 0 12 -2 18 -4z" />
    <glyph glyph-name="a" unicode="a" horiz-adv-x="480" 
d="M490 53l-44 -66c-66 4 -132 24 -132 104v158c-29 -15 -63 -23 -96 -31c-48 -11 -102 -22 -102 -83c0 -62 56 -82 109 -82c24 0 48 7 72 14l-59 -75c-17 -3 -35 -5 -52 -5c-101 0 -171 64 -171 147c0 186 299 100 299 209c0 48 -59 64 -96 64c-51 0 -91 -19 -136 -40
l67 100l65 6c108 0 190 -31 191 -152v-150c0 -79 2 -109 85 -118z" />
    <glyph glyph-name="b" unicode="b" horiz-adv-x="540" 
d="M33 658h62c24 0 49 0 63 16h3v-605c27 -7 55 -12 83 -12c110 0 173 71 173 170c0 97 -49 172 -150 172c-32 0 -57 -8 -84 -22l54 85c23 8 47 11 71 11c114 0 210 -91 210 -228c0 -157 -114 -258 -296 -258c-68 0 -133 11 -182 18v3c33 14 30 47 30 80v460
c0 46 6 82 -37 107v3z" />
    <glyph glyph-name="c" unicode="c" horiz-adv-x="460" 
d="M415 461v-103h-3c-29 33 -77 49 -122 49c-97 0 -167 -68 -167 -163c0 -115 97 -191 208 -191c51 0 107 20 146 49h3l-52 -95c-42 -16 -88 -20 -132 -20c-154 0 -274 101 -274 231c0 172 134 255 285 255c36 0 73 -4 108 -12z" />
    <glyph glyph-name="d" unicode="d" horiz-adv-x="580" 
d="M377 658h68c23 0 47 0 58 16h3v-564c0 -46 -6 -83 38 -107v-3h-129v214c0 40 3 84 -16 121c-25 48 -76 72 -129 72c-80 0 -145 -73 -145 -164c0 -101 72 -190 177 -190c32 0 59 12 86 29l-59 -90c-17 -5 -34 -5 -52 -5c-146 0 -253 93 -253 242c0 135 100 244 237 244
c56 0 112 -21 154 -58v132c0 46 6 82 -38 108v3z" />
    <glyph glyph-name="e" unicode="e" horiz-adv-x="520" 
d="M500 246h-367c2 -122 87 -193 200 -193c60 0 118 17 164 53h3l-50 -94c-43 -18 -91 -25 -138 -25c-170 0 -287 107 -287 246s101 240 250 240c136 0 229 -98 225 -227zM137 304h258c-11 70 -57 103 -129 103c-67 0 -117 -40 -129 -103z" />
    <glyph glyph-name="f" unicode="f" horiz-adv-x="260" 
d="M156 394v-249c0 -49 -6 -116 43 -142v-3h-172v3c44 25 38 62 38 107v284h-50l50 66v24c0 56 -2 87 37 131c46 52 112 64 178 64l68 -6l-70 -77c-17 11 -31 17 -51 17c-59 0 -71 -28 -71 -87v-66h116l17 6h3v-88h-3c-8 13 -21 16 -37 16h-96z" />
    <glyph glyph-name="g" unicode="g" horiz-adv-x="580" 
d="M273 473h301l-23 -52c-8 -18 -10 -24 -32 -24c-35 0 -69 8 -103 13c42 -27 71 -70 71 -121c0 -113 -122 -148 -213 -156c-14 -1 -41 -10 -41 -27c0 -22 47 -19 60 -19c173 0 265 -47 265 -146c0 -113 -125 -176 -281 -176c-147 0 -277 57 -277 142c0 56 45 81 96 81
c21 0 38 -4 57 -13c-25 -5 -38 -19 -38 -45c0 -84 100 -99 165 -99c66 0 177 19 177 103c0 88 -143 93 -204 93l-69 -2c-44 -1 -73 35 -73 71c0 29 58 43 79 53c-72 14 -132 79 -132 154c0 116 112 170 215 170zM159 319c0 -65 58 -120 123 -120c60 0 104 39 104 97
c0 64 -54 111 -125 111c-55 0 -102 -30 -102 -88z" />
    <glyph glyph-name="h" unicode="h" horiz-adv-x="540" 
d="M28 658h65c23 0 47 0 61 16h3v-264c30 43 98 63 147 63c138 0 171 -83 171 -180v-182c0 -46 -6 -83 38 -108v-3h-166v3c44 25 37 62 37 108v152c0 81 -26 144 -112 144c-88 0 -115 -49 -115 -138v-158c0 -46 -6 -83 38 -108v-3h-167v3c44 25 38 62 38 108v436
c0 46 6 83 -38 108v3z" />
    <glyph glyph-name="i" unicode="i" horiz-adv-x="240" 
d="M33 460h61c23 0 48 1 65 16h3v-365c0 -46 -6 -83 38 -108v-3h-167v3c44 25 38 62 38 108v239c0 46 6 82 -38 107v3zM173 583c0 -33 -26 -63 -60 -63c-37 0 -65 29 -65 66c0 35 32 59 65 59c34 0 60 -29 60 -62z" />
    <glyph glyph-name="j" unicode="j" horiz-adv-x="240" 
d="M176 582c0 -33 -27 -62 -61 -62c-37 0 -63 29 -63 65c0 35 30 60 64 60c33 0 60 -30 60 -63zM37 460h65c23 0 47 1 61 13h3v-484c0 -50 7 -110 -31 -150c-37 -39 -111 -67 -159 -65v3c93 52 99 114 99 218v355c0 46 6 82 -38 107v3z" />
    <glyph glyph-name="k" unicode="k" horiz-adv-x="480" 
d="M29 658h66c22 0 46 1 59 16h3v-563c0 -46 -6 -83 39 -108v-3h-167v3c43 25 37 62 37 108v436c0 46 6 83 -37 108v3zM324 56l-148 201l83 91c15 17 51 55 51 80c0 14 -9 23 -19 29v3h152l-167 -193l122 -155c31 -41 61 -84 106 -112h-78c-58 0 -83 29 -102 56z" />
    <glyph glyph-name="l" unicode="l" horiz-adv-x="240" 
d="M32 658h61c23 0 49 -1 64 16h3v-563c0 -46 -7 -83 37 -108v-3h-165v3c43 25 37 62 37 108v436c0 46 6 83 -37 108v3z" />
    <glyph glyph-name="m" unicode="m" horiz-adv-x="860" 
d="M24 460h64c22 0 46 1 62 13h3v-79c35 54 74 79 141 79c71 0 119 -28 156 -87c39 54 86 87 160 87c142 0 179 -81 179 -208v-154c0 -43 -6 -92 44 -108v-3h-173v3c44 25 38 62 38 108v129c0 102 -32 167 -112 167c-90 0 -115 -57 -115 -151v-145c0 -46 -6 -83 38 -108v-3
h-167v3c44 25 38 62 38 108v138c0 105 -52 158 -114 158c-76 0 -113 -47 -113 -143v-153c0 -46 -6 -82 37 -108v-3h-166v3c44 25 38 62 38 108v239c0 46 6 82 -38 107v3z" />
    <glyph glyph-name="n" unicode="n" horiz-adv-x="540" 
d="M28 460h59c22 0 46 1 67 13h3v-77c35 48 76 77 141 77c56 0 120 -22 152 -69c28 -40 25 -102 25 -149v-145c0 -46 -6 -82 38 -107v-3h-167v3c44 25 38 62 38 107v135c0 107 -30 162 -121 162s-106 -61 -106 -120v-177c0 -46 -6 -82 38 -107v-3h-167v3c44 25 38 62 38 108
v238c0 46 6 83 -38 108v3z" />
    <glyph glyph-name="o" unicode="o" 
d="M276 -13c-137 0 -253 97 -253 239c0 150 121 247 265 247c64 0 119 -17 167 -59c51 -45 82 -111 82 -179c0 -144 -120 -248 -261 -248zM281 53c92 0 155 71 155 161c0 97 -52 193 -159 193c-93 0 -153 -73 -153 -163c0 -92 55 -191 157 -191z" />
    <glyph glyph-name="p" unicode="p" horiz-adv-x="580" 
d="M30 460h66c22 0 46 2 60 13h3v-71c34 47 108 71 164 71c139 0 229 -107 229 -238c0 -139 -101 -248 -241 -248c-26 0 -51 4 -74 13l-54 82c35 -17 71 -29 109 -29c106 0 159 71 159 171c0 93 -50 179 -153 179c-42 0 -83 -17 -111 -48c-29 -31 -28 -67 -28 -107v-343
c0 -46 -6 -82 38 -107v-3h-167v3c44 25 38 61 38 107v445c0 46 6 83 -38 107v3z" />
    <glyph glyph-name="q" unicode="q" horiz-adv-x="580" 
d="M413 -93v471c-35 11 -72 16 -109 16c-101 0 -178 -61 -178 -164c0 -101 77 -177 179 -177c30 0 55 4 81 18l-6 -11l-41 -62c-22 -9 -46 -11 -69 -11c-132 0 -245 85 -245 224c0 132 87 249 280 249h237v-3c-44 -25 -38 -61 -38 -107v-443c0 -46 -6 -82 38 -109v-3h-167v3
c44 27 38 63 38 109z" />
    <glyph glyph-name="r" unicode="r" horiz-adv-x="320" 
d="M38 460h64c23 0 47 1 61 13h3v-76c22 45 68 76 118 76l36 -3v-92c-11 12 -29 16 -46 16c-76 0 -108 -40 -108 -143v-140c0 -46 -6 -83 38 -108v-3h-167v3c44 25 38 62 38 108v239c0 46 6 82 -37 107v3z" />
    <glyph glyph-name="s" unicode="s" horiz-adv-x="420" 
d="M345 460v-85c-37 20 -79 32 -123 32c-33 0 -93 -8 -93 -48c0 -89 271 -57 271 -216c0 -93 -95 -156 -224 -156c-45 0 -88 7 -130 24l-35 98c58 -37 119 -56 188 -56c41 0 110 14 110 65c0 101 -271 69 -271 221c0 106 110 134 196 134c37 0 75 -3 111 -13z" />
    <glyph glyph-name="t" unicode="t" horiz-adv-x="320" 
d="M176 394v-200c0 -38 -12 -141 95 -141c14 0 27 5 40 10l-53 -71c-10 -3 -21 -5 -32 -5c-155 0 -141 160 -141 199v208h-68v36c94 16 119 86 119 179h40v-149h94c13 0 28 0 38 6h3v-91h-3c-16 21 -46 19 -72 19h-60z" />
    <glyph glyph-name="u" unicode="u" horiz-adv-x="540" 
d="M348 460h51c26 0 57 -4 75 13h3v-364c0 -46 -6 -83 38 -106v-3h-129v65c-36 -55 -74 -78 -144 -78c-118 0 -174 67 -174 208v154c0 46 6 83 -38 108v3h65c22 0 47 1 61 13h3v-261c0 -92 26 -149 113 -149c66 0 114 54 114 131v154c0 47 6 83 -38 109v3z" />
    <glyph glyph-name="v" unicode="v" horiz-adv-x="520" 
d="M-36 460h54c31 0 60 -3 82 12h3c1 -12 8 -33 16 -50l145 -323l115 247c20 42 42 89 -11 111v3h142l-227 -478c-57 33 -83 45 -109 104l-121 264c-24 54 -27 74 -89 107v3z" />
    <glyph glyph-name="w" unicode="w" horiz-adv-x="780" 
d="M-12 460h26c32 0 68 -5 92 13h3c1 -15 6 -35 13 -52l117 -304l91 235c14 36 39 84 -9 105v3h131v-15c0 -10 10 -35 14 -46l103 -282l93 235c13 34 40 80 -14 105v3h134l-199 -478c-68 36 -76 53 -101 119l-86 230l-137 -349c-71 37 -81 49 -108 119l-110 281
c-14 34 -22 55 -53 75v3z" />
    <glyph glyph-name="x" unicode="x" horiz-adv-x="520" 
d="M244 182l-94 -110c-18 -21 -44 -48 -2 -69v-3h-162v3l214 238l-103 134c-24 33 -51 63 -85 82v3h76c34 0 62 -8 88 -42l86 -115l65 77c20 24 49 61 0 77v3h166l-186 -214l109 -145c29 -37 60 -77 102 -101h-108c-30 0 -47 19 -63 41z" />
    <glyph glyph-name="y" unicode="y" horiz-adv-x="500" 
d="M267 89l101 254c15 39 38 92 -10 114v3h140l-208 -496c-54 -129 -124 -167 -218 -167c-43 0 -80 10 -119 25l90 65c17 -11 35 -24 56 -24c70 0 100 75 121 130l6 16l-4 5c-33 33 -33 38 -52 80l-122 266c-20 44 -32 79 -80 97v3h85c37 0 56 -15 67 -40z" />
    <glyph glyph-name="z" unicode="z" horiz-adv-x="460" 
d="M423 0h-424v3l277 383l-103 8c-49 4 -103 -5 -141 -36h-3l50 102h354v-3l-263 -379l146 -12c62 -5 109 11 160 43h3z" />
    <glyph glyph-name="braceleft" unicode="{" horiz-adv-x="280" 
d="M168 160v-168c0 -57 14 -86 71 -104c-37 -1 -68 0 -99 23c-32 23 -34 61 -34 97v167c0 28 1 47 -19 70c-14 16 -33 26 -54 30c62 15 73 42 73 101v147c0 100 26 140 133 135c-55 -15 -71 -48 -71 -102v-157c0 -64 -10 -109 -80 -124c66 -15 80 -53 80 -115z" />
    <glyph glyph-name="bar" unicode="|" horiz-adv-x="600" 
d="M271 750h57v-1000h-57v1000z" />
    <glyph glyph-name="braceright" unicode="}" horiz-adv-x="280" 
d="M105 399v157c0 54 -16 87 -71 102c107 5 133 -35 133 -135v-147c0 -59 11 -86 73 -101c-21 -4 -40 -14 -54 -30c-20 -23 -19 -42 -19 -70v-167c0 -36 -2 -74 -34 -97c-31 -23 -62 -24 -99 -23c57 18 71 47 71 104v168c0 62 13 100 80 115c-70 15 -80 60 -80 124z" />
    <glyph glyph-name="asciitilde" unicode="~" horiz-adv-x="600" 
d="M508 300l43 -27c-34 -48 -69 -94 -134 -94c-34 0 -62 11 -93 23l-47 17c-26 10 -57 24 -86 24c-49 0 -75 -36 -99 -74l-43 28c35 54 74 100 144 100c36 0 77 -16 117 -32s78 -32 106 -32c45 0 69 33 92 67z" />
    <glyph glyph-name="exclamdown" unicode="&#xa1;" horiz-adv-x="280" 
d="M79 411c0 33 27 62 61 62c37 0 63 -28 63 -65c0 -34 -30 -59 -64 -59c-33 0 -60 30 -60 62zM107 290h71l16 -375c1 -25 1 -78 11 -99c6 -15 15 -22 29 -26v-3h-122c-9 0 -28 -5 -28 9l1 20z" />
    <glyph glyph-name="cent" unicode="&#xa2;" 
d="M444 584v-92c-23 23 -56 35 -88 35v-334c45 2 84 26 115 53h3l-25 -103c-29 -12 -62 -15 -93 -17v-93h-54v93c-127 16 -214 107 -214 232c0 118 90 223 214 235v97h54v-97c29 0 59 -3 88 -9zM302 199v324c-86 -12 -123 -83 -123 -158c0 -73 39 -151 123 -166z" />
    <glyph glyph-name="sterling" unicode="&#xa3;" 
d="M308 372h113v-57h-78c13 -35 25 -70 25 -109c0 -41 -12 -75 -32 -109c24 -9 36 -14 59 -14c34 0 71 11 100 30v-107c-31 -11 -66 -22 -99 -22c-48 0 -82 17 -121 45c-32 -28 -69 -45 -112 -45c-47 0 -95 24 -95 77c0 54 58 81 105 81c29 0 57 -8 85 -13c9 17 11 37 11 56
c0 47 -18 81 -40 120l-5 10h-102v57h59c-31 45 -54 79 -54 136c0 107 91 166 190 166c46 0 83 -12 125 -29l4 -102c-36 30 -71 53 -119 53s-99 -29 -99 -79c0 -41 47 -97 69 -130zM221 65c-14 12 -43 21 -61 21c-15 0 -39 -8 -39 -27s23 -25 38 -25c27 0 47 10 62 31z" />
    <glyph glyph-name="fraction" unicode="&#x2044;" horiz-adv-x="80" 
d="M236 658l-323 -658h-60l324 658h59z" />
    <glyph glyph-name="yen" unicode="&#xa5;" 
d="M264 110v127h-210v54h210l-39 66h-171v54h137l-104 165c-23 37 -45 64 -87 79v3h94c43 0 65 -9 78 -31l159 -260l115 178c25 39 50 84 -4 110v3h166l-166 -247h132v-54h-162l-47 -66h209v-54h-209v-121c0 -50 1 -88 49 -113v-3h-200v3c51 19 50 61 50 107z" />
    <glyph glyph-name="florin" unicode="&#x192;" 
d="M202 106l67 354h-96l12 59h95l2 13c10 52 17 108 52 149c34 42 85 60 138 60c38 0 75 -8 109 -26l-64 -63c-13 15 -31 23 -51 23c-62 0 -82 -77 -90 -156h100l-12 -59h-99l-69 -367c-31 -166 -86 -230 -212 -230c-37 0 -74 9 -106 25l67 65c17 -14 31 -21 54 -21
c61 0 84 72 103 174z" />
    <glyph glyph-name="section" unicode="&#xa7;" horiz-adv-x="520" 
d="M428 651v-103c-27 41 -81 57 -128 57c-44 0 -97 -16 -97 -68c0 -98 263 -87 263 -262c0 -60 -29 -108 -74 -145c24 -25 37 -59 37 -94c0 -120 -93 -185 -213 -185c-53 0 -108 9 -158 31v105l10 -5c48 -27 91 -51 148 -51c55 0 113 29 113 92c0 111 -269 115 -269 275
c0 65 34 106 84 142c-25 21 -38 56 -38 89c0 106 101 145 192 145c45 0 89 -7 130 -23zM263 214l81 -46c22 22 34 50 34 81c0 80 -127 112 -183 147c-23 -19 -42 -43 -42 -73c0 -26 9 -42 28 -59c19 -16 59 -37 82 -50z" />
    <glyph glyph-name="currency" unicode="&#xa4;" 
d="M23 169l40 40c-22 39 -34 72 -34 117s11 83 34 120l-40 40l70 72l41 -41c34 22 77 35 118 35c43 0 86 -12 122 -35l41 41l69 -72l-41 -40c24 -36 35 -75 35 -119c0 -41 -11 -84 -35 -118l41 -40l-69 -71l-41 40c-36 -21 -75 -35 -118 -35s-86 11 -122 35l-41 -40z
M257 455c-72 0 -131 -55 -131 -129c0 -72 60 -126 131 -126c69 0 124 60 124 128c0 67 -55 127 -124 127z" />
    <glyph glyph-name="quotesingle" unicode="'" horiz-adv-x="180" 
d="M66 457v201h46v-201h-46z" />
    <glyph glyph-name="quotedblleft" unicode="&#x201c;" horiz-adv-x="440" 
d="M186 682l10 -8c-13 -14 -53 -57 -53 -77c0 -7 6 -9 12 -10c27 -4 49 -21 49 -51c0 -32 -26 -57 -57 -57c-37 0 -64 30 -64 67c0 39 25 78 48 108c7 9 22 32 37 32c6 0 12 -2 18 -4zM350 682l10 -8c-13 -14 -53 -57 -53 -77c0 -7 6 -9 12 -10c27 -4 49 -21 49 -51
c0 -32 -26 -57 -57 -57c-37 0 -64 30 -64 67c0 39 25 78 48 108c7 9 22 32 37 32c6 0 12 -2 18 -4z" />
    <glyph glyph-name="guillemotleft" unicode="&#xab;" horiz-adv-x="400" 
d="M205 247l104 161h31l-59 -161l59 -158h-31zM78 247l104 161h31l-59 -161l59 -158h-31z" />
    <glyph glyph-name="guilsinglleft" unicode="&#x2039;" horiz-adv-x="260" 
d="M78 247l104 161h31l-59 -161l59 -158h-31z" />
    <glyph glyph-name="guilsinglright" unicode="&#x203a;" horiz-adv-x="260" 
d="M185 250l-104 -161h-31l59 161l-59 158h31z" />
    <glyph glyph-name="fi" unicode="&#xfb01;" horiz-adv-x="520" 
d="M170 460h174c27 0 69 -3 88 13h3v-363c0 -46 -6 -82 38 -107v-3h-167v3c44 25 38 61 38 107v240c0 43 -6 44 -49 44h-126v-284c0 -46 -5 -82 39 -107v-3h-167v3c43 24 37 61 37 107v284h-49l49 66v20c0 53 -2 91 36 136c42 48 103 63 165 63c95 0 163 -41 163 -95
c0 -35 -22 -58 -57 -58c-26 0 -49 21 -49 48c0 10 3 17 7 25c-24 8 -52 14 -79 14c-74 0 -94 -17 -94 -95v-58z" />
    <glyph glyph-name="fl" unicode="&#xfb02;" horiz-adv-x="500" 
d="M23 394l48 66c0 65 -3 104 36 148c41 46 99 66 159 66c53 0 81 -18 112 -18c16 0 33 7 43 18h3v-564c0 -46 -6 -83 38 -107v-3h-167v3c44 24 38 61 38 107v480c-25 13 -55 18 -84 18c-92 0 -87 -48 -87 -148h136v-80h-3c-4 11 -19 14 -31 14h-102v-284
c0 -46 -6 -82 38 -107v-3h-167v3c44 24 38 61 38 107v284h-48z" />
    <glyph glyph-name="endash" unicode="&#x2013;" horiz-adv-x="500" 
d="M409 211h-365c-35 0 -54 0 -87 -12l-2 2l53 60c7 7 13 16 23 21c11 5 47 4 60 4h365c35 0 54 0 87 12l2 -2l-53 -60c-7 -7 -13 -16 -23 -21c-11 -5 -47 -4 -60 -4z" />
    <glyph glyph-name="dagger" unicode="&#x2020;" 
d="M320 344v-348c0 -45 1 -95 28 -130v-3h-137v3c28 35 29 85 29 130v348h-73c-46 0 -81 1 -119 -25h-3v129h3c35 -23 77 -24 120 -24h72v118c0 40 -1 83 -29 113v3h137v-3c-27 -34 -28 -70 -28 -113v-118h73c45 0 79 6 117 24h3v-129h-3c-36 23 -72 25 -116 25h-74z" />
    <glyph glyph-name="daggerdbl" unicode="&#x2021;" 
d="M320 379v-201h72c46 0 81 2 118 25h3v-127h-3c-29 21 -82 22 -120 22h-70v-102c0 -45 1 -96 28 -130v-3h-137v3c28 35 29 84 29 130v102h-72c-46 0 -81 1 -120 -22h-3v127h3c35 -25 83 -25 126 -25h66v201h-73c-46 0 -81 1 -119 -25h-3v129h3c35 -23 77 -24 120 -24h72
v83c0 39 -1 83 -29 113v3h137v-3c-27 -34 -28 -70 -28 -113v-83h73c45 0 79 6 117 24h3v-129h-3c-36 23 -72 25 -116 25h-74z" />
    <glyph glyph-name="periodcentered" unicode="&#xb7;" horiz-adv-x="280" 
d="M202 235c0 -34 -27 -63 -61 -63c-37 0 -63 29 -63 66c0 34 31 58 64 58s60 -29 60 -61z" />
    <glyph glyph-name="paragraph" unicode="&#xb6;" horiz-adv-x="540" 
d="M390 586h-93v-699h-118v3c44 25 38 61 38 107v298c-101 -3 -184 82 -184 181c0 133 95 182 216 182h259v-3c-44 -25 -38 -61 -38 -107v-551c0 -46 -6 -82 38 -107v-3h-118v699z" />
    <glyph glyph-name="bullet" unicode="&#x2022;" horiz-adv-x="340" 
d="M264 349c0 -50 -40 -94 -91 -94c-56 0 -96 43 -96 98c0 52 47 89 97 89s90 -44 90 -93z" />
    <glyph glyph-name="quotesinglbase" unicode="&#x201a;" horiz-adv-x="280" 
d="M94 -92l-10 8c13 14 53 57 53 77c0 7 -6 9 -12 10c-27 4 -49 21 -49 51c0 32 26 57 57 57c37 0 64 -30 64 -67c0 -39 -25 -78 -48 -108c-7 -9 -22 -32 -37 -32c-6 0 -12 2 -18 4z" />
    <glyph glyph-name="quotedblbase" unicode="&#x201e;" horiz-adv-x="440" 
d="M94 -92l-10 8c13 14 53 57 53 77c0 7 -6 9 -12 10c-27 4 -49 21 -49 51c0 32 26 57 57 57c37 0 64 -30 64 -67c0 -39 -25 -78 -48 -108c-7 -9 -22 -32 -37 -32c-6 0 -12 2 -18 4zM258 -92l-10 8c13 14 53 57 53 77c0 7 -6 9 -12 10c-27 4 -49 21 -49 51c0 32 26 57 57 57
c37 0 64 -30 64 -67c0 -39 -25 -78 -48 -108c-7 -9 -22 -32 -37 -32c-6 0 -12 2 -18 4z" />
    <glyph glyph-name="quotedblright" unicode="&#x201d;" horiz-adv-x="440" 
d="M94 483l-10 8c13 14 53 57 53 77c0 7 -6 9 -12 10c-27 4 -49 21 -49 51c0 32 26 57 57 57c37 0 64 -30 64 -67c0 -39 -25 -78 -48 -108c-7 -9 -22 -32 -37 -32c-6 0 -12 2 -18 4zM258 483l-10 8c13 14 53 57 53 77c0 7 -6 9 -12 10c-27 4 -49 21 -49 51c0 32 26 57 57 57
c37 0 64 -30 64 -67c0 -39 -25 -78 -48 -108c-7 -9 -22 -32 -37 -32c-6 0 -12 2 -18 4z" />
    <glyph glyph-name="guillemotright" unicode="&#xbb;" horiz-adv-x="400" 
d="M203 250l-105 -161h-30l59 161l-59 158h30zM330 250l-104 -161h-31l59 161l-59 158h31z" />
    <glyph glyph-name="ellipsis" unicode="&#x2026;" horiz-adv-x="1000" 
d="M229 50c0 -34 -27 -63 -61 -63c-37 0 -63 29 -63 66c0 34 31 58 64 58s60 -29 60 -61zM562 50c0 -34 -26 -63 -60 -63c-37 0 -64 29 -64 66c0 34 31 58 64 58c34 0 60 -29 60 -61zM895 50c0 -34 -26 -63 -60 -63c-38 0 -64 29 -64 66c0 34 31 58 64 58s60 -29 60 -61z
" />
    <glyph glyph-name="perthousand" unicode="&#x2030;" horiz-adv-x="1160" 
d="M175 674c94 -2 158 -94 158 -212c0 -95 -48 -202 -157 -202c-108 0 -161 107 -161 203c0 99 45 211 160 211zM172 626c-75 0 -93 -95 -93 -153c0 -61 19 -165 97 -165c76 0 93 99 93 158c0 57 -23 160 -97 160zM608 -16c-115 0 -160 112 -160 211c0 96 53 203 161 203
c109 0 157 -107 157 -202c0 -118 -64 -210 -158 -212zM609 32c77 0 93 98 93 156s-23 162 -97 162c-75 0 -93 -97 -93 -155c0 -60 19 -163 97 -163zM980 -16c-115 0 -160 112 -160 211c0 96 53 203 161 203c109 0 157 -107 157 -202c0 -118 -64 -210 -158 -212zM981 32
c76 0 93 98 93 156s-23 162 -97 162c-75 0 -93 -97 -93 -155c0 -60 19 -163 97 -163zM581 658l-323 -658h-59l324 658h58z" />
    <glyph glyph-name="questiondown" unicode="&#xbf;" horiz-adv-x="480" 
d="M225 411c0 33 27 62 61 62c37 0 63 -28 63 -65c0 -34 -30 -59 -64 -59c-33 0 -60 30 -60 62zM255 302l78 9c3 -13 5 -25 5 -38c0 -138 -172 -157 -172 -286c0 -80 67 -129 143 -129c49 0 91 20 134 42l-57 -93c-31 -14 -65 -21 -100 -21c-106 0 -221 58 -221 178
c0 82 47 129 104 180c24 22 52 44 73 69c14 17 18 32 18 54c0 12 -2 24 -5 35z" />
    <glyph glyph-name="grave" unicode="`" horiz-adv-x="400" 
d="M121 642l217 -155l-272 81z" />
    <glyph glyph-name="acute" unicode="&#xb4;" horiz-adv-x="400" 
d="M66 493l217 155l55 -73z" />
    <glyph glyph-name="circumflex" unicode="&#x2c6;" horiz-adv-x="460" 
d="M231 647l161 -153c-59 0 -112 29 -161 60c-49 -33 -105 -59 -165 -60z" />
    <glyph glyph-name="tilde" unicode="&#x2dc;" horiz-adv-x="480" 
d="M417 637c-20 -53 -31 -114 -100 -114c-30 0 -59 5 -89 11c-29 5 -59 10 -89 10c-26 0 -51 -11 -72 -26c19 46 28 99 89 99c26 0 52 -5 78 -9c25 -5 51 -10 77 -10c41 0 78 8 106 39z" />
    <glyph glyph-name="macron" unicode="&#xaf;" horiz-adv-x="500" 
d="M66 581v65h364v-65h-364z" />
    <glyph glyph-name="breve" unicode="&#x2d8;" horiz-adv-x="480" 
d="M66 638h61c24 -42 74 -56 119 -56c43 0 92 16 114 56h62c-26 -77 -100 -121 -179 -121s-153 43 -177 121z" />
    <glyph glyph-name="dotaccent" unicode="&#x2d9;" horiz-adv-x="260" 
d="M189 583c0 -37 -27 -63 -63 -63c-33 0 -60 32 -60 64c0 37 29 63 65 63c33 0 58 -32 58 -64z" />
    <glyph glyph-name="dieresis" unicode="&#xa8;" horiz-adv-x="440" 
d="M189 582c0 -36 -27 -62 -63 -62c-33 0 -60 31 -60 64c0 36 29 62 65 62c33 0 58 -32 58 -64zM373 583c0 -37 -27 -63 -63 -63c-34 0 -60 32 -60 64c0 36 29 62 64 62c34 0 59 -31 59 -63z" />
    <glyph glyph-name="ring" unicode="&#x2da;" horiz-adv-x="300" 
d="M242 595c0 -53 -42 -94 -95 -94c-50 0 -90 42 -90 93c0 50 41 92 92 92s93 -40 93 -91zM94 594c0 -33 23 -56 54 -56c33 0 57 22 57 54c0 33 -22 57 -56 57c-33 0 -55 -23 -55 -55z" />
    <glyph glyph-name="cedilla" unicode="&#xb8;" horiz-adv-x="320" 
d="M184 0l-21 -53l24 3c37 0 73 -19 73 -60c0 -47 -44 -74 -87 -74c-38 0 -77 11 -107 35l30 39c19 -16 42 -30 67 -30c18 0 36 8 36 29c0 17 -14 25 -30 25c-8 0 -17 -2 -25 -4l-28 37l21 53h47z" />
    <glyph glyph-name="hungarumlaut" unicode="&#x2dd;" horiz-adv-x="660" 
d="M66 493l217 155l55 -73zM312 493l218 155l55 -73z" />
    <glyph glyph-name="ogonek" unicode="&#x2db;" horiz-adv-x="280" 
d="M209 -79l-42 -63c-9 -3 -18 -4 -27 -4c-37 0 -74 21 -74 63c0 31 22 61 48 77l9 6h51c-15 -15 -33 -37 -33 -59c0 -20 16 -27 34 -27c12 0 22 3 34 7z" />
    <glyph glyph-name="caron" unicode="&#x2c7;" horiz-adv-x="460" 
d="M231 525l-165 153c60 -1 116 -27 165 -60c49 31 102 60 161 60z" />
    <glyph glyph-name="emdash" unicode="&#x2014;" horiz-adv-x="1000" 
d="M909 211h-865c-35 0 -54 0 -87 -12l-2 2l53 60c7 7 13 16 23 21c11 5 47 4 60 4h865c35 0 54 0 87 12l2 -2l-53 -60c-7 -7 -13 -16 -23 -21c-11 -5 -47 -4 -60 -4z" />
    <glyph glyph-name="AE" unicode="&#xc6;" horiz-adv-x="920" 
d="M825 664v-118h-3c-30 36 -71 40 -118 40c-34 0 -69 -1 -101 -7v-186h119c16 0 32 0 43 6h3v-106h-3c-15 29 -58 28 -88 28h-74v-237l127 -12c67 -6 135 15 186 58h3l-46 -130h-416v3c50 18 44 92 44 137v181h-162l-159 -220c-27 -37 -54 -67 -1 -98v-3h-202v3
c56 31 94 87 133 139l311 416c30 40 61 80 14 97v3h341c16 0 34 -1 46 6h3zM501 393v162l-110 -162h110z" />
    <glyph glyph-name="ordfeminine" unicode="&#xaa;" horiz-adv-x="380" 
d="M321 439l-24 -37c-69 5 -74 21 -74 84v61c-17 -9 -36 -13 -54 -17c-28 -7 -59 -13 -59 -48s32 -45 61 -45c14 0 28 3 41 7l-33 -43c-10 -2 -20 -3 -30 -3c-52 0 -97 32 -97 84c0 105 170 56 170 118c0 27 -33 35 -54 35c-29 0 -52 -10 -78 -22l38 57l37 4
c33 0 70 -5 93 -32c19 -23 15 -58 15 -86v-77c0 -30 22 -40 48 -40z" />
    <glyph glyph-name="Lslash" unicode="&#x141;" horiz-adv-x="540" 
d="M221 81l136 -9c69 -5 127 19 178 61h3l-53 -133h-410v3c51 18 44 92 44 137v134l-78 -78v55c0 38 3 42 31 69l47 46v151c0 46 7 118 -44 138v3h190v-3c-50 -19 -44 -93 -44 -138v-63l95 89v-54c0 -40 -2 -40 -31 -67l-64 -61v-280z" />
    <glyph glyph-name="Oslash" unicode="&#xd8;" horiz-adv-x="780" 
d="M298 -8l-28 -85h-67l34 104c-126 56 -214 173 -214 314c0 203 174 349 371 349l68 -4l32 95h66l-37 -107c142 -44 234 -177 234 -325c0 -237 -239 -361 -369 -349zM265 91l172 506c-15 3 -30 5 -45 5c-149 0 -255 -108 -255 -256c0 -91 44 -208 128 -255zM498 579
l-175 -513c22 -7 45 -10 68 -10c157 0 252 112 252 264c0 102 -52 212 -145 259z" />
    <glyph glyph-name="OE" unicode="&#x152;" horiz-adv-x="1040" 
d="M625 82l-1 18c-57 -83 -155 -116 -253 -116c-197 0 -350 145 -350 343c0 197 147 347 344 347c104 0 189 -38 259 -114c0 36 -16 74 -45 95v3h311c16 0 32 0 45 3h3v-119h-3c-24 42 -85 48 -128 44l-88 -8v-185h101c20 0 41 -1 57 4h3v-96h-3c-17 22 -50 20 -77 20h-81
v-238l122 -11c75 0 127 16 189 53h3l-49 -125h-405v3c26 15 46 46 46 79zM373 602c-159 0 -238 -113 -238 -262c0 -151 81 -284 246 -284c155 0 236 105 236 253c0 157 -71 293 -244 293z" />
    <glyph glyph-name="ordmasculine" unicode="&#xba;" horiz-adv-x="380" 
d="M190 674c80 0 142 -58 142 -139c0 -79 -72 -137 -148 -137c-78 0 -144 55 -144 136c0 85 69 140 150 140zM185 636c-53 0 -88 -41 -88 -92c0 -52 32 -108 90 -108c53 0 88 41 88 92c0 55 -30 108 -90 108z" />
    <glyph glyph-name="ae" unicode="&#xe6;" horiz-adv-x="800" 
d="M782 246h-353c-2 -107 75 -193 184 -193c59 0 122 19 166 55h3l-48 -92c-41 -21 -86 -29 -131 -29c-164 0 -280 85 -275 259c-52 -31 -211 -30 -211 -110c0 -55 58 -83 105 -83c41 0 82 19 113 42h3l-44 -85c-29 -17 -63 -23 -96 -23c-82 0 -182 49 -182 143
c0 98 56 118 195 146c69 14 120 26 120 65c0 47 -68 66 -104 66c-47 0 -93 -18 -135 -39l68 92c27 7 53 13 80 13c58 0 121 -19 156 -67c45 42 101 67 163 67c139 0 222 -92 223 -227zM437 304h241c-12 63 -50 103 -119 103c-63 0 -114 -41 -122 -103z" />
    <glyph glyph-name="dotlessi" unicode="&#x131;" horiz-adv-x="240" 
d="M33 460h61c23 0 48 1 65 13h3v-362c0 -46 -6 -83 38 -108v-3h-167v3c44 25 38 62 38 108v239c0 46 6 82 -38 107v3z" />
    <glyph glyph-name="lslash" unicode="&#x142;" horiz-adv-x="240" 
d="M46 658h61c24 0 50 -1 64 16h3v-216l73 70v-19c0 -49 6 -48 -28 -82l-44 -44v-272c0 -46 -6 -82 38 -108v-3h-167v3c44 26 38 62 38 108v197l-71 -71v19c0 45 -6 48 25 79l46 46v166c0 46 6 83 -38 108v3z" />
    <glyph glyph-name="oslash" unicode="&#xf8;" 
d="M224 -9l-36 -103h-60l42 119c-90 35 -147 124 -147 221c0 146 113 245 268 245c15 0 30 -1 45 -4l31 85h55l-35 -99c87 -33 149 -130 149 -221c0 -144 -123 -247 -262 -247zM361 382l-115 -325c11 -2 22 -4 34 -4c87 0 155 69 155 168c0 58 -24 127 -74 161zM196 81
l115 322c-12 2 -25 4 -37 4c-96 0 -150 -78 -150 -168c0 -62 23 -120 72 -158z" />
    <glyph glyph-name="oe" unicode="&#x153;" horiz-adv-x="920" 
d="M900 246h-355c2 -115 72 -193 185 -193c61 0 121 21 167 57h3l-51 -96c-43 -20 -90 -27 -137 -27c-85 0 -171 29 -217 104c-57 -69 -123 -104 -213 -104c-136 0 -259 93 -259 236c0 155 117 250 267 250c87 0 156 -34 205 -106c44 72 114 106 197 106
c133 0 210 -106 208 -227zM549 304h246c-8 62 -48 103 -113 103c-69 0 -115 -39 -133 -103zM287 53c99 0 161 61 161 160c0 98 -54 194 -163 194c-103 0 -161 -65 -161 -167s50 -188 163 -187z" />
    <glyph glyph-name="germandbls" unicode="&#xdf;" horiz-adv-x="540" 
d="M227 16l-26 96c36 -29 79 -54 127 -54c57 0 99 42 99 99c0 81 -89 135 -162 163c-24 9 -50 20 -50 51c0 56 122 84 122 166c0 45 -39 71 -82 71c-75 0 -95 -52 -95 -142v-357c0 -46 -6 -82 36 -106v-3h-165v3c44 24 38 61 38 106v285h-37l37 66c0 109 41 214 190 214
c80 0 169 -43 169 -134c0 -100 -114 -123 -114 -150c0 -13 15 -20 25 -24c95 -41 179 -95 179 -210c0 -102 -75 -169 -175 -169c-41 0 -82 8 -116 29z" />
    <glyph glyph-name="onesuperior" unicode="&#xb9;" horiz-adv-x="336" 
d="M63 586v3c57 17 109 56 138 104h3v-339c0 -34 -3 -61 32 -81v-3h-136v3c40 17 38 45 38 81v232h-75z" />
    <glyph glyph-name="logicalnot" unicode="&#xac;" horiz-adv-x="600" 
d="M477 47v228h-411v56h467v-284h-56z" />
    <glyph glyph-name="mu" unicode="&#xb5;" horiz-adv-x="540" 
d="M386 0v65c-36 -55 -74 -78 -144 -78c-32 0 -59 5 -81 14l3 -78c1 -25 1 -78 11 -99c6 -15 15 -22 29 -26v-3h-122c-9 0 -28 -2 -28 9c0 7 1 13 1 20l15 333c-1 12 -2 25 -2 38v154c0 46 6 83 -38 108v3h65c22 0 47 1 61 13h3v-261c0 -92 26 -149 113 -149
c66 0 114 54 114 131v154c0 47 6 83 -38 109v3h51c26 0 57 -4 75 13h3v-364c0 -46 -6 -83 38 -106v-3h-129z" />
    <glyph glyph-name="trademark" unicode="&#x2122;" horiz-adv-x="920" 
d="M779 658v-375h-58v322l-130 -322h-35l-121 322v-322h-65v375h96l107 -265l112 265h94zM304 658v-53h-119v-322h-65v322h-120v53h304z" />
    <glyph glyph-name="Eth" unicode="&#xd0;" horiz-adv-x="680" 
d="M182 575v-182h217v-62h-217v-252c24 -5 48 -7 73 -7c149 0 282 78 282 251c0 175 -98 263 -265 263c-30 0 -60 -4 -90 -11zM80 126v205h-53v62h53v140c0 82 -7 108 -44 122v3h245c228 0 370 -124 370 -323c0 -197 -151 -335 -375 -335h-240v3c30 21 44 46 44 123z" />
    <glyph glyph-name="onehalf" unicode="&#xbd;" horiz-adv-x="840" 
d="M591 658l-323 -658h-60l324 658h59zM63 580v3c57 17 109 56 138 104h3v-339c0 -34 -3 -61 32 -81v-3h-136v3c40 17 38 45 38 81v232h-75zM788 0h-298l164 219c17 23 44 51 44 81c0 36 -37 57 -73 57c-41 0 -80 -18 -112 -38h-2l39 73c27 7 56 12 85 12
c72 0 137 -35 137 -89c0 -28 -12 -50 -27 -72l-142 -194l85 -6c47 0 95 8 134 27h2z" />
    <glyph glyph-name="plusminus" unicode="&#xb1;" horiz-adv-x="600" 
d="M66 318h205v150h56v-150h205v-56h-205v-150h-56v150h-205v56zM66 0v56h466v-56h-466z" />
    <glyph glyph-name="Thorn" unicode="&#xde;" horiz-adv-x="520" 
d="M89 118v444c0 48 -15 80 -45 93v3h199v-3c-34 -22 -52 -40 -52 -93v-38h97c130 0 229 -63 229 -175c0 -115 -107 -188 -220 -188c-25 0 -50 3 -73 14c86 5 179 58 179 154c0 88 -62 123 -142 123c-24 0 -47 -2 -70 -6v-331c0 -72 18 -90 52 -112v-3h-199v3
c32 16 45 34 45 115z" />
    <glyph glyph-name="onequarter" unicode="&#xbc;" horiz-adv-x="840" 
d="M654 82h-226l202 313h90v-266c30 0 59 8 82 25l-31 -72h-51v-12c0 -26 0 -55 28 -67v-3h-126v3c36 11 32 33 32 63v16zM654 129v223l-137 -219c34 -2 80 -4 137 -4zM591 658l-323 -658h-60l324 658h59zM138 580h-75v3c57 17 109 56 138 104h3v-339c0 -34 -3 -61 32 -81
v-3h-136v3c40 17 38 45 38 81v232z" />
    <glyph glyph-name="divide" unicode="&#xf7;" horiz-adv-x="600" 
d="M66 262h466v-56h-466v56zM361 63c0 -34 -27 -63 -61 -63c-37 0 -63 29 -63 66c0 34 31 58 64 58s60 -29 60 -61zM361 407c0 -34 -27 -63 -61 -63c-37 0 -63 29 -63 66c0 34 31 58 64 58s60 -29 60 -61z" />
    <glyph glyph-name="brokenbar" unicode="&#xa6;" horiz-adv-x="600" 
d="M271 675h57v-350h-57v350zM271 175h57v-350h-57v350z" />
    <glyph glyph-name="degree" unicode="&#xb0;" horiz-adv-x="400" 
d="M350 524c0 -83 -68 -150 -150 -150c-83 0 -150 67 -150 150c-1 82 67 150 150 150c82 0 150 -68 150 -150zM310 524c0 60 -50 110 -111 110c-60 0 -110 -50 -109 -110c0 -61 49 -110 110 -110c60 0 110 49 110 110z" />
    <glyph glyph-name="thorn" unicode="&#xfe;" horiz-adv-x="580" 
d="M68 -126v697c0 58 -15 73 -38 84v3h63c24 0 49 0 63 16h3v-272h2c32 47 106 71 162 71c139 0 229 -107 229 -238c0 -139 -101 -248 -241 -248c-26 0 -51 4 -74 13l-54 82c35 -17 71 -29 109 -29c106 0 159 71 159 171c0 93 -50 179 -153 179c-42 0 -83 -17 -111 -48
s-28 -67 -28 -107v-374c0 -37 8 -60 38 -76v-3h-167v3c27 17 38 31 38 76z" />
    <glyph glyph-name="threequarters" unicode="&#xbe;" horiz-adv-x="840" 
d="M674 82h-226l202 313h90v-266c30 0 59 8 82 25l-31 -72h-51v-12c0 -26 0 -55 28 -67v-3h-126v3c36 11 32 33 32 63v16zM674 129v223l-137 -219c34 -2 80 -4 137 -4zM611 658l-323 -658h-60l324 658h59zM93 453v49l30 -1c59 -4 98 25 98 60c0 40 -45 60 -82 60
s-70 -13 -99 -30h-2l27 64c27 9 57 13 86 13c60 0 138 -27 138 -94c0 -45 -35 -73 -79 -83v-2c60 -9 112 -42 112 -104c0 -102 -120 -131 -209 -131l-67 5l-32 72h2c35 -18 77 -30 118 -30c55 0 114 28 114 86c0 45 -33 72 -103 72c-17 0 -35 -2 -52 -6z" />
    <glyph glyph-name="twosuperior" unicode="&#xb2;" horiz-adv-x="336" 
d="M309 270h-298l164 219c17 23 44 51 44 81c0 36 -37 57 -73 57c-41 0 -80 -18 -112 -38h-2l39 73c27 7 56 12 85 12c72 0 137 -35 137 -89c0 -28 -12 -50 -27 -72l-142 -194l85 -6c47 0 95 8 134 27h2z" />
    <glyph glyph-name="registered" unicode="&#xae;" horiz-adv-x="700" 
d="M347 -16c-191 0 -342 157 -342 347c0 192 156 343 346 343c191 0 343 -155 343 -345c0 -192 -155 -345 -347 -345zM347 34c166 0 293 130 293 297c0 165 -129 293 -292 293c-162 0 -289 -131 -289 -292c0 -163 123 -298 288 -298zM417 314l118 -186h-68l-111 186h-89
v-186h-58v411h185c79 0 148 -18 148 -113c0 -77 -52 -110 -125 -112zM267 358h106c52 0 111 7 111 72c0 60 -57 65 -104 65h-113v-137z" />
    <glyph glyph-name="minus" unicode="&#x2212;" horiz-adv-x="600" 
d="M66 262h466v-56h-466v56z" />
    <glyph glyph-name="eth" unicode="&#xf0;" 
d="M124 244c0 -92 55 -191 157 -191c92 0 155 71 155 161c0 97 -52 193 -159 193c-93 0 -153 -73 -153 -163zM175 516l-38 36l95 53c-33 19 -68 34 -102 41l80 57c36 -14 71 -32 102 -54l98 54l38 -36l-91 -51c108 -88 180 -217 180 -352c0 -173 -107 -277 -261 -277
c-137 0 -253 97 -253 239c0 150 121 247 265 247c43 0 78 -11 113 -37l2 2c-28 48 -73 97 -124 135z" />
    <glyph glyph-name="multiply" unicode="&#xd7;" horiz-adv-x="600" 
d="M105 0l-40 40l194 194l-194 194l40 40l194 -194l194 194l40 -40l-194 -194l194 -194l-40 -40l-194 194z" />
    <glyph glyph-name="threesuperior" unicode="&#xb3;" horiz-adv-x="336" 
d="M93 459v49l30 -1c59 -4 98 25 98 60c0 40 -45 60 -82 60s-70 -13 -99 -30h-2l27 64c27 9 57 13 86 13c60 0 138 -27 138 -94c0 -45 -35 -73 -79 -83v-2c60 -9 112 -42 112 -104c0 -102 -120 -131 -209 -131l-67 5l-32 72h2c35 -18 77 -30 118 -30c55 0 114 28 114 86
c0 45 -33 72 -103 72c-17 0 -35 -2 -52 -6z" />
    <glyph glyph-name="copyright" unicode="&#xa9;" horiz-adv-x="700" 
d="M347 -16c-189 0 -342 158 -342 346c0 191 155 344 346 344c188 0 344 -153 344 -342c0 -195 -154 -348 -348 -348zM351 34c163 0 290 131 290 293c0 167 -125 297 -292 297c-164 0 -290 -131 -290 -293c0 -166 127 -297 292 -297zM481 258l56 -16
c-26 -79 -108 -117 -186 -117c-120 0 -196 85 -196 201c0 122 84 212 207 212c72 0 159 -37 175 -114l-63 -14c-10 59 -55 89 -114 89c-95 0 -143 -82 -143 -169c0 -88 46 -163 140 -163c63 0 105 34 124 91z" />
    <glyph glyph-name="Aacute" unicode="&#xc1;" horiz-adv-x="720" 
d="M473 247h-252l-52 -141c-21 -56 -28 -85 20 -103v-3h-184v3c58 29 75 85 97 142l167 417c14 36 33 78 -15 93v3h158l208 -513c23 -57 41 -113 98 -142v-3h-205v3c49 22 41 33 14 103zM444 321l-98 252l-99 -252h197zM242 691l217 155l55 -73z" />
    <glyph glyph-name="Acircumflex" unicode="&#xc2;" horiz-adv-x="720" 
d="M473 247h-252l-52 -141c-21 -56 -28 -85 20 -103v-3h-184v3c58 29 75 85 97 142l167 417c14 36 33 78 -15 93v3h158l208 -513c23 -57 41 -113 98 -142v-3h-205v3c49 22 41 33 14 103zM444 321l-98 252l-99 -252h197zM361 845l161 -153c-59 0 -112 29 -161 60
c-49 -33 -105 -59 -165 -60z" />
    <glyph glyph-name="Adieresis" unicode="&#xc4;" horiz-adv-x="720" 
d="M473 247h-252l-52 -141c-21 -56 -28 -85 20 -103v-3h-184v3c58 29 75 85 97 142l167 417c14 36 33 78 -15 93v3h158l208 -513c23 -57 41 -113 98 -142v-3h-205v3c49 22 41 33 14 103zM444 321l-98 252l-99 -252h197zM329 780c0 -36 -27 -62 -63 -62c-33 0 -60 31 -60 64
c0 36 29 62 65 62c33 0 58 -32 58 -64zM513 781c0 -37 -27 -63 -63 -63c-34 0 -60 32 -60 64c0 36 29 62 64 62c34 0 59 -31 59 -63z" />
    <glyph glyph-name="Agrave" unicode="&#xc0;" horiz-adv-x="720" 
d="M473 247h-252l-52 -141c-21 -56 -28 -85 20 -103v-3h-184v3c58 29 75 85 97 142l167 417c14 36 33 78 -15 93v3h158l208 -513c23 -57 41 -113 98 -142v-3h-205v3c49 22 41 33 14 103zM444 321l-98 252l-99 -252h197zM281 840l217 -155l-272 81z" />
    <glyph glyph-name="Aring" unicode="&#xc5;" horiz-adv-x="720" 
d="M473 247h-252l-52 -141c-21 -56 -28 -85 20 -103v-3h-184v3c58 29 75 85 97 142l167 417c14 36 33 78 -15 93v3h158l208 -513c23 -57 41 -113 98 -142v-3h-205v3c49 22 41 33 14 103zM444 321l-98 252l-99 -252h197zM452 793c0 -53 -42 -94 -95 -94c-50 0 -90 42 -90 93
c0 50 41 92 92 92s93 -40 93 -91zM304 792c0 -33 23 -56 54 -56c33 0 57 22 57 54c0 33 -22 57 -56 57c-33 0 -55 -23 -55 -55z" />
    <glyph glyph-name="Atilde" unicode="&#xc3;" horiz-adv-x="720" 
d="M473 247h-252l-52 -141c-21 -56 -28 -85 20 -103v-3h-184v3c58 29 75 85 97 142l167 417c14 36 33 78 -15 93v3h158l208 -513c23 -57 41 -113 98 -142v-3h-205v3c49 22 41 33 14 103zM444 321l-98 252l-99 -252h197zM537 835c-20 -53 -31 -114 -100 -114
c-30 0 -59 5 -89 11c-29 5 -59 10 -89 10c-26 0 -51 -11 -72 -26c19 46 28 99 89 99c26 0 52 -5 78 -9c25 -5 51 -10 77 -10c41 0 78 8 106 39z" />
    <glyph glyph-name="Ccedilla" unicode="&#xc7;" horiz-adv-x="600" 
d="M553 649v-115c-55 35 -119 57 -185 57c-138 0 -234 -101 -234 -246c0 -147 100 -278 254 -278c75 0 150 27 213 63h3l-51 -116c-47 -22 -99 -30 -151 -30c-29 0 -57 2 -82 6l-17 -43l24 3c37 0 73 -19 73 -60c0 -47 -44 -74 -87 -74c-38 0 -77 11 -107 35l30 39
c19 -16 42 -30 67 -30c18 0 36 8 36 29c0 17 -14 25 -30 25c-8 0 -17 -2 -25 -4l-28 37l20 51c-161 40 -256 160 -256 332c0 207 146 344 351 344c61 0 123 -11 182 -25z" />
    <glyph glyph-name="Eacute" unicode="&#xc9;" horiz-adv-x="520" 
d="M189 321v-237l127 -12c66 -6 135 15 185 59h3l-45 -131h-417v3c51 18 45 92 45 137v377c0 46 6 119 -45 138v3h320c17 0 34 -2 47 5h3v-117h-3c-31 36 -72 40 -118 40c-35 0 -70 -1 -102 -7v-186h119c16 0 32 0 44 6h3v-106h-3c-16 29 -58 28 -89 28h-74zM156 691
l217 155l55 -73z" />
    <glyph glyph-name="Ecircumflex" unicode="&#xca;" horiz-adv-x="520" 
d="M189 321v-237l127 -12c66 -6 135 15 185 59h3l-45 -131h-417v3c51 18 45 92 45 137v377c0 46 6 119 -45 138v3h320c17 0 34 -2 47 5h3v-117h-3c-31 36 -72 40 -118 40c-35 0 -70 -1 -102 -7v-186h119c16 0 32 0 44 6h3v-106h-3c-16 29 -58 28 -89 28h-74zM261 845
l161 -153c-59 0 -112 29 -161 60c-49 -33 -105 -59 -165 -60z" />
    <glyph glyph-name="Edieresis" unicode="&#xcb;" horiz-adv-x="520" 
d="M189 321v-237l127 -12c66 -6 135 15 185 59h3l-45 -131h-417v3c51 18 45 92 45 137v377c0 46 6 119 -45 138v3h320c17 0 34 -2 47 5h3v-117h-3c-31 36 -72 40 -118 40c-35 0 -70 -1 -102 -7v-186h119c16 0 32 0 44 6h3v-106h-3c-16 29 -58 28 -89 28h-74zM229 780
c0 -36 -27 -62 -63 -62c-33 0 -60 31 -60 64c0 36 29 62 65 62c33 0 58 -32 58 -64zM413 781c0 -37 -27 -63 -63 -63c-34 0 -60 32 -60 64c0 36 29 62 64 62c34 0 59 -31 59 -63z" />
    <glyph glyph-name="Egrave" unicode="&#xc8;" horiz-adv-x="520" 
d="M189 321v-237l127 -12c66 -6 135 15 185 59h3l-45 -131h-417v3c51 18 45 92 45 137v377c0 46 6 119 -45 138v3h320c17 0 34 -2 47 5h3v-117h-3c-31 36 -72 40 -118 40c-35 0 -70 -1 -102 -7v-186h119c16 0 32 0 44 6h3v-106h-3c-16 29 -58 28 -89 28h-74zM181 840
l217 -155l-272 81z" />
    <glyph glyph-name="Iacute" unicode="&#xcd;" horiz-adv-x="260" 
d="M81 140v377c0 46 7 119 -44 138v3h190v-3c-50 -19 -44 -93 -44 -138v-377c0 -45 -6 -118 44 -137v-3h-190v3c50 18 44 92 44 137zM-4 691l217 155l55 -73z" />
    <glyph glyph-name="Icircumflex" unicode="&#xce;" horiz-adv-x="260" 
d="M81 140v377c0 46 7 119 -44 138v3h190v-3c-50 -19 -44 -93 -44 -138v-377c0 -45 -6 -118 44 -137v-3h-190v3c50 18 44 92 44 137zM131 845l161 -153c-59 0 -112 29 -161 60c-49 -33 -105 -59 -165 -60z" />
    <glyph glyph-name="Idieresis" unicode="&#xcf;" horiz-adv-x="260" 
d="M81 140v377c0 46 7 119 -44 138v3h190v-3c-50 -19 -44 -93 -44 -138v-377c0 -45 -6 -118 44 -137v-3h-190v3c50 18 44 92 44 137zM99 780c0 -36 -27 -62 -63 -62c-33 0 -60 31 -60 64c0 36 29 62 65 62c33 0 58 -32 58 -64zM283 781c0 -37 -27 -63 -63 -63
c-34 0 -60 32 -60 64c0 36 29 62 64 62c34 0 59 -31 59 -63z" />
    <glyph glyph-name="Igrave" unicode="&#xcc;" horiz-adv-x="260" 
d="M81 140v377c0 46 7 119 -44 138v3h190v-3c-50 -19 -44 -93 -44 -138v-377c0 -45 -6 -118 44 -137v-3h-190v3c50 18 44 92 44 137zM51 840l217 -155l-272 81z" />
    <glyph glyph-name="Ntilde" unicode="&#xd1;" horiz-adv-x="720" 
d="M158 517v-387c0 -56 -1 -96 52 -127v-3h-177v3c53 31 53 71 53 127v399c0 56 0 96 -52 126v3h146v-1c4 -12 8 -17 15 -25l14 -20l366 -462v379c0 56 1 96 -52 126v3h176v-3c-52 -30 -52 -70 -52 -126v-561c-71 24 -102 57 -146 114zM537 835c-20 -53 -31 -114 -100 -114
c-30 0 -59 5 -89 11c-29 5 -59 10 -89 10c-26 0 -51 -11 -72 -26c19 46 28 99 89 99c26 0 52 -5 78 -9c25 -5 51 -10 77 -10c41 0 78 8 106 39z" />
    <glyph glyph-name="Oacute" unicode="&#xd3;" horiz-adv-x="780" 
d="M398 675c210 1 358 -159 358 -339c0 -204 -169 -352 -368 -352c-198 0 -365 142 -365 347c0 190 165 349 375 344zM391 603c-155 0 -254 -112 -254 -263c0 -140 99 -284 256 -284c152 0 249 111 249 260c0 146 -93 287 -251 287zM286 691l217 155l55 -73z" />
    <glyph glyph-name="Ocircumflex" unicode="&#xd4;" horiz-adv-x="780" 
d="M398 675c210 1 358 -159 358 -339c0 -204 -169 -352 -368 -352c-198 0 -365 142 -365 347c0 190 165 349 375 344zM391 603c-155 0 -254 -112 -254 -263c0 -140 99 -284 256 -284c152 0 249 111 249 260c0 146 -93 287 -251 287zM391 845l161 -153c-59 0 -112 29 -161 60
c-49 -33 -105 -59 -165 -60z" />
    <glyph glyph-name="Odieresis" unicode="&#xd6;" horiz-adv-x="780" 
d="M398 675c210 1 358 -159 358 -339c0 -204 -169 -352 -368 -352c-198 0 -365 142 -365 347c0 190 165 349 375 344zM391 603c-155 0 -254 -112 -254 -263c0 -140 99 -284 256 -284c152 0 249 111 249 260c0 146 -93 287 -251 287zM359 780c0 -36 -27 -62 -63 -62
c-33 0 -60 31 -60 64c0 36 29 62 65 62c33 0 58 -32 58 -64zM543 781c0 -37 -27 -63 -63 -63c-34 0 -60 32 -60 64c0 36 29 62 64 62c34 0 59 -31 59 -63z" />
    <glyph glyph-name="Ograve" unicode="&#xd2;" horiz-adv-x="780" 
d="M398 675c210 1 358 -159 358 -339c0 -204 -169 -352 -368 -352c-198 0 -365 142 -365 347c0 190 165 349 375 344zM391 603c-155 0 -254 -112 -254 -263c0 -140 99 -284 256 -284c152 0 249 111 249 260c0 146 -93 287 -251 287zM311 840l217 -155l-272 81z" />
    <glyph glyph-name="Otilde" unicode="&#xd5;" horiz-adv-x="780" 
d="M398 675c210 1 358 -159 358 -339c0 -204 -169 -352 -368 -352c-198 0 -365 142 -365 347c0 190 165 349 375 344zM391 603c-155 0 -254 -112 -254 -263c0 -140 99 -284 256 -284c152 0 249 111 249 260c0 146 -93 287 -251 287zM567 835c-20 -53 -31 -114 -100 -114
c-30 0 -59 5 -89 11c-29 5 -59 10 -89 10c-26 0 -51 -11 -72 -26c19 46 28 99 89 99c26 0 52 -5 78 -9c25 -5 51 -10 77 -10c41 0 78 8 106 39z" />
    <glyph glyph-name="Scaron" unicode="&#x160;" horiz-adv-x="520" 
d="M428 652v-113c-39 40 -101 63 -157 63c-57 0 -129 -22 -129 -91c0 -137 344 -135 344 -320c0 -107 -112 -207 -268 -207c-61 0 -122 9 -179 30l-29 125c59 -51 141 -83 219 -83c57 0 143 34 143 104c0 156 -344 128 -344 340c0 126 129 174 251 174c50 0 101 -7 149 -22z
M261 723l-165 153c60 -1 116 -27 165 -60c49 31 102 60 161 60z" />
    <glyph glyph-name="Uacute" unicode="&#xda;" horiz-adv-x="680" 
d="M496 0v66c-44 -58 -126 -82 -196 -82c-66 0 -136 21 -181 70c-53 58 -51 125 -51 197v267c0 45 7 118 -44 137v3h190v-3c-50 -19 -44 -92 -44 -137v-267c0 -133 56 -195 159 -195c56 0 113 23 146 70c22 30 21 55 21 91v301c0 45 6 118 -44 137v3h190l1 -3
c-51 -19 -45 -92 -45 -138v-377c0 -45 -6 -118 45 -137v-3h-147zM206 691l217 155l55 -73z" />
    <glyph glyph-name="Ucircumflex" unicode="&#xdb;" horiz-adv-x="680" 
d="M496 0v66c-44 -58 -126 -82 -196 -82c-66 0 -136 21 -181 70c-53 58 -51 125 -51 197v267c0 45 7 118 -44 137v3h190v-3c-50 -19 -44 -92 -44 -137v-267c0 -133 56 -195 159 -195c56 0 113 23 146 70c22 30 21 55 21 91v301c0 45 6 118 -44 137v3h190l1 -3
c-51 -19 -45 -92 -45 -138v-377c0 -45 -6 -118 45 -137v-3h-147zM341 845l161 -153c-59 0 -112 29 -161 60c-49 -33 -105 -59 -165 -60z" />
    <glyph glyph-name="Udieresis" unicode="&#xdc;" horiz-adv-x="680" 
d="M496 0v66c-44 -58 -126 -82 -196 -82c-66 0 -136 21 -181 70c-53 58 -51 125 -51 197v267c0 45 7 118 -44 137v3h190v-3c-50 -19 -44 -92 -44 -137v-267c0 -133 56 -195 159 -195c56 0 113 23 146 70c22 30 21 55 21 91v301c0 45 6 118 -44 137v3h190l1 -3
c-51 -19 -45 -92 -45 -138v-377c0 -45 -6 -118 45 -137v-3h-147zM309 780c0 -36 -27 -62 -63 -62c-33 0 -60 31 -60 64c0 36 29 62 65 62c33 0 58 -32 58 -64zM493 781c0 -37 -27 -63 -63 -63c-34 0 -60 32 -60 64c0 36 29 62 64 62c34 0 59 -31 59 -63z" />
    <glyph glyph-name="Ugrave" unicode="&#xd9;" horiz-adv-x="680" 
d="M496 0v66c-44 -58 -126 -82 -196 -82c-66 0 -136 21 -181 70c-53 58 -51 125 -51 197v267c0 45 7 118 -44 137v3h190v-3c-50 -19 -44 -92 -44 -137v-267c0 -133 56 -195 159 -195c56 0 113 23 146 70c22 30 21 55 21 91v301c0 45 6 118 -44 137v3h190l1 -3
c-51 -19 -45 -92 -45 -138v-377c0 -45 -6 -118 45 -137v-3h-147zM291 840l217 -155l-272 81z" />
    <glyph glyph-name="Yacute" unicode="&#xdd;" horiz-adv-x="540" 
d="M331 288v-158c0 -60 0 -90 51 -127v-3h-195v3c49 25 42 90 42 137v148l-166 267c-27 44 -47 77 -95 103h91c32 0 62 -7 75 -28l160 -261l124 186c17 25 40 73 -16 100v3h175zM196 691l217 155l55 -73z" />
    <glyph glyph-name="Ydieresis" unicode="&#x178;" horiz-adv-x="540" 
d="M331 288v-158c0 -60 0 -90 51 -127v-3h-195v3c49 25 42 90 42 137v148l-166 267c-27 44 -47 77 -95 103h91c32 0 62 -7 75 -28l160 -261l124 186c17 25 40 73 -16 100v3h175zM239 780c0 -36 -27 -62 -63 -62c-33 0 -60 31 -60 64c0 36 29 62 65 62c33 0 58 -32 58 -64z
M423 781c0 -37 -27 -63 -63 -63c-34 0 -60 32 -60 64c0 36 29 62 64 62c34 0 59 -31 59 -63z" />
    <glyph glyph-name="Zcaron" unicode="&#x17d;" horiz-adv-x="600" 
d="M536 0h-527l362 576l-170 10c-62 4 -98 -9 -150 -43h-3l51 115h442l-360 -574l210 -12c73 -4 136 18 198 55h3zM301 723l-165 153c60 -1 116 -27 165 -60c49 31 102 60 161 60z" />
    <glyph glyph-name="aacute" unicode="&#xe1;" horiz-adv-x="480" 
d="M490 53l-44 -66c-66 4 -132 24 -132 104v158c-29 -15 -63 -23 -96 -31c-48 -11 -102 -22 -102 -83c0 -62 56 -82 109 -82c24 0 48 7 72 14l-59 -75c-17 -3 -35 -5 -52 -5c-101 0 -171 64 -171 147c0 186 299 100 299 209c0 48 -59 64 -96 64c-51 0 -91 -19 -136 -40
l67 100l65 6c108 0 190 -31 191 -152v-150c0 -79 2 -109 85 -118zM122 493l217 155l55 -73z" />
    <glyph glyph-name="acircumflex" unicode="&#xe2;" horiz-adv-x="480" 
d="M490 53l-44 -66c-66 4 -132 24 -132 104v158c-29 -15 -63 -23 -96 -31c-48 -11 -102 -22 -102 -83c0 -62 56 -82 109 -82c24 0 48 7 72 14l-59 -75c-17 -3 -35 -5 -52 -5c-101 0 -171 64 -171 147c0 186 299 100 299 209c0 48 -59 64 -96 64c-51 0 -91 -19 -136 -40
l67 100l65 6c108 0 190 -31 191 -152v-150c0 -79 2 -109 85 -118zM241 647l161 -153c-59 0 -112 29 -161 60c-49 -33 -105 -59 -165 -60z" />
    <glyph glyph-name="adieresis" unicode="&#xe4;" horiz-adv-x="480" 
d="M490 53l-44 -66c-66 4 -132 24 -132 104v158c-29 -15 -63 -23 -96 -31c-48 -11 -102 -22 -102 -83c0 -62 56 -82 109 -82c24 0 48 7 72 14l-59 -75c-17 -3 -35 -5 -52 -5c-101 0 -171 64 -171 147c0 186 299 100 299 209c0 48 -59 64 -96 64c-51 0 -91 -19 -136 -40
l67 100l65 6c108 0 190 -31 191 -152v-150c0 -79 2 -109 85 -118zM209 582c0 -36 -27 -62 -63 -62c-33 0 -60 31 -60 64c0 36 29 62 65 62c33 0 58 -32 58 -64zM393 583c0 -37 -27 -63 -63 -63c-34 0 -60 32 -60 64c0 36 29 62 64 62c34 0 59 -31 59 -63z" />
    <glyph glyph-name="agrave" unicode="&#xe0;" horiz-adv-x="480" 
d="M490 53l-44 -66c-66 4 -132 24 -132 104v158c-29 -15 -63 -23 -96 -31c-48 -11 -102 -22 -102 -83c0 -62 56 -82 109 -82c24 0 48 7 72 14l-59 -75c-17 -3 -35 -5 -52 -5c-101 0 -171 64 -171 147c0 186 299 100 299 209c0 48 -59 64 -96 64c-51 0 -91 -19 -136 -40
l67 100l65 6c108 0 190 -31 191 -152v-150c0 -79 2 -109 85 -118zM161 642l217 -155l-272 81z" />
    <glyph glyph-name="aring" unicode="&#xe5;" horiz-adv-x="480" 
d="M490 53l-44 -66c-66 4 -132 24 -132 104v158c-29 -15 -63 -23 -96 -31c-48 -11 -102 -22 -102 -83c0 -62 56 -82 109 -82c24 0 48 7 72 14l-59 -75c-17 -3 -35 -5 -52 -5c-101 0 -171 64 -171 147c0 186 299 100 299 209c0 48 -59 64 -96 64c-51 0 -91 -19 -136 -40
l67 100l65 6c108 0 190 -31 191 -152v-150c0 -79 2 -109 85 -118zM332 595c0 -53 -42 -94 -95 -94c-50 0 -90 42 -90 93c0 50 41 92 92 92s93 -40 93 -91zM184 594c0 -33 23 -56 54 -56c33 0 57 22 57 54c0 33 -22 57 -56 57c-33 0 -55 -23 -55 -55z" />
    <glyph glyph-name="atilde" unicode="&#xe3;" horiz-adv-x="480" 
d="M490 53l-44 -66c-66 4 -132 24 -132 104v158c-29 -15 -63 -23 -96 -31c-48 -11 -102 -22 -102 -83c0 -62 56 -82 109 -82c24 0 48 7 72 14l-59 -75c-17 -3 -35 -5 -52 -5c-101 0 -171 64 -171 147c0 186 299 100 299 209c0 48 -59 64 -96 64c-51 0 -91 -19 -136 -40
l67 100l65 6c108 0 190 -31 191 -152v-150c0 -79 2 -109 85 -118zM417 637c-20 -53 -31 -114 -100 -114c-30 0 -59 5 -89 11c-29 5 -59 10 -89 10c-26 0 -51 -11 -72 -26c19 46 28 99 89 99c26 0 52 -5 78 -9c25 -5 51 -10 77 -10c41 0 78 8 106 39z" />
    <glyph glyph-name="ccedilla" unicode="&#xe7;" horiz-adv-x="460" 
d="M415 461v-103h-3c-29 33 -77 49 -122 49c-97 0 -167 -68 -167 -163c0 -115 97 -191 208 -191c51 0 107 20 146 49h3l-52 -95c-42 -16 -88 -20 -132 -20c-16 0 -31 1 -46 3l-17 -43l24 3c37 0 73 -19 73 -60c0 -47 -44 -74 -87 -74c-38 0 -77 11 -107 35l30 39
c19 -16 42 -30 67 -30c18 0 36 8 36 29c0 17 -14 25 -30 25c-8 0 -17 -2 -25 -4l-28 37l21 53c-109 30 -185 115 -185 218c0 172 134 255 285 255c36 0 73 -4 108 -12z" />
    <glyph glyph-name="eacute" unicode="&#xe9;" horiz-adv-x="520" 
d="M500 246h-367c2 -122 87 -193 200 -193c60 0 118 17 164 53h3l-50 -94c-43 -18 -91 -25 -138 -25c-170 0 -287 107 -287 246s101 240 250 240c136 0 229 -98 225 -227zM137 304h258c-11 70 -57 103 -129 103c-67 0 -117 -40 -129 -103zM176 493l217 155l55 -73z" />
    <glyph glyph-name="ecircumflex" unicode="&#xea;" horiz-adv-x="520" 
d="M500 246h-367c2 -122 87 -193 200 -193c60 0 118 17 164 53h3l-50 -94c-43 -18 -91 -25 -138 -25c-170 0 -287 107 -287 246s101 240 250 240c136 0 229 -98 225 -227zM137 304h258c-11 70 -57 103 -129 103c-67 0 -117 -40 -129 -103zM261 647l161 -153
c-59 0 -112 29 -161 60c-49 -33 -105 -59 -165 -60z" />
    <glyph glyph-name="edieresis" unicode="&#xeb;" horiz-adv-x="520" 
d="M500 246h-367c2 -122 87 -193 200 -193c60 0 118 17 164 53h3l-50 -94c-43 -18 -91 -25 -138 -25c-170 0 -287 107 -287 246s101 240 250 240c136 0 229 -98 225 -227zM137 304h258c-11 70 -57 103 -129 103c-67 0 -117 -40 -129 -103zM229 582c0 -36 -27 -62 -63 -62
c-33 0 -60 31 -60 64c0 36 29 62 65 62c33 0 58 -32 58 -64zM413 583c0 -37 -27 -63 -63 -63c-34 0 -60 32 -60 64c0 36 29 62 64 62c34 0 59 -31 59 -63z" />
    <glyph glyph-name="egrave" unicode="&#xe8;" horiz-adv-x="520" 
d="M500 246h-367c2 -122 87 -193 200 -193c60 0 118 17 164 53h3l-50 -94c-43 -18 -91 -25 -138 -25c-170 0 -287 107 -287 246s101 240 250 240c136 0 229 -98 225 -227zM137 304h258c-11 70 -57 103 -129 103c-67 0 -117 -40 -129 -103zM181 642l217 -155l-272 81z" />
    <glyph glyph-name="iacute" unicode="&#xed;" horiz-adv-x="240" 
d="M33 460h61c23 0 48 1 65 13h3v-362c0 -46 -6 -83 38 -108v-3h-167v3c44 25 38 62 38 108v239c0 46 6 82 -38 107v3zM-14 493l217 155l55 -73z" />
    <glyph glyph-name="icircumflex" unicode="&#xee;" horiz-adv-x="240" 
d="M33 460h61c23 0 48 1 65 13h3v-362c0 -46 -6 -83 38 -108v-3h-167v3c44 25 38 62 38 108v239c0 46 6 82 -38 107v3zM121 647l161 -153c-59 0 -112 29 -161 60c-49 -33 -105 -59 -165 -60z" />
    <glyph glyph-name="idieresis" unicode="&#xef;" horiz-adv-x="240" 
d="M33 460h61c23 0 48 1 65 13h3v-362c0 -46 -6 -83 38 -108v-3h-167v3c44 25 38 62 38 108v239c0 46 6 82 -38 107v3zM89 582c0 -36 -27 -62 -63 -62c-33 0 -60 31 -60 64c0 36 29 62 65 62c33 0 58 -32 58 -64zM273 583c0 -37 -27 -63 -63 -63c-34 0 -60 32 -60 64
c0 36 29 62 64 62c34 0 59 -31 59 -63z" />
    <glyph glyph-name="igrave" unicode="&#xec;" horiz-adv-x="240" 
d="M33 460h61c23 0 48 1 65 13h3v-362c0 -46 -6 -83 38 -108v-3h-167v3c44 25 38 62 38 108v239c0 46 6 82 -38 107v3zM41 642l217 -155l-272 81z" />
    <glyph glyph-name="ntilde" unicode="&#xf1;" horiz-adv-x="540" 
d="M28 460h59c22 0 46 1 67 13h3v-77c35 48 76 77 141 77c56 0 120 -22 152 -69c28 -40 25 -102 25 -149v-145c0 -46 -6 -82 38 -107v-3h-167v3c44 25 38 62 38 107v135c0 107 -30 162 -121 162s-106 -61 -106 -120v-177c0 -46 -6 -82 38 -107v-3h-167v3c44 25 38 62 38 108
v238c0 46 6 83 -38 108v3zM447 637c-20 -53 -31 -114 -100 -114c-30 0 -59 5 -89 11c-29 5 -59 10 -89 10c-26 0 -51 -11 -72 -26c19 46 28 99 89 99c26 0 52 -5 78 -9c25 -5 51 -10 77 -10c41 0 78 8 106 39z" />
    <glyph glyph-name="oacute" unicode="&#xf3;" 
d="M276 -13c-137 0 -253 97 -253 239c0 150 121 247 265 247c64 0 119 -17 167 -59c51 -45 82 -111 82 -179c0 -144 -120 -248 -261 -248zM281 53c92 0 155 71 155 161c0 97 -52 193 -159 193c-93 0 -153 -73 -153 -163c0 -92 55 -191 157 -191zM196 493l217 155l55 -73z
" />
    <glyph glyph-name="ocircumflex" unicode="&#xf4;" 
d="M276 -13c-137 0 -253 97 -253 239c0 150 121 247 265 247c64 0 119 -17 167 -59c51 -45 82 -111 82 -179c0 -144 -120 -248 -261 -248zM281 53c92 0 155 71 155 161c0 97 -52 193 -159 193c-93 0 -153 -73 -153 -163c0 -92 55 -191 157 -191zM281 647l161 -153
c-59 0 -112 29 -161 60c-49 -33 -105 -59 -165 -60z" />
    <glyph glyph-name="odieresis" unicode="&#xf6;" 
d="M276 -13c-137 0 -253 97 -253 239c0 150 121 247 265 247c64 0 119 -17 167 -59c51 -45 82 -111 82 -179c0 -144 -120 -248 -261 -248zM281 53c92 0 155 71 155 161c0 97 -52 193 -159 193c-93 0 -153 -73 -153 -163c0 -92 55 -191 157 -191zM249 582
c0 -36 -27 -62 -63 -62c-33 0 -60 31 -60 64c0 36 29 62 65 62c33 0 58 -32 58 -64zM433 583c0 -37 -27 -63 -63 -63c-34 0 -60 32 -60 64c0 36 29 62 64 62c34 0 59 -31 59 -63z" />
    <glyph glyph-name="ograve" unicode="&#xf2;" 
d="M276 -13c-137 0 -253 97 -253 239c0 150 121 247 265 247c64 0 119 -17 167 -59c51 -45 82 -111 82 -179c0 -144 -120 -248 -261 -248zM281 53c92 0 155 71 155 161c0 97 -52 193 -159 193c-93 0 -153 -73 -153 -163c0 -92 55 -191 157 -191zM201 642l217 -155l-272 81z
" />
    <glyph glyph-name="otilde" unicode="&#xf5;" 
d="M276 -13c-137 0 -253 97 -253 239c0 150 121 247 265 247c64 0 119 -17 167 -59c51 -45 82 -111 82 -179c0 -144 -120 -248 -261 -248zM281 53c92 0 155 71 155 161c0 97 -52 193 -159 193c-93 0 -153 -73 -153 -163c0 -92 55 -191 157 -191zM457 637
c-20 -53 -31 -114 -100 -114c-30 0 -59 5 -89 11c-29 5 -59 10 -89 10c-26 0 -51 -11 -72 -26c19 46 28 99 89 99c26 0 52 -5 78 -9c25 -5 51 -10 77 -10c41 0 78 8 106 39z" />
    <glyph glyph-name="scaron" unicode="&#x161;" horiz-adv-x="420" 
d="M345 460v-85c-37 20 -79 32 -123 32c-33 0 -93 -8 -93 -48c0 -89 271 -57 271 -216c0 -93 -95 -156 -224 -156c-45 0 -88 7 -130 24l-35 98c58 -37 119 -56 188 -56c41 0 110 14 110 65c0 101 -271 69 -271 221c0 106 110 134 196 134c37 0 75 -3 111 -13zM211 525
l-165 153c60 -1 116 -27 165 -60c49 31 102 60 161 60z" />
    <glyph glyph-name="uacute" unicode="&#xfa;" horiz-adv-x="540" 
d="M348 460h51c26 0 57 -4 75 13h3v-364c0 -46 -6 -83 38 -106v-3h-129v65c-36 -55 -74 -78 -144 -78c-118 0 -174 67 -174 208v154c0 46 6 83 -38 108v3h65c22 0 47 1 61 13h3v-261c0 -92 26 -149 113 -149c66 0 114 54 114 131v154c0 47 6 83 -38 109v3zM186 493l217 155
l55 -73z" />
    <glyph glyph-name="ucircumflex" unicode="&#xfb;" horiz-adv-x="540" 
d="M348 460h51c26 0 57 -4 75 13h3v-364c0 -46 -6 -83 38 -106v-3h-129v65c-36 -55 -74 -78 -144 -78c-118 0 -174 67 -174 208v154c0 46 6 83 -38 108v3h65c22 0 47 1 61 13h3v-261c0 -92 26 -149 113 -149c66 0 114 54 114 131v154c0 47 6 83 -38 109v3zM271 647l161 -153
c-59 0 -112 29 -161 60c-49 -33 -105 -59 -165 -60z" />
    <glyph glyph-name="udieresis" unicode="&#xfc;" horiz-adv-x="540" 
d="M348 460h51c26 0 57 -4 75 13h3v-364c0 -46 -6 -83 38 -106v-3h-129v65c-36 -55 -74 -78 -144 -78c-118 0 -174 67 -174 208v154c0 46 6 83 -38 108v3h65c22 0 47 1 61 13h3v-261c0 -92 26 -149 113 -149c66 0 114 54 114 131v154c0 47 6 83 -38 109v3zM239 582
c0 -36 -27 -62 -63 -62c-33 0 -60 31 -60 64c0 36 29 62 65 62c33 0 58 -32 58 -64zM423 583c0 -37 -27 -63 -63 -63c-34 0 -60 32 -60 64c0 36 29 62 64 62c34 0 59 -31 59 -63z" />
    <glyph glyph-name="ugrave" unicode="&#xf9;" horiz-adv-x="540" 
d="M348 460h51c26 0 57 -4 75 13h3v-364c0 -46 -6 -83 38 -106v-3h-129v65c-36 -55 -74 -78 -144 -78c-118 0 -174 67 -174 208v154c0 46 6 83 -38 108v3h65c22 0 47 1 61 13h3v-261c0 -92 26 -149 113 -149c66 0 114 54 114 131v154c0 47 6 83 -38 109v3zM191 642l217 -155
l-272 81z" />
    <glyph glyph-name="yacute" unicode="&#xfd;" horiz-adv-x="500" 
d="M267 89l101 254c15 39 38 92 -10 114v3h140l-208 -496c-54 -129 -124 -167 -218 -167c-43 0 -80 10 -119 25l90 65c17 -11 35 -24 56 -24c70 0 100 75 121 130l6 16l-4 5c-33 33 -33 38 -52 80l-122 266c-20 44 -32 79 -80 97v3h85c37 0 56 -15 67 -40zM166 493l217 155
l55 -73z" />
    <glyph glyph-name="ydieresis" unicode="&#xff;" horiz-adv-x="500" 
d="M267 89l101 254c15 39 38 92 -10 114v3h140l-208 -496c-54 -129 -124 -167 -218 -167c-43 0 -80 10 -119 25l90 65c17 -11 35 -24 56 -24c70 0 100 75 121 130l6 16l-4 5c-33 33 -33 38 -52 80l-122 266c-20 44 -32 79 -80 97v3h85c37 0 56 -15 67 -40zM219 582
c0 -36 -27 -62 -63 -62c-33 0 -60 31 -60 64c0 36 29 62 65 62c33 0 58 -32 58 -64zM403 583c0 -37 -27 -63 -63 -63c-34 0 -60 32 -60 64c0 36 29 62 64 62c34 0 59 -31 59 -63z" />
    <glyph glyph-name="zcaron" unicode="&#x17e;" horiz-adv-x="460" 
d="M423 0h-424v3l277 383l-103 8c-49 4 -103 -5 -141 -36h-3l50 102h354v-3l-263 -379l146 -12c62 -5 109 11 160 43h3zM231 525l-165 153c60 -1 116 -27 165 -60c49 31 102 60 161 60z" />
    <glyph glyph-name="Omega" unicode="&#x2126;" horiz-adv-x="723" 
d="M192 73v2c-68 57 -132 155 -132 285c0 180 128 315 304 315c185 0 297 -153 297 -310c0 -135 -67 -236 -134 -290v-2h148v-73h-250v54c74 45 144 141 144 294c0 123 -71 253 -206 253c-128 0 -211 -113 -211 -257c0 -141 70 -247 144 -290v-54h-250v73h146z" />
    <glyph glyph-name="pi" unicode="&#x3c0;" horiz-adv-x="581" 
d="M555 420h-77v-276c0 -78 6 -117 14 -144h-89c-10 17 -17 60 -17 137v283h-168c-6 -117 -34 -330 -70 -420h-89c36 104 65 300 69 420c-58 0 -87 -4 -109 -11l-12 59c25 16 70 28 150 28h406z" />
    <glyph glyph-name="Euro" unicode="&#x20ac;" 
d="M424 262h-224c24 -114 97 -200 196 -200c52 0 123 23 160 55h3l-44 -108c-17 -9 -79 -25 -117 -25c-176 0 -287 104 -309 278h-70v54h66v14c0 18 1 35 3 52h-69v54h77c34 148 141 238 275 238c52 0 104 -11 154 -25v-110c-44 36 -99 57 -155 57c-81 0 -143 -67 -167 -160
h221v-54h-230c-1 -12 -2 -24 -2 -37c0 -10 0 -19 1 -29h231v-54z" />
    <glyph glyph-name="estimated" unicode="&#x212e;" horiz-adv-x="832" 
d="M799 319h-621c-3 0 -5 -1 -5 -4v-188c0 -8 3 -15 8 -21c60 -62 143 -102 235 -102c99 0 187 45 247 114h55c-68 -80 -180 -133 -303 -133c-211 0 -383 154 -383 344s172 345 383 345c212 0 384 -155 384 -345v-10zM658 344v189c0 8 -3 16 -9 22c-61 59 -142 98 -233 98
s-174 -40 -234 -101c-6 -6 -9 -14 -9 -23v-185c0 -2 2 -6 5 -6h476c3 0 4 4 4 6z" />
    <glyph glyph-name="partialdiff" unicode="&#x2202;" horiz-adv-x="554" 
d="M101 623l-29 65c32 24 87 54 173 54c136 0 260 -121 260 -362c0 -221 -94 -392 -267 -392c-136 0 -198 119 -198 223c0 148 98 244 213 244c90 0 146 -64 161 -91h1c1 10 1 29 1 39c0 155 -79 266 -182 266c-62 0 -106 -25 -133 -46zM246 62h1c89 0 145 110 158 221
c-13 38 -62 100 -136 100c-78 0 -139 -79 -139 -173c0 -84 46 -148 116 -148z" />
    <glyph glyph-name="product" unicode="&#x220f;" horiz-adv-x="705" 
d="M680 584h-108v-676h-90v676h-260v-676h-89v676h-109v80h656v-80z" />
    <glyph glyph-name="summation" unicode="&#x2211;" horiz-adv-x="554" 
d="M534 -92h-512v58l260 319l-249 317v62h485v-76h-360v-4l227 -286l-246 -303v-4h395v-83z" />
    <glyph glyph-name="uni2219" unicode="&#x2219;" horiz-adv-x="280" 
d="M202 235c0 -34 -27 -63 -61 -63c-37 0 -63 29 -63 66c0 34 31 58 64 58s60 -29 60 -61z" />
    <glyph glyph-name="radical" unicode="&#x221a;" horiz-adv-x="575" 
d="M579 791l-223 -931h-76l-157 433l-74 -28l-17 52l146 57l121 -343c7 -24 14 -50 18 -70l2 -1c3 19 8 47 14 73l181 758h65z" />
    <glyph glyph-name="infinity" unicode="&#x221e;" horiz-adv-x="762" 
d="M713 276v-1c0 -99 -74 -160 -152 -160c-60 0 -111 35 -179 115c-51 -60 -104 -115 -184 -115s-149 66 -149 156c0 92 67 159 157 159c73 0 128 -52 180 -115c48 54 98 115 182 115c85 0 145 -63 145 -154zM205 168h1c61 0 107 58 147 101c-43 53 -84 110 -153 110
c-60 0 -96 -50 -95 -109c0 -56 41 -102 100 -102zM562 379h-1c-64 0 -114 -70 -148 -105c64 -72 100 -106 151 -106c60 0 94 54 94 103c0 66 -41 108 -96 108z" />
    <glyph glyph-name="integral" unicode="&#x222b;" horiz-adv-x="362" 
d="M346 802l-13 -61c-8 5 -23 10 -36 10c-17 0 -37 -7 -50 -23c-24 -28 -32 -81 -32 -167c0 -151 14 -311 14 -471c0 -98 -18 -157 -40 -191c-23 -39 -65 -56 -107 -56c-27 0 -56 9 -69 16l14 64c9 -5 25 -12 45 -12c16 0 34 7 45 21c19 24 33 65 33 159
c0 162 -15 325 -15 479c0 106 15 166 55 206c26 27 64 39 100 39c22 0 45 -7 56 -13z" />
    <glyph glyph-name="approxequal" unicode="&#x2248;" horiz-adv-x="556" 
d="M477 420l35 -31c-29 -54 -71 -95 -130 -95c-41 0 -68 15 -115 41c-30 17 -58 33 -91 33c-46 0 -73 -35 -98 -72l-35 31c30 57 81 95 139 95c48 0 82 -24 109 -39c36 -20 58 -34 92 -34c40 0 66 25 94 71zM477 248l35 -32c-29 -53 -71 -94 -130 -94c-41 0 -69 15 -115 41
c-31 18 -58 33 -91 33c-46 0 -73 -35 -98 -72l-35 31c30 57 81 95 139 95c48 0 82 -24 109 -38c32 -18 56 -35 92 -35c41 0 66 25 94 71z" />
    <glyph glyph-name="notequal" unicode="&#x2260;" horiz-adv-x="556" 
d="M399 489l-43 -94h150v-55h-172l-65 -140h237v-55h-259l-53 -115l-44 19l44 96h-144v55h167l64 140h-231v55h253l52 113z" />
    <glyph glyph-name="lessequal" unicode="&#x2264;" horiz-adv-x="556" 
d="M504 91l-449 218v59l449 219v-65l-391 -182v-2l391 -183v-64zM507 -3h-457v55h457v-55z" />
    <glyph glyph-name="greaterequal" unicode="&#x2265;" horiz-adv-x="556" 
d="M56 587l449 -219v-59l-449 -218v64l390 183v2l-390 182v65zM505 -3h-454v55h454v-55z" />
    <glyph glyph-name="lozenge" unicode="&#x25ca;" horiz-adv-x="575" 
d="M522 332l-200 -378h-72l-198 378l200 378h73zM441 330l-134 257c-7 16 -15 37 -19 50h-2c-5 -15 -12 -33 -20 -50l-133 -253l135 -260c8 -18 15 -37 18 -49h3c3 13 12 36 18 48z" />
    <glyph glyph-name="uni02C9" unicode="&#x2c9;" horiz-adv-x="500" 
d="M66 581v65h364v-65h-364z" />
    <glyph glyph-name="uni00AD" unicode="&#xad;" horiz-adv-x="360" 
d="M207 211h-101c-35 0 -54 0 -87 -12l-2 2l53 60c7 7 13 16 23 21c11 5 47 4 60 4h101c35 0 54 0 87 12l2 -2l-53 -60c-7 -7 -13 -16 -23 -21c-11 -5 -47 -4 -60 -4z" />
    <glyph glyph-name="uni03A9" unicode="&#x3a9;" horiz-adv-x="723" 
d="M192 73v2c-68 57 -132 155 -132 285c0 180 128 315 304 315c185 0 297 -153 297 -310c0 -135 -67 -236 -134 -290v-2h148v-73h-250v54c74 45 144 141 144 294c0 123 -71 253 -206 253c-128 0 -211 -113 -211 -257c0 -141 70 -247 144 -290v-54h-250v73h146z" />
    <glyph glyph-name="uni00A0" unicode="&#xa0;" horiz-adv-x="280" 
 />
    <glyph glyph-name="afii61289" unicode="&#x2113;" horiz-adv-x="495" 
d="M432 153l41 -38c-48 -88 -117 -127 -195 -127c-113 0 -162 78 -170 168v11c-17 -13 -36 -29 -55 -43l-26 50c28 24 56 44 80 66v252c0 175 79 236 161 236c90 0 130 -73 130 -161c0 -118 -80 -229 -204 -345v-31c1 -91 50 -131 103 -131c61 0 109 49 135 93zM194 500
v-193c81 86 143 175 143 260c0 57 -18 96 -67 96c-34 0 -76 -39 -76 -163z" />
    <glyph glyph-name="uni03BC" unicode="&#x3bc;" horiz-adv-x="540" 
d="M386 0v65c-36 -55 -74 -78 -144 -78c-32 0 -59 5 -81 14l3 -78c1 -25 1 -78 11 -99c6 -15 15 -22 29 -26v-3h-122c-9 0 -28 -2 -28 9c0 7 1 13 1 20l15 333c-1 12 -2 25 -2 38v154c0 46 6 83 -38 108v3h65c22 0 47 1 61 13h3v-261c0 -92 26 -149 113 -149
c66 0 114 54 114 131v154c0 47 6 83 -38 109v3h51c26 0 57 -4 75 13h3v-364c0 -46 -6 -83 38 -106v-3h-129z" />
    <glyph glyph-name="uni2215" unicode="&#x2215;" horiz-adv-x="80" 
d="M236 658l-323 -658h-60l324 658h59z" />
    <glyph glyph-name="a.superior" horiz-adv-x="380" 
d="M321 439l-24 -37c-69 5 -74 21 -74 84v61c-17 -9 -36 -13 -54 -17c-28 -7 -59 -13 -59 -48s32 -45 61 -45c14 0 28 3 41 7l-33 -43c-10 -2 -20 -3 -30 -3c-52 0 -97 32 -97 84c0 105 170 56 170 118c0 27 -33 35 -54 35c-29 0 -52 -10 -78 -22l38 57l37 4
c33 0 70 -5 93 -32c19 -23 15 -58 15 -86v-77c0 -30 22 -40 48 -40z" />
    <glyph glyph-name="o.superior" horiz-adv-x="380" 
d="M190 674c80 0 142 -58 142 -139c0 -79 -72 -137 -148 -137c-78 0 -144 55 -144 136c0 85 69 140 150 140zM185 636c-53 0 -88 -41 -88 -92c0 -52 32 -108 90 -108c53 0 88 41 88 92c0 55 -30 108 -90 108z" />
    <glyph glyph-name="one.superior" horiz-adv-x="336" 
d="M63 586v3c57 17 109 56 138 104h3v-339c0 -34 -3 -61 32 -81v-3h-136v3c40 17 38 45 38 81v232h-75z" />
    <glyph glyph-name="two.superior" horiz-adv-x="336" 
d="M309 270h-298l164 219c17 23 44 51 44 81c0 36 -37 57 -73 57c-41 0 -80 -18 -112 -38h-2l39 73c27 7 56 12 85 12c72 0 137 -35 137 -89c0 -28 -12 -50 -27 -72l-142 -194l85 -6c47 0 95 8 134 27h2z" />
    <glyph glyph-name="three.superior" horiz-adv-x="336" 
d="M93 459v49l30 -1c59 -4 98 25 98 60c0 40 -45 60 -82 60s-70 -13 -99 -30h-2l27 64c27 9 57 13 86 13c60 0 138 -27 138 -94c0 -45 -35 -73 -79 -83v-2c60 -9 112 -42 112 -104c0 -102 -120 -131 -209 -131l-67 5l-32 72h2c35 -18 77 -30 118 -30c55 0 114 28 114 86
c0 45 -33 72 -103 72c-17 0 -35 -2 -52 -6z" />
    <glyph glyph-name="uni2206" unicode="&#x2206;" horiz-adv-x="652" 
d="M29 0v57l245 625h107l241 -624v-58h-593zM123 73h400l-134 338c-17 50 -51 133 -63 175h-4c-9 -33 -40 -109 -57 -159z" />
    <glyph glyph-name="uni2010" unicode="&#x2010;" horiz-adv-x="360" 
d="M207 211h-101c-35 0 -54 0 -87 -12l-2 2l53 60c7 7 13 16 23 21c11 5 47 4 60 4h101c35 0 54 0 87 12l2 -2l-53 -60c-7 -7 -13 -16 -23 -21c-11 -5 -47 -4 -60 -4z" />
    </font>
</defs>
</svg>
