<?xml version="1.0" standalone="no"?>
<!DOCTYPE svg PUBLIC "-//W3C//DTD SVG 1.1//EN" "http://www.w3.org/Graphics/SVG/1.1/DTD/svg11.dtd" >
<svg xmlns="http://www.w3.org/2000/svg" xmlns:xlink="http://www.w3.org/1999/xlink" version="1.1">
<metadata>
Created by FontForge 20201107 at Wed Feb 23 07:16:07 2005
 By Jimmy Wärting
Copyright 1997 International Typeface Corporation. All rights reserved. "Fritz Quadrata" is a trademark of International Typeface Corporation and may be registered in certain jurisdictions.
</metadata>
<defs>
<font id="FrizQuadrataStd-BoldItalic" horiz-adv-x="664" >
  <font-face 
    font-family="Friz Quadrata Std"
    font-weight="700"
    font-style="italic"
    font-stretch="normal"
    units-per-em="1000"
    panose-1="2 0 8 3 2 0 0 9 0 4"
    ascent="800"
    descent="-200"
    x-height="479"
    cap-height="695"
    bbox="-187 -250 1118 962"
    underline-thickness="112"
    underline-position="-108"
    slope="-12"
    stemh="20"
    stemv="144"
    unicode-range="U+0020-FB02"
  />
<missing-glyph horiz-adv-x="500" 
d="M12 0v665h475v-665h-475zM88 618l162 -243l161 243h-323zM60 575v-484c0 -1 161 242 161 242zM440 575l-162 -242l162 -243v485zM411 48l-161 242l-162 -242h323z" />
    <glyph glyph-name="f_i" unicode="fi" horiz-adv-x="653" 
d="M309 479h109c82 1 132 2 151 3c35 3 49 6 72 18l-75 -339c-5 -21 -7 -34 -7 -43c0 -19 11 -30 30 -30c14 0 23 2 42 9l-71 -91c-35 -16 -53 -20 -84 -20c-62 0 -96 33 -96 93c0 24 0 24 13 82l50 229h-154l-67 -300c-24 -113 -57 -192 -101 -245
c-37 -45 -103 -74 -168 -74c-38 0 -72 7 -106 23l55 64c18 -11 27 -14 41 -14c25 0 45 17 56 46c12 30 12 32 39 146l78 354h-68l89 92c17 87 38 130 80 168c39 36 108 59 173 59c18 0 42 -2 67 -5l-56 -111c-11 14 -20 19 -33 19c-22 0 -34 -18 -45 -67zM587 722
c51 0 85 -35 85 -89c0 -64 -41 -109 -98 -109c-55 0 -90 37 -90 94c0 63 40 104 103 104z" />
    <glyph glyph-name="f_l" unicode="fl" horiz-adv-x="644" 
d="M309 479h91l-26 -115c-10 20 -23 26 -55 26h-30l-67 -300c-25 -114 -57 -193 -101 -245c-37 -45 -104 -75 -168 -75c-38 0 -72 8 -106 24l55 64c18 -11 27 -14 41 -14c25 0 45 17 56 46c12 30 12 32 38 146l79 354h-68l89 92c17 86 37 129 79 168c43 39 104 59 180 59
c33 0 33 0 153 -11c20 -2 39 -3 54 -3c31 0 56 5 85 19l-122 -553c-5 -21 -7 -34 -7 -43c0 -19 11 -30 30 -30c14 0 23 2 42 9l-71 -91c-30 -14 -56 -20 -86 -20c-57 0 -94 36 -94 92c0 25 0 25 13 83l95 430c-20 21 -45 30 -81 30c-50 0 -71 -19 -84 -76z" />
    <glyph glyph-name=".notdef" horiz-adv-x="500" 
d="M12 0v665h475v-665h-475zM88 618l162 -243l161 243h-323zM60 575v-484c0 -1 161 242 161 242zM440 575l-162 -242l162 -243v485zM411 48l-161 242l-162 -242h323z" />
    <glyph glyph-name="space" unicode=" " horiz-adv-x="245" 
 />
    <glyph glyph-name="exclam" unicode="!" horiz-adv-x="448" 
d="M213 695h228c-14 -18 -19 -30 -32 -71l-101 -319c-7 -21 -10 -37 -10 -47c0 -5 1 -11 3 -24h-133c13 22 16 36 20 77l29 304c3 30 3 30 3 42c0 16 -2 24 -7 38zM218 188c55 0 90 -34 90 -87c0 -65 -43 -111 -104 -111c-57 0 -94 38 -94 96c0 60 44 102 108 102z" />
    <glyph glyph-name="quotedbl" unicode="&#x22;" 
d="M331 424h-90l35 278h140zM512 424h-90l35 278h139z" />
    <glyph glyph-name="numbersign" unicode="#" 
d="M364 493h93l74 202h123l-75 -202h109l-28 -77h-109l-49 -133h109l-29 -77h-108l-76 -206h-122l75 206h-92l-76 -206h-122l75 206h-107l28 77h107l49 133h-107l28 77h108l73 202h123zM336 416l-49 -133h93l48 133h-92z" />
    <glyph glyph-name="dollar" unicode="$" horiz-adv-x="528" 
d="M433 801l-26 -119c39 -5 74 -14 107 -29l-8 -128c-66 54 -102 71 -155 71c-45 0 -74 -21 -74 -55c0 -37 12 -51 109 -128c78 -62 103 -104 103 -175c0 -84 -45 -154 -125 -196c-35 -18 -68 -26 -119 -30l-25 -118h-65l26 120c-58 5 -107 17 -143 35l-17 133
c82 -61 131 -82 191 -82c58 0 96 30 96 78c0 39 -14 57 -101 130c-82 67 -108 110 -108 176c0 118 90 192 244 200l26 117h64z" />
    <glyph glyph-name="percent" unicode="%" horiz-adv-x="741" 
d="M273 702c81 0 126 -45 126 -124c0 -112 -77 -193 -182 -193c-83 0 -134 47 -134 125c0 61 27 120 72 155c31 25 70 37 118 37zM257 633c-35 0 -66 -61 -66 -129c0 -30 14 -47 37 -47c37 0 64 56 64 131c0 27 -14 45 -35 45zM594 695h91l-486 -695h-91zM581 310
c81 0 126 -44 126 -124c0 -112 -77 -193 -182 -193c-83 0 -134 48 -134 126c0 60 27 119 72 154c31 25 70 37 118 37zM565 241c-35 0 -66 -61 -66 -128c0 -30 14 -48 37 -48c36 0 64 56 64 130c0 28 -14 46 -35 46z" />
    <glyph glyph-name="ampersand" unicode="&#x26;" horiz-adv-x="768" 
d="M464 68c-74 -64 -125 -85 -206 -85c-136 0 -224 77 -224 196c0 110 61 177 208 232c-29 48 -38 75 -38 114c0 111 92 184 232 184c121 0 192 -53 192 -143c0 -52 -24 -100 -63 -128c-24 -17 -42 -27 -92 -49c52 -85 114 -175 199 -290c74 -98 110 -123 178 -125
c-51 -46 -101 -67 -162 -67s-107 23 -156 79c-18 20 -33 39 -68 82zM302 317c-54 -16 -83 -49 -83 -97c0 -63 50 -111 116 -111c31 0 51 7 80 27c-30 42 -98 151 -113 181zM415 487c53 15 74 35 74 72c0 38 -27 67 -63 67c-31 0 -53 -20 -53 -48c0 -26 11 -50 42 -91z" />
    <glyph glyph-name="quoteright" unicode="&#x2019;" horiz-adv-x="306" 
d="M163 393l-68 13c65 21 111 58 128 103c-57 9 -85 40 -85 94c0 63 43 106 105 106c55 0 91 -35 91 -86c0 -92 -75 -192 -171 -230z" />
    <glyph glyph-name="parenleft" unicode="(" horiz-adv-x="337" 
d="M336 713h94c-71 -69 -107 -117 -148 -195c-58 -111 -88 -230 -88 -353c0 -92 18 -193 53 -296h-79c-80 143 -111 242 -111 356c0 126 42 234 136 350c46 56 83 92 143 138z" />
    <glyph glyph-name="parenright" unicode=")" horiz-adv-x="337" 
d="M29 -131h-95c71 67 107 115 149 194c59 112 88 230 88 353c0 94 -16 184 -54 297h80c79 -144 110 -243 110 -356c0 -127 -41 -232 -136 -350c-47 -60 -84 -95 -142 -138z" />
    <glyph glyph-name="asterisk" unicode="*" 
d="M371 726h129l-35 -55l-22 -74l67 29l51 39l28 -126l-71 13l-71 -13l33 -51l55 -40l-111 -74l-7 72l-29 57l-55 -58l-35 -65l-81 82l70 34l54 46l-65 11l-64 -10l62 124l45 -43l54 -27l11 68z" />
    <glyph glyph-name="plus" unicode="+" 
d="M310 299h-195v97h195v188h97v-188h195v-97h-195v-188h-97v188z" />
    <glyph glyph-name="comma" unicode="," horiz-adv-x="321" 
d="M56 -126l-68 13c69 24 111 58 128 104c-57 8 -85 39 -85 93c0 63 43 106 105 106c55 0 91 -34 91 -86c0 -91 -73 -190 -171 -230z" />
    <glyph glyph-name="hyphen" unicode="-" horiz-adv-x="365" 
d="M114 287h95c75 0 102 4 144 23l-91 -119h-48c-116 0 -140 -3 -193 -23z" />
    <glyph glyph-name="period" unicode="." horiz-adv-x="324" 
d="M142 188c55 0 90 -34 90 -87c0 -65 -43 -111 -104 -111c-57 0 -94 38 -94 96c0 60 44 102 108 102z" />
    <glyph glyph-name="slash" unicode="/" horiz-adv-x="591" 
d="M530 720h106l-532 -786h-106z" />
    <glyph glyph-name="zero" unicode="0" 
d="M429 709c158 0 241 -90 241 -259c0 -147 -52 -285 -141 -372c-61 -59 -146 -92 -236 -92c-63 0 -119 16 -161 45c-60 43 -89 114 -89 217c0 160 61 304 163 387c63 51 133 74 223 74zM408 615c-38 0 -73 -33 -102 -99c-37 -83 -68 -234 -68 -329c0 -68 25 -107 69 -107
c38 0 72 30 99 88c35 76 69 242 69 342c0 68 -24 105 -67 105z" />
    <glyph glyph-name="one" unicode="1" horiz-adv-x="659" 
d="M318 536l-111 38c158 29 240 70 347 171l-131 -592c-9 -37 -13 -68 -13 -87c0 -22 5 -34 28 -66h-288c49 38 64 66 83 153z" />
    <glyph glyph-name="two" unicode="2" 
d="M581 127l-68 -127h-531c56 58 56 58 280 296c135 144 165 188 165 236c0 40 -38 67 -95 67c-63 0 -115 -17 -180 -59l60 131c55 27 105 38 178 38c142 0 227 -64 227 -171c0 -73 -33 -137 -118 -234c-11 -13 -40 -42 -85 -88c-66 -67 -105 -107 -119 -121
c27 -2 39 -2 62 -2c97 0 147 8 224 34z" />
    <glyph glyph-name="three" unicode="3" 
d="M169 332l23 101c30 -6 46 -8 73 -8c102 0 163 39 163 105c0 52 -44 85 -112 85c-51 0 -98 -16 -150 -51l62 129c40 11 87 16 146 16c162 0 250 -59 250 -168c0 -55 -27 -105 -72 -131c-34 -21 -62 -28 -123 -33c46 -10 66 -19 89 -36c36 -28 56 -74 56 -127
c0 -140 -129 -228 -334 -228c-68 0 -121 8 -177 28l-22 120c53 -38 102 -54 166 -54c103 0 172 56 172 140c0 76 -55 116 -157 116c-20 0 -31 -1 -53 -4z" />
    <glyph glyph-name="four" unicode="4" 
d="M328 157h-349l436 538h222c-10 -13 -14 -27 -28 -80l-81 -365h34c41 0 67 8 112 35l-63 -128h-104l-5 -24c-14 -62 -14 -62 -14 -76c0 -20 8 -34 33 -57h-277c51 31 59 45 79 133zM174 250h175l71 322z" />
    <glyph glyph-name="five" unicode="5" 
d="M211 695h430l-41 -135c-42 23 -87 32 -152 32c-28 0 -62 -2 -103 -7l-37 -167c29 6 43 8 69 8c138 0 222 -69 222 -181c0 -65 -28 -134 -72 -177c-52 -52 -140 -82 -243 -82c-72 0 -129 11 -195 39l-30 134c84 -55 129 -72 194 -72c87 0 150 54 150 129
c0 77 -61 123 -163 123c-35 0 -63 -4 -108 -15z" />
    <glyph glyph-name="six" unicode="6" 
d="M636 709l-39 -80c-77 0 -139 -22 -197 -68c-93 -75 -154 -215 -154 -354c0 -79 29 -123 81 -123c61 0 107 79 107 183c0 60 -31 96 -83 96c-16 0 -28 -3 -50 -12l49 80c29 11 51 14 86 14c119 0 193 -74 193 -192c0 -155 -127 -263 -309 -263c-167 0 -269 92 -269 243
c0 138 79 277 209 366c102 70 227 107 376 110z" />
    <glyph glyph-name="seven" unicode="7" 
d="M222 695h502l-389 -603c-15 -24 -21 -38 -21 -50c0 -10 4 -19 18 -42h-272l389 590c-69 5 -83 6 -117 6c-89 0 -134 -10 -181 -40z" />
    <glyph glyph-name="eight" unicode="8" 
d="M512 377c70 -46 101 -99 101 -170c0 -141 -113 -221 -312 -221c-173 0 -272 68 -272 187c0 90 51 150 167 194c-42 42 -58 80 -58 135c0 130 104 207 282 207c148 0 235 -61 235 -165c0 -47 -18 -91 -49 -121c-23 -22 -47 -33 -94 -46zM446 420c44 26 64 58 64 101
c0 56 -36 94 -89 94c-48 0 -81 -30 -81 -74c0 -47 31 -82 106 -121zM255 315c-57 -28 -81 -62 -81 -116c0 -72 52 -119 131 -119c64 0 106 31 106 78c0 36 -17 59 -76 101c-57 42 -57 42 -80 56z" />
    <glyph glyph-name="nine" unicode="9" 
d="M84 -10l40 80c76 0 138 21 196 68c93 74 154 214 154 354c0 79 -29 123 -81 123c-60 0 -107 -80 -107 -183c0 -60 31 -96 84 -96c17 0 28 3 50 12l-49 -81c-28 -9 -52 -13 -88 -13c-50 0 -90 13 -125 40c-47 36 -67 82 -67 153c0 154 128 262 309 262
c167 0 269 -92 269 -243c0 -138 -79 -277 -209 -366c-102 -71 -227 -107 -376 -110z" />
    <glyph glyph-name="colon" unicode=":" horiz-adv-x="324" 
d="M210 492c55 0 90 -33 90 -87c0 -65 -43 -111 -104 -111c-57 0 -94 38 -94 96c0 60 44 102 108 102zM142 188c55 0 90 -34 90 -87c0 -65 -43 -111 -104 -111c-57 0 -94 38 -94 96c0 60 44 102 108 102z" />
    <glyph glyph-name="semicolon" unicode=";" horiz-adv-x="324" 
d="M210 492c55 0 90 -34 90 -87c0 -65 -43 -111 -104 -111c-57 0 -94 38 -94 96c0 60 44 102 108 102zM56 -126l-68 13c69 24 111 58 128 104c-57 8 -85 39 -85 93c0 63 43 106 105 106c55 0 91 -34 91 -86c0 -91 -73 -190 -171 -230z" />
    <glyph glyph-name="less" unicode="&#x3c;" 
d="M583 614v-105l-339 -161l339 -161v-106l-452 222v90z" />
    <glyph glyph-name="equal" unicode="=" 
d="M602 202h-487v97h487v-97zM602 397h-487v97h487v-97z" />
    <glyph glyph-name="greater" unicode="&#x3e;" 
d="M132 614l452 -221v-90l-452 -222v106l340 161l-340 161v105z" />
    <glyph glyph-name="question" unicode="?" horiz-adv-x="521" 
d="M289 234h-117c0 83 19 113 102 163c56 36 84 74 84 116c0 48 -41 84 -97 84c-44 0 -80 -14 -133 -53l50 139c53 19 99 26 163 26c136 0 214 -61 214 -167c0 -53 -20 -102 -56 -138c-19 -20 -55 -42 -120 -76c-76 -38 -92 -52 -92 -76c0 -5 0 -9 2 -18zM224 188
c55 0 90 -34 90 -87c0 -65 -43 -111 -104 -111c-57 0 -94 38 -94 96c0 60 44 102 108 102z" />
    <glyph glyph-name="at" unicode="@" horiz-adv-x="840" 
d="M446 237l-47 -70c-17 -6 -25 -7 -41 -7c-70 0 -112 42 -112 111c0 75 38 154 98 203c46 38 98 55 164 55c24 0 24 0 83 -8c7 -1 15 -1 24 -1c26 0 41 4 69 16l-73 -238c-7 -20 -11 -40 -11 -50c0 -11 7 -17 20 -17c25 0 54 14 71 35c35 43 59 111 59 171
c0 116 -105 201 -248 201c-195 0 -331 -125 -331 -304c0 -169 117 -277 300 -277c93 0 161 25 248 91l-20 -94c-76 -48 -146 -68 -245 -68c-236 0 -385 129 -385 335c0 226 183 388 439 388c208 0 339 -104 339 -269c0 -164 -120 -284 -284 -284c-67 0 -102 26 -102 76
c0 17 2 28 12 60l48 157c-12 8 -19 11 -29 11c-18 0 -38 -12 -51 -31c-30 -42 -51 -103 -51 -147c0 -28 17 -48 41 -48c5 0 8 1 15 3z" />
    <glyph glyph-name="A" unicode="A" horiz-adv-x="682" 
d="M529 695l104 -588c11 -66 16 -78 44 -107h-278c36 27 45 39 45 60c0 9 -1 19 -3 30l-2 17l-14 100h-231l-40 -71c-32 -55 -43 -80 -43 -96c0 -11 4 -18 25 -40h-210c42 27 47 33 112 146l235 403c24 41 31 60 31 84c0 26 -10 44 -34 62h259zM248 304h162l-33 229z" />
    <glyph glyph-name="B" unicode="B" horiz-adv-x="658" 
d="M134 695h263c111 0 119 -1 157 -11c55 -16 89 -63 89 -123c0 -55 -23 -113 -58 -146c-27 -26 -55 -38 -107 -47c92 -10 140 -62 140 -153c0 -82 -43 -156 -108 -186c-55 -26 -83 -29 -262 -29h-268c49 38 64 66 83 153l86 390c9 39 13 67 13 86c0 22 -5 33 -28 66z
M351 611l-44 -197c11 -1 20 -2 26 -2c67 0 114 55 114 132c0 48 -25 67 -85 67h-11zM287 322l-48 -220c21 -6 33 -8 53 -8c78 0 130 49 130 124c0 65 -44 106 -116 106c-7 0 -11 0 -19 -2z" />
    <glyph glyph-name="C" unicode="C" horiz-adv-x="631" 
d="M615 158l-74 -134c-59 -27 -113 -38 -182 -38c-193 0 -312 113 -312 295c0 128 53 252 140 329c75 66 172 99 291 99c64 0 108 -7 170 -28l-17 -147c-39 51 -86 75 -147 75c-134 0 -235 -137 -235 -319c0 -128 62 -204 167 -204c59 0 111 18 199 72z" />
    <glyph glyph-name="D" unicode="D" horiz-adv-x="721" 
d="M289 0h-309c49 38 64 66 83 153l86 389c9 40 13 67 13 87c0 22 -5 33 -28 66h303c89 0 147 -13 194 -45c64 -42 98 -121 98 -226c0 -146 -65 -281 -171 -356c-69 -49 -144 -68 -269 -68zM353 607l-112 -506c28 -8 44 -10 64 -10c123 0 222 158 222 355
c0 112 -45 166 -137 166c-15 0 -21 -1 -37 -5z" />
    <glyph glyph-name="E" unicode="E" horiz-adv-x="536" 
d="M541 695l-34 -157c-15 52 -32 58 -156 57l-40 -178h66c42 0 62 2 84 9l-35 -160c-10 43 -19 48 -79 48h-59l-43 -195c36 -16 63 -21 115 -21c79 0 113 12 179 62l-82 -160h-477c48 37 64 66 83 153l86 389c9 39 13 67 13 87c0 22 -5 33 -28 66h407z" />
    <glyph glyph-name="F" unicode="F" horiz-adv-x="508" 
d="M562 695l-34 -156c-16 53 -29 57 -177 56l-41 -185h86c40 0 63 3 85 9l-36 -160c-10 43 -19 48 -79 48h-79l-34 -154c-9 -37 -13 -68 -13 -87c0 -22 5 -34 28 -66h-288c49 38 64 66 83 153l86 389c9 39 13 67 13 87c0 22 -5 33 -28 66h428z" />
    <glyph glyph-name="G" unicode="G" horiz-adv-x="705" 
d="M685 679l-21 -155c-41 57 -96 85 -172 85c-145 0 -244 -124 -244 -307c0 -136 61 -220 160 -220c11 0 17 1 28 3l25 111c17 79 17 79 17 100c0 23 -9 38 -35 62h258c-24 -39 -26 -46 -43 -123l-22 -98c-8 -37 -12 -67 -12 -88c0 -8 1 -15 4 -27
c-65 -23 -155 -36 -245 -36c-214 0 -337 111 -337 304c0 136 63 264 168 339c74 53 169 80 278 80c73 0 130 -9 193 -30z" />
    <glyph glyph-name="H" unicode="H" horiz-adv-x="743" 
d="M491 317h-202l-36 -164c-8 -36 -13 -67 -13 -87c0 -22 5 -34 28 -66h-288c49 38 64 66 83 153l86 389c9 40 13 67 13 87c0 22 -5 33 -28 66h288c-48 -36 -65 -69 -83 -153l-25 -123h200l27 123c9 38 13 68 13 87c0 22 -5 33 -28 66h288c-48 -37 -64 -66 -83 -153
l-86 -389c-9 -40 -13 -67 -13 -87c0 -22 5 -35 28 -66h-288c49 38 64 66 83 153z" />
    <glyph glyph-name="I" unicode="I" horiz-adv-x="351" 
d="M268 0h-288c48 38 64 66 83 153l86 389c9 39 13 67 13 87c0 22 -5 33 -28 66h288c-49 -37 -64 -66 -83 -153l-86 -389c-9 -37 -13 -68 -13 -87c0 -22 5 -34 28 -66z" />
    <glyph glyph-name="J" unicode="J" horiz-adv-x="376" 
d="M374 542l-96 -435c-37 -165 -46 -192 -75 -235c-42 -60 -105 -88 -201 -88c-30 0 -50 2 -99 9c103 30 132 80 189 331l93 418c10 45 13 67 13 87c0 22 -5 33 -28 66h287c-48 -37 -64 -66 -83 -153z" />
    <glyph glyph-name="K" unicode="K" horiz-adv-x="717" 
d="M549 695h213c-13 -12 -26 -23 -38 -34l-36 -34l-243 -229l43 -79c28 -51 57 -102 85 -154c54 -99 92 -148 129 -164c-60 -12 -84 -15 -126 -15c-65 0 -113 13 -138 38c-20 19 -20 19 -79 139l-72 144l-34 -154c-9 -37 -13 -68 -13 -87c0 -22 5 -34 28 -66h-288
c48 38 64 66 83 153l86 389c9 39 13 67 13 87c0 22 -5 33 -28 66h288c-49 -37 -64 -66 -83 -153l-32 -142l204 204c53 53 53 53 53 65c0 8 -4 15 -15 26z" />
    <glyph glyph-name="L" unicode="L" horiz-adv-x="533" 
d="M339 542l-94 -423c30 -15 60 -21 106 -21c70 0 108 14 172 63l-82 -161h-461c48 37 64 66 83 153l86 389c9 40 13 67 13 87c0 22 -5 33 -28 66h288c-48 -37 -64 -66 -83 -153z" />
    <glyph glyph-name="M" unicode="M" horiz-adv-x="922" 
d="M419 -14l-21 19c-61 51 -72 70 -88 162l-52 278l-86 -300c-12 -43 -18 -71 -18 -86c0 -21 9 -38 30 -59h-207c46 30 54 43 77 115l122 409c29 101 29 101 29 114c0 18 -7 31 -30 57h220c-1 -9 -1 -16 -1 -20c0 -27 2 -42 17 -115l53 -288l165 284c8 14 16 29 24 45
c14 25 25 46 32 62l15 32h248c-49 -43 -60 -68 -69 -152l-43 -390c-3 -27 -4 -42 -4 -59c0 -43 6 -60 36 -94h-286c42 35 57 69 67 153l32 291z" />
    <glyph glyph-name="N" unicode="N" horiz-adv-x="713" 
d="M603 67l33 -67c-21 -5 -38 -7 -62 -7c-115 0 -156 36 -226 202l-116 273l-70 -315c-9 -43 -13 -68 -13 -87c0 -22 6 -35 28 -66h-204c48 38 64 66 83 153l86 389c9 39 13 67 13 87c0 24 -8 42 -30 66h228c5 -19 17 -53 31 -89l151 -365l67 301c9 41 13 67 13 87
c0 22 -5 34 -28 66h204c-48 -37 -64 -66 -83 -153z" />
    <glyph glyph-name="O" unicode="O" horiz-adv-x="728" 
d="M454 709c89 0 161 -26 210 -76c45 -45 66 -111 66 -204c0 -265 -160 -443 -400 -443c-179 0 -278 100 -278 281c0 125 43 248 114 327c68 76 166 115 288 115zM431 616c-50 0 -93 -41 -128 -123c-29 -68 -49 -173 -49 -257c0 -97 37 -157 95 -157c54 0 100 45 134 131
c26 66 44 169 44 249c0 104 -33 157 -96 157z" />
    <glyph glyph-name="P" unicode="P" horiz-adv-x="612" 
d="M354 612l-101 -459c-8 -36 -13 -69 -13 -87c0 -22 6 -35 28 -66h-288c49 38 64 66 83 153l86 389c9 40 13 67 13 87c0 22 -5 33 -28 66h249c123 0 168 -7 209 -32c37 -22 59 -70 59 -125c0 -137 -99 -231 -242 -231c-42 0 -70 5 -109 21c43 2 66 11 87 31
c36 36 59 101 59 165c0 57 -26 88 -75 88h-17z" />
    <glyph glyph-name="Q" unicode="Q" horiz-adv-x="728" 
d="M552 46c70 -114 156 -180 235 -180c8 0 13 0 24 2c-62 -60 -110 -83 -172 -83c-88 0 -160 53 -276 202c-16 -1 -21 -1 -33 -1c-94 0 -174 31 -220 86c-37 45 -58 114 -58 197c0 123 42 244 114 325c66 74 166 115 284 115c92 0 164 -25 214 -76c45 -45 66 -111 66 -204
c0 -172 -61 -304 -178 -383zM431 616c-50 0 -93 -41 -128 -123c-29 -68 -49 -173 -49 -257c0 -97 37 -157 95 -157c54 0 100 45 134 131c26 66 44 169 44 249c0 104 -33 157 -96 157z" />
    <glyph glyph-name="R" unicode="R" horiz-adv-x="677" 
d="M264 0h-284c49 38 64 66 83 153l86 389c9 39 13 67 13 87c0 22 -5 33 -28 66h272c89 0 143 -8 177 -25c42 -22 70 -76 70 -135c0 -58 -24 -119 -59 -152c-30 -28 -62 -39 -122 -40l37 -80c86 -183 115 -232 154 -263c-62 -7 -67 -7 -101 -7c-68 0 -111 11 -140 37
c-27 24 -44 58 -84 160l-51 133l-38 -170c-9 -44 -13 -67 -13 -87c0 -22 6 -36 28 -66zM350 607l-53 -237c9 -3 14 -4 24 -4c74 0 129 71 129 167c0 49 -30 74 -91 74h-9z" />
    <glyph glyph-name="S" unicode="S" horiz-adv-x="539" 
d="M537 676l-8 -138c-71 60 -110 78 -167 78c-50 0 -82 -24 -82 -61c0 -39 15 -56 118 -138c84 -67 110 -111 110 -187c0 -141 -119 -244 -282 -244c-77 0 -145 14 -200 40l-19 143c87 -66 141 -90 205 -90s107 34 107 85c0 43 -15 62 -109 140c-88 73 -116 119 -116 189
c0 132 108 216 277 216c62 0 111 -10 166 -33z" />
    <glyph glyph-name="T" unicode="T" horiz-adv-x="573" 
d="M677 702l-68 -153c-30 33 -55 44 -96 44h-59l-97 -440c-8 -35 -13 -69 -13 -87c0 -22 6 -35 28 -66h-288c48 37 64 66 83 153l97 437c-27 4 -39 5 -57 5c-52 0 -90 -11 -137 -38l71 148c23 -7 58 -10 98 -10h300c88 0 98 1 138 7z" />
    <glyph glyph-name="U" unicode="U" horiz-adv-x="724" 
d="M391 0l24 66c-66 -62 -109 -80 -195 -80c-54 0 -91 11 -120 35c-31 25 -48 62 -48 101c0 24 2 36 13 87l74 333c9 41 13 67 13 87c0 22 -5 34 -28 66h288c-49 -37 -64 -66 -83 -153l-58 -259c-14 -66 -19 -95 -19 -119c0 -43 28 -68 75 -68c45 0 82 21 101 57
c12 23 19 47 30 95l65 294c9 38 13 68 13 87c0 22 -6 35 -28 66h288c-49 -37 -64 -66 -83 -153l-86 -389c-9 -39 -13 -67 -13 -87c0 -22 5 -35 28 -66h-251z" />
    <glyph glyph-name="V" unicode="V" horiz-adv-x="599" 
d="M331 220l196 363c18 32 30 63 30 77c0 12 -6 22 -22 35h178c-10 -16 -16 -26 -35 -61l-21 -37l-347 -611l-26 15c-68 39 -80 47 -98 69c-15 22 -22 52 -34 149l-45 359c-11 66 -19 88 -43 117h227c-2 -13 -2 -19 -2 -33c0 -31 2 -66 6 -101z" />
    <glyph glyph-name="W" unicode="W" horiz-adv-x="1019" 
d="M732 219l207 372c18 32 24 49 24 65c0 15 -6 25 -22 39h177c-15 -26 -18 -30 -36 -63l-30 -53l-341 -593l-72 38c-65 35 -78 59 -80 149l-4 217l-203 -404l-71 35c-73 37 -85 57 -97 169l-44 369c-13 86 -20 104 -48 136h223c-2 -17 -3 -26 -3 -36c0 -21 3 -58 6 -87
l42 -355l185 374c-11 54 -19 78 -34 104h226c-11 -25 -15 -44 -15 -77c0 -3 0 -12 1 -23v-19z" />
    <glyph glyph-name="X" unicode="X" horiz-adv-x="674" 
d="M346 695l87 -220l102 117c34 39 48 61 48 75c0 9 -5 17 -19 28h193c-5 -5 -9 -10 -13 -15c-24 -25 -44 -48 -62 -69l-212 -235l53 -137c57 -145 91 -208 131 -239c-52 -10 -88 -14 -125 -14c-85 0 -133 38 -168 132l-58 154l-145 -168c-42 -48 -48 -58 -48 -70
c0 -10 6 -21 18 -34h-197c42 42 42 42 78 83l256 284l-63 163c-32 90 -52 126 -91 165h235z" />
    <glyph glyph-name="Y" unicode="Y" horiz-adv-x="608" 
d="M398 433l117 174c15 24 25 44 25 55c0 10 -6 21 -20 33h187c-28 -36 -53 -68 -64 -83l-216 -299l-36 -160c-7 -35 -12 -67 -12 -87c0 -22 5 -35 27 -66h-281c49 37 65 67 84 153l35 159c-29 117 -123 306 -187 378c47 15 70 19 105 19c83 0 127 -30 169 -115
c11 -23 20 -46 67 -161z" />
    <glyph glyph-name="Z" unicode="Z" horiz-adv-x="619" 
d="M519 0h-561c6 9 19 26 37 52c10 14 19 26 27 38l365 508c-24 3 -36 4 -56 4c-76 0 -148 -21 -218 -65l78 158h490l-8 -10l-28 -41l-14 -20l-371 -517c30 -3 48 -4 78 -4c121 0 192 19 278 75z" />
    <glyph glyph-name="bracketleft" unicode="[" horiz-adv-x="337" 
d="M413 713l-15 -69h-80l-157 -707h80l-15 -68h-248c41 28 42 31 68 145l123 557c9 40 15 78 15 94c0 21 -7 33 -27 48h256z" />
    <glyph glyph-name="backslash" unicode="\" horiz-adv-x="591" 
d="M268 720l189 -786h-91l-189 786h91z" />
    <glyph glyph-name="bracketright" unicode="]" horiz-adv-x="337" 
d="M-49 -131l15 68h80l157 707h-80l15 69h248c-41 -30 -42 -31 -68 -146l-123 -557c-15 -77 -15 -77 -15 -94c0 -20 7 -32 27 -47h-256z" />
    <glyph glyph-name="asciicircum" unicode="^" horiz-adv-x="521" 
d="M201 353h-168l147 347h212l147 -347h-167l-86 218z" />
    <glyph glyph-name="underscore" unicode="_" horiz-adv-x="521" 
d="M25 -52h521v-112h-521v112z" />
    <glyph glyph-name="quoteleft" unicode="&#x2018;" horiz-adv-x="306" 
d="M285 709l68 -13c-68 -24 -110 -58 -128 -104c56 -8 85 -40 85 -93c0 -63 -43 -106 -105 -106c-54 0 -91 35 -91 86c0 91 74 190 171 230z" />
    <glyph glyph-name="a" unicode="a" horiz-adv-x="597" 
d="M303 85l-51 -90c-27 -6 -41 -8 -61 -8c-105 0 -170 67 -170 176c0 93 43 192 110 253c56 52 128 76 224 76c35 0 35 0 110 -10c9 -1 20 -2 33 -2c34 0 58 5 91 20l-75 -339c-4 -20 -6 -32 -6 -42c0 -21 10 -31 33 -31c17 0 27 2 46 9l-71 -91c-34 -15 -55 -20 -86 -20
c-67 0 -105 33 -105 92c0 24 1 30 13 83l50 225c-22 13 -34 17 -50 17c-27 0 -56 -18 -74 -46c-34 -52 -55 -123 -55 -186c0 -54 29 -88 75 -88c7 0 11 0 19 2z" />
    <glyph glyph-name="b" unicode="b" horiz-adv-x="600" 
d="M290 372l67 107c27 10 41 13 70 13c98 0 151 -63 151 -179c0 -103 -49 -198 -131 -257c-66 -47 -148 -69 -260 -69c-77 0 -110 6 -186 36c19 19 25 30 34 72c2 9 4 19 6 29l98 440c11 58 12 62 12 77c0 19 -7 33 -26 53c185 1 188 1 226 20l-138 -622
c19 -12 32 -16 50 -16c71 0 126 92 126 213c0 63 -20 91 -64 91c-12 0 -19 -2 -35 -8z" />
    <glyph glyph-name="c" unicode="c" horiz-adv-x="473" 
d="M460 140l-64 -124c-50 -19 -105 -29 -163 -29c-140 0 -211 64 -211 190c0 179 139 315 322 315c89 0 145 -33 145 -86c0 -44 -39 -77 -91 -77c-25 0 -44 5 -60 17c15 12 21 23 21 35c0 14 -11 22 -29 22c-62 0 -119 -107 -119 -223c0 -65 34 -104 89 -104s103 19 160 64z
" />
    <glyph glyph-name="d" unicode="d" horiz-adv-x="587" 
d="M301 85l-52 -92c-26 -5 -40 -6 -61 -6c-107 0 -169 65 -169 179c0 94 41 188 110 252c55 51 118 74 203 74c28 0 42 -1 74 -7l18 79c11 58 12 62 12 77c0 19 -7 33 -26 53c70 1 119 1 147 2c35 2 49 5 73 18l-122 -553c-7 -28 -7 -31 -7 -42c0 -20 11 -31 30 -31
c15 0 26 2 53 9l-71 -91c-29 -14 -52 -20 -87 -20c-67 0 -104 33 -104 93c0 24 0 24 13 82l49 223c-14 13 -28 19 -47 19c-27 0 -55 -18 -75 -47c-33 -51 -55 -124 -55 -188c0 -54 27 -85 72 -85c7 0 12 0 22 2z" />
    <glyph glyph-name="e" unicode="e" horiz-adv-x="509" 
d="M466 166l-34 -130c-74 -34 -135 -49 -207 -49c-132 0 -206 64 -206 178c0 182 148 327 334 327c102 0 166 -41 166 -107c0 -61 -55 -122 -141 -157c-43 -17 -97 -28 -168 -35c1 -34 4 -49 11 -68c10 -29 40 -48 75 -48c63 0 114 27 170 89zM218 258c35 5 56 14 82 35
c30 23 49 52 49 75c0 16 -15 28 -34 28c-46 0 -84 -54 -97 -138z" />
    <glyph glyph-name="f" unicode="f" horiz-adv-x="368" 
d="M312 479h126l-25 -115c-11 20 -24 26 -55 26h-66l-66 -300c-25 -112 -58 -192 -101 -245c-38 -46 -104 -75 -170 -75c-40 0 -74 7 -108 24l55 64c18 -11 27 -14 41 -14c25 0 45 17 56 46c12 30 12 32 39 146l78 354h-68l89 92c17 87 38 129 80 168c43 39 105 59 181 59
c43 0 82 -6 118 -18l-76 -106c-14 25 -31 36 -54 36c-30 0 -47 -21 -59 -76z" />
    <glyph glyph-name="g" unicode="g" horiz-adv-x="562" 
d="M580 500l-98 -444c-28 -125 -40 -155 -77 -201c-41 -51 -111 -79 -199 -79c-123 0 -210 50 -210 121c0 47 36 80 86 80c29 0 52 -9 74 -27c-18 -8 -26 -20 -26 -37c0 -24 23 -41 55 -41c34 0 64 21 79 54c12 28 27 80 41 144l70 314c-15 9 -27 12 -41 12
c-64 0 -121 -95 -121 -200c0 -59 25 -92 71 -92c3 0 6 0 12 1l-53 -91c-21 -4 -29 -5 -47 -5c-49 0 -74 6 -101 24c-47 30 -71 78 -71 140c0 80 30 161 82 220c60 68 134 99 240 99c33 0 60 -2 107 -9c22 -3 41 -5 53 -5c27 0 49 7 74 22z" />
    <glyph glyph-name="h" unicode="h" horiz-adv-x="600" 
d="M347 714l-65 -291c54 56 88 74 143 74c78 0 134 -52 134 -124c0 -21 -3 -42 -11 -76l-30 -136c-4 -21 -6 -32 -6 -42c0 -20 11 -31 30 -31c12 0 23 2 49 9l-71 -91c-33 -15 -55 -20 -86 -20c-67 0 -105 33 -105 92c0 24 1 27 13 83l30 133c5 27 6 31 6 39
c0 26 -15 41 -43 41c-27 0 -52 -13 -63 -33c-10 -18 -17 -41 -28 -91l-22 -97c-9 -43 -15 -80 -15 -99c0 -17 4 -31 16 -54h-246c36 34 49 62 69 153l91 411c7 32 12 64 12 78c0 18 -7 32 -26 52c182 1 186 1 224 20z" />
    <glyph glyph-name="i" unicode="i" horiz-adv-x="316" 
d="M304 500l-75 -339c-6 -25 -7 -34 -7 -43c0 -19 11 -30 31 -30c13 0 23 2 42 9l-71 -91c-33 -15 -56 -20 -90 -20c-61 0 -94 33 -94 94c0 23 1 29 13 81l42 190c8 37 12 62 12 77c0 19 -7 33 -26 53c82 1 94 1 150 2c35 2 50 5 73 17zM244 724c55 0 91 -36 91 -91
c0 -64 -44 -110 -105 -110c-58 0 -96 37 -96 95c0 65 43 106 110 106z" />
    <glyph glyph-name="j" unicode="j" horiz-adv-x="322" 
d="M318 501l-94 -428c-37 -163 -48 -194 -89 -231c-37 -35 -94 -52 -174 -52c-23 0 -37 1 -65 5c93 55 111 88 150 274l63 282c11 58 12 62 12 77c0 19 -7 34 -26 53c84 1 95 1 150 2c36 2 50 5 73 18zM261 724c55 0 91 -36 91 -91c0 -64 -43 -110 -105 -110
c-58 0 -96 37 -96 95c0 65 43 106 110 106z" />
    <glyph glyph-name="k" unicode="k" horiz-adv-x="571" 
d="M343 714l-63 -286c56 45 107 64 165 64c75 0 122 -44 122 -116c0 -75 -53 -130 -142 -146l46 -90c56 -109 68 -126 100 -140c-51 -9 -87 -13 -128 -13c-46 0 -78 9 -99 28c-19 17 -19 17 -57 95l-54 107l-15 -67c-10 -45 -15 -78 -15 -97c0 -16 4 -30 17 -53h-243
c36 33 49 62 68 150l92 414c8 35 12 63 12 77c0 19 -7 33 -26 53c178 1 182 1 220 20zM244 260c21 -3 31 -4 43 -4c59 0 98 28 98 69c0 29 -18 48 -47 48c-47 0 -73 -32 -94 -113z" />
    <glyph glyph-name="l" unicode="l" horiz-adv-x="302" 
d="M346 714l-122 -553c-6 -25 -7 -34 -7 -43c0 -19 11 -30 31 -30c13 0 23 2 42 9l-71 -91c-32 -14 -56 -20 -87 -20c-61 0 -97 35 -97 93c0 24 1 29 13 82l89 403c11 58 12 62 12 77c0 19 -7 34 -26 53c182 1 186 1 223 20z" />
    <glyph glyph-name="m" unicode="m" horiz-adv-x="895" 
d="M306 500l-17 -77c53 53 97 74 153 74c63 0 101 -26 125 -84c54 62 94 84 153 84c77 0 133 -51 133 -123c0 -18 -3 -45 -6 -60l-34 -153c-4 -18 -6 -32 -6 -42c0 -20 11 -31 30 -31c13 0 23 2 42 9l-71 -91c-33 -15 -55 -20 -85 -20c-62 0 -99 34 -99 93c0 23 1 31 12 82
l30 135c5 19 7 35 7 44c0 21 -16 34 -41 34c-47 0 -68 -27 -87 -110l-24 -111c-11 -46 -16 -80 -16 -99c0 -17 4 -31 17 -54h-247c36 34 49 62 69 153l34 150c2 11 4 27 4 35c0 22 -16 36 -41 36c-47 0 -70 -31 -89 -119l-23 -102c-9 -43 -15 -80 -15 -99
c0 -17 4 -31 16 -54h-246c36 34 49 62 69 153l44 198c8 38 12 62 12 77c0 19 -7 33 -26 53c83 0 94 0 150 1c35 2 50 6 73 18z" />
    <glyph glyph-name="n" unicode="n" horiz-adv-x="607" 
d="M306 500l-17 -77c54 56 88 74 143 74c78 0 134 -52 134 -124c0 -21 -3 -42 -11 -76l-30 -136c-4 -21 -6 -32 -6 -42c0 -20 11 -31 30 -31c14 0 23 2 42 9l-71 -91c-32 -14 -55 -20 -84 -20c-63 0 -100 35 -100 92c0 25 0 25 13 83l28 126c6 26 8 41 8 52
c0 24 -17 39 -43 39c-44 0 -70 -33 -88 -113l-25 -112c-9 -43 -15 -80 -15 -99c0 -17 4 -31 16 -54h-246c36 34 49 62 69 153l44 198c8 38 12 62 12 77c0 19 -7 33 -26 53c83 0 94 0 150 1c35 2 50 6 73 18z" />
    <glyph glyph-name="o" unicode="o" horiz-adv-x="587" 
d="M333 492c151 0 234 -74 234 -207c0 -101 -48 -197 -125 -250c-48 -33 -102 -48 -173 -48c-158 0 -240 70 -240 205c0 92 36 179 96 232c52 46 120 68 208 68zM325 403c-61 0 -112 -104 -112 -228c0 -65 21 -99 60 -99c35 0 61 24 81 77c17 44 29 108 29 155
c0 64 -19 95 -58 95z" />
    <glyph glyph-name="p" unicode="p" horiz-adv-x="601" 
d="M250 23l-14 95c18 -11 30 -15 48 -15c32 0 56 16 72 46c21 40 33 97 33 152c0 48 -21 76 -55 76c-44 0 -63 -32 -90 -155l-63 -283c-9 -42 -15 -80 -15 -99c0 -17 4 -31 16 -54h-246c36 33 49 63 69 153l91 412c13 57 13 60 13 76c0 19 -8 35 -27 54c83 0 94 0 151 1
c35 2 49 6 73 18l-17 -77c37 48 79 69 139 69c97 0 150 -62 150 -176c0 -79 -25 -157 -69 -217c-45 -62 -105 -92 -181 -92c-34 0 -52 4 -78 16z" />
    <glyph glyph-name="q" unicode="q" horiz-adv-x="576" 
d="M299 106l-54 -91c-27 -4 -40 -5 -59 -5c-97 0 -156 64 -156 171c0 101 46 195 123 253c53 39 115 58 190 58c33 0 33 0 131 -10c10 -1 19 -1 28 -1c29 0 47 4 81 19l-124 -561c-15 -73 -16 -78 -16 -99c0 -17 4 -31 17 -54h-246c36 34 48 62 69 153l98 445
c-17 14 -27 19 -43 19c-64 0 -120 -96 -120 -205c0 -59 24 -93 67 -93c3 0 7 0 14 1z" />
    <glyph glyph-name="r" unicode="r" horiz-adv-x="405" 
d="M455 491l-32 -148c-20 15 -36 21 -58 21c-35 0 -67 -19 -84 -48c-15 -25 -30 -67 -38 -103l-14 -60c-9 -43 -15 -80 -15 -99c0 -17 4 -31 16 -54h-246c36 34 49 62 69 153l44 198c8 38 12 62 12 77c0 19 -7 33 -26 53c26 -2 49 -2 122 -2c58 0 70 2 101 17l-23 -99
c42 66 87 95 149 95c6 0 14 0 23 -1z" />
    <glyph glyph-name="s" unicode="s" horiz-adv-x="469" 
d="M447 468l-14 -111c-47 36 -87 53 -127 53c-33 0 -56 -16 -56 -40c0 -21 14 -38 47 -56c69 -38 82 -47 102 -71c18 -20 27 -46 27 -78c0 -105 -94 -178 -230 -178c-64 0 -123 9 -174 26l1 119c45 -44 92 -63 153 -63c45 0 75 18 75 44c0 19 -16 35 -49 52
c-67 34 -85 46 -107 74c-18 23 -27 49 -27 79c0 107 89 174 229 174c57 0 103 -7 150 -24z" />
    <glyph glyph-name="t" unicode="t" horiz-adv-x="351" 
d="M243 633h73l-34 -154h119l-28 -126c-18 28 -34 37 -65 37h-34l-42 -191c-9 -40 -10 -47 -10 -62c0 -31 24 -51 60 -51c9 0 17 1 39 3l-46 -85c-33 -11 -65 -16 -99 -16c-82 0 -134 48 -134 123c0 23 2 33 12 82l44 197h-53l17 78c96 9 155 63 181 165z" />
    <glyph glyph-name="u" unicode="u" horiz-adv-x="600" 
d="M587 99l-70 -92c-33 -14 -59 -20 -89 -20c-61 0 -94 25 -103 78c-44 -53 -94 -78 -155 -78c-72 0 -126 52 -126 122c0 16 2 27 8 57l41 185c12 57 13 61 13 77c0 19 -7 33 -27 53c84 1 95 1 151 2c35 2 49 5 73 17l-67 -301c-8 -36 -10 -48 -10 -60c0 -22 12 -33 36 -33
c27 0 49 11 62 31c10 16 16 31 25 73l31 141c7 34 12 63 12 77c0 19 -7 33 -26 53c83 1 94 1 151 2c35 2 49 5 73 17l-73 -327c-5 -21 -8 -45 -8 -57c0 -18 10 -27 29 -27c14 0 25 2 49 10z" />
    <glyph glyph-name="v" unicode="v" horiz-adv-x="504" 
d="M303 500l-75 -337c-3 -14 -5 -25 -5 -33c0 -19 9 -29 28 -29c73 0 156 117 156 219c0 45 -23 75 -57 75c-10 0 -17 -3 -27 -11c-2 5 -2 8 -2 14c0 54 40 94 96 94c62 0 101 -44 101 -114c0 -94 -46 -202 -120 -280c-68 -72 -151 -111 -238 -111c-78 0 -119 34 -119 98
c0 22 3 43 9 73l43 193c11 57 12 61 12 77c0 18 -7 33 -26 53c84 0 95 0 151 1c35 2 49 6 73 18z" />
    <glyph glyph-name="w" unicode="w" horiz-adv-x="789" 
d="M586 500l-75 -337c-2 -12 -4 -25 -4 -33c0 -19 9 -29 28 -29c72 0 155 117 155 219c0 45 -22 75 -56 75c-10 0 -17 -3 -27 -11c-2 7 -2 11 -2 15c0 53 41 93 95 93c62 0 101 -44 101 -114c0 -196 -175 -391 -353 -391c-70 0 -107 26 -121 85c-48 -60 -93 -85 -155 -85
c-75 0 -129 51 -129 121c0 16 1 23 8 55l42 188c11 57 12 61 12 76c0 20 -7 35 -26 54c82 0 94 0 150 1c35 2 50 6 73 18l-67 -301c-6 -30 -9 -48 -9 -61c0 -20 13 -32 36 -32c44 0 66 26 81 93l34 152c7 34 12 63 12 77c0 19 -7 34 -26 53c83 0 94 0 150 1c35 2 50 6 73 18
z" />
    <glyph glyph-name="x" unicode="x" horiz-adv-x="558" 
d="M377 265l55 -115c41 -92 60 -120 100 -150c-45 -10 -71 -13 -109 -13c-94 0 -129 24 -168 113l-26 59l-46 -54l-29 -35c-47 -57 -74 -77 -107 -77c-23 0 -43 6 -63 17l-2 108c17 -11 32 -16 52 -16c39 0 49 9 134 108l21 26l-64 138c-27 64 -37 81 -63 105h234
c1 -38 3 -45 20 -83l22 -51l17 22c63 87 106 120 155 120c17 0 32 -5 50 -18v-107c-20 11 -35 16 -53 16c-33 0 -44 -9 -98 -78z" />
    <glyph glyph-name="y" unicode="y" horiz-adv-x="574" 
d="M581 500l-98 -444c-23 -103 -43 -151 -80 -197c-44 -54 -115 -83 -200 -83c-118 0 -206 51 -206 121c0 47 36 80 86 80c29 0 52 -9 74 -27c-17 -8 -26 -21 -26 -38c0 -25 25 -42 62 -42c43 0 69 21 89 72c7 17 14 46 28 107l7 35c-44 -48 -93 -69 -156 -69
c-77 0 -122 37 -122 100c0 23 2 41 11 79l35 157c11 57 12 61 12 77c0 19 -7 34 -26 53c84 1 92 1 147 2c35 2 49 5 73 17l-61 -273c-7 -30 -10 -50 -10 -61c0 -21 13 -32 37 -32c52 0 71 22 89 104l25 113c16 72 16 72 16 84c0 17 -8 30 -30 46c91 1 98 1 152 2
c38 2 51 5 72 17z" />
    <glyph glyph-name="z" unicode="z" horiz-adv-x="504" 
d="M126 479h423l-323 -322h15c10 0 24 -1 41 -2c26 -3 46 -4 56 -4c46 0 93 10 145 32l-109 -188c-34 -3 -50 -4 -72 -4c-30 0 -39 1 -124 8c-40 4 -64 5 -96 5c-60 0 -93 -2 -134 -7l328 327c-27 3 -53 4 -74 4c-63 0 -105 -11 -149 -37z" />
    <glyph glyph-name="braceleft" unicode="{" horiz-adv-x="337" 
d="M317 575l-30 -135c-21 -92 -51 -130 -117 -146c42 -17 60 -42 60 -84c0 -19 -2 -37 -9 -66l-32 -147c-6 -23 -6 -23 -6 -33c0 -21 11 -30 34 -30h28l-14 -65h-127c-43 0 -64 15 -64 47c0 10 1 21 4 33l46 209c10 50 10 50 10 59c0 30 -21 46 -69 51l13 56
c65 -1 89 23 107 107l38 175c15 64 19 77 30 89c14 14 31 18 88 18h111l-15 -65h-21c-43 0 -51 -10 -65 -73z" />
    <glyph glyph-name="bar" unicode="|" horiz-adv-x="247" 
d="M193 -250h-97v1000h97v-1000z" />
    <glyph glyph-name="braceright" unicode="}" horiz-adv-x="341" 
d="M44 -3l33 147c19 88 51 128 117 150c-43 13 -60 35 -60 77c0 20 3 46 8 69l30 135c5 25 7 34 7 46c0 22 -8 27 -40 27h-21l14 65h115c66 0 83 -6 83 -32c0 -13 -1 -20 -14 -75l-38 -175c-5 -22 -8 -43 -8 -58c0 -36 17 -48 68 -49l-13 -56c-74 -9 -91 -27 -108 -110
l-46 -209c-13 -58 -40 -80 -96 -80h-130l14 65h29c33 0 45 13 56 63z" />
    <glyph glyph-name="asciitilde" unicode="~" 
d="M624 412c-24 -61 -41 -89 -66 -113c-26 -25 -69 -38 -100 -38c-52 0 -90 11 -147 45c-21 12 -45 18 -60 18c-34 0 -57 -9 -85 -73l-65 43c19 49 27 67 40 87c28 45 82 68 125 68c40 0 74 -6 107 -25c60 -34 73 -36 97 -36c38 0 58 3 88 63z" />
    <glyph glyph-name="exclamdown" unicode="&#xa1;" horiz-adv-x="448" 
d="M239 -213h-227c13 18 19 30 31 71l102 319c8 28 10 35 10 46c0 6 -1 12 -4 25h134c-13 -22 -16 -35 -21 -77l-28 -304c-3 -28 -3 -28 -3 -41c0 -16 1 -25 6 -39zM252 490c55 0 93 -39 93 -95c0 -61 -44 -103 -106 -103c-58 0 -92 33 -92 88c0 64 44 110 105 110z" />
    <glyph glyph-name="cent" unicode="&#xa2;" horiz-adv-x="507" 
d="M422 710l-20 -93c41 -2 64 -6 92 -17l-9 -114c-40 36 -64 48 -99 48c-78 0 -134 -93 -134 -221c0 -76 31 -117 91 -117c48 0 93 21 157 73l-60 -126c-53 -21 -97 -31 -151 -34l-21 -96h-60l21 97c-104 14 -158 79 -158 188c0 97 43 192 113 251c46 39 89 57 158 67l20 94
h60z" />
    <glyph glyph-name="sterling" unicode="&#xa3;" 
d="M570 175l-36 -166c-37 -14 -67 -19 -103 -19c-53 0 -102 14 -146 42c-60 -35 -94 -46 -141 -46c-80 0 -135 43 -135 106c0 67 57 118 132 118c43 0 80 -11 138 -39c10 16 14 34 14 59c0 32 -8 61 -28 104h-113l16 73h63c-20 40 -27 66 -27 100c0 114 103 202 236 202
c56 0 110 -13 171 -42l-25 -114c-41 42 -84 62 -131 62c-40 0 -70 -28 -70 -64c0 -19 5 -37 19 -71c8 -18 15 -36 22 -54c3 -6 5 -12 7 -19h120l-16 -73h-89c2 -17 2 -25 2 -36c0 -65 -18 -111 -63 -165c20 -4 33 -5 49 -5c52 0 98 16 134 47zM215 81c-45 39 -54 44 -79 44
c-23 0 -40 -15 -40 -36c0 -20 17 -34 42 -34c24 0 47 8 77 26z" />
    <glyph glyph-name="fraction" unicode="&#x2044;" horiz-adv-x="146" 
d="M284 695h100l-472 -695h-99z" />
    <glyph glyph-name="yen" unicode="&#xa5;" horiz-adv-x="620" 
d="M539 459h98l-14 -63h-130l-60 -83h172l-14 -63h-172l-22 -97c-7 -35 -12 -67 -12 -87c0 -22 5 -35 27 -66h-281c49 37 65 67 84 153l21 97h-171l14 63h171c-14 46 -15 49 -27 83h-126l14 63h86c-48 108 -93 184 -134 231c40 13 75 19 113 19c75 0 120 -32 161 -115
c11 -24 21 -48 67 -161l117 174c22 33 27 44 27 54c0 11 -7 22 -22 34h187c-27 -34 -55 -71 -64 -83z" />
    <glyph glyph-name="florin" unicode="&#x192;" horiz-adv-x="591" 
d="M451 486h126l-25 -73h-126l-112 -323c-41 -120 -77 -188 -131 -245c-43 -47 -110 -75 -176 -75c-39 0 -69 7 -102 24l63 64c16 -11 24 -14 38 -14c26 0 48 17 63 46c15 31 16 32 56 146l130 377h-68l94 77c27 81 52 122 99 160c48 39 109 59 181 59c44 0 81 -6 117 -18
l-89 -106c-12 25 -26 36 -49 36c-31 0 -50 -21 -69 -76z" />
    <glyph glyph-name="section" unicode="&#xa7;" 
d="M40 -120v117c58 -53 119 -79 186 -79c51 0 87 24 87 58c0 21 -10 38 -38 62c-6 5 -6 5 -79 61c-74 58 -105 106 -105 167c0 76 45 138 123 171c-29 30 -40 57 -40 94c0 111 94 178 250 178c68 0 119 -9 171 -30l-15 -123c-46 44 -88 64 -133 64c-44 0 -77 -25 -77 -58
c0 -31 18 -55 69 -91c116 -82 148 -127 148 -204c0 -80 -38 -134 -118 -171c28 -30 40 -60 40 -95c0 -45 -24 -91 -64 -120c-48 -35 -111 -52 -195 -52c-90 0 -144 13 -210 51zM407 279l-123 108c-26 -31 -35 -50 -35 -74s7 -35 45 -67l108 -93c27 27 37 46 37 71
c0 20 -9 35 -32 55z" />
    <glyph glyph-name="currency" unicode="&#xa4;" 
d="M554 82l-80 80c-36 -22 -75 -33 -116 -33c-42 0 -82 11 -117 34l-80 -81l-69 69l80 80c-22 36 -33 75 -33 117c0 41 11 78 33 116l-80 80l69 69l80 -80c39 22 77 33 116 33c40 0 79 -11 117 -33l80 80l69 -69l-80 -80c22 -37 33 -75 33 -116c0 -42 -11 -81 -33 -117
l80 -80zM356 456c-57 0 -105 -50 -105 -108c0 -60 48 -109 107 -109s107 49 107 109s-48 108 -109 108z" />
    <glyph glyph-name="quotesingle" unicode="'" horiz-adv-x="443" 
d="M311 424h-90l35 278h140z" />
    <glyph glyph-name="quotedblleft" unicode="&#x201c;" horiz-adv-x="543" 
d="M284 709l68 -13c-68 -24 -110 -58 -128 -104c56 -8 85 -40 85 -93c0 -63 -43 -106 -105 -106c-54 0 -91 35 -91 86c0 91 74 190 171 230zM521 709l68 -13c-67 -23 -112 -59 -128 -104c56 -8 85 -40 85 -93c0 -63 -43 -106 -105 -106c-54 0 -91 35 -91 86
c0 91 74 190 171 230z" />
    <glyph glyph-name="guillemotleft" unicode="&#xab;" horiz-adv-x="511" 
d="M173 265l68 -155h-84l-115 155l142 144h103zM360 265l69 -155h-89l-118 155l167 144h105z" />
    <glyph glyph-name="guilsinglleft" unicode="&#x2039;" horiz-adv-x="323" 
d="M173 265l68 -155h-84l-115 155l142 144h103z" />
    <glyph glyph-name="guilsinglright" unicode="&#x203a;" horiz-adv-x="323" 
d="M162 254l-69 155h85l115 -155l-142 -144h-103z" />
    <glyph glyph-name="endash" unicode="&#x2013;" horiz-adv-x="456" 
d="M114 287h186c75 0 101 4 144 23l-91 -119h-139c-116 0 -140 -3 -193 -23z" />
    <glyph glyph-name="dagger" unicode="&#x2020;" 
d="M360 -160h-216c35 22 41 35 61 123l85 387h-89c-63 0 -76 -4 -107 -30l37 166c17 -29 37 -37 93 -37h88l30 132c5 24 8 46 8 60c0 22 -6 35 -24 54h216c-19 -12 -28 -19 -33 -27c-5 -9 -9 -19 -12 -29c-5 -21 -11 -41 -16 -60l-29 -130h101c50 0 62 4 93 31l-37 -166
c-23 31 -34 36 -77 36h-102l-87 -397c-6 -23 -8 -41 -8 -55c0 -23 7 -38 25 -58z" />
    <glyph glyph-name="daggerdbl" unicode="&#x2021;" 
d="M395 196h101c50 0 61 4 93 31l-37 -166c-24 32 -34 36 -77 36h-101l-33 -144c-4 -22 -7 -42 -7 -55c0 -23 6 -38 25 -58h-216c35 23 40 34 61 123l29 134h-89c-64 0 -76 -3 -107 -30l37 167c17 -30 38 -38 93 -38h88l35 154h-90c-63 0 -77 -4 -107 -30l37 166
c17 -29 38 -37 93 -37h88l30 132c4 21 8 48 8 62c0 20 -6 33 -24 52h216c-19 -12 -28 -19 -33 -27s-11 -24 -16 -44l-12 -45l-29 -130h101c50 0 62 4 93 31l-37 -166c-23 31 -34 36 -77 36h-102z" />
    <glyph glyph-name="periodcentered" unicode="&#xb7;" horiz-adv-x="324" 
d="M178 348c55 0 90 -33 90 -87c0 -65 -43 -111 -104 -111c-57 0 -94 38 -94 96c0 60 44 102 108 102z" />
    <glyph glyph-name="paragraph" unicode="&#xb6;" horiz-adv-x="706" 
d="M370 -174v799c-78 -3 -116 -56 -116 -165c0 -81 28 -125 99 -154c-21 -5 -31 -6 -48 -6c-131 0 -225 85 -225 202c0 62 26 117 71 149c46 34 93 44 206 44h320c-38 -29 -45 -49 -45 -139v-730h-111v799h-42v-799h-109z" />
    <glyph glyph-name="bullet" unicode="&#x2022;" horiz-adv-x="695" 
d="M377 498c77 0 142 -66 142 -144c0 -80 -65 -145 -144 -145c-80 0 -145 65 -145 144c0 81 65 145 147 145z" />
    <glyph glyph-name="quotesinglbase" unicode="&#x201a;" horiz-adv-x="306" 
d="M48 -126l-68 13c69 24 111 58 128 104c-57 8 -85 39 -85 93c0 63 43 106 105 106c55 0 91 -34 91 -86c0 -91 -73 -190 -171 -230z" />
    <glyph glyph-name="quotedblbase" unicode="&#x201e;" horiz-adv-x="543" 
d="M48 -126l-68 13c69 24 111 58 128 104c-57 8 -85 39 -85 93c0 63 43 106 105 106c55 0 91 -34 91 -86c0 -91 -73 -190 -171 -230zM285 -126l-68 13c68 24 111 59 128 104c-56 8 -85 39 -85 93c0 63 43 106 105 106c54 0 91 -35 91 -86c0 -91 -74 -190 -171 -230z" />
    <glyph glyph-name="quotedblright" unicode="&#x201d;" horiz-adv-x="543" 
d="M163 393l-68 13c65 21 111 58 128 103c-57 9 -85 40 -85 94c0 63 43 106 105 106c55 0 91 -35 91 -86c0 -92 -75 -192 -171 -230zM400 393l-68 13c65 21 112 59 128 103c-57 9 -85 40 -85 94c0 63 43 106 105 106c54 0 91 -35 91 -86c0 -91 -75 -192 -171 -230z" />
    <glyph glyph-name="guillemotright" unicode="&#xbb;" horiz-adv-x="511" 
d="M350 254l-68 155h84l115 -155l-142 -144h-103zM163 254l-69 155h89l118 -155l-167 -144h-105z" />
    <glyph glyph-name="ellipsis" unicode="&#x2026;" horiz-adv-x="972" 
d="M142 188c55 0 90 -34 90 -87c0 -65 -43 -111 -104 -111c-57 0 -94 38 -94 96c0 60 44 102 108 102zM466 188c55 0 90 -34 90 -87c0 -65 -43 -111 -104 -111c-57 0 -94 38 -94 96c0 60 44 102 108 102zM790 188c55 0 90 -34 90 -87c0 -65 -43 -111 -104 -111
c-57 0 -94 38 -94 96c0 60 44 102 108 102z" />
    <glyph glyph-name="perthousand" unicode="&#x2030;" horiz-adv-x="1097" 
d="M273 702c81 0 126 -45 126 -124c0 -112 -77 -193 -182 -193c-83 0 -134 47 -134 125c0 61 27 120 72 155c31 25 70 37 118 37zM257 633c-35 0 -66 -61 -66 -129c0 -30 14 -47 37 -47c37 0 64 56 64 131c0 27 -14 45 -35 45zM594 695h91l-486 -695h-91zM581 310
c81 0 126 -44 126 -124c0 -112 -77 -193 -182 -193c-83 0 -134 48 -134 126c0 60 27 119 72 154c31 25 70 37 118 37zM565 241c-35 0 -66 -61 -66 -128c0 -30 14 -48 37 -48c36 0 64 56 64 130c0 28 -14 46 -35 46zM937 310c81 0 126 -44 126 -124
c0 -111 -77 -193 -182 -193c-83 0 -134 47 -134 126c0 60 27 119 72 154c30 25 70 37 118 37zM921 241c-35 0 -66 -61 -66 -129c0 -30 14 -47 37 -47c36 0 64 56 64 130c0 28 -14 46 -35 46z" />
    <glyph glyph-name="questiondown" unicode="&#xbf;" horiz-adv-x="521" 
d="M236 248h117c0 -84 -19 -113 -102 -163c-56 -36 -84 -75 -84 -116c0 -48 41 -84 97 -84c44 0 79 14 133 53l-50 -138c-54 -20 -98 -27 -161 -27c-138 0 -216 60 -216 167c0 53 20 102 56 138c19 20 55 42 120 75c76 39 92 53 92 78c0 4 0 8 -2 17zM319 490
c55 0 93 -39 93 -95c0 -61 -44 -103 -106 -103c-58 0 -92 33 -92 88c0 64 44 110 105 110z" />
    <glyph glyph-name="grave" unicode="`" horiz-adv-x="525" 
d="M189 755l203 -193l-51 -20l-232 142z" />
    <glyph glyph-name="acute" unicode="&#xb4;" horiz-adv-x="525" 
d="M448 754l83 -67l-237 -143l-60 11z" />
    <glyph glyph-name="circumflex" unicode="&#x2c6;" horiz-adv-x="525" 
d="M339 738l145 -173l-42 -24l-128 79l-134 -78l-47 28z" />
    <glyph glyph-name="tilde" unicode="&#x2dc;" horiz-adv-x="525" 
d="M132 568c31 57 38 68 56 88c18 21 50 35 77 35c23 0 26 -1 89 -20c33 -11 55 -15 76 -15c37 0 66 11 98 36c-24 -46 -36 -65 -52 -87c-19 -24 -52 -40 -83 -40c-20 0 -27 2 -82 19c-35 11 -62 16 -83 16c-35 0 -64 -10 -96 -32z" />
    <glyph glyph-name="macron" unicode="&#xaf;" horiz-adv-x="521" 
d="M195 671h297l-18 -83h-297z" />
    <glyph glyph-name="breve" unicode="&#x2d8;" horiz-adv-x="525" 
d="M169 689l49 27c25 -50 62 -74 115 -74c56 0 96 23 125 72l45 -25c-28 -80 -94 -130 -172 -130c-80 0 -138 47 -162 130z" />
    <glyph glyph-name="dotaccent" unicode="&#x2d9;" horiz-adv-x="525" 
d="M333 710c43 0 70 -27 70 -70c0 -52 -35 -88 -84 -88c-46 0 -74 29 -74 74c0 50 36 84 88 84z" />
    <glyph glyph-name="dieresis" unicode="&#xa8;" horiz-adv-x="525" 
d="M234 703c39 0 63 -24 63 -64c0 -47 -32 -80 -76 -80c-42 0 -68 26 -68 68c0 45 33 76 81 76zM432 703c40 0 64 -25 64 -64c0 -47 -32 -80 -76 -80c-42 0 -68 26 -68 68c0 45 33 76 80 76z" />
    <glyph glyph-name="ring" unicode="&#x2da;" horiz-adv-x="525" 
d="M345 763c65 0 108 -40 108 -101c0 -73 -52 -124 -127 -124c-69 0 -109 38 -109 103c0 71 53 122 128 122zM336 699c-29 0 -51 -22 -51 -51c0 -28 19 -46 47 -46c30 0 51 23 51 55c0 26 -17 42 -47 42z" />
    <glyph glyph-name="cedilla" unicode="&#xb8;" horiz-adv-x="521" 
d="M132 -190l-7 59c22 -12 42 -17 66 -17c29 0 48 13 48 32c0 17 -14 25 -40 25c-11 0 -17 -1 -31 -4l49 95h55l-28 -51h8c39 0 64 -23 64 -58c0 -53 -49 -87 -127 -87c-18 0 -27 1 -57 6z" />
    <glyph glyph-name="hungarumlaut" unicode="&#x2dd;" horiz-adv-x="521" 
d="M346 754l84 -56l-212 -156l-58 6zM537 754l84 -56l-212 -156l-58 6z" />
    <glyph glyph-name="ogonek" unicode="&#x2db;" horiz-adv-x="521" 
d="M279 0h65c-47 -28 -73 -64 -73 -98c0 -21 14 -34 36 -34c5 0 10 1 18 2l-35 -55c-10 -2 -14 -2 -22 -2c-53 0 -85 26 -85 67c0 44 36 89 96 120z" />
    <glyph glyph-name="caron" unicode="&#x2c7;" horiz-adv-x="525" 
d="M333 657l136 79l46 -30l-205 -166l-145 172l42 23z" />
    <glyph glyph-name="emdash" unicode="&#x2014;" horiz-adv-x="610" 
d="M114 287h340c75 0 101 4 144 23l-91 -119h-293c-116 0 -140 -3 -193 -23z" />
    <glyph glyph-name="AE" unicode="&#xc6;" horiz-adv-x="853" 
d="M859 695l-35 -157c-15 52 -32 58 -156 57l-40 -178h66c43 0 62 2 84 9l-35 -160c-10 43 -19 48 -79 48h-58l-44 -195c34 -16 62 -21 117 -21c77 0 112 12 178 62l-82 -160h-467c48 37 64 66 83 153l9 44h-174l-63 -82c-30 -38 -41 -58 -41 -71c0 -12 7 -25 23 -44h-218
c17 16 21 21 35 35c8 9 5 5 11 13l36 46l392 493c25 32 32 45 32 60c0 17 -11 31 -38 48h464zM295 288h126l61 254z" />
    <glyph glyph-name="ordfeminine" unicode="&#xaa;" horiz-adv-x="417" 
d="M439 584l-46 -206c-2 -10 -3 -19 -3 -24c0 -9 6 -14 17 -14c10 0 17 2 33 8l-46 -65c-23 -10 -38 -13 -61 -13c-46 0 -72 22 -72 60c0 14 0 14 8 48l28 128c-10 5 -16 7 -25 7c-38 0 -72 -59 -72 -126c0 -33 10 -49 32 -49c5 0 8 1 15 3l-39 -65c-14 -5 -22 -6 -35 -6
c-64 0 -105 44 -105 114c0 54 26 110 70 146c39 32 84 47 145 47c22 0 22 0 71 -6c6 -1 12 -1 21 -1c23 0 38 3 64 14z" />
    <glyph glyph-name="Lslash" unicode="&#x141;" horiz-adv-x="533" 
d="M441 0h-461c48 37 64 66 83 153l22 98l-89 -52l22 98l88 52l43 193c9 40 13 67 13 87c0 22 -5 33 -28 66h288c-49 -37 -64 -66 -83 -153l-22 -97l175 103l-22 -98l-174 -103l-51 -228c30 -15 60 -21 106 -21c70 0 108 14 172 63z" />
    <glyph glyph-name="Oslash" unicode="&#xd8;" horiz-adv-x="747" 
d="M800 747l-112 -129c36 -47 52 -105 52 -191c0 -263 -161 -441 -398 -441c-65 0 -121 14 -168 41l-69 -79h-106l115 132c-35 46 -52 109 -52 190c0 122 43 244 114 324c66 74 166 115 283 115c68 0 119 -12 168 -39l67 77h106zM523 582c-19 27 -44 40 -79 40
c-58 0 -102 -39 -142 -124c-32 -70 -53 -175 -53 -261c0 -10 0 -14 1 -24zM552 460v25l-273 -368c22 -30 47 -44 81 -44c58 0 108 46 144 133c28 66 48 173 48 254z" />
    <glyph glyph-name="OE" unicode="&#x152;" horiz-adv-x="939" 
d="M945 695l-35 -157c-15 52 -32 58 -156 57l-39 -178h65c43 0 62 2 85 9l-36 -160c-10 43 -19 48 -79 48h-58l-44 -195c35 -16 63 -21 117 -21c77 0 112 12 178 62l-82 -160h-429c-43 -11 -70 -14 -109 -14c-176 0 -271 98 -271 282c0 124 42 246 112 326
c63 72 163 115 270 115c35 0 63 -3 119 -14h392zM427 619c-47 0 -89 -39 -120 -114c-31 -74 -51 -178 -51 -266c0 -110 31 -163 93 -163c59 0 105 44 138 133c26 70 45 176 45 252c0 100 -38 158 -105 158z" />
    <glyph glyph-name="ordmasculine" unicode="&#xba;" horiz-adv-x="394" 
d="M260 577c100 0 156 -46 156 -130c0 -105 -78 -177 -192 -177c-104 0 -159 44 -159 128c0 110 76 179 195 179zM255 513c-34 0 -62 -54 -62 -120c0 -39 12 -59 34 -59c20 0 34 12 45 40c9 23 16 59 16 86c0 36 -11 53 -33 53z" />
    <glyph glyph-name="ae" unicode="&#xe6;" horiz-adv-x="811" 
d="M767 166l-32 -126c-63 -36 -135 -53 -218 -53c-124 0 -181 39 -181 125c0 27 1 33 15 97l39 176c-15 10 -31 15 -49 15c-71 0 -132 -99 -132 -214c0 -65 27 -101 77 -101c7 0 11 1 21 3l-54 -92c-27 -7 -43 -9 -67 -9c-102 0 -165 69 -165 180c0 93 37 181 102 243
c58 56 125 82 208 82c40 0 71 -4 128 -15c21 -4 37 -6 47 -6s25 2 43 6c64 13 76 15 109 15c100 0 163 -41 163 -105c0 -63 -57 -123 -154 -161c-41 -16 -77 -23 -139 -29l-3 -20c-4 -19 -6 -37 -6 -47c0 -30 33 -52 78 -52c61 0 109 25 170 88zM543 262
c63 15 110 61 110 108c0 19 -15 32 -35 32c-40 0 -54 -26 -75 -140z" />
    <glyph glyph-name="dotlessi" unicode="&#x131;" horiz-adv-x="316" 
d="M304 500l-75 -339c-6 -25 -7 -34 -7 -43c0 -19 11 -30 31 -30c13 0 23 2 42 9l-71 -91c-33 -15 -56 -20 -90 -20c-61 0 -94 33 -94 94c0 23 1 29 13 81l42 190c8 37 12 62 12 77c0 19 -7 33 -26 53c82 1 94 1 150 2c35 2 50 5 73 17z" />
    <glyph glyph-name="lslash" unicode="&#x142;" horiz-adv-x="337" 
d="M385 499l-18 -83l-80 -46l-46 -209c-7 -31 -7 -31 -7 -42c0 -20 11 -31 31 -31c13 0 23 2 42 9l-71 -91c-32 -14 -57 -20 -87 -20c-61 0 -97 35 -97 93c0 23 1 31 12 82l28 126l-75 -44l18 82l76 44l43 195c8 36 12 63 12 77c0 19 -7 33 -26 53c182 1 186 1 223 20
l-58 -262z" />
    <glyph glyph-name="oslash" unicode="&#xf8;" horiz-adv-x="587" 
d="M455 471l54 62h87l-85 -98c39 -40 56 -87 56 -152c0 -99 -48 -195 -124 -248c-48 -32 -104 -48 -173 -48c-50 0 -93 7 -130 21l-53 -61h-87l84 97c-38 36 -55 83 -55 149c0 91 36 178 96 231c52 45 121 68 204 68c50 0 91 -7 126 -21zM401 326l-182 -237
c13 -14 28 -20 51 -20c42 0 72 25 96 80c20 46 35 116 35 166v11zM196 153l182 238c-14 13 -29 19 -49 19c-42 0 -79 -31 -104 -89c-17 -39 -30 -104 -30 -145c0 -6 0 -13 1 -23z" />
    <glyph glyph-name="oe" unicode="&#x153;" horiz-adv-x="861" 
d="M817 166l-34 -130c-71 -34 -134 -49 -203 -49c-64 0 -110 12 -149 39c-50 -28 -96 -39 -163 -39c-157 0 -239 70 -239 206c0 91 36 178 96 231c52 46 120 68 205 68c80 0 135 -17 183 -57c62 40 120 57 191 57c102 0 166 -42 166 -107c0 -60 -56 -122 -141 -157
c-42 -16 -95 -27 -168 -35c2 -35 4 -49 11 -68c10 -29 40 -48 75 -48c63 0 115 27 170 89zM326 403c-62 0 -113 -103 -113 -228c0 -65 21 -99 60 -99c37 0 65 25 86 77c18 43 31 109 31 157c0 61 -22 93 -64 93zM569 258c36 6 56 15 83 35c30 23 49 52 49 75
c0 16 -15 28 -34 28c-46 0 -85 -55 -98 -138z" />
    <glyph glyph-name="germandbls" unicode="&#xdf;" horiz-adv-x="635" 
d="M272 10l-34 90c36 -17 64 -24 98 -24c63 0 102 35 102 92c0 32 -11 64 -32 94c-7 10 -7 10 -78 84c-12 13 -17 24 -17 37c0 29 0 29 85 105c28 26 40 48 40 77c0 36 -20 60 -52 60c-19 0 -39 -10 -49 -25c-14 -22 -14 -22 -35 -121l-71 -321c-36 -161 -65 -243 -107 -298
c-45 -59 -109 -89 -189 -89c-38 0 -63 6 -102 22l57 66c12 -11 20 -14 34 -14c26 0 52 17 63 41c10 23 10 23 37 134l82 370h-71l91 93c15 75 35 114 78 152c50 45 121 70 201 70c124 0 196 -50 196 -135c0 -38 -16 -71 -49 -98c-25 -20 -25 -20 -101 -54
c-11 -5 -17 -11 -17 -17c0 -9 3 -10 43 -30c101 -47 152 -114 152 -197c0 -112 -91 -187 -228 -187c-47 0 -85 7 -127 23z" />
    <glyph glyph-name="onesuperior" unicode="&#xb9;" horiz-adv-x="443" 
d="M244 592l-89 28c122 19 180 45 255 113l-83 -372c-3 -14 -5 -28 -5 -38c0 -15 4 -24 23 -45h-208c36 28 46 43 55 83z" />
    <glyph glyph-name="logicalnot" unicode="&#xac;" 
d="M606 201h-97v196h-390v97h487v-293z" />
    <glyph glyph-name="mu" unicode="&#xb5;" horiz-adv-x="603" 
d="M129 -214h-157l121 565c11 57 12 61 12 77c0 19 -7 34 -26 53c83 1 96 1 153 2c35 2 50 5 73 17l-67 -301c-8 -38 -10 -48 -10 -61c0 -20 13 -32 36 -32c19 0 38 8 51 21c15 15 23 35 33 83l32 141c11 57 12 60 12 77c0 19 -7 33 -26 53c83 1 96 1 153 2c35 2 50 5 73 17
l-73 -327c-6 -28 -8 -43 -8 -56c0 -19 10 -28 29 -28c14 0 25 2 50 10l-71 -92c-31 -13 -60 -20 -91 -20c-60 0 -93 25 -103 78c-43 -53 -86 -78 -131 -78c-20 0 -33 4 -50 16z" />
    <glyph glyph-name="trademark" unicode="&#x2122;" horiz-adv-x="859" 
d="M442 700l-38 -85c-23 20 -33 25 -55 25h-25l-49 -223l-5 -20c-1 -6 -2 -10 -2 -14c0 -8 4 -15 15 -27l6 -8h-173c24 17 26 19 33 27c4 6 8 17 14 42l49 222c-11 2 -17 2 -25 2c-30 0 -51 -6 -80 -25l43 85c14 -4 33 -6 55 -6h159c41 0 57 1 78 5zM615 339l-18 13
c-37 25 -44 35 -53 80l-26 118l-37 -127c-7 -22 -9 -32 -9 -40s3 -15 13 -28l6 -7h-127c25 20 25 20 32 28c4 6 7 15 13 33l61 199c7 23 14 48 14 52c0 9 -6 21 -18 35h134c-1 -5 -1 -10 -1 -12c0 -11 1 -19 7 -41l3 -15l29 -130l78 128c7 12 14 24 21 37c4 7 6 11 17 33
h144c-31 -25 -34 -32 -38 -68l-20 -209c-1 -10 -2 -21 -2 -27c0 -15 4 -23 24 -43h-170c30 25 32 29 37 69l13 132z" />
    <glyph glyph-name="Eth" unicode="&#xd0;" horiz-adv-x="721" 
d="M103 334h-73l17 82h74l28 126c9 40 13 67 13 87c0 22 -5 33 -28 66h303c89 0 147 -13 194 -45c64 -42 98 -121 98 -226c0 -146 -65 -281 -171 -356c-69 -49 -144 -68 -269 -68h-309c49 38 64 66 83 153zM293 334l-52 -233c28 -8 43 -10 64 -10c123 0 222 158 222 355
c0 112 -45 166 -137 166c-15 0 -21 -1 -37 -5l-42 -191h137l-18 -82h-137z" />
    <glyph glyph-name="onehalf" unicode="&#xbd;" horiz-adv-x="1031" 
d="M227 592l-89 28c122 19 180 45 255 113l-83 -372c-3 -14 -5 -28 -5 -38c0 -15 4 -24 23 -45h-208c36 28 46 43 55 83zM703 695h100l-471 -695h-100zM943 88l-50 -88h-353c45 42 45 42 183 182c81 80 100 106 100 131c0 22 -22 36 -56 36c-43 0 -73 -10 -124 -42l45 94
c38 18 69 24 118 24c94 0 151 -40 151 -106c0 -44 -21 -82 -74 -139c-12 -12 -12 -12 -119 -115h25c67 0 97 4 154 23z" />
    <glyph glyph-name="plusminus" unicode="&#xb1;" 
d="M279 320h-195v97h195v188h97v-188h195v-97h-195v-188h-97v188zM84 0v97h487v-97h-487z" />
    <glyph glyph-name="Thorn" unicode="&#xde;" horiz-adv-x="612" 
d="M342 556h31c100 0 149 -8 188 -32c37 -22 59 -69 59 -125c0 -137 -99 -231 -242 -231c-42 0 -71 5 -109 21c43 2 66 11 87 31c36 36 59 99 59 164c0 59 -25 89 -74 89h-11h-7l-70 -320c-8 -36 -13 -68 -13 -87c0 -22 5 -34 28 -66h-288c49 38 64 66 83 153l86 389
c9 40 13 67 13 87c0 22 -5 33 -28 66h288c-46 -35 -63 -65 -80 -139z" />
    <glyph glyph-name="onequarter" unicode="&#xbc;" horiz-adv-x="1031" 
d="M216 592l-89 28c122 19 180 45 255 113l-83 -372c-3 -14 -5 -28 -5 -38c0 -15 4 -24 23 -45h-208c36 28 46 43 55 83zM699 695h100l-471 -695h-100zM748 91h-231l269 326h165c-11 -14 -13 -17 -22 -53l-46 -208h16c30 0 52 6 79 21l-45 -86h-64l-2 -8
c-4 -16 -6 -32 -6 -40c0 -13 5 -23 23 -43h-194c34 24 45 39 54 76zM654 156h108l43 195z" />
    <glyph glyph-name="divide" unicode="&#xf7;" 
d="M115 299v97h487v-97h-487zM359 233c45 0 82 -38 82 -83c0 -46 -37 -83 -83 -83s-83 37 -83 84c0 45 38 82 84 82zM359 627c45 0 82 -38 82 -83c0 -46 -37 -83 -83 -83s-83 37 -83 84c0 45 38 82 84 82z" />
    <glyph glyph-name="brokenbar" unicode="&#xa6;" horiz-adv-x="247" 
d="M193 325h-97v350h97v-350zM193 -175h-97v350h97v-350z" />
    <glyph glyph-name="degree" unicode="&#xb0;" 
d="M404 709c90 0 165 -75 165 -164c0 -90 -75 -164 -166 -164c-93 0 -168 73 -168 164c0 92 74 164 169 164zM401 632c-45 0 -82 -39 -82 -86c0 -48 37 -87 84 -87c45 0 82 39 82 86c0 49 -37 87 -84 87z" />
    <glyph glyph-name="thorn" unicode="&#xfe;" horiz-adv-x="601" 
d="M250 23l-14 95c18 -11 30 -15 48 -15c32 0 56 16 72 46c21 40 33 97 33 152c0 48 -21 76 -55 76c-44 0 -63 -32 -90 -155l-63 -283c-9 -42 -15 -80 -15 -99c0 -17 4 -31 16 -54h-246c36 33 49 62 69 153l138 625c12 58 13 61 13 77c0 19 -7 34 -26 53c182 1 185 1 223 20
l-64 -291c37 48 79 69 139 69c97 0 150 -63 150 -176c0 -79 -25 -157 -69 -217c-45 -62 -105 -92 -181 -92c-34 0 -52 4 -78 16z" />
    <glyph glyph-name="threequarters" unicode="&#xbe;" horiz-adv-x="1031" 
d="M151 471l16 72c23 -5 34 -6 52 -6c61 0 95 20 95 54c0 28 -26 46 -67 46c-35 0 -65 -11 -106 -38l47 94c31 7 57 10 95 10c109 0 168 -36 168 -104c0 -53 -32 -81 -110 -97c56 -15 82 -45 82 -95c0 -84 -85 -137 -219 -137c-44 0 -75 4 -115 17l-19 88
c41 -28 73 -39 115 -39c62 0 101 29 101 74c0 42 -33 64 -95 64c-15 0 -23 -1 -40 -3zM727 695h99l-471 -695h-99zM775 91h-231l269 326h165c-10 -12 -13 -21 -21 -53l-46 -208h16c30 0 52 6 79 21l-46 -86h-64l-2 -8c-4 -17 -6 -32 -6 -40c0 -13 6 -24 24 -43h-194
c34 24 44 38 54 76zM682 156h108l43 195z" />
    <glyph glyph-name="twosuperior" unicode="&#xb2;" horiz-adv-x="443" 
d="M433 367l-50 -88h-353c43 41 43 41 183 182c83 82 100 105 100 131c0 22 -22 36 -56 36c-43 0 -74 -11 -124 -42l44 93c38 18 70 24 118 24c95 0 152 -40 152 -107c0 -42 -21 -82 -75 -138c-11 -12 -11 -12 -119 -114h25c68 0 97 4 155 23z" />
    <glyph glyph-name="registered" unicode="&#xae;" horiz-adv-x="788" 
d="M462 709c186 0 325 -137 325 -321c0 -220 -183 -402 -404 -402c-192 0 -330 135 -330 323c0 221 183 400 409 400zM445 653c-178 0 -330 -157 -330 -340c0 -157 116 -271 274 -271c184 0 336 154 336 342c0 157 -116 269 -280 269zM387 150h-198c40 28 42 31 53 79
l53 238c7 33 7 33 7 39c0 10 -3 16 -24 40h171c57 0 90 -4 114 -14c29 -13 48 -45 48 -82c0 -34 -15 -68 -39 -87c-16 -13 -32 -18 -64 -22l15 -37c38 -91 63 -134 93 -152c-30 -5 -47 -6 -73 -6c-83 0 -106 20 -132 112l-19 69l-22 -98c-6 -27 -7 -32 -7 -39
c0 -12 6 -22 24 -40zM400 364h15c41 0 70 34 70 82c0 30 -16 41 -58 41z" />
    <glyph glyph-name="minus" unicode="&#x2212;" 
d="M115 299v97h487v-97h-487z" />
    <glyph glyph-name="eth" unicode="&#xf0;" horiz-adv-x="587" 
d="M356 573l-81 -45l-24 44l93 51c-7 25 -10 32 -18 52l70 38c18 -18 26 -27 37 -40l86 47l24 -43l-79 -45c66 -96 105 -219 105 -334c0 -109 -48 -208 -127 -263c-48 -33 -103 -48 -173 -48c-158 0 -240 71 -240 206c0 164 114 298 254 298c36 0 60 -7 88 -26
c-3 42 -9 84 -15 108zM325 403c-61 0 -112 -104 -112 -228c0 -65 21 -99 60 -99c35 0 61 24 81 77c17 43 29 109 29 155c0 64 -19 95 -58 95z" />
    <glyph glyph-name="multiply" unicode="&#xd7;" 
d="M358 279l-152 -153l-69 69l152 153l-152 152l69 69l152 -153l153 153l68 -69l-152 -152l152 -153l-68 -69z" />
    <glyph glyph-name="threesuperior" unicode="&#xb3;" horiz-adv-x="443" 
d="M151 471l16 72c23 -5 34 -6 52 -6c61 0 95 20 95 54c0 28 -26 46 -67 46c-35 0 -65 -11 -106 -38l47 94c31 7 57 10 95 10c109 0 168 -36 168 -104c0 -53 -32 -81 -110 -97c56 -15 82 -45 82 -95c0 -84 -85 -137 -219 -137c-44 0 -75 4 -115 17l-19 88
c41 -28 73 -39 115 -39c62 0 101 29 101 74c0 42 -33 64 -95 64c-15 0 -23 -1 -40 -3z" />
    <glyph glyph-name="copyright" unicode="&#xa9;" horiz-adv-x="788" 
d="M462 709c186 0 325 -137 325 -321c0 -220 -183 -402 -404 -402c-192 0 -330 135 -330 323c0 221 183 400 409 400zM445 653c-178 0 -330 -157 -330 -340c0 -157 116 -271 274 -271c184 0 336 154 336 342c0 157 -116 269 -280 269zM593 255l-54 -91
c-38 -17 -69 -23 -113 -23c-122 0 -199 66 -199 171c0 138 116 241 269 241c37 0 63 -4 103 -17l-10 -100c-30 38 -55 52 -94 52c-73 0 -127 -71 -127 -167c0 -69 35 -111 93 -111c38 0 74 12 132 45z" />
    <glyph glyph-name="Aacute" unicode="&#xc1;" horiz-adv-x="682" 
d="M529 695l104 -588c11 -66 16 -78 44 -107h-278c36 27 45 39 45 60c0 9 -1 19 -3 30l-2 17l-14 100h-231l-40 -71c-32 -55 -43 -80 -43 -96c0 -11 4 -18 25 -40h-210c42 27 47 33 112 146l235 403c24 41 31 60 31 84c0 26 -10 44 -34 62h259zM248 304h162l-33 229z
M598 941l73 -84l-271 -106l-60 23z" />
    <glyph glyph-name="Acircumflex" unicode="&#xc2;" horiz-adv-x="682" 
d="M529 695l104 -588c11 -66 16 -78 44 -107h-278c36 27 45 39 45 60c0 9 -1 19 -3 30l-2 17l-14 100h-231l-40 -71c-32 -55 -43 -80 -43 -96c0 -11 4 -18 25 -40h-210c42 27 47 33 112 146l235 403c24 41 31 60 31 84c0 26 -10 44 -34 62h259zM248 304h162l-33 229z
M458 936l177 -156l-38 -25l-163 63l-162 -62l-44 30z" />
    <glyph glyph-name="Adieresis" unicode="&#xc4;" horiz-adv-x="682" 
d="M529 695l104 -588c11 -66 16 -78 44 -107h-278c36 27 45 39 45 60c0 9 -1 19 -3 30l-2 17l-14 100h-231l-40 -71c-32 -55 -43 -80 -43 -96c0 -11 4 -18 25 -40h-210c42 27 47 33 112 146l235 403c24 41 31 60 31 84c0 26 -10 44 -34 62h259zM248 304h162l-33 229z
M351 924c43 0 70 -27 70 -71c0 -52 -35 -88 -85 -88c-46 0 -74 29 -74 75c0 50 36 84 89 84zM553 924c43 0 70 -27 70 -71c0 -52 -35 -88 -85 -88c-45 0 -74 29 -74 75c0 50 36 84 89 84z" />
    <glyph glyph-name="Agrave" unicode="&#xc0;" horiz-adv-x="682" 
d="M529 695l104 -588c11 -66 16 -78 44 -107h-278c36 27 45 39 45 60c0 9 -1 19 -3 30l-2 17l-14 100h-231l-40 -71c-32 -55 -43 -80 -43 -96c0 -11 4 -18 25 -40h-210c42 27 47 33 112 146l235 403c24 41 31 60 31 84c0 26 -10 44 -34 62h259zM248 304h162l-33 229z
M285 941l245 -162l-49 -30l-266 105z" />
    <glyph glyph-name="Aring" unicode="&#xc5;" horiz-adv-x="682" 
d="M529 695l104 -588c11 -66 16 -78 44 -107h-278c36 27 45 39 45 60c0 9 -1 19 -3 30l-2 17l-14 100h-231l-40 -71c-32 -55 -43 -80 -43 -96c0 -11 4 -18 25 -40h-210c42 27 47 33 112 146l235 403c24 41 31 60 31 84c0 26 -10 44 -34 62h259zM248 304h162l-33 229z
M467 962c65 0 108 -40 108 -100c0 -74 -52 -124 -128 -124c-68 0 -108 38 -108 102c0 71 53 122 128 122zM458 899c-29 0 -51 -22 -51 -52c0 -27 18 -45 47 -45c30 0 51 23 51 55c0 27 -17 42 -47 42z" />
    <glyph glyph-name="Atilde" unicode="&#xc3;" horiz-adv-x="682" 
d="M529 695l104 -588c11 -66 16 -78 44 -107h-278c36 27 45 39 45 60c0 9 -1 19 -3 30l-2 17l-14 100h-231l-40 -71c-32 -55 -43 -80 -43 -96c0 -11 4 -18 25 -40h-210c42 27 47 33 112 146l235 403c24 41 31 60 31 84c0 26 -10 44 -34 62h259zM248 304h162l-33 229z
M668 908l-6 -12c-46 -89 -76 -115 -130 -115c-23 0 -35 2 -111 20c-42 10 -67 14 -96 14c-44 0 -69 -8 -103 -32c30 57 38 69 56 89c19 21 50 35 79 35c24 0 49 -4 112 -20c49 -12 70 -15 96 -15c43 0 69 9 103 36z" />
    <glyph glyph-name="Ccedilla" unicode="&#xc7;" horiz-adv-x="631" 
d="M377 -14l-18 -32h10c46 0 76 -27 76 -69c0 -63 -59 -103 -150 -103c-22 0 -37 1 -69 7l-9 70c27 -15 50 -21 79 -21c34 0 57 15 57 39c0 19 -16 29 -47 29c-13 0 -21 -1 -37 -4l44 86c-168 18 -266 126 -266 293c0 128 53 252 140 329c75 66 172 99 291 99
c64 0 108 -7 170 -28l-17 -147c-39 51 -86 75 -147 75c-134 0 -235 -137 -235 -319c0 -128 62 -204 167 -204c59 0 110 18 199 72l-74 -134c-49 -23 -100 -35 -164 -38z" />
    <glyph glyph-name="Eacute" unicode="&#xc9;" horiz-adv-x="536" 
d="M541 695l-34 -157c-15 52 -32 58 -156 57l-40 -178h66c42 0 62 2 84 9l-35 -160c-10 43 -19 48 -79 48h-59l-43 -195c36 -16 63 -21 115 -21c79 0 113 12 179 62l-82 -160h-477c48 37 64 66 83 153l86 389c9 39 13 67 13 87c0 22 -5 33 -28 66h407zM517 941l73 -84
l-271 -106l-60 23z" />
    <glyph glyph-name="Ecircumflex" unicode="&#xca;" horiz-adv-x="536" 
d="M541 695l-34 -157c-15 52 -32 58 -156 57l-40 -178h66c42 0 62 2 84 9l-35 -160c-10 43 -19 48 -79 48h-59l-43 -195c36 -16 63 -21 115 -21c79 0 113 12 179 62l-82 -160h-477c48 37 64 66 83 153l86 389c9 39 13 67 13 87c0 22 -5 33 -28 66h407zM377 936l177 -156
l-38 -25l-163 63l-162 -62l-44 30z" />
    <glyph glyph-name="Edieresis" unicode="&#xcb;" horiz-adv-x="536" 
d="M541 695l-34 -157c-15 52 -32 58 -156 57l-40 -178h66c42 0 62 2 84 9l-35 -160c-10 43 -19 48 -79 48h-59l-43 -195c36 -16 63 -21 115 -21c79 0 113 12 179 62l-82 -160h-477c48 37 64 66 83 153l86 389c9 39 13 67 13 87c0 22 -5 33 -28 66h407zM277 924
c43 0 70 -27 70 -71c0 -52 -35 -88 -85 -88c-46 0 -74 29 -74 75c0 50 36 84 89 84zM479 924c43 0 70 -27 70 -71c0 -52 -35 -88 -85 -88c-45 0 -74 29 -74 75c0 50 36 84 89 84z" />
    <glyph glyph-name="Egrave" unicode="&#xc8;" horiz-adv-x="536" 
d="M541 695l-34 -157c-15 52 -32 58 -156 57l-40 -178h66c42 0 62 2 84 9l-35 -160c-10 43 -19 48 -79 48h-59l-43 -195c36 -16 63 -21 115 -21c79 0 113 12 179 62l-82 -160h-477c48 37 64 66 83 153l86 389c9 39 13 67 13 87c0 22 -5 33 -28 66h407zM211 941l245 -162
l-49 -30l-266 105z" />
    <glyph glyph-name="Iacute" unicode="&#xcd;" horiz-adv-x="351" 
d="M268 0h-288c48 38 64 66 83 153l86 389c9 39 13 67 13 87c0 22 -5 33 -28 66h288c-49 -37 -64 -66 -83 -153l-86 -389c-9 -37 -13 -68 -13 -87c0 -22 5 -34 28 -66zM425 941l73 -84l-271 -106l-60 23z" />
    <glyph glyph-name="Icircumflex" unicode="&#xce;" horiz-adv-x="351" 
d="M268 0h-288c48 38 64 66 83 153l86 389c9 39 13 67 13 87c0 22 -5 33 -28 66h288c-49 -37 -64 -66 -83 -153l-86 -389c-9 -37 -13 -68 -13 -87c0 -22 5 -34 28 -66zM317 936l156 -156l-38 -25l-143 63l-140 -62l-44 30z" />
    <glyph glyph-name="Idieresis" unicode="&#xcf;" horiz-adv-x="351" 
d="M268 0h-288c48 38 64 66 83 153l86 389c9 39 13 67 13 87c0 22 -5 33 -28 66h288c-49 -37 -64 -66 -83 -153l-86 -389c-9 -37 -13 -68 -13 -87c0 -22 5 -34 28 -66zM231 923c43 0 69 -26 69 -69c0 -51 -34 -87 -83 -87c-45 0 -73 28 -73 73c0 49 36 83 87 83zM412 923
c43 0 69 -26 69 -69c0 -51 -34 -87 -83 -87c-45 0 -73 28 -73 73c0 49 36 83 87 83z" />
    <glyph glyph-name="Igrave" unicode="&#xcc;" horiz-adv-x="351" 
d="M268 0h-288c48 38 64 66 83 153l86 389c9 39 13 67 13 87c0 22 -5 33 -28 66h288c-49 -37 -64 -66 -83 -153l-86 -389c-9 -37 -13 -68 -13 -87c0 -22 5 -34 28 -66zM141 941l245 -162l-49 -30l-266 105z" />
    <glyph glyph-name="Ntilde" unicode="&#xd1;" horiz-adv-x="713" 
d="M603 67l33 -67c-21 -5 -38 -7 -62 -7c-115 0 -156 36 -226 202l-116 273l-70 -315c-9 -43 -13 -68 -13 -87c0 -22 6 -35 28 -66h-204c48 38 64 66 83 153l86 389c9 39 13 67 13 87c0 24 -8 42 -30 66h228c5 -19 17 -53 31 -89l151 -365l67 301c9 41 13 67 13 87
c0 22 -5 34 -28 66h204c-48 -37 -64 -66 -83 -153zM719 908l-6 -12c-46 -89 -76 -115 -130 -115c-23 0 -35 2 -111 20c-42 10 -67 14 -96 14c-44 0 -69 -8 -103 -32c30 57 38 69 56 89c19 21 50 35 79 35c24 0 49 -4 112 -20c49 -12 70 -15 96 -15c43 0 69 9 103 36z" />
    <glyph glyph-name="Oacute" unicode="&#xd3;" horiz-adv-x="728" 
d="M454 709c89 0 161 -26 210 -76c45 -45 66 -111 66 -204c0 -265 -160 -443 -400 -443c-179 0 -278 100 -278 281c0 125 43 248 114 327c68 76 166 115 288 115zM431 616c-50 0 -93 -41 -128 -123c-29 -68 -49 -173 -49 -257c0 -97 37 -157 95 -157c54 0 100 45 134 131
c26 66 44 169 44 249c0 104 -33 157 -96 157zM614 941l73 -84l-271 -106l-60 23z" />
    <glyph glyph-name="Ocircumflex" unicode="&#xd4;" horiz-adv-x="728" 
d="M454 709c89 0 161 -26 210 -76c45 -45 66 -111 66 -204c0 -265 -160 -443 -400 -443c-179 0 -278 100 -278 281c0 125 43 248 114 327c68 76 166 115 288 115zM431 616c-50 0 -93 -41 -128 -123c-29 -68 -49 -173 -49 -257c0 -97 37 -157 95 -157c54 0 100 45 134 131
c26 66 44 169 44 249c0 104 -33 157 -96 157zM495 936l177 -156l-38 -25l-163 63l-162 -62l-44 30z" />
    <glyph glyph-name="Odieresis" unicode="&#xd6;" horiz-adv-x="728" 
d="M454 709c89 0 161 -26 210 -76c45 -45 66 -111 66 -204c0 -265 -160 -443 -400 -443c-179 0 -278 100 -278 281c0 125 43 248 114 327c68 76 166 115 288 115zM431 616c-50 0 -93 -41 -128 -123c-29 -68 -49 -173 -49 -257c0 -97 37 -157 95 -157c54 0 100 45 134 131
c26 66 44 169 44 249c0 104 -33 157 -96 157zM389 924c43 0 70 -27 70 -71c0 -52 -35 -88 -85 -88c-46 0 -74 29 -74 75c0 50 36 84 89 84zM591 924c43 0 70 -27 70 -71c0 -52 -35 -88 -85 -88c-45 0 -74 29 -74 75c0 50 36 84 89 84z" />
    <glyph glyph-name="Ograve" unicode="&#xd2;" horiz-adv-x="728" 
d="M454 709c89 0 161 -26 210 -76c45 -45 66 -111 66 -204c0 -265 -160 -443 -400 -443c-179 0 -278 100 -278 281c0 125 43 248 114 327c68 76 166 115 288 115zM431 616c-50 0 -93 -41 -128 -123c-29 -68 -49 -173 -49 -257c0 -97 37 -157 95 -157c54 0 100 45 134 131
c26 66 44 169 44 249c0 104 -33 157 -96 157zM330 941l245 -162l-49 -30l-266 105z" />
    <glyph glyph-name="Otilde" unicode="&#xd5;" horiz-adv-x="728" 
d="M454 709c89 0 161 -26 210 -76c45 -45 66 -111 66 -204c0 -265 -160 -443 -400 -443c-179 0 -278 100 -278 281c0 125 43 248 114 327c68 76 166 115 288 115zM431 616c-50 0 -93 -41 -128 -123c-29 -68 -49 -173 -49 -257c0 -97 37 -157 95 -157c54 0 100 45 134 131
c26 66 44 169 44 249c0 104 -33 157 -96 157zM699 908l-6 -12c-46 -89 -76 -115 -130 -115c-23 0 -35 2 -111 20c-42 10 -67 14 -96 14c-44 0 -69 -8 -103 -32c30 57 38 69 56 89c19 21 50 35 79 35c24 0 49 -4 112 -20c49 -12 70 -15 96 -15c43 0 69 9 103 36z" />
    <glyph glyph-name="Scaron" unicode="&#x160;" horiz-adv-x="539" 
d="M537 676l-8 -138c-71 60 -110 78 -167 78c-50 0 -82 -24 -82 -61c0 -39 15 -56 118 -138c84 -67 110 -111 110 -187c0 -141 -119 -244 -282 -244c-77 0 -145 14 -200 40l-19 143c87 -66 141 -90 205 -90s107 34 107 85c0 43 -15 62 -109 140c-88 73 -116 119 -116 189
c0 132 108 216 277 216c62 0 111 -10 166 -33zM396 873l164 63l42 -31l-229 -149l-177 155l39 25z" />
    <glyph glyph-name="Uacute" unicode="&#xda;" horiz-adv-x="724" 
d="M391 0l24 66c-66 -62 -109 -80 -195 -80c-54 0 -91 11 -120 35c-31 25 -48 62 -48 101c0 24 2 36 13 87l74 333c9 41 13 67 13 87c0 22 -5 34 -28 66h288c-49 -37 -64 -66 -83 -153l-58 -259c-14 -66 -19 -95 -19 -119c0 -43 28 -68 75 -68c45 0 82 21 101 57
c12 23 19 47 30 95l65 294c9 38 13 68 13 87c0 22 -6 35 -28 66h288c-49 -37 -64 -66 -83 -153l-86 -389c-9 -39 -13 -67 -13 -87c0 -22 5 -35 28 -66h-251zM613 941l73 -84l-271 -106l-60 23z" />
    <glyph glyph-name="Ucircumflex" unicode="&#xdb;" horiz-adv-x="724" 
d="M391 0l24 66c-66 -62 -109 -80 -195 -80c-54 0 -91 11 -120 35c-31 25 -48 62 -48 101c0 24 2 36 13 87l74 333c9 41 13 67 13 87c0 22 -5 34 -28 66h288c-49 -37 -64 -66 -83 -153l-58 -259c-14 -66 -19 -95 -19 -119c0 -43 28 -68 75 -68c45 0 82 21 101 57
c12 23 19 47 30 95l65 294c9 38 13 68 13 87c0 22 -6 35 -28 66h288c-49 -37 -64 -66 -83 -153l-86 -389c-9 -39 -13 -67 -13 -87c0 -22 5 -35 28 -66h-251zM509 936l177 -156l-38 -25l-163 63l-162 -62l-44 30z" />
    <glyph glyph-name="Udieresis" unicode="&#xdc;" horiz-adv-x="724" 
d="M391 0l24 66c-66 -62 -109 -80 -195 -80c-54 0 -91 11 -120 35c-31 25 -48 62 -48 101c0 24 2 36 13 87l74 333c9 41 13 67 13 87c0 22 -5 34 -28 66h288c-49 -37 -64 -66 -83 -153l-58 -259c-14 -66 -19 -95 -19 -119c0 -43 28 -68 75 -68c45 0 82 21 101 57
c12 23 19 47 30 95l65 294c9 38 13 68 13 87c0 22 -6 35 -28 66h288c-49 -37 -64 -66 -83 -153l-86 -389c-9 -39 -13 -67 -13 -87c0 -22 5 -35 28 -66h-251zM395 924c43 0 70 -27 70 -71c0 -52 -35 -88 -85 -88c-46 0 -74 29 -74 75c0 50 36 84 89 84zM597 924
c43 0 70 -27 70 -71c0 -52 -35 -88 -85 -88c-45 0 -74 29 -74 75c0 50 36 84 89 84z" />
    <glyph glyph-name="Ugrave" unicode="&#xd9;" horiz-adv-x="724" 
d="M391 0l24 66c-66 -62 -109 -80 -195 -80c-54 0 -91 11 -120 35c-31 25 -48 62 -48 101c0 24 2 36 13 87l74 333c9 41 13 67 13 87c0 22 -5 34 -28 66h288c-49 -37 -64 -66 -83 -153l-58 -259c-14 -66 -19 -95 -19 -119c0 -43 28 -68 75 -68c45 0 82 21 101 57
c12 23 19 47 30 95l65 294c9 38 13 68 13 87c0 22 -6 35 -28 66h288c-49 -37 -64 -66 -83 -153l-86 -389c-9 -39 -13 -67 -13 -87c0 -22 5 -35 28 -66h-251zM328 941l245 -162l-49 -30l-266 105z" />
    <glyph glyph-name="Yacute" unicode="&#xdd;" horiz-adv-x="608" 
d="M398 433l117 174c15 24 25 44 25 55c0 10 -6 21 -20 33h187c-28 -36 -53 -68 -64 -83l-216 -299l-36 -160c-7 -35 -12 -67 -12 -87c0 -22 5 -35 27 -66h-281c49 37 65 67 84 153l35 159c-29 117 -123 306 -187 378c47 15 70 19 105 19c83 0 127 -30 169 -115
c11 -23 20 -46 67 -161zM564 941l73 -84l-271 -106l-60 23z" />
    <glyph glyph-name="Ydieresis" unicode="&#x178;" horiz-adv-x="608" 
d="M398 433l117 174c15 24 25 44 25 55c0 10 -6 21 -20 33h187c-28 -36 -53 -68 -64 -83l-216 -299l-36 -160c-7 -35 -12 -67 -12 -87c0 -22 5 -35 27 -66h-281c49 37 65 67 84 153l35 159c-29 117 -123 306 -187 378c47 15 70 19 105 19c83 0 127 -30 169 -115
c11 -23 20 -46 67 -161zM328 924c43 0 70 -27 70 -71c0 -52 -35 -88 -85 -88c-46 0 -74 29 -74 75c0 50 36 84 89 84zM530 924c43 0 70 -27 70 -71c0 -52 -35 -88 -85 -88c-45 0 -74 29 -74 75c0 50 36 84 89 84z" />
    <glyph glyph-name="Zcaron" unicode="&#x17d;" horiz-adv-x="619" 
d="M519 0h-561c6 9 19 26 37 52c10 14 19 26 27 38l365 508c-24 3 -36 4 -56 4c-76 0 -148 -21 -218 -65l78 158h490l-8 -10l-28 -41l-14 -20l-371 -517c30 -3 48 -4 78 -4c121 0 192 19 278 75zM457 873l164 63l42 -31l-229 -149l-177 155l39 25z" />
    <glyph glyph-name="aacute" unicode="&#xe1;" horiz-adv-x="597" 
d="M303 85l-51 -90c-27 -6 -41 -8 -61 -8c-105 0 -170 67 -170 176c0 93 43 192 110 253c56 52 128 76 224 76c35 0 35 0 110 -10c9 -1 20 -2 33 -2c34 0 58 5 91 20l-75 -339c-4 -20 -6 -32 -6 -42c0 -21 10 -31 33 -31c17 0 27 2 46 9l-71 -91c-34 -15 -55 -20 -86 -20
c-67 0 -105 33 -105 92c0 24 1 30 13 83l50 225c-22 13 -34 17 -50 17c-27 0 -56 -18 -74 -46c-34 -52 -55 -123 -55 -186c0 -54 29 -88 75 -88c7 0 11 0 19 2zM485 754l83 -67l-237 -143l-60 11z" />
    <glyph glyph-name="acircumflex" unicode="&#xe2;" horiz-adv-x="597" 
d="M303 85l-51 -90c-27 -6 -41 -8 -61 -8c-105 0 -170 67 -170 176c0 93 43 192 110 253c56 52 128 76 224 76c35 0 35 0 110 -10c9 -1 20 -2 33 -2c34 0 58 5 91 20l-75 -339c-4 -20 -6 -32 -6 -42c0 -21 10 -31 33 -31c17 0 27 2 46 9l-71 -91c-34 -15 -55 -20 -86 -20
c-67 0 -105 33 -105 92c0 24 1 30 13 83l50 225c-22 13 -34 17 -50 17c-27 0 -56 -18 -74 -46c-34 -52 -55 -123 -55 -186c0 -54 29 -88 75 -88c7 0 11 0 19 2zM406 738l145 -173l-42 -24l-128 79l-134 -78l-47 28z" />
    <glyph glyph-name="adieresis" unicode="&#xe4;" horiz-adv-x="597" 
d="M303 85l-51 -90c-27 -6 -41 -8 -61 -8c-105 0 -170 67 -170 176c0 93 43 192 110 253c56 52 128 76 224 76c35 0 35 0 110 -10c9 -1 20 -2 33 -2c34 0 58 5 91 20l-75 -339c-4 -20 -6 -32 -6 -42c0 -21 10 -31 33 -31c17 0 27 2 46 9l-71 -91c-34 -15 -55 -20 -86 -20
c-67 0 -105 33 -105 92c0 24 1 30 13 83l50 225c-22 13 -34 17 -50 17c-27 0 -56 -18 -74 -46c-34 -52 -55 -123 -55 -186c0 -54 29 -88 75 -88c7 0 11 0 19 2zM305 703c39 0 63 -24 63 -64c0 -47 -32 -80 -76 -80c-42 0 -68 26 -68 68c0 45 33 76 81 76zM503 703
c40 0 64 -25 64 -64c0 -47 -32 -80 -76 -80c-42 0 -68 26 -68 68c0 45 33 76 80 76z" />
    <glyph glyph-name="agrave" unicode="&#xe0;" horiz-adv-x="597" 
d="M303 85l-51 -90c-27 -6 -41 -8 -61 -8c-105 0 -170 67 -170 176c0 93 43 192 110 253c56 52 128 76 224 76c35 0 35 0 110 -10c9 -1 20 -2 33 -2c34 0 58 5 91 20l-75 -339c-4 -20 -6 -32 -6 -42c0 -21 10 -31 33 -31c17 0 27 2 46 9l-71 -91c-34 -15 -55 -20 -86 -20
c-67 0 -105 33 -105 92c0 24 1 30 13 83l50 225c-22 13 -34 17 -50 17c-27 0 -56 -18 -74 -46c-34 -52 -55 -123 -55 -186c0 -54 29 -88 75 -88c7 0 11 0 19 2zM226 755l203 -193l-51 -20l-232 142z" />
    <glyph glyph-name="aring" unicode="&#xe5;" horiz-adv-x="597" 
d="M303 85l-51 -90c-27 -6 -41 -8 -61 -8c-105 0 -170 67 -170 176c0 93 43 192 110 253c56 52 128 76 224 76c35 0 35 0 110 -10c9 -1 20 -2 33 -2c34 0 58 5 91 20l-75 -339c-4 -20 -6 -32 -6 -42c0 -21 10 -31 33 -31c17 0 27 2 46 9l-71 -91c-34 -15 -55 -20 -86 -20
c-67 0 -105 33 -105 92c0 24 1 30 13 83l50 225c-22 13 -34 17 -50 17c-27 0 -56 -18 -74 -46c-34 -52 -55 -123 -55 -186c0 -54 29 -88 75 -88c7 0 11 0 19 2zM406 763c65 0 108 -40 108 -101c0 -73 -52 -124 -127 -124c-69 0 -109 38 -109 103c0 71 53 122 128 122z
M397 699c-29 0 -51 -22 -51 -51c0 -28 19 -46 47 -46c30 0 51 23 51 55c0 26 -17 42 -47 42z" />
    <glyph glyph-name="atilde" unicode="&#xe3;" horiz-adv-x="597" 
d="M303 85l-51 -90c-27 -6 -41 -8 -61 -8c-105 0 -170 67 -170 176c0 93 43 192 110 253c56 52 128 76 224 76c35 0 35 0 110 -10c9 -1 20 -2 33 -2c34 0 58 5 91 20l-75 -339c-4 -20 -6 -32 -6 -42c0 -21 10 -31 33 -31c17 0 27 2 46 9l-71 -91c-34 -15 -55 -20 -86 -20
c-67 0 -105 33 -105 92c0 24 1 30 13 83l50 225c-22 13 -34 17 -50 17c-27 0 -56 -18 -74 -46c-34 -52 -55 -123 -55 -186c0 -54 29 -88 75 -88c7 0 11 0 19 2zM190 568c31 57 38 68 56 88c18 21 50 35 77 35c23 0 26 -1 89 -20c33 -11 55 -15 76 -15c37 0 66 11 98 36
c-24 -46 -36 -65 -52 -87c-19 -24 -52 -40 -83 -40c-20 0 -27 2 -82 19c-35 11 -62 16 -83 16c-35 0 -64 -10 -96 -32z" />
    <glyph glyph-name="ccedilla" unicode="&#xe7;" horiz-adv-x="473" 
d="M241 -13l-21 -38h8c39 0 64 -23 64 -58c0 -53 -49 -87 -127 -87c-18 0 -28 1 -57 6l-7 59c22 -12 42 -17 66 -17c29 0 48 13 48 32c0 17 -14 25 -40 25c-11 0 -18 -1 -31 -4l43 84c-112 16 -165 76 -165 188c0 179 139 315 322 315c89 0 145 -33 145 -86
c0 -44 -39 -77 -91 -77c-25 0 -44 5 -60 17c15 12 21 23 21 35c0 13 -12 22 -29 22c-62 0 -119 -107 -119 -223c0 -65 34 -104 89 -104s103 19 160 64l-64 -124c-42 -18 -95 -28 -155 -29z" />
    <glyph glyph-name="eacute" unicode="&#xe9;" horiz-adv-x="509" 
d="M465 166l-34 -130c-74 -34 -135 -49 -207 -49c-132 0 -206 64 -206 178c0 182 148 327 334 327c102 0 166 -41 166 -107c0 -61 -55 -122 -141 -157c-43 -17 -97 -28 -168 -35c1 -34 4 -49 11 -68c10 -29 40 -48 75 -48c63 0 114 27 170 89zM217 258c35 5 56 14 82 35
c30 23 49 52 49 75c0 16 -15 28 -34 28c-46 0 -84 -54 -97 -138zM454 754l83 -67l-237 -143l-60 11z" />
    <glyph glyph-name="ecircumflex" unicode="&#xea;" horiz-adv-x="509" 
d="M465 166l-34 -130c-74 -34 -135 -49 -207 -49c-132 0 -206 64 -206 178c0 182 148 327 334 327c102 0 166 -41 166 -107c0 -61 -55 -122 -141 -157c-43 -17 -97 -28 -168 -35c1 -34 4 -49 11 -68c10 -29 40 -48 75 -48c63 0 114 27 170 89zM217 258c35 5 56 14 82 35
c30 23 49 52 49 75c0 16 -15 28 -34 28c-46 0 -84 -54 -97 -138zM376 738l145 -173l-42 -24l-128 79l-134 -78l-47 28z" />
    <glyph glyph-name="edieresis" unicode="&#xeb;" horiz-adv-x="509" 
d="M466 166l-34 -130c-74 -34 -135 -49 -207 -49c-132 0 -206 64 -206 178c0 182 148 327 334 327c102 0 166 -41 166 -107c0 -61 -55 -122 -141 -157c-43 -17 -97 -28 -168 -35c1 -34 4 -49 11 -68c10 -29 40 -48 75 -48c63 0 114 27 170 89zM218 258c35 5 56 14 82 35
c30 23 49 52 49 75c0 16 -15 28 -34 28c-46 0 -84 -54 -97 -138zM254 703c39 0 63 -24 63 -64c0 -47 -32 -80 -76 -80c-42 0 -68 26 -68 68c0 45 33 76 81 76zM452 703c40 0 64 -25 64 -64c0 -47 -32 -80 -76 -80c-42 0 -68 26 -68 68c0 45 33 76 80 76z" />
    <glyph glyph-name="egrave" unicode="&#xe8;" horiz-adv-x="509" 
d="M466 166l-34 -130c-74 -34 -135 -49 -207 -49c-132 0 -206 64 -206 178c0 182 148 327 334 327c102 0 166 -41 166 -107c0 -61 -55 -122 -141 -157c-43 -17 -97 -28 -168 -35c1 -34 4 -49 11 -68c10 -29 40 -48 75 -48c63 0 114 27 170 89zM218 258c35 5 56 14 82 35
c30 23 49 52 49 75c0 16 -15 28 -34 28c-46 0 -84 -54 -97 -138zM208 758l203 -193l-51 -20l-232 142z" />
    <glyph glyph-name="iacute" unicode="&#xed;" horiz-adv-x="316" 
d="M304 500l-75 -339c-6 -25 -7 -34 -7 -43c0 -19 11 -30 31 -30c13 0 23 2 42 9l-71 -91c-33 -15 -56 -20 -90 -20c-61 0 -94 33 -94 94c0 23 1 29 13 81l42 190c8 37 12 62 12 77c0 19 -7 33 -26 53c82 1 94 1 150 2c35 2 50 5 73 17zM344 754l83 -67l-237 -143l-60 11z
" />
    <glyph glyph-name="icircumflex" unicode="&#xee;" horiz-adv-x="316" 
d="M242 738l125 -173l-42 -24l-107 79l-114 -78l-47 28zM304 500l-75 -339c-6 -25 -7 -34 -7 -43c0 -19 11 -30 31 -30c13 0 23 2 42 9l-71 -91c-33 -15 -56 -20 -90 -20c-61 0 -94 33 -94 94c0 23 1 29 13 81l42 190c8 37 12 62 12 77c0 19 -7 33 -26 53c82 1 94 1 150 2
c35 2 50 5 73 17z" />
    <glyph glyph-name="idieresis" unicode="&#xef;" horiz-adv-x="316" 
d="M304 500l-75 -339c-6 -25 -7 -34 -7 -43c0 -19 11 -30 31 -30c13 0 23 2 42 9l-71 -91c-33 -15 -56 -20 -90 -20c-61 0 -94 33 -94 94c0 23 1 29 13 81l42 190c8 37 12 62 12 77c0 19 -7 33 -26 53c82 1 94 1 150 2c35 2 50 5 73 17zM144 703c39 0 63 -24 63 -64
c0 -47 -32 -80 -76 -80c-42 0 -68 26 -68 68c0 45 33 76 81 76zM314 703c40 0 64 -24 64 -64c0 -47 -32 -80 -76 -80c-42 0 -68 26 -68 68c0 45 33 76 80 76z" />
    <glyph glyph-name="igrave" unicode="&#xec;" horiz-adv-x="316" 
d="M304 500l-75 -339c-6 -25 -7 -34 -7 -43c0 -19 11 -30 31 -30c13 0 23 2 42 9l-71 -91c-33 -15 -56 -20 -90 -20c-61 0 -94 33 -94 94c0 23 1 29 13 81l42 190c8 37 12 62 12 77c0 19 -7 33 -26 53c82 1 94 1 150 2c35 2 50 5 73 17zM85 755l203 -193l-51 -20l-232 142z
" />
    <glyph glyph-name="ntilde" unicode="&#xf1;" horiz-adv-x="607" 
d="M306 500l-17 -77c54 56 88 74 143 74c78 0 134 -52 134 -124c0 -21 -3 -42 -11 -76l-30 -136c-4 -21 -6 -32 -6 -42c0 -20 11 -31 30 -31c14 0 23 2 42 9l-71 -91c-32 -14 -55 -20 -84 -20c-63 0 -100 35 -100 92c0 25 0 25 13 83l28 126c6 26 8 41 8 52
c0 24 -17 39 -43 39c-44 0 -70 -33 -88 -113l-25 -112c-9 -43 -15 -80 -15 -99c0 -17 4 -31 16 -54h-246c36 34 49 62 69 153l44 198c8 38 12 62 12 77c0 19 -7 33 -26 53c83 0 94 0 150 1c35 2 50 6 73 18zM194 568c31 57 38 68 56 88c18 21 50 35 77 35c23 0 26 -1 89 -20
c33 -11 55 -15 76 -15c37 0 66 11 98 36c-24 -46 -36 -65 -52 -87c-19 -24 -52 -40 -83 -40c-20 0 -27 2 -82 19c-35 11 -62 16 -83 16c-35 0 -64 -10 -96 -32z" />
    <glyph glyph-name="oacute" unicode="&#xf3;" horiz-adv-x="587" 
d="M333 492c151 0 234 -74 234 -207c0 -101 -48 -197 -125 -250c-48 -33 -102 -48 -173 -48c-158 0 -240 70 -240 205c0 92 36 179 96 232c52 46 120 68 208 68zM325 403c-61 0 -112 -104 -112 -228c0 -65 21 -99 60 -99c35 0 61 24 81 77c17 44 29 108 29 155
c0 64 -19 95 -58 95zM479 754l83 -67l-237 -143l-60 11z" />
    <glyph glyph-name="ocircumflex" unicode="&#xf4;" horiz-adv-x="587" 
d="M333 492c151 0 234 -74 234 -207c0 -101 -48 -197 -125 -250c-48 -33 -102 -48 -173 -48c-158 0 -240 70 -240 205c0 92 36 179 96 232c52 46 120 68 208 68zM325 403c-61 0 -112 -104 -112 -228c0 -65 21 -99 60 -99c35 0 61 24 81 77c17 44 29 108 29 155
c0 64 -19 95 -58 95zM371 738l145 -173l-42 -24l-128 79l-134 -78l-47 28z" />
    <glyph glyph-name="odieresis" unicode="&#xf6;" horiz-adv-x="587" 
d="M333 492c151 0 234 -74 234 -207c0 -101 -48 -197 -125 -250c-48 -33 -102 -48 -173 -48c-158 0 -240 70 -240 205c0 92 36 179 96 232c52 46 120 68 208 68zM325 403c-61 0 -112 -104 -112 -228c0 -65 21 -99 60 -99c35 0 61 24 81 77c17 44 29 108 29 155
c0 64 -19 95 -58 95zM265 703c39 0 63 -24 63 -64c0 -47 -32 -80 -76 -80c-42 0 -68 26 -68 68c0 45 33 76 81 76zM463 703c40 0 64 -25 64 -64c0 -47 -32 -80 -76 -80c-42 0 -68 26 -68 68c0 45 33 76 80 76z" />
    <glyph glyph-name="ograve" unicode="&#xf2;" horiz-adv-x="587" 
d="M333 492c151 0 234 -74 234 -207c0 -101 -48 -197 -125 -250c-48 -33 -102 -48 -173 -48c-158 0 -240 70 -240 205c0 92 36 179 96 232c52 46 120 68 208 68zM325 403c-61 0 -112 -104 -112 -228c0 -65 21 -99 60 -99c35 0 61 24 81 77c17 44 29 108 29 155
c0 64 -19 95 -58 95zM220 755l203 -193l-51 -20l-232 142z" />
    <glyph glyph-name="otilde" unicode="&#xf5;" horiz-adv-x="587" 
d="M333 492c151 0 234 -74 234 -207c0 -101 -48 -197 -125 -250c-48 -33 -102 -48 -173 -48c-158 0 -240 70 -240 205c0 92 36 179 96 232c52 46 120 68 208 68zM325 403c-61 0 -112 -104 -112 -228c0 -65 21 -99 60 -99c35 0 61 24 81 77c17 44 29 108 29 155
c0 64 -19 95 -58 95zM163 568c31 57 38 68 56 88c18 21 50 35 77 35c23 0 26 -1 89 -20c33 -11 55 -15 76 -15c37 0 66 11 98 36c-24 -46 -36 -65 -52 -87c-19 -24 -52 -40 -83 -40c-20 0 -27 2 -82 19c-35 11 -62 16 -83 16c-35 0 -64 -10 -96 -32z" />
    <glyph glyph-name="scaron" unicode="&#x161;" horiz-adv-x="469" 
d="M447 468l-14 -111c-47 36 -87 53 -127 53c-33 0 -56 -16 -56 -40c0 -21 14 -38 47 -56c69 -38 82 -47 102 -71c18 -20 27 -46 27 -78c0 -105 -94 -178 -230 -178c-64 0 -123 9 -174 26l1 119c45 -44 92 -63 153 -63c45 0 75 18 75 44c0 19 -16 35 -49 52
c-67 34 -85 46 -107 74c-18 23 -27 49 -27 79c0 107 89 174 229 174c57 0 103 -7 150 -24zM317 657l136 79l46 -30l-205 -166l-145 172l42 23z" />
    <glyph glyph-name="uacute" unicode="&#xfa;" horiz-adv-x="600" 
d="M587 99l-70 -92c-33 -14 -59 -20 -89 -20c-61 0 -94 25 -103 78c-44 -53 -94 -78 -155 -78c-72 0 -126 52 -126 122c0 16 2 27 8 57l41 185c12 57 13 61 13 77c0 19 -7 33 -27 53c84 1 95 1 151 2c35 2 49 5 73 17l-67 -301c-8 -36 -10 -48 -10 -60c0 -22 12 -33 36 -33
c27 0 49 11 62 31c10 16 16 31 25 73l31 141c7 34 12 63 12 77c0 19 -7 33 -26 53c83 1 94 1 151 2c35 2 49 5 73 17l-73 -327c-5 -21 -8 -45 -8 -57c0 -18 10 -27 29 -27c14 0 25 2 49 10zM486 754l83 -67l-237 -143l-60 11z" />
    <glyph glyph-name="ucircumflex" unicode="&#xfb;" horiz-adv-x="600" 
d="M587 99l-70 -92c-33 -14 -59 -20 -89 -20c-61 0 -94 25 -103 78c-44 -53 -94 -78 -155 -78c-72 0 -126 52 -126 122c0 16 2 27 8 57l41 185c12 57 13 61 13 77c0 19 -7 33 -27 53c84 1 95 1 151 2c35 2 49 5 73 17l-67 -301c-8 -36 -10 -48 -10 -60c0 -22 12 -33 36 -33
c27 0 49 11 62 31c10 16 16 31 25 73l31 141c7 34 12 63 12 77c0 19 -7 33 -26 53c83 1 94 1 151 2c35 2 49 5 73 17l-73 -327c-5 -21 -8 -45 -8 -57c0 -18 10 -27 29 -27c14 0 25 2 49 10zM384 738l145 -173l-42 -24l-128 79l-134 -78l-47 28z" />
    <glyph glyph-name="udieresis" unicode="&#xfc;" horiz-adv-x="600" 
d="M587 99l-70 -92c-33 -14 -59 -20 -89 -20c-61 0 -94 25 -103 78c-44 -53 -94 -78 -155 -78c-72 0 -126 52 -126 122c0 16 2 27 8 57l41 185c12 57 13 61 13 77c0 19 -7 33 -27 53c84 1 95 1 151 2c35 2 49 5 73 17l-67 -301c-8 -36 -10 -48 -10 -60c0 -22 12 -33 36 -33
c27 0 49 11 62 31c10 16 16 31 25 73l31 141c7 34 12 63 12 77c0 19 -7 33 -26 53c83 1 94 1 151 2c35 2 49 5 73 17l-73 -327c-5 -21 -8 -45 -8 -57c0 -18 10 -27 29 -27c14 0 25 2 49 10zM285 703c39 0 63 -24 63 -64c0 -47 -32 -80 -76 -80c-42 0 -68 26 -68 68
c0 45 33 76 81 76zM483 703c40 0 64 -25 64 -64c0 -47 -32 -80 -76 -80c-42 0 -68 26 -68 68c0 45 33 76 80 76z" />
    <glyph glyph-name="ugrave" unicode="&#xf9;" horiz-adv-x="600" 
d="M587 99l-70 -92c-33 -14 -59 -20 -89 -20c-61 0 -94 25 -103 78c-44 -53 -94 -78 -155 -78c-72 0 -126 52 -126 122c0 16 2 27 8 57l41 185c12 57 13 61 13 77c0 19 -7 33 -27 53c84 1 95 1 151 2c35 2 49 5 73 17l-67 -301c-8 -36 -10 -48 -10 -60c0 -22 12 -33 36 -33
c27 0 49 11 62 31c10 16 16 31 25 73l31 141c7 34 12 63 12 77c0 19 -7 33 -26 53c83 1 94 1 151 2c35 2 49 5 73 17l-73 -327c-5 -21 -8 -45 -8 -57c0 -18 10 -27 29 -27c14 0 25 2 49 10zM227 755l203 -193l-51 -20l-232 142z" />
    <glyph glyph-name="yacute" unicode="&#xfd;" horiz-adv-x="574" 
d="M581 500l-98 -444c-23 -103 -43 -151 -80 -197c-44 -54 -115 -83 -200 -83c-118 0 -206 51 -206 121c0 47 36 80 86 80c29 0 52 -9 74 -27c-17 -8 -26 -21 -26 -38c0 -25 25 -42 62 -42c43 0 69 21 89 72c7 17 14 46 28 107l7 35c-44 -48 -93 -69 -156 -69
c-77 0 -122 37 -122 100c0 23 2 41 11 79l35 157c11 57 12 61 12 77c0 19 -7 34 -26 53c84 1 92 1 147 2c35 2 49 5 73 17l-61 -273c-7 -30 -10 -50 -10 -61c0 -21 13 -32 37 -32c52 0 71 22 89 104l25 113c16 72 16 72 16 84c0 17 -8 30 -30 46c91 1 98 1 152 2
c38 2 51 5 72 17zM473 754l83 -67l-237 -143l-60 11z" />
    <glyph glyph-name="ydieresis" unicode="&#xff;" horiz-adv-x="574" 
d="M581 500l-98 -444c-23 -103 -43 -151 -80 -197c-44 -54 -115 -83 -200 -83c-118 0 -206 51 -206 121c0 47 36 80 86 80c29 0 52 -9 74 -27c-17 -8 -26 -21 -26 -38c0 -25 25 -42 62 -42c43 0 69 21 89 72c7 17 14 46 28 107l7 35c-44 -48 -93 -69 -156 -69
c-77 0 -122 37 -122 100c0 23 2 41 11 79l35 157c11 57 12 61 12 77c0 19 -7 34 -26 53c84 1 92 1 147 2c35 2 49 5 73 17l-61 -273c-7 -30 -10 -50 -10 -61c0 -21 13 -32 37 -32c52 0 71 22 89 104l25 113c16 72 16 72 16 84c0 17 -8 30 -30 46c91 1 98 1 152 2
c38 2 51 5 72 17zM265 703c39 0 63 -24 63 -64c0 -47 -32 -80 -76 -80c-42 0 -68 26 -68 68c0 45 33 76 81 76zM463 703c40 0 64 -25 64 -64c0 -47 -32 -80 -76 -80c-42 0 -68 26 -68 68c0 45 33 76 80 76z" />
    <glyph glyph-name="zcaron" unicode="&#x17e;" horiz-adv-x="504" 
d="M126 479h423l-323 -322h15c10 0 24 -1 41 -2c26 -3 46 -4 56 -4c46 0 93 10 145 32l-109 -188c-34 -3 -50 -4 -72 -4c-30 0 -39 1 -124 8c-40 4 -64 5 -96 5c-60 0 -93 -2 -134 -7l328 327c-27 3 -53 4 -74 4c-63 0 -105 -11 -149 -37zM344 657l136 79l46 -30l-205 -166
l-145 172l42 23z" />
    <glyph glyph-name="uni00A0" unicode="&#xa0;" horiz-adv-x="245" 
 />
    <glyph glyph-name="uni00AD" unicode="&#xad;" horiz-adv-x="365" 
d="M114 287h95c75 0 102 4 144 23l-91 -119h-48c-116 0 -140 -3 -193 -23z" />
    <glyph glyph-name="uni02C9" unicode="&#x2c9;" horiz-adv-x="521" 
d="M195 671h297l-18 -83h-297z" />
    <glyph glyph-name="uni03A9" unicode="&#x3a9;" horiz-adv-x="805" 
d="M754 0h-312v149c64 55 113 121 113 229c0 95 -57 172 -152 172c-87 0 -160 -66 -160 -179c0 -107 60 -175 112 -222v-149h-313v149h170c-84 45 -170 125 -170 266c0 172 141 297 360 297c247 0 354 -142 354 -294c0 -125 -69 -213 -177 -269h175v-149z" />
    <glyph glyph-name="uni03BC" unicode="&#x3bc;" horiz-adv-x="603" 
d="M129 -214h-157l121 565c11 57 12 61 12 77c0 19 -7 34 -26 53c83 1 96 1 153 2c35 2 50 5 73 17l-67 -301c-8 -38 -10 -48 -10 -61c0 -20 13 -32 36 -32c19 0 38 8 51 21c15 15 23 35 33 83l32 141c11 57 12 60 12 77c0 19 -7 33 -26 53c83 1 96 1 153 2c35 2 50 5 73 17
l-73 -327c-6 -28 -8 -43 -8 -56c0 -19 10 -28 29 -28c14 0 25 2 50 10l-71 -92c-31 -13 -60 -20 -91 -20c-60 0 -93 25 -103 78c-43 -53 -86 -78 -131 -78c-20 0 -33 4 -50 16z" />
    <glyph glyph-name="pi" unicode="&#x3c0;" horiz-adv-x="806" 
d="M727 130l30 -114c-28 -17 -68 -27 -127 -27c-129 0 -173 84 -173 182v199h-98v-209c0 -78 -8 -124 -25 -161h-190c18 42 29 108 29 175v195c-29 0 -73 -11 -96 -26c-9 22 -40 92 -49 113c29 20 95 43 184 43h535v-130h-104v-171c0 -46 9 -80 45 -80c19 0 29 6 39 11z" />
    <glyph glyph-name="Euro" unicode="&#x20ac;" 
d="M679 681l-17 -147c-39 54 -100 81 -134 81c-83 0 -133 -78 -163 -174h208l-14 -61h-210c-4 -18 -8 -37 -11 -55h211l-14 -61h-204c-4 -32 -5 -56 -5 -77c0 -85 61 -107 99 -107c68 0 133 24 221 78l-74 -134c-59 -27 -113 -38 -182 -38c-63 0 -128 16 -170 45
c-60 43 -89 114 -89 217v16h-81l14 61h72c2 19 5 37 9 55h-71l14 61h73c28 81 74 146 133 194c63 51 159 74 233 74c43 0 90 -7 152 -28z" />
    <glyph glyph-name="litre" unicode="&#x2113;" horiz-adv-x="564" 
d="M494 48c-40 -32 -107 -66 -181 -66c-54 0 -93 14 -124 46c-35 35 -48 100 -48 142v22c-18 -15 -36 -31 -54 -46c-15 27 -29 54 -44 81c33 29 65 56 98 84v167c0 141 60 250 193 250c96 0 139 -67 139 -139c0 -96 -53 -173 -133 -250c-12 -11 -28 -28 -35 -35v-100
c0 -76 26 -99 63 -99c34 0 63 21 77 34c16 -30 33 -60 49 -91zM373 566c0 24 -9 39 -29 39c-26 0 -39 -38 -39 -78v-103c3 4 11 11 16 17c35 40 52 89 52 125z" />
    <glyph glyph-name="Omega" unicode="&#x2126;" horiz-adv-x="805" 
d="M754 0h-312v149c64 55 113 121 113 229c0 95 -57 172 -152 172c-87 0 -160 -66 -160 -179c0 -107 60 -175 112 -222v-149h-313v149h170c-84 45 -170 125 -170 266c0 172 141 297 360 297c247 0 354 -142 354 -294c0 -125 -69 -213 -177 -269h175v-149z" />
    <glyph glyph-name="estimated" unicode="&#x212e;" horiz-adv-x="717" 
d="M667 320h-493v-221c48 -46 106 -72 175 -72c120 0 186 63 238 146c13 -8 25 -16 38 -23c-63 -96 -137 -162 -276 -162c-189 0 -311 151 -311 333c0 183 118 332 314 332c197 0 312 -151 315 -333zM528 359v183c-44 42 -109 72 -176 72c-69 0 -131 -24 -178 -71v-184h354z
" />
    <glyph glyph-name="partialdiff" unicode="&#x2202;" horiz-adv-x="670" 
d="M625 445c0 -63 -8 -126 -26 -185c-54 -174 -159 -272 -314 -272c-143 0 -237 95 -237 215c0 194 134 284 255 284c63 0 112 -24 139 -59h2c2 11 2 21 2 33c0 80 -38 141 -125 141c-36 0 -75 -13 -107 -33c-12 39 -24 78 -35 117c36 28 104 49 179 49
c186 0 267 -130 267 -290zM421 310c-11 34 -35 56 -71 56c-68 0 -117 -86 -117 -167c0 -47 25 -74 63 -74c67 0 109 92 125 185z" />
    <glyph glyph-name="Delta" unicode="&#x2206;" horiz-adv-x="727" 
d="M733 0h-713v73c79 209 157 418 236 627h247c76 -209 154 -418 230 -627v-73zM512 149c-40 115 -81 230 -122 346c-10 29 -14 59 -16 68h-5c-2 -9 -6 -35 -17 -65c-41 -116 -82 -233 -123 -349h283z" />
    <glyph glyph-name="product" unicode="&#x220f;" horiz-adv-x="840" 
d="M768 -230h-190v768h-316v-768h-189v930h695v-930z" />
    <glyph glyph-name="summation" unicode="&#x2211;" horiz-adv-x="731" 
d="M689 -230h-672v104c104 122 206 243 310 366c-99 116 -197 234 -295 350v110h637v-149h-385c84 -102 167 -204 251 -307c-89 -108 -177 -217 -266 -325h420v-149z" />
    <glyph glyph-name="uni2215" unicode="&#x2215;" horiz-adv-x="146" 
d="M284 695h100l-472 -695h-99z" />
    <glyph glyph-name="uni2219" unicode="&#x2219;" horiz-adv-x="324" 
d="M178 348c55 0 90 -33 90 -87c0 -65 -43 -111 -104 -111c-57 0 -94 38 -94 96c0 60 44 102 108 102z" />
    <glyph glyph-name="radical" unicode="&#x221a;" horiz-adv-x="640" 
d="M636 729l-243 -741h-119c-46 97 -91 193 -136 289c-22 -13 -43 -25 -65 -38c-15 28 -30 55 -45 83c60 37 121 73 182 110c40 -92 82 -183 123 -275c61 190 124 382 185 572h118z" />
    <glyph glyph-name="infinity" unicode="&#x221e;" horiz-adv-x="926" 
d="M866 294c0 -122 -88 -198 -203 -198c-78 0 -152 37 -201 106h-2c-39 -54 -115 -106 -201 -106c-120 0 -207 75 -207 194c0 124 93 196 205 196c83 0 155 -42 203 -107h2c35 50 105 107 198 107c123 0 206 -79 206 -192zM733 291c0 40 -27 76 -85 76
c-45 0 -86 -27 -120 -76c31 -45 72 -77 124 -77s81 36 81 77zM390 291c-30 41 -72 77 -123 77c-47 0 -82 -32 -82 -76c0 -45 34 -78 87 -78c44 0 87 32 118 77z" />
    <glyph glyph-name="integral" unicode="&#x222b;" horiz-adv-x="559" 
d="M476 602c-8 4 -29 12 -52 12c-34 0 -62 -22 -62 -74v-549c0 -147 -75 -232 -218 -232c-39 0 -92 8 -118 21c11 42 23 85 34 128c13 -6 32 -12 51 -12c38 0 64 24 64 74v546c0 150 70 235 214 235c51 0 102 -11 124 -22c-12 -43 -24 -84 -37 -127z" />
    <glyph glyph-name="approxequal" unicode="&#x2248;" 
d="M595 423c-41 -56 -85 -92 -155 -92c-38 0 -79 11 -117 32c-29 18 -63 33 -98 33c-43 0 -73 -39 -93 -67l-64 73c38 51 80 91 154 91c44 0 83 -13 116 -31c34 -19 66 -34 99 -34c42 0 72 36 94 68zM595 192c-41 -56 -85 -91 -155 -91c-38 0 -79 10 -117 32
c-29 17 -63 33 -98 33c-43 0 -73 -39 -93 -68l-64 74c38 51 80 91 154 91c44 0 83 -13 116 -31c34 -20 66 -34 99 -34c42 0 72 36 94 68z" />
    <glyph glyph-name="notequal" unicode="&#x2260;" 
d="M567 134h-266l-57 -112h-106l56 112h-97v97h147l67 135h-214v97h263l64 127h106l-64 -127h101v-97h-150l-67 -135h217v-97z" />
    <glyph glyph-name="lessequal" unicode="&#x2264;" 
d="M567 0h-470v97h470v-97zM567 142l-470 190v86l470 190v-102l-337 -130v-2l337 -131v-101z" />
    <glyph glyph-name="greaterequal" unicode="&#x2265;" 
d="M567 0h-470v97h470v-97zM567 332l-470 -190v103l337 130v2l-337 130v102l470 -191v-86z" />
    <glyph glyph-name="lozenge" unicode="&#x25ca;" 
d="M597 350c-79 -117 -157 -233 -235 -350h-82c-78 116 -157 233 -235 349c78 117 157 234 235 351h82c78 -117 156 -233 235 -350zM466 350c-49 73 -97 146 -145 219c-48 -73 -97 -146 -146 -219c49 -73 98 -146 146 -219c48 73 96 146 145 219z" />
    <glyph glyph-name="zero.oldstyle" unicode="&#xf730;" horiz-adv-x="647" 
d="M355 494c80 0 152 -24 198 -67c42 -38 63 -93 63 -166c0 -173 -118 -276 -315 -276c-73 0 -128 15 -177 49c-60 43 -88 99 -88 181c0 171 124 279 319 279zM349 400c-69 0 -121 -93 -121 -214c0 -67 28 -107 76 -107c69 0 120 90 120 213c0 72 -25 108 -75 108z" />
    <glyph glyph-name="one.oldstyle" unicode="&#xf731;" horiz-adv-x="394" 
d="M144 320l-113 38c162 28 243 69 350 174l-89 -399c-12 -53 -13 -61 -13 -76c0 -20 8 -34 33 -57h-288c51 31 59 44 79 133z" />
    <glyph glyph-name="two.oldstyle" unicode="&#xf732;" horiz-adv-x="602" 
d="M560 130l-70 -130h-514c53 35 141 98 202 143c128 93 162 130 162 175c0 36 -35 64 -81 64c-50 0 -104 -17 -180 -57l59 132c59 25 118 37 184 37c130 0 215 -66 215 -168c0 -86 -52 -144 -209 -233c124 2 163 8 232 37z" />
    <glyph glyph-name="three.oldstyle" unicode="&#xf733;" horiz-adv-x="588" 
d="M86 118l23 100c30 -6 47 -8 74 -8c102 0 163 39 163 105c0 52 -44 85 -112 85c-52 0 -98 -16 -151 -51l62 129c39 11 85 16 145 16c163 0 251 -59 251 -168c0 -54 -27 -104 -72 -131c-34 -20 -63 -28 -123 -32c46 -11 66 -19 89 -37c36 -28 56 -73 56 -126
c0 -140 -129 -228 -334 -228c-68 0 -120 8 -177 27l-22 121c53 -38 102 -54 166 -54c103 0 172 56 172 139c0 76 -55 116 -158 116c-19 0 -30 -1 -52 -3z" />
    <glyph glyph-name="four.oldstyle" unicode="&#xf734;" horiz-adv-x="666" 
d="M431 -213h-172l47 213h-332l387 479h232c-11 -25 -14 -37 -38 -134l-56 -252h15c54 0 80 7 132 35l-66 -128h-101zM327 93l64 290l-228 -290h164z" />
    <glyph glyph-name="five.oldstyle" unicode="&#xf735;" horiz-adv-x="588" 
d="M498 301h-304l-23 -100c36 8 70 11 112 11c144 0 229 -67 229 -180c0 -66 -28 -135 -72 -178c-52 -53 -140 -82 -243 -82c-72 0 -128 11 -195 39l-30 134c84 -55 130 -72 194 -72c89 0 151 54 151 129s-62 123 -160 123c-34 0 -62 -4 -98 -15l84 376c15 -2 66 -5 91 -5
h172c61 0 107 6 154 19z" />
    <glyph glyph-name="six.oldstyle" unicode="&#xf736;" horiz-adv-x="662" 
d="M629 709l-39 -80c-77 0 -139 -22 -197 -68c-93 -75 -154 -215 -154 -354c0 -79 29 -123 81 -123c61 0 107 79 107 183c0 60 -31 96 -83 96c-16 0 -28 -3 -50 -12l49 80c29 11 51 14 86 14c119 0 193 -74 193 -192c0 -155 -127 -263 -309 -263c-167 0 -269 92 -269 243
c0 138 79 277 209 366c102 70 227 107 376 110z" />
    <glyph glyph-name="seven.oldstyle" unicode="&#xf737;" horiz-adv-x="590" 
d="M138 481h502l-389 -604c-15 -24 -21 -37 -21 -49c0 -11 4 -20 18 -42h-272l389 590c-66 5 -81 6 -115 6c-90 0 -137 -10 -183 -40z" />
    <glyph glyph-name="eight.oldstyle" unicode="&#xf738;" horiz-adv-x="673" 
d="M516 377c70 -46 101 -99 101 -170c0 -141 -113 -221 -312 -221c-173 0 -272 68 -272 187c0 90 51 150 167 194c-42 42 -58 80 -58 135c0 130 104 207 282 207c148 0 235 -61 235 -165c0 -47 -18 -91 -49 -121c-23 -22 -47 -33 -94 -46zM450 420c44 26 64 58 64 101
c0 56 -36 94 -89 94c-48 0 -81 -30 -81 -74c0 -47 31 -82 106 -121zM259 315c-57 -28 -81 -62 -81 -115c0 -72 52 -119 131 -119c64 0 106 31 106 78c0 36 -17 58 -76 101c-57 41 -57 41 -80 55z" />
    <glyph glyph-name="nine.oldstyle" unicode="&#xf739;" horiz-adv-x="673" 
d="M43 -225l40 80c77 1 139 22 197 69c92 74 153 214 153 353c0 79 -29 123 -81 123c-61 0 -107 -79 -107 -182c0 -61 31 -96 84 -96c16 0 28 2 50 11l-49 -80c-28 -10 -53 -14 -88 -14c-49 0 -90 13 -125 40c-46 36 -67 82 -67 152c0 155 127 263 309 263
c168 0 269 -92 269 -243c0 -138 -79 -277 -209 -366c-102 -70 -228 -107 -376 -110z" />
    </font>
</defs>
</svg>
