<?xml version="1.0" standalone="no"?>
<!DOCTYPE svg PUBLIC "-//W3C//DTD SVG 1.1//EN" "http://www.w3.org/Graphics/SVG/1.1/DTD/svg11.dtd" >
<svg xmlns="http://www.w3.org/2000/svg" xmlns:xlink="http://www.w3.org/1999/xlink" version="1.1">
<metadata>
Created by FontForge 20201107 at Wed Feb 23 07:37:57 2005
 By Jimmy Wärting
Copyright 1997 International Typeface Corporation. All rights reserved. "Fritz Quadrata" is a trademark of International Typeface Corporation and may be registered in certain jurisdictions.
</metadata>
<defs>
<font id="FrizQuadrataStd-Italic" horiz-adv-x="632" >
  <font-face 
    font-family="Friz Quadrata Std"
    font-weight="400"
    font-style="italic"
    font-stretch="normal"
    units-per-em="1000"
    panose-1="2 0 5 3 6 0 0 9 0 4"
    ascent="800"
    descent="-200"
    x-height="472"
    cap-height="695"
    bbox="-187 -250 1037 953"
    underline-thickness="63"
    underline-position="-102"
    slope="-12"
    stemh="50"
    stemv="95"
    unicode-range="U+0020-FB02"
  />
<missing-glyph horiz-adv-x="500" 
d="M12 0v665h475v-665h-475zM88 618l162 -243l161 243h-323zM60 575v-484c0 -1 161 242 161 242zM440 575l-162 -242l162 -243v485zM411 48l-161 242l-162 -242h323z" />
    <glyph glyph-name="f_i" unicode="fi" horiz-adv-x="546" 
d="M225 474h147c103 0 103 0 142 21l-69 -324c-9 -42 -12 -61 -12 -77c0 -25 15 -40 41 -40c14 0 26 3 42 10l-65 -71c-14 -2 -22 -3 -33 -3c-50 0 -79 27 -79 74c0 17 0 17 9 58l61 286h-196l-50 -265c-47 -254 -111 -357 -220 -357c-24 0 -42 3 -66 12l51 62
c12 -7 20 -9 31 -9c55 0 78 58 120 297l46 260h-54l66 66c21 98 37 136 70 171c38 40 93 60 162 60c25 0 40 -2 65 -8l-62 -73c-13 14 -23 19 -39 19c-21 0 -45 -11 -61 -27c-19 -20 -29 -45 -38 -96zM508 681c29 0 47 -22 47 -56c0 -47 -28 -83 -64 -83
c-31 0 -48 19 -48 55c0 49 28 84 65 84z" />
    <glyph glyph-name="f_l" unicode="fl" horiz-adv-x="545" 
d="M126 408h-54l66 67c21 96 37 135 70 170c39 41 95 60 175 60c31 0 33 0 95 -7c9 -1 17 -1 24 -1c20 0 35 5 60 20l-117 -546c-8 -39 -12 -62 -12 -78c0 -24 15 -39 41 -39c14 0 26 3 42 10l-65 -71c-15 -2 -22 -3 -33 -3c-50 0 -79 27 -79 73c0 17 0 17 9 59l109 507
c-28 10 -51 14 -83 14c-85 0 -118 -30 -138 -123l-10 -46h62c38 0 49 2 63 10l-23 -105c-14 23 -24 29 -52 29h-62l-50 -265c-47 -254 -111 -357 -220 -357c-24 0 -42 3 -66 12l51 62c12 -7 20 -9 31 -9c55 0 78 58 120 297z" />
    <glyph glyph-name=".notdef" horiz-adv-x="500" 
d="M12 0v665h475v-665h-475zM88 618l162 -243l161 243h-323zM60 575v-484c0 -1 161 242 161 242zM440 575l-162 -242l162 -243v485zM411 48l-161 242l-162 -242h323z" />
    <glyph glyph-name="space" unicode=" " horiz-adv-x="247" 
 />
    <glyph glyph-name="exclam" unicode="!" horiz-adv-x="421" 
d="M363 695l-126 -465c-6 -22 -8 -32 -8 -40c0 -6 1 -12 5 -23h-79c12 15 14 20 22 72l64 364c4 23 5 31 5 39c0 21 -7 33 -29 53h146zM179 125c27 0 44 -21 44 -54c0 -45 -26 -80 -60 -80c-28 0 -45 20 -45 54c0 46 26 80 61 80z" />
    <glyph glyph-name="quotedbl" unicode="&#x22;" 
d="M305 416h-66l44 279h98zM469 416h-66l44 279h98z" />
    <glyph glyph-name="numbersign" unicode="#" horiz-adv-x="656" 
d="M320 489h144l62 206h65l-61 -206h149l-18 -61h-150l-48 -164h149l-18 -61h-148l-61 -203h-65l60 203h-145l-60 -203h-65l59 203h-146l18 61h146l49 164h-146l17 61h147l62 206h65zM301 428l-48 -164h145l49 164h-146z" />
    <glyph glyph-name="dollar" unicode="$" horiz-adv-x="548" 
d="M360 699l21 100h46l-21 -100c50 -3 82 -10 123 -25l-12 -132c-17 47 -66 81 -126 87l-49 -224c9 -6 19 -12 28 -17c70 -44 97 -67 114 -97c13 -25 20 -51 20 -80c0 -82 -50 -151 -134 -183c-33 -13 -66 -20 -113 -23l-21 -98h-46l21 97c-46 1 -97 11 -142 30l-26 137
c45 -51 117 -88 183 -94l56 258c-106 62 -142 106 -142 176c0 71 46 137 117 167c27 12 58 18 103 21zM322 310l-50 -233c88 8 136 51 136 122c0 44 -17 66 -86 111zM303 433l42 196c-68 -10 -107 -46 -107 -99c0 -38 15 -60 65 -97z" />
    <glyph glyph-name="percent" unicode="%" horiz-adv-x="707" 
d="M258 705c73 0 121 -48 121 -121c0 -115 -74 -204 -169 -204c-75 0 -124 48 -124 122c0 80 42 161 97 187c21 10 48 16 75 16zM250 655c-52 0 -92 -66 -92 -152c0 -43 23 -72 58 -72c52 0 92 67 92 155c0 43 -22 69 -58 69zM587 692h63l-488 -692h-63zM544 316
c73 0 122 -48 122 -121c0 -115 -74 -204 -170 -204c-76 0 -124 48 -124 122c0 80 42 161 97 187c21 11 48 16 75 16zM535 265c-51 0 -91 -65 -91 -152c0 -43 23 -72 58 -72c53 0 92 67 92 156c0 42 -22 68 -59 68z" />
    <glyph glyph-name="ampersand" unicode="&#x26;" horiz-adv-x="696" 
d="M384 397c216 -357 283 -436 387 -459c-31 -14 -58 -21 -88 -21c-46 0 -85 21 -130 70c-20 22 -34 41 -75 100c-56 -68 -121 -99 -210 -99c-128 0 -217 78 -217 191c0 72 34 128 108 175c22 15 41 24 108 57c-46 76 -58 107 -58 145c0 88 80 151 192 151
c99 0 160 -48 160 -126c0 -77 -50 -129 -177 -184zM352 453c81 40 107 69 107 119c0 42 -30 70 -76 70c-49 0 -85 -32 -85 -75c0 -24 18 -61 54 -114zM302 356c-49 -23 -63 -31 -86 -46c-43 -28 -66 -69 -66 -115c0 -79 62 -136 148 -136c64 0 109 20 152 66
c-39 58 -63 95 -148 231z" />
    <glyph glyph-name="quoteright" unicode="&#x2019;" horiz-adv-x="284" 
d="M126 472l-18 23c51 12 87 36 112 76c-24 7 -36 25 -36 54c0 46 29 82 67 82c27 0 44 -21 44 -54c0 -38 -20 -81 -56 -118c-33 -34 -63 -51 -113 -63z" />
    <glyph glyph-name="parenleft" unicode="(" horiz-adv-x="303" 
d="M341 697h63c-156 -162 -239 -361 -239 -570c0 -102 17 -180 58 -272h-53c-57 100 -92 227 -92 332c0 129 37 236 123 353c44 62 89 111 140 157z" />
    <glyph glyph-name="parenright" unicode=")" horiz-adv-x="303" 
d="M-23 -145h-62c151 151 239 361 239 569c0 103 -16 177 -59 273h54c59 -108 92 -227 92 -333c0 -129 -37 -234 -123 -353c-48 -66 -91 -114 -141 -156z" />
    <glyph glyph-name="asterisk" unicode="*" 
d="M369 695h96l-39 -64l-21 -81l89 38l43 36l19 -91h-71l-75 -18l47 -70l39 -33l-84 -51l-6 58l-30 84l-72 -81l-33 -61l-57 80l60 23l71 55l-77 20l-67 -6l53 96l46 -47l67 -32l11 94z" />
    <glyph glyph-name="plus" unicode="+" 
d="M571 386v-69h-196v-201h-69v201h-197v69h197v201h69v-201h196z" />
    <glyph glyph-name="comma" unicode="," horiz-adv-x="284" 
d="M1 -108l-18 23c52 11 87 35 112 75c-24 8 -36 26 -36 54c0 47 29 83 67 83c27 0 44 -21 44 -54c0 -38 -20 -81 -56 -118c-33 -35 -63 -52 -113 -63z" />
    <glyph glyph-name="hyphen" unicode="-" horiz-adv-x="355" 
d="M91 284h124c53 0 78 4 119 20l-67 -85h-125c-44 0 -75 -5 -116 -20z" />
    <glyph glyph-name="period" unicode="." horiz-adv-x="284" 
d="M114 132c28 0 46 -22 46 -56c0 -48 -28 -85 -64 -85c-30 0 -47 21 -47 57c0 49 27 84 65 84z" />
    <glyph glyph-name="slash" unicode="/" horiz-adv-x="527" 
d="M508 735h75l-523 -780h-76z" />
    <glyph glyph-name="zero" unicode="0" 
d="M397 705c149 0 235 -93 235 -253c0 -129 -46 -267 -119 -356c-59 -72 -139 -110 -231 -110c-148 0 -237 98 -237 261c0 143 60 297 148 381c54 52 121 77 204 77zM383 637c-64 0 -122 -39 -165 -111c-39 -64 -70 -193 -70 -286c0 -112 57 -182 148 -182
c130 0 233 174 233 394c0 120 -51 185 -146 185z" />
    <glyph glyph-name="one" unicode="1" 
d="M335 545h-162c96 18 224 94 296 177l-132 -616c-5 -21 -7 -41 -7 -59c0 -27 9 -40 33 -47h-193c36 8 55 35 71 106z" />
    <glyph glyph-name="two" unicode="2" 
d="M447 0h-458c151 145 187 182 314 316c103 109 134 158 134 210c0 59 -50 99 -123 99c-52 0 -83 -9 -161 -47l47 104c53 15 100 23 142 23c120 0 196 -65 196 -168c0 -55 -23 -104 -75 -162c-37 -41 -81 -85 -182 -184c-62 -61 -76 -75 -106 -107c56 -4 116 -6 158 -6
c77 0 124 10 204 43z" />
    <glyph glyph-name="three" unicode="3" 
d="M181 327l18 84c33 -6 52 -8 79 -8c109 0 174 45 174 120c0 63 -47 105 -118 105c-54 0 -109 -18 -168 -56l54 108c58 17 93 23 135 23c121 0 196 -62 196 -160c0 -54 -24 -105 -63 -135c-29 -22 -55 -33 -108 -45c46 -7 67 -16 93 -40c32 -28 46 -61 46 -109
c0 -72 -33 -135 -90 -172c-55 -36 -129 -56 -204 -56c-46 0 -95 7 -164 23l-29 113c63 -40 130 -61 194 -61c119 0 190 56 190 148c0 81 -59 123 -175 123c-25 0 -35 -1 -60 -5z" />
    <glyph glyph-name="four" unicode="4" 
d="M362 159h-366l444 536h128l-99 -461h27c51 0 73 6 117 31l-61 -106h-99l-11 -53c-5 -21 -7 -41 -7 -58c0 -28 9 -41 33 -48h-189c36 8 55 34 71 106zM383 234l88 393l-328 -393h240z" />
    <glyph glyph-name="five" unicode="5" 
d="M280 602l-43 -197c46 13 75 18 108 18c121 0 198 -70 198 -179c0 -147 -129 -257 -301 -257c-49 0 -104 8 -152 22l-47 121c61 -41 144 -68 209 -68c110 0 188 65 188 157c0 81 -61 133 -156 133c-39 0 -64 -5 -137 -30l79 368h236c79 0 111 6 146 29l-46 -117h-282z" />
    <glyph glyph-name="six" unicode="6" 
d="M206 333l53 89c38 17 71 24 115 24c126 0 211 -83 211 -205c0 -147 -114 -256 -270 -256c-145 0 -246 100 -246 244c0 152 92 307 234 393c86 53 178 78 298 82l-40 -62c-213 -7 -389 -185 -389 -395c0 -114 63 -187 162 -187c91 0 153 65 153 160c0 91 -61 154 -150 154
c-45 0 -88 -13 -131 -41z" />
    <glyph glyph-name="seven" unicode="7" 
d="M651 695l-374 -595c-27 -42 -36 -60 -36 -72c0 -10 7 -18 22 -28h-154l385 613c-38 7 -88 11 -153 11c-82 0 -150 -21 -203 -63l84 134h429z" />
    <glyph glyph-name="eight" unicode="8" 
d="M437 376c44 -24 62 -37 83 -59c28 -29 46 -75 46 -118c0 -52 -27 -111 -68 -146c-49 -43 -125 -67 -209 -67c-69 0 -133 16 -176 44c-45 28 -74 83 -74 137c0 90 56 146 204 204c-66 40 -98 88 -98 147c0 106 104 186 242 186c129 0 218 -65 218 -159
c0 -75 -53 -129 -168 -169zM382 407c82 32 122 75 122 131c0 64 -49 105 -125 105c-77 0 -134 -44 -134 -105c0 -49 40 -87 137 -131zM296 344c-52 -29 -68 -39 -95 -59c-39 -30 -62 -70 -62 -109c0 -38 23 -79 58 -101c26 -18 59 -26 101 -26c101 0 167 52 167 130
c0 65 -38 102 -169 165z" />
    <glyph glyph-name="nine" unicode="9" 
d="M470 355l-52 -88c-38 -18 -71 -25 -116 -25c-125 0 -211 83 -211 205c0 148 115 257 270 257c145 0 246 -100 246 -244c0 -152 -92 -307 -234 -393c-86 -53 -178 -78 -298 -82l40 61c98 4 192 42 263 107c79 74 129 184 129 289c0 114 -64 187 -164 187
c-90 0 -153 -65 -153 -159c0 -91 61 -155 147 -155c47 0 91 13 133 40z" />
    <glyph glyph-name="colon" unicode=":" horiz-adv-x="284" 
d="M114 132c28 0 46 -22 46 -56c0 -48 -28 -85 -64 -85c-30 0 -47 21 -47 57c0 49 27 84 65 84zM202 502c28 0 46 -22 46 -56c0 -48 -28 -85 -63 -85c-31 0 -48 21 -48 58c0 48 27 83 65 83z" />
    <glyph glyph-name="semicolon" unicode=";" horiz-adv-x="284" 
d="M212 502c28 0 46 -22 46 -56c0 -48 -28 -85 -63 -85c-31 0 -48 21 -48 57c0 49 27 84 65 84zM1 -108l-18 23c52 11 87 35 112 75c-24 8 -36 26 -36 54c0 47 29 83 67 83c27 0 44 -21 44 -54c0 -38 -20 -81 -56 -118c-33 -35 -63 -52 -113 -63z" />
    <glyph glyph-name="less" unicode="&#x3c;" horiz-adv-x="521" 
d="M486 610v-100l-346 -162l346 -163v-99l-452 219v86z" />
    <glyph glyph-name="equal" unicode="=" 
d="M571 463v-69h-462v69h462zM571 309v-69h-462v69h462z" />
    <glyph glyph-name="greater" unicode="&#x3e;" horiz-adv-x="521" 
d="M81 610l452 -219v-86l-452 -219v99l345 163l-345 162v100z" />
    <glyph glyph-name="question" unicode="?" horiz-adv-x="450" 
d="M183 167h-83c0 97 35 147 145 207c97 53 126 86 126 145c0 66 -54 115 -128 115c-48 0 -94 -14 -145 -43l40 95c60 16 95 21 137 21c119 0 196 -68 196 -173c0 -46 -14 -86 -42 -118c-27 -31 -27 -31 -143 -94c-71 -39 -104 -81 -104 -134c0 -5 0 -13 1 -21zM134 125
c27 0 44 -21 44 -53c0 -46 -26 -81 -60 -81c-28 0 -45 20 -45 54c0 46 26 80 61 80z" />
    <glyph glyph-name="at" unicode="@" horiz-adv-x="753" 
d="M639 125l-14 -65c-63 -40 -156 -64 -247 -64c-81 0 -160 32 -217 86c-63 61 -95 143 -95 243c0 223 158 378 386 378c188 0 299 -97 299 -261c0 -150 -103 -283 -218 -283c-47 0 -80 28 -80 67c0 15 5 45 12 68l46 152c-17 19 -39 27 -73 27c-72 0 -131 -68 -131 -151
c0 -54 28 -82 84 -82c19 0 29 2 50 8l-48 -63c-19 -6 -28 -7 -42 -7c-72 0 -120 52 -120 129s41 155 102 196c31 21 69 32 112 32c22 0 43 -3 65 -9c34 -9 35 -9 48 -9c17 0 26 3 48 17l-69 -231c-6 -19 -10 -40 -10 -49c0 -18 15 -30 37 -30c26 0 45 11 66 40
c35 50 54 110 54 174c0 129 -91 207 -239 207c-91 0 -177 -33 -231 -89c-50 -53 -81 -135 -81 -219c0 -170 112 -281 284 -281c80 0 151 22 222 69z" />
    <glyph glyph-name="A" unicode="A" horiz-adv-x="680" 
d="M471 256h-271l-87 -146c-30 -49 -37 -65 -37 -79s8 -23 26 -31h-178c36 13 47 24 84 86l307 486c29 47 40 71 40 86c0 18 -9 29 -31 37h163l100 -564c17 -93 27 -114 65 -131h-180c23 10 34 26 34 48c0 8 0 8 -8 54zM459 323l-49 284l-169 -284h218z" />
    <glyph glyph-name="B" unicode="B" horiz-adv-x="611" 
d="M150 695h162c96 0 96 0 123 -6c80 -16 120 -63 120 -139c0 -52 -17 -94 -52 -129c-30 -29 -56 -42 -111 -53c48 -5 71 -12 99 -30c40 -25 64 -71 64 -120c0 -74 -43 -145 -109 -182c-49 -28 -96 -36 -205 -36h-244c38 12 60 49 76 127l95 445c6 28 9 48 9 67
c0 28 -6 41 -27 56zM275 628l-49 -224c29 -3 44 -4 68 -4c53 0 87 9 113 30c29 24 47 64 47 104c0 63 -44 98 -123 98c-15 0 -22 0 -56 -4zM211 332l-54 -251c31 -14 64 -20 108 -20c115 0 189 60 189 154c0 81 -63 119 -198 119c-16 0 -27 0 -45 -2z" />
    <glyph glyph-name="C" unicode="C" horiz-adv-x="633" 
d="M621 681l-10 -136c-38 61 -78 82 -155 82c-79 0 -150 -28 -203 -80c-56 -57 -95 -157 -95 -249c0 -142 83 -230 216 -230c90 0 164 28 226 85l-48 -127c-66 -27 -126 -40 -194 -40c-187 0 -301 113 -301 298c0 131 63 259 165 337c72 55 157 82 253 82
c53 0 95 -6 146 -22z" />
    <glyph glyph-name="D" unicode="D" horiz-adv-x="729" 
d="M150 695h223c89 0 116 -2 154 -13c120 -33 188 -130 188 -267c0 -151 -80 -295 -201 -363c-67 -37 -140 -52 -262 -52h-255c38 12 60 49 76 127l95 446c6 27 9 47 9 66c0 28 -6 41 -27 56zM273 622l-116 -539c43 -12 78 -16 126 -16c97 0 172 27 231 83
c61 58 100 158 100 256c0 143 -88 222 -248 222c-27 0 -51 -1 -93 -6z" />
    <glyph glyph-name="E" unicode="E" horiz-adv-x="532" 
d="M517 695l-22 -129c-11 45 -41 59 -127 59c-28 0 -51 -1 -95 -5l-45 -208h105c48 0 70 2 92 9l-29 -135c-3 42 -18 52 -79 52h-105l-55 -256c40 -8 74 -10 141 -10c118 0 159 12 226 67l-79 -139h-448c38 12 60 48 76 127l95 445c6 27 9 48 9 67c0 28 -6 40 -27 56h367z
" />
    <glyph glyph-name="F" unicode="F" horiz-adv-x="450" 
d="M516 695l-21 -128c-16 45 -45 58 -130 58c-32 0 -54 -1 -92 -5l-45 -207h114c48 0 62 2 82 10l-28 -132c-7 38 -22 48 -76 48h-108l-50 -237c-6 -25 -8 -42 -8 -56c0 -24 8 -36 30 -46h-187c38 12 60 48 76 127l95 445c6 28 9 48 9 67c0 28 -6 40 -27 56h366z" />
    <glyph glyph-name="G" unicode="G" horiz-adv-x="702" 
d="M670 676l-24 -136c-38 64 -86 89 -169 89c-188 0 -322 -142 -322 -342c0 -76 25 -138 72 -176c42 -34 102 -54 163 -54c41 0 86 7 118 18l28 128c8 40 10 52 10 65c0 23 -9 40 -30 53h158c-20 -14 -25 -26 -44 -115l-22 -102c-5 -26 -9 -51 -9 -63c0 -5 0 -10 2 -22
c-87 -23 -154 -33 -216 -33c-81 0 -157 18 -211 51c-74 45 -120 136 -120 240c0 142 74 280 191 356c70 45 163 70 262 70c61 0 110 -8 163 -27z" />
    <glyph glyph-name="H" unicode="H" horiz-adv-x="754" 
d="M582 330h-371l-45 -207c-7 -31 -9 -49 -9 -67c0 -27 7 -41 27 -56h-187c38 12 60 49 76 126l95 446c6 28 9 48 9 67c0 28 -6 41 -27 56h188c-39 -12 -60 -48 -76 -126l-35 -164h371l36 167c7 32 9 49 9 66c0 29 -6 42 -27 57h187c-39 -13 -60 -48 -76 -126l-96 -446
c-5 -26 -8 -49 -8 -68c0 -26 7 -40 26 -55h-187c39 12 60 48 76 126z" />
    <glyph glyph-name="I" unicode="I" horiz-adv-x="289" 
d="M184 0h-187c38 12 60 49 76 127l95 445c6 28 9 48 9 67c0 28 -6 41 -27 56h188c-39 -12 -60 -48 -76 -126l-96 -446c-6 -31 -9 -49 -9 -67c0 -27 7 -41 27 -56z" />
    <glyph glyph-name="J" unicode="J" horiz-adv-x="281" 
d="M146 695h187c-38 -12 -59 -48 -76 -126l-115 -540c-29 -135 -44 -171 -80 -202c-34 -29 -78 -42 -137 -42c-16 0 -24 1 -42 4c99 39 136 97 173 278l108 505c6 29 9 49 9 68c0 27 -6 40 -27 55z" />
    <glyph glyph-name="K" unicode="K" horiz-adv-x="628" 
d="M333 379l63 -117c104 -191 147 -245 208 -262c-25 -6 -36 -7 -67 -7c-101 0 -101 0 -220 212l-89 163l275 265c12 12 19 23 19 32c0 12 -8 21 -26 30h181zM150 695h188c-39 -12 -60 -48 -76 -126l-96 -446c-6 -31 -9 -49 -9 -67c0 -27 7 -41 27 -56h-187
c38 12 60 49 76 127l95 445c6 28 9 48 9 67c0 28 -6 41 -27 56z" />
    <glyph glyph-name="L" unicode="L" horiz-adv-x="522" 
d="M421 0h-424c38 12 60 49 76 127l95 445c6 28 9 48 9 67c0 28 -6 41 -27 56h188c-39 -12 -60 -48 -76 -126l-105 -489c53 -7 88 -10 133 -10c99 0 140 13 208 67z" />
    <glyph glyph-name="M" unicode="M" horiz-adv-x="941" 
d="M462 152l256 440c30 51 42 75 51 103h178c-52 -21 -56 -31 -61 -124l-35 -444c-1 -10 -1 -23 -1 -39c0 -56 9 -76 39 -88h-194c41 13 56 44 62 127l44 479l-360 -615l-20 22c-20 21 -33 51 -42 95l-102 498l-155 -478c-12 -39 -19 -68 -19 -83c0 -20 6 -32 23 -45h-167
c42 16 54 33 86 128l152 443c10 31 17 61 17 76c0 19 -9 34 -30 48h169c0 -34 1 -43 13 -93z" />
    <glyph glyph-name="N" unicode="N" horiz-adv-x="742" 
d="M558 132l87 437c7 37 9 51 9 67c0 28 -7 41 -27 56h171c-39 -13 -60 -48 -76 -127l-110 -510l38 -63c-16 -3 -24 -4 -38 -4c-48 0 -77 14 -103 51c-9 12 -60 104 -70 124l-198 412l-89 -452c-7 -32 -9 -51 -9 -68c0 -27 7 -40 27 -55h-172c38 12 60 48 76 126l87 408
c9 39 13 68 13 86c0 27 -11 49 -38 75h146c4 -20 13 -40 41 -93z" />
    <glyph glyph-name="O" unicode="O" horiz-adv-x="720" 
d="M437 710c168 0 266 -109 266 -296c0 -248 -157 -428 -373 -428c-168 0 -269 111 -269 295c0 138 63 278 160 356c60 49 131 73 216 73zM420 645c-146 0 -258 -158 -258 -365c0 -147 66 -229 183 -229c85 0 148 40 197 124c37 64 60 156 60 243c0 142 -68 227 -182 227z
" />
    <glyph glyph-name="P" unicode="P" horiz-adv-x="541" 
d="M150 695h202c86 0 132 -9 171 -34c39 -24 61 -68 61 -121c0 -129 -100 -223 -237 -223c-57 0 -91 11 -112 38c26 -4 38 -5 56 -5c113 0 194 72 194 173c0 72 -51 110 -146 110c-22 0 -37 -1 -64 -4l-109 -506c-7 -31 -9 -49 -9 -67c0 -27 7 -41 27 -56h-187
c38 12 60 48 76 126l95 446c6 28 9 48 9 67c0 28 -6 40 -27 56z" />
    <glyph glyph-name="Q" unicode="Q" horiz-adv-x="719" 
d="M733 -180c-30 -23 -62 -34 -99 -34c-72 0 -143 55 -261 201c-19 -2 -29 -2 -43 -2c-168 0 -269 111 -269 295c0 139 62 279 160 357c59 48 132 73 213 73c171 0 269 -108 269 -295c0 -183 -87 -336 -226 -400c63 -105 190 -201 256 -195zM420 645
c-146 0 -258 -158 -258 -365c0 -148 66 -230 184 -230c84 0 147 40 197 125c37 64 60 156 60 243c0 142 -69 227 -183 227z" />
    <glyph glyph-name="R" unicode="R" horiz-adv-x="627" 
d="M150 695h207c143 0 206 -45 206 -146c0 -68 -32 -126 -87 -160c-34 -21 -68 -32 -123 -39l24 -52c102 -201 168 -284 240 -298c-53 -9 -55 -9 -86 -9c-60 0 -91 16 -126 63c-40 55 -53 80 -128 242l-42 89c16 -1 29 -2 37 -2c54 0 109 17 145 45c30 24 47 62 47 105
c0 68 -43 100 -134 100c-15 0 -28 -1 -55 -3l-109 -507c-7 -31 -9 -49 -9 -67c0 -27 7 -41 27 -56h-187c38 12 60 48 76 126l95 446c6 28 9 48 9 67c0 28 -6 40 -27 56z" />
    <glyph glyph-name="S" unicode="S" horiz-adv-x="536" 
d="M515 677l-13 -136c-24 58 -79 91 -152 91c-80 0 -135 -43 -135 -104c0 -50 31 -83 142 -150c99 -60 132 -104 132 -178c0 -130 -112 -214 -286 -214c-59 0 -104 8 -163 31l-26 141c59 -63 134 -97 217 -97c98 0 159 48 159 126c0 51 -29 82 -133 143
c-106 61 -143 108 -143 179c0 54 27 107 72 143c44 34 102 51 176 51c56 0 101 -8 153 -26z" />
    <glyph glyph-name="T" unicode="T" horiz-adv-x="558" 
d="M312 628h-104c-87 0 -97 -2 -138 -30l55 107c16 -6 27 -8 40 -9l37 -1h36h322c50 0 74 2 104 7l-51 -107c-20 31 -25 33 -85 33h-122l-109 -505c-5 -26 -8 -49 -8 -68c0 -27 6 -40 26 -55h-187c39 13 60 48 76 126z" />
    <glyph glyph-name="U" unicode="U" horiz-adv-x="698" 
d="M453 0l25 78c-62 -60 -134 -90 -217 -90c-111 0 -195 68 -195 159c0 21 4 53 14 96l70 329c6 27 9 51 9 68c0 26 -7 40 -27 55h187c-38 -13 -59 -48 -75 -126l-63 -292c-11 -50 -14 -73 -14 -99c0 -73 52 -119 137 -119c64 0 119 26 163 77c29 34 33 45 54 141l62 292
c5 21 8 49 8 71c0 30 -8 45 -29 55h191c-38 -13 -59 -48 -76 -126l-95 -446c-6 -29 -9 -50 -9 -67c0 -27 7 -41 27 -56h-147z" />
    <glyph glyph-name="V" unicode="V" horiz-adv-x="595" 
d="M291 143l274 473c13 24 19 37 19 48s-6 20 -22 31h138l-427 -717l-21 19c-39 38 -43 48 -57 135l-71 458c-12 79 -19 94 -47 105h184c-32 -12 -43 -26 -43 -55c0 -14 2 -36 6 -58z" />
    <glyph glyph-name="W" unicode="W" horiz-adv-x="932" 
d="M257 135l234 464c10 19 15 39 15 55c0 19 -7 31 -25 41h136c-6 -18 -8 -28 -8 -43c0 -13 0 -18 4 -56l47 -465l253 491c13 25 17 36 17 48c0 11 -6 19 -17 25h124l-383 -717l-30 22c-43 34 -51 55 -60 165l-33 365l-279 -552l-37 29c-36 32 -39 40 -52 149l-48 434
c-8 72 -14 90 -38 105h168c-30 -15 -40 -29 -40 -55c0 -10 0 -13 3 -44z" />
    <glyph glyph-name="X" unicode="X" horiz-adv-x="639" 
d="M375 436l140 149c43 46 56 65 56 83c0 8 -5 18 -13 27h164l-317 -320l45 -117c90 -223 100 -239 158 -258c-41 -8 -61 -11 -87 -11c-42 0 -64 15 -89 63c-12 23 -16 33 -65 164l-39 104l-220 -239c-25 -27 -30 -36 -30 -51c0 -11 6 -21 17 -30h-167l369 379l-57 152
c-40 107 -57 135 -94 164h138c4 -21 5 -22 30 -94z" />
    <glyph glyph-name="Y" unicode="Y" horiz-adv-x="594" 
d="M377 308l-39 -181c-6 -29 -9 -50 -9 -68c0 -27 7 -40 27 -55h-187c38 12 60 49 75 126l39 178c-67 178 -157 340 -217 387c24 6 38 8 58 8c52 0 82 -19 115 -72c39 -63 72 -135 112 -243l200 243c11 13 16 25 16 35s-5 18 -18 29h146z" />
    <glyph glyph-name="Z" unicode="Z" 
d="M672 695l-522 -610c71 -9 146 -14 218 -14c99 0 173 20 234 64l-85 -135h-548l524 614c-40 7 -88 10 -146 10c-93 0 -139 -13 -206 -58l72 129h459z" />
    <glyph glyph-name="bracketleft" unicode="[" horiz-adv-x="348" 
d="M296 642l-157 -731h113l-9 -56h-240c40 18 49 38 73 154l119 559c12 52 14 67 14 82c0 19 -7 30 -30 47h242l-12 -55h-113z" />
    <glyph glyph-name="backslash" unicode="\" horiz-adv-x="527" 
d="M217 735l194 -780h-72l-192 780h70z" />
    <glyph glyph-name="bracketright" unicode="]" horiz-adv-x="348" 
d="M68 -90l157 731h-114l10 56h240c-41 -20 -49 -38 -73 -154l-120 -559c-9 -46 -13 -68 -13 -83c0 -19 7 -30 30 -46h-242l12 55h113z" />
    <glyph glyph-name="asciicircum" unicode="^" horiz-adv-x="519" 
d="M150 384h-92l176 313h113l175 -313h-92l-140 245z" />
    <glyph glyph-name="underscore" unicode="_" horiz-adv-x="521" 
d="M-73 -71h521v-63h-521v63z" />
    <glyph glyph-name="quoteleft" unicode="&#x2018;" horiz-adv-x="284" 
d="M308 707l18 -23c-50 -11 -87 -36 -111 -75c23 -8 35 -26 35 -55c0 -46 -29 -82 -66 -82c-28 0 -44 20 -44 54c0 38 20 80 56 118c33 35 60 50 112 63z" />
    <glyph glyph-name="a" unicode="a" horiz-adv-x="554" 
d="M331 88l-76 -94c-25 -8 -38 -10 -58 -10c-101 0 -167 74 -167 189c0 175 134 311 308 311c31 0 54 -3 94 -10c10 -2 18 -3 23 -3c16 0 39 7 67 19l-70 -329c-7 -31 -11 -57 -11 -70c0 -23 16 -37 41 -37c15 0 26 3 43 10l-65 -71c-14 -2 -22 -3 -34 -3
c-50 0 -79 26 -79 71c0 15 0 15 8 53l60 278c-31 19 -55 26 -90 26c-57 0 -113 -25 -146 -64c-36 -44 -58 -107 -58 -169c0 -45 8 -71 30 -94c18 -19 44 -30 70 -30c33 0 68 8 110 27z" />
    <glyph glyph-name="b" unicode="b" horiz-adv-x="546" 
d="M212 377l76 95c28 7 42 9 61 9c99 0 165 -75 165 -187c0 -99 -49 -195 -130 -253c-52 -38 -118 -57 -194 -57c-65 0 -130 12 -191 34c14 7 21 12 26 21c5 8 10 21 14 39l14 58l76 356c30 141 30 141 30 154c0 18 -8 29 -34 47h40c43 0 67 6 99 24l-138 -644
c39 -18 60 -23 93 -23c120 0 204 97 204 235c0 72 -39 119 -99 119c-32 0 -66 -8 -112 -27z" />
    <glyph glyph-name="c" unicode="c" horiz-adv-x="441" 
d="M404 118l-42 -104c-42 -20 -82 -28 -134 -28c-125 0 -202 67 -202 175c0 101 52 210 126 266c46 35 107 54 169 54c72 0 121 -34 121 -84c0 -39 -29 -64 -72 -64c-16 0 -25 2 -42 10c13 7 20 19 20 34c0 21 -23 38 -54 38c-98 0 -177 -101 -177 -225
c0 -85 46 -135 123 -135c57 0 105 18 164 63z" />
    <glyph glyph-name="d" unicode="d" horiz-adv-x="555" 
d="M332 94l-75 -94c-25 -7 -39 -9 -58 -9c-103 0 -169 74 -169 190c0 169 137 307 304 307c36 0 59 -4 98 -18l9 42c26 121 26 121 26 134c0 18 -8 29 -34 47h40c44 0 65 5 99 24l-118 -552c-7 -32 -11 -57 -11 -73c0 -24 15 -38 41 -38c14 0 25 3 42 10l-65 -71
c-15 -2 -22 -3 -34 -3c-50 0 -78 26 -78 72c0 15 1 24 8 56l58 271c-26 23 -55 33 -92 33c-51 0 -105 -24 -141 -61c-37 -39 -61 -106 -61 -169c0 -75 40 -124 101 -124c35 0 71 8 110 26z" />
    <glyph glyph-name="e" unicode="e" horiz-adv-x="441" 
d="M396 125l-29 -96c-57 -28 -122 -45 -174 -45c-110 0 -170 57 -170 160c0 93 40 194 103 257c53 54 116 80 192 80c77 0 128 -38 128 -95c0 -103 -127 -182 -335 -208c-1 -7 -1 -11 -1 -14c0 -27 9 -52 25 -73c21 -27 46 -38 88 -38c65 0 122 24 173 72zM117 229
c68 8 124 26 174 55c43 25 61 49 61 78c0 32 -26 54 -64 54c-75 0 -152 -85 -171 -187z" />
    <glyph glyph-name="f" unicode="f" horiz-adv-x="343" 
d="M226 474h116c39 0 49 2 63 10l-19 -105c-16 24 -26 29 -54 29h-118l-50 -265c-47 -254 -111 -357 -220 -357c-24 0 -42 3 -66 12l51 62c13 -7 20 -9 31 -9c55 0 78 58 120 297l46 260h-54l66 67c21 97 37 135 70 170c38 40 93 60 167 60c38 0 66 -4 97 -12l-64 -79
c-19 22 -35 29 -63 29c-64 0 -94 -33 -110 -123z" />
    <glyph glyph-name="g" unicode="g" horiz-adv-x="535" 
d="M335 112l-76 -96c-27 -6 -41 -8 -61 -8c-98 0 -164 73 -164 181c0 167 134 296 306 296c26 0 26 0 86 -9c11 -2 20 -3 28 -3c20 0 35 4 66 19l-88 -409c-23 -110 -35 -147 -57 -185c-46 -82 -116 -120 -217 -120c-98 0 -166 40 -166 98c0 38 28 65 69 65
c15 0 28 -3 45 -11c-16 -8 -23 -19 -23 -35c0 -32 37 -56 89 -56c47 0 87 22 114 62c21 31 40 86 58 172l68 321c-29 19 -55 26 -90 26c-113 0 -198 -92 -198 -215c0 -72 40 -120 100 -120c30 0 68 9 111 27z" />
    <glyph glyph-name="h" unicode="h" horiz-adv-x="573" 
d="M267 717l-69 -319c58 65 110 90 187 90c83 0 129 -35 129 -96c0 -20 -3 -38 -12 -83l-30 -138c-7 -34 -11 -61 -11 -77c0 -25 15 -40 40 -40c14 0 26 3 43 10l-65 -71c-15 -2 -23 -3 -34 -3c-49 0 -78 27 -78 73c0 16 2 28 8 59l39 179c8 39 9 45 9 60
c0 39 -27 61 -73 61c-50 0 -102 -25 -134 -64c-31 -39 -41 -70 -73 -216l-9 -44c-6 -28 -8 -42 -8 -52c0 -18 7 -30 26 -46h-164c38 23 49 43 60 98l84 394c30 141 30 141 30 154c0 18 -8 30 -34 47h40c43 0 67 6 99 24z" />
    <glyph glyph-name="i" unicode="i" horiz-adv-x="250" 
d="M222 64l-65 -71c-15 -2 -23 -3 -34 -3c-49 0 -78 27 -78 72c0 16 2 27 9 61l31 147c32 147 32 147 32 162c0 18 -11 31 -33 40h12h25c44 0 66 6 99 24l-69 -325c-8 -37 -12 -61 -12 -77c0 -25 15 -40 40 -40c15 0 27 3 43 10zM214 681c29 0 47 -21 47 -55
c0 -47 -28 -84 -64 -84c-31 0 -48 19 -48 55c0 48 28 84 65 84z" />
    <glyph glyph-name="j" unicode="j" horiz-adv-x="243" 
d="M224 494l-107 -501c-18 -84 -38 -131 -64 -155c-28 -25 -68 -39 -110 -39c-14 0 -23 1 -43 5c73 21 105 71 135 212l54 253c24 109 31 148 31 161c0 18 -10 30 -33 40c80 -1 99 3 137 24zM217 681c29 0 47 -21 47 -55c0 -48 -28 -84 -64 -84c-31 0 -48 19 -48 55
c0 48 28 84 65 84z" />
    <glyph glyph-name="k" unicode="k" horiz-adv-x="504" 
d="M152 0h-164c38 23 50 43 60 98l84 394c30 141 30 141 30 154c0 18 -8 30 -34 47h40c43 0 67 6 99 24l-68 -318c64 66 100 85 163 85c73 0 114 -38 114 -106c0 -55 -27 -101 -78 -132c-25 -14 -50 -23 -96 -33l46 -74c60 -94 92 -130 127 -139c-36 -8 -55 -11 -82 -11
c-25 0 -41 4 -53 14c-15 12 -15 12 -60 83l-102 159h10l53 1c83 0 147 47 147 108c0 36 -27 61 -66 61c-40 0 -84 -26 -113 -65c-23 -33 -34 -63 -50 -137l-25 -115c-6 -28 -8 -42 -8 -52c0 -18 7 -30 26 -46z" />
    <glyph glyph-name="l" unicode="l" horiz-adv-x="245" 
d="M262 717l-117 -546c-8 -37 -12 -62 -12 -77c0 -25 15 -40 40 -40c15 0 27 3 43 9l-65 -70c-15 -2 -23 -3 -34 -3c-49 0 -78 27 -78 72c0 16 2 27 9 60l79 370c30 140 30 140 30 154c0 18 -8 30 -34 47h39c44 0 67 6 100 24z" />
    <glyph glyph-name="m" unicode="m" horiz-adv-x="879" 
d="M153 0h-164c38 23 49 43 60 98l22 105c45 211 45 211 45 226c0 18 -10 31 -33 41h13c16 -1 29 -1 33 -1c34 0 61 7 91 25l-21 -95c55 61 113 89 188 89c78 0 115 -30 120 -97c52 65 114 97 189 97c78 0 125 -35 125 -92c0 -24 -3 -42 -16 -103l-26 -122
c-7 -33 -11 -61 -11 -77c0 -25 15 -40 40 -40c14 0 27 3 42 10l-65 -71c-14 -2 -22 -3 -33 -3c-49 0 -78 27 -78 72c0 16 2 34 8 60l41 190c7 31 8 40 8 50c0 33 -30 57 -71 57c-44 0 -94 -23 -125 -58c-33 -37 -42 -58 -63 -158l-23 -105c-7 -32 -8 -41 -8 -52
c0 -18 7 -30 26 -46h-164c38 24 49 42 60 98l44 205c6 29 9 48 9 61c0 33 -29 55 -72 55s-92 -24 -125 -60c-30 -35 -42 -64 -61 -156l-23 -105c-6 -28 -8 -42 -8 -52c0 -18 7 -30 26 -46z" />
    <glyph glyph-name="n" unicode="n" horiz-adv-x="571" 
d="M152 0h-164c38 23 49 43 60 98l22 105c45 212 45 212 45 226c0 18 -10 31 -33 41h13c16 -1 29 -1 33 -1c34 0 61 7 91 25l-21 -95c59 64 111 89 189 89c79 0 126 -34 126 -93c0 -17 -4 -44 -10 -75l-32 -149c-7 -32 -11 -61 -11 -77c0 -25 15 -40 40 -40c14 0 26 3 42 10
l-65 -71c-15 -2 -22 -3 -33 -3c-50 0 -79 27 -79 73c0 17 1 20 9 59l40 189c7 31 8 37 8 49c0 38 -28 59 -78 59c-48 0 -97 -25 -129 -64c-26 -32 -42 -76 -61 -163l-20 -94c-6 -28 -8 -42 -8 -52c0 -18 7 -30 26 -46z" />
    <glyph glyph-name="o" unicode="o" horiz-adv-x="532" 
d="M315 488c112 0 185 -72 185 -185c0 -89 -38 -187 -95 -244c-50 -50 -111 -75 -181 -75c-122 0 -193 70 -193 191c0 89 38 182 97 241c48 47 113 72 187 72zM292 425c-47 0 -88 -25 -120 -73c-28 -43 -47 -108 -47 -166c0 -88 42 -139 115 -139c95 0 166 104 166 241
c0 88 -41 137 -114 137z" />
    <glyph glyph-name="p" unicode="p" horiz-adv-x="550" 
d="M219 494l-21 -95c41 62 89 89 159 89c104 0 162 -64 162 -180c0 -169 -115 -295 -269 -295c-32 0 -51 3 -82 15l-21 92c28 -28 61 -41 103 -41c102 0 178 91 178 213c0 76 -41 123 -108 123c-39 0 -77 -18 -104 -51c-27 -31 -37 -58 -55 -142l-73 -338
c-6 -29 -8 -41 -8 -52c0 -18 7 -30 26 -46h-164c38 24 49 42 60 98l70 328c43 203 43 203 43 218c0 18 -10 31 -33 40h13c16 -1 29 -1 33 -1c34 0 60 7 91 25z" />
    <glyph glyph-name="q" unicode="q" horiz-adv-x="536" 
d="M518 493l-131 -609c-6 -27 -8 -42 -8 -52c0 -18 7 -30 26 -46h-164c39 25 50 43 60 98l109 510c-28 19 -59 28 -94 28c-110 0 -197 -97 -197 -222c0 -77 39 -123 106 -123c30 0 53 6 106 29l-80 -98c-25 -6 -37 -7 -56 -7c-101 0 -167 74 -167 186c0 167 136 301 304 301
c30 0 30 0 94 -12c9 -1 17 -2 23 -2c19 0 40 6 69 19z" />
    <glyph glyph-name="r" unicode="r" horiz-adv-x="349" 
d="M153 0h-164c38 23 49 43 60 98l25 117c42 199 42 199 42 214c0 18 -10 31 -33 41h13c16 -1 29 -1 33 -1c34 0 61 8 91 25l-25 -117c31 42 47 59 69 74c29 21 66 32 106 32h17l-29 -115c-11 16 -23 22 -48 22c-36 0 -68 -19 -100 -59c-28 -36 -39 -63 -56 -147l-19 -86
c-6 -28 -8 -42 -8 -52c0 -18 7 -30 26 -46z" />
    <glyph glyph-name="s" unicode="s" horiz-adv-x="431" 
d="M396 457l-18 -98c-24 38 -61 57 -115 57c-56 0 -92 -26 -92 -65c0 -32 23 -51 92 -77c83 -31 116 -68 116 -128c0 -92 -85 -155 -209 -155c-51 0 -101 10 -156 30l-14 105c18 -17 27 -23 54 -36c52 -27 78 -34 124 -34c65 0 108 32 108 80c0 32 -21 50 -98 80
c-78 31 -110 67 -110 123c0 85 79 142 195 142c52 0 87 -7 123 -24z" />
    <glyph glyph-name="t" unicode="t" horiz-adv-x="321" 
d="M129 408h-79l11 49h10c32 0 67 15 89 37c31 31 42 61 60 159h48l-39 -179h77c38 0 50 2 63 10l-25 -120c-14 38 -24 44 -68 44h-61l-46 -214c-15 -74 -15 -74 -15 -89c0 -29 26 -45 74 -45c19 0 35 2 52 7l-40 -70c-20 -5 -28 -6 -48 -6c-81 0 -128 32 -128 88
c0 17 4 45 11 78z" />
    <glyph glyph-name="u" unicode="u" horiz-adv-x="564" 
d="M534 64l-65 -71c-14 -2 -21 -3 -32 -3c-47 0 -80 29 -80 71c0 4 0 11 1 18c-45 -58 -115 -93 -187 -93c-75 0 -120 37 -120 99c0 20 3 38 14 93l20 91c5 24 10 48 16 73c12 58 15 73 15 89c0 18 -10 30 -33 39h12c17 -1 30 -1 34 -1c34 0 60 7 91 25l-68 -313
c-8 -40 -10 -52 -10 -65c0 -36 28 -57 77 -57c44 0 89 21 120 56c26 28 40 60 51 114l9 40c31 144 31 144 31 161c0 18 -10 31 -33 40h12c17 -1 30 -1 34 -1c34 0 60 7 91 25l-71 -331c-12 -53 -12 -53 -12 -68c0 -24 17 -41 40 -41c13 0 29 3 43 10z" />
    <glyph glyph-name="v" unicode="v" horiz-adv-x="510" 
d="M219 494l-61 -288c-11 -50 -16 -80 -16 -96c0 -30 18 -48 48 -48c101 0 221 144 221 266c0 48 -26 77 -69 77c-21 0 -35 -5 -50 -20c-1 7 -1 14 -1 19c0 48 37 80 95 80c67 0 109 -45 109 -116c0 -95 -54 -211 -134 -290c-63 -62 -127 -92 -195 -92
c-73 0 -115 35 -115 96c0 22 4 47 15 98l21 98c28 135 28 135 28 148c0 16 -8 28 -32 44c79 -1 98 3 136 24z" />
    <glyph glyph-name="w" unicode="w" horiz-adv-x="814" 
d="M220 494l-69 -321c-6 -30 -9 -47 -9 -60c0 -33 26 -54 68 -54c40 0 85 21 113 52c27 30 43 67 56 128l8 39c26 119 29 135 29 148c0 16 -9 29 -33 44c80 -1 98 2 137 24l-66 -308c-7 -32 -11 -59 -11 -76c0 -31 17 -48 47 -48c104 0 225 143 225 266c0 48 -26 77 -69 77
c-21 0 -35 -5 -50 -20c-1 8 -1 14 -1 20c0 47 38 79 94 79c68 0 110 -45 110 -116c0 -96 -54 -213 -135 -291c-65 -62 -128 -91 -199 -91c-76 0 -112 30 -117 97c-65 -72 -112 -97 -179 -97c-71 0 -118 38 -118 96c0 20 4 48 15 98l21 98c29 135 29 135 29 148
c0 16 -10 29 -33 44c80 -1 98 2 137 24z" />
    <glyph glyph-name="x" unicode="x" horiz-adv-x="512" 
d="M275 301l37 49c81 104 110 128 157 128c19 0 29 -4 47 -19l3 -80c-14 8 -29 11 -46 11c-36 0 -63 -20 -120 -88l-49 -58l24 -44c99 -179 102 -183 142 -201c-28 -9 -47 -12 -76 -12c-41 0 -51 9 -83 69l-68 132l-53 -64c-75 -89 -75 -89 -95 -106
c-16 -15 -39 -24 -60 -24c-19 0 -32 5 -50 20l-4 79c23 -9 33 -12 46 -12c38 0 66 23 137 108l46 56l-58 115c-38 76 -57 99 -92 112h131z" />
    <glyph glyph-name="y" unicode="y" horiz-adv-x="551" 
d="M346 30l13 59c-61 -61 -120 -89 -187 -89c-70 0 -119 38 -119 93c0 20 6 54 18 113l14 63c30 142 30 142 30 154c0 17 -10 31 -32 47c80 -1 98 3 136 24l-68 -319c-6 -26 -7 -35 -7 -47c0 -32 31 -56 74 -56c42 0 93 25 123 59c25 30 40 63 53 120l4 18
c20 93 30 142 30 154c0 17 -9 31 -32 47c79 -1 98 3 136 24l-96 -447c-22 -104 -38 -145 -75 -189c-47 -56 -104 -81 -185 -81c-101 0 -169 39 -169 98c0 39 25 64 65 64c19 0 33 -3 48 -10c-16 -8 -22 -18 -22 -32c0 -34 39 -60 88 -60c84 0 132 58 160 193z" />
    <glyph glyph-name="z" unicode="z" horiz-adv-x="493" 
d="M510 472l-371 -392c12 1 22 1 28 1c11 0 27 -1 48 -3c45 -4 70 -6 93 -6c60 0 102 11 146 38l-64 -109c-38 -5 -56 -7 -78 -7c-27 0 -50 2 -152 12c-15 1 -35 2 -58 2c-46 0 -88 -3 -129 -10l374 398h-93c-89 0 -109 -6 -166 -47l67 123h355z" />
    <glyph glyph-name="braceleft" unicode="{" horiz-adv-x="350" 
d="M400 697l-11 -54h-23c-34 0 -50 -7 -62 -27c-8 -12 -11 -22 -24 -83l-29 -135c-18 -90 -31 -109 -84 -125c30 -16 41 -31 41 -57c0 -15 -3 -34 -11 -71l-34 -160c-8 -36 -8 -36 -8 -44c0 -24 13 -32 54 -32h22l-11 -54h-72c-58 0 -83 14 -83 48c0 12 2 23 9 55l45 211
c7 35 8 39 8 48c0 27 -12 35 -58 38l10 47c61 2 72 13 89 96l45 212c18 81 26 87 124 87h63z" />
    <glyph glyph-name="bar" unicode="|" horiz-adv-x="222" 
d="M162 -250h-72v1000h72v-1000z" />
    <glyph glyph-name="braceright" unicode="}" horiz-adv-x="350" 
d="M-35 -145l12 54h22c34 0 50 7 63 27c7 12 10 21 23 83l29 135c18 90 31 108 84 124c-30 16 -41 32 -41 58c0 15 2 30 11 70l34 160c8 36 8 36 8 44c0 24 -13 32 -53 32h-23l12 55h71c57 0 83 -16 83 -49c0 -13 -2 -23 -8 -55l-46 -211c-8 -38 -8 -38 -8 -47
c0 -18 10 -31 27 -35c8 -2 9 -2 31 -4l-10 -46c-61 -2 -72 -14 -89 -96l-45 -212c-18 -83 -24 -87 -124 -87h-63z" />
    <glyph glyph-name="asciitilde" unicode="~" 
d="M579 402c-24 -50 -41 -73 -66 -93c-26 -20 -59 -31 -90 -31c-27 0 -53 8 -147 49c-22 9 -45 15 -60 15c-34 0 -57 -20 -85 -73l-55 36c19 40 27 55 40 72c28 37 64 56 107 56c28 0 59 -9 115 -33c61 -26 73 -30 97 -30c38 0 58 15 88 65z" />
    <glyph glyph-name="exclamdown" unicode="&#xa1;" horiz-adv-x="421" 
d="M64 -194l127 472c6 22 8 32 8 40c0 6 -1 12 -5 23h79c-12 -15 -14 -20 -22 -71l-65 -373c-4 -18 -5 -29 -5 -38c0 -22 6 -33 28 -53h-145zM264 510c28 0 44 -20 44 -55c0 -45 -26 -79 -60 -79c-28 0 -45 21 -45 53c0 46 26 81 61 81z" />
    <glyph glyph-name="cent" unicode="&#xa2;" horiz-adv-x="492" 
d="M458 251l-38 -103c-44 -24 -89 -35 -138 -35l-22 -100h-44l21 100c-108 18 -160 81 -160 193c0 81 37 179 90 237c48 52 108 82 182 90l21 99h45l-22 -99c34 -2 48 -4 75 -15l-4 -97c-19 21 -52 38 -85 44l-82 -382c55 1 100 20 161 68zM253 188l81 377
c-46 -12 -72 -26 -97 -52c-41 -41 -69 -115 -69 -181c0 -75 31 -128 85 -144z" />
    <glyph glyph-name="sterling" unicode="&#xa3;" horiz-adv-x="576" 
d="M321 395h162l-13 -62h-122c8 -28 10 -42 10 -63c0 -56 -18 -100 -69 -166c34 -13 60 -19 89 -19c45 0 72 11 110 45l-25 -118c-34 -20 -60 -27 -98 -27c-51 0 -95 17 -145 56c-42 -36 -77 -52 -116 -52c-53 0 -88 32 -88 80c0 54 45 92 108 92c33 0 51 -5 107 -31
c26 30 40 67 40 107c0 26 -12 66 -28 96h-112l13 62h62c-23 43 -29 63 -29 99c0 122 101 212 239 212c43 0 82 -8 132 -27l-6 -121c-36 55 -80 80 -139 80c-71 0 -123 -50 -123 -117c0 -31 14 -73 41 -126zM176 74c-28 22 -43 29 -61 29c-23 0 -37 -11 -37 -29
c0 -19 15 -33 37 -33c19 0 33 8 61 33z" />
    <glyph glyph-name="fraction" unicode="&#x2044;" horiz-adv-x="136" 
d="M301 692h63l-488 -692h-63z" />
    <glyph glyph-name="yen" unicode="&#xa5;" 
d="M449 397h124l-11 -54h-155l-25 -29l-9 -41h151l-11 -54h-151l-25 -114c-3 -16 -6 -40 -6 -57c0 -28 9 -41 32 -48h-188c37 8 57 38 72 105l24 114h-140l11 54h140l9 41l-12 29h-144l11 54h110c-80 184 -117 248 -174 298c24 6 38 8 58 8c45 0 71 -14 100 -57
c30 -42 47 -80 102 -227c5 -11 9 -23 14 -35l187 247c11 14 15 24 15 35c0 10 -5 18 -17 29h146z" />
    <glyph glyph-name="florin" unicode="&#x192;" horiz-adv-x="493" 
d="M355 494h115c39 0 50 2 64 10l-31 -104c-12 22 -22 28 -50 28h-119l-88 -285c-81 -258 -153 -357 -263 -357c-26 0 -46 4 -66 12l58 62c12 -7 19 -9 31 -9c55 0 83 53 156 297l84 280h-53l74 67c35 97 49 122 82 152c44 40 100 58 176 58c38 0 63 -3 96 -12l-74 -79
c-17 22 -33 29 -63 29c-60 0 -98 -38 -122 -123z" />
    <glyph glyph-name="section" unicode="&#xa7;" 
d="M590 667l-25 -109c-37 58 -75 80 -136 80c-68 0 -118 -41 -118 -98c0 -44 24 -69 126 -130c73 -44 101 -82 101 -138c0 -67 -39 -120 -114 -153c23 -33 30 -56 30 -90c0 -112 -94 -190 -230 -190c-68 0 -119 15 -179 53l20 108c33 -57 93 -90 169 -90
c74 0 126 43 126 104c0 47 -23 71 -116 123c-93 51 -131 99 -131 165c0 73 40 121 125 152c-15 30 -20 48 -20 75c0 105 89 178 218 178c61 0 103 -11 154 -40zM271 414c-44 -24 -65 -55 -65 -95c0 -32 15 -56 50 -82c28 -20 28 -20 110 -70c7 -4 14 -9 20 -13
c39 25 57 55 57 95c0 42 -17 62 -94 110c-29 18 -49 32 -78 55z" />
    <glyph glyph-name="currency" unicode="&#xa4;" horiz-adv-x="670" 
d="M90 117l89 90c-30 40 -45 83 -45 130s13 84 45 130l-90 90l45 45l90 -91c47 33 85 46 133 46s87 -13 129 -44l89 89l45 -45l-89 -89c34 -51 46 -85 46 -132s-13 -85 -44 -129l90 -90l-45 -45l-89 90c-44 -31 -85 -45 -132 -45c-46 0 -85 13 -132 44l-90 -89zM354 483
c-79 0 -144 -66 -144 -146c0 -81 66 -147 146 -147s146 66 146 146c0 82 -65 147 -148 147z" />
    <glyph glyph-name="quotesingle" unicode="'" horiz-adv-x="421" 
d="M215 416l44 279h98l-76 -279h-66z" />
    <glyph glyph-name="quotedblleft" unicode="&#x201c;" horiz-adv-x="440" 
d="M301 707l18 -23c-50 -11 -87 -36 -111 -75c23 -8 35 -26 35 -55c0 -46 -29 -82 -66 -82c-28 0 -44 20 -44 54c0 38 20 80 56 118c33 35 60 50 112 63zM470 707l19 -23c-51 -11 -87 -36 -112 -75c23 -8 35 -26 35 -55c0 -46 -29 -82 -66 -82c-27 0 -44 21 -44 55
c0 37 20 79 56 117c33 34 60 50 112 63z" />
    <glyph glyph-name="guillemotleft" unicode="&#xab;" horiz-adv-x="365" 
d="M115 274l66 -186h-31l-125 189l184 176h46zM250 274l66 -186h-31l-125 189l185 176h45z" />
    <glyph glyph-name="guilsinglleft" unicode="&#x203a;" horiz-adv-x="229" 
d="M128 267l-66 186h32l124 -189l-185 -176h-45z" />
    <glyph glyph-name="guilsinglright" unicode="&#x2039;" horiz-adv-x="229" 
d="M114 274l66 -186h-32l-124 189l185 176h45z" />
    <glyph glyph-name="endash" unicode="&#x2013;" horiz-adv-x="440" 
d="M91 284h210c53 0 78 4 118 20l-67 -85h-210c-44 0 -75 -5 -116 -20z" />
    <glyph glyph-name="dagger" unicode="&#x2020;" 
d="M403 455h114c62 0 75 4 100 33l-32 -150c-11 32 -22 37 -85 37h-114l-89 -415c-4 -21 -10 -58 -10 -66c0 -19 7 -29 28 -41h-166c43 21 45 24 63 113l88 409h-116c-60 0 -76 -7 -95 -37l33 154c15 -36 18 -37 80 -37h115l33 150c4 19 6 37 6 50c0 18 -5 25 -26 40h163
c-42 -22 -44 -25 -58 -90z" />
    <glyph glyph-name="daggerdbl" unicode="&#x2021;" 
d="M403 455h113c63 0 76 4 101 33l-32 -150c-11 32 -23 37 -86 37h-113l-43 -198h114c62 0 75 4 100 33l-32 -150c-11 32 -22 37 -85 37h-114l-29 -137c-4 -18 -10 -58 -10 -66c0 -19 7 -29 28 -41h-166c43 22 44 24 63 113l28 131h-116c-60 0 -76 -7 -95 -37l33 154
c15 -36 18 -37 80 -37h115l43 198h-116c-60 0 -77 -6 -95 -37l33 154c15 -36 18 -37 79 -37h116l32 150c5 21 7 37 7 49c0 19 -4 25 -26 41h163c-42 -22 -44 -25 -58 -90z" />
    <glyph glyph-name="periodcentered" unicode="&#xb7;" horiz-adv-x="284" 
d="M154 320c28 0 46 -22 46 -56c0 -48 -28 -85 -64 -85c-30 0 -47 21 -47 57c0 49 27 84 65 84z" />
    <glyph glyph-name="paragraph" unicode="&#xb6;" horiz-adv-x="645" 
d="M520 -174h-77l176 828h-42l-176 -828h-74l176 828c-45 -2 -77 -18 -104 -54c-35 -46 -62 -130 -62 -189c0 -34 16 -67 42 -86c7 -5 17 -11 33 -18c-22 -5 -32 -6 -49 -6c-101 0 -167 61 -167 154c0 67 30 135 79 180c50 46 107 62 224 62h251c-46 -32 -58 -53 -75 -138z
" />
    <glyph glyph-name="bullet" unicode="&#x2022;" horiz-adv-x="697" 
d="M376 499c78 0 143 -66 143 -145c0 -80 -65 -145 -145 -145c-79 0 -145 65 -145 145c0 81 65 145 147 145z" />
    <glyph glyph-name="quotesinglbase" unicode="&#x201a;" horiz-adv-x="284" 
d="M1 -108l-18 23c52 11 87 35 112 75c-24 8 -36 26 -36 54c0 47 29 83 67 83c27 0 44 -21 44 -54c0 -38 -20 -81 -56 -118c-33 -35 -63 -52 -113 -63z" />
    <glyph glyph-name="quotedblbase" unicode="&#x201e;" horiz-adv-x="439" 
d="M-6 -108l-18 23c52 11 87 35 112 75c-24 8 -36 26 -36 54c0 47 29 83 67 83c27 0 44 -21 44 -54c0 -38 -20 -81 -56 -118c-33 -35 -63 -52 -113 -63zM164 -108l-19 23c52 11 87 35 112 75c-23 8 -35 26 -35 54c0 47 29 83 66 83c27 0 44 -21 44 -55
c0 -37 -20 -80 -56 -117c-33 -35 -63 -52 -112 -63z" />
    <glyph glyph-name="quotedblright" unicode="&#x201d;" horiz-adv-x="439" 
d="M119 472l-18 23c51 12 87 36 112 76c-24 7 -36 25 -36 54c0 46 29 82 67 82c27 0 44 -21 44 -54c0 -38 -20 -81 -56 -118c-33 -34 -63 -51 -113 -63zM289 472l-19 23c51 12 87 36 112 76c-23 7 -35 25 -35 53c0 47 29 83 66 83c27 0 44 -21 44 -55
c0 -37 -21 -80 -56 -117c-33 -35 -63 -51 -112 -63z" />
    <glyph glyph-name="guillemotright" unicode="&#xbb;" horiz-adv-x="365" 
d="M128 267l-66 186h31l125 -189l-185 -176h-45zM263 267l-66 186h31l125 -189l-184 -176h-46z" />
    <glyph glyph-name="ellipsis" unicode="&#x2026;" horiz-adv-x="852" 
d="M114 132c28 0 46 -22 46 -56c0 -48 -28 -85 -64 -85c-30 0 -47 21 -47 57c0 49 27 84 65 84zM397 132c29 0 47 -22 47 -56c0 -48 -28 -85 -63 -85c-31 0 -48 21 -48 56c0 50 27 85 64 85zM681 132c29 0 47 -22 47 -56c0 -48 -28 -85 -63 -85c-31 0 -48 20 -48 57
c0 49 27 84 64 84z" />
    <glyph glyph-name="perthousand" unicode="&#x2030;" horiz-adv-x="1042" 
d="M258 705c73 0 121 -48 121 -121c0 -115 -74 -204 -169 -204c-75 0 -124 48 -124 122c0 80 42 161 97 187c21 10 48 16 75 16zM250 655c-52 0 -92 -66 -92 -152c0 -43 23 -72 58 -72c52 0 92 67 92 155c0 43 -22 69 -58 69zM587 692h63l-488 -692h-63zM544 316
c73 0 122 -48 122 -121c0 -115 -74 -204 -170 -204c-76 0 -124 48 -124 122c0 80 42 161 97 187c21 11 48 16 75 16zM535 265c-51 0 -91 -65 -91 -152c0 -43 23 -72 58 -72c53 0 92 67 92 156c0 42 -22 68 -59 68zM879 316c73 0 121 -48 121 -121c0 -115 -74 -204 -169 -204
c-76 0 -124 48 -124 122c0 80 42 161 97 187c21 10 47 16 75 16zM870 265c-52 0 -91 -65 -91 -151c0 -44 23 -73 58 -73c52 0 91 67 91 156c0 42 -22 68 -58 68z" />
    <glyph glyph-name="questiondown" unicode="&#xbf;" horiz-adv-x="450" 
d="M271 334h84c-2 -100 -34 -146 -145 -207c-69 -38 -93 -57 -109 -85c-11 -20 -17 -40 -17 -61c0 -66 54 -115 127 -115c48 0 95 14 146 44l-41 -95c-57 -15 -95 -21 -137 -21c-119 0 -196 68 -196 173c0 46 14 86 42 118c28 31 28 32 143 94c72 39 104 81 104 135
c0 5 0 12 -1 20zM337 510c28 0 44 -20 44 -54c0 -46 -26 -80 -60 -80c-28 0 -45 20 -45 53c0 46 26 81 61 81z" />
    <glyph glyph-name="grave" unicode="`" horiz-adv-x="521" 
d="M304 713l145 -166l-224 98z" />
    <glyph glyph-name="acute" unicode="&#xb4;" horiz-adv-x="522" 
d="M468 713l50 -68l-266 -98z" />
    <glyph glyph-name="circumflex" unicode="&#x2c6;" horiz-adv-x="522" 
d="M359 724l126 -175c-45 2 -89 30 -139 90c-49 -47 -133 -89 -176 -87z" />
    <glyph glyph-name="tilde" unicode="&#x2dc;" horiz-adv-x="521" 
d="M176 586l15 36c14 35 42 55 80 55c19 0 38 -3 82 -15c52 -14 82 -20 98 -20c23 0 43 12 68 41c-21 -56 -21 -56 -29 -69c-15 -24 -34 -36 -60 -36c-21 0 -34 3 -109 21c-41 10 -61 14 -75 14c-29 0 -52 -13 -77 -44z" />
    <glyph glyph-name="macron" unicode="&#xaf;" horiz-adv-x="522" 
d="M183 658h335l-14 -63h-334z" />
    <glyph glyph-name="breve" unicode="&#x2d8;" horiz-adv-x="522" 
d="M478 706l37 -20c-28 -87 -87 -134 -169 -134c-78 0 -131 49 -148 137l39 17c25 -62 59 -88 115 -88c57 0 100 30 126 88z" />
    <glyph glyph-name="dotaccent" unicode="&#x2d9;" horiz-adv-x="522" 
d="M355 696c29 0 46 -19 46 -52c0 -48 -30 -87 -67 -87c-28 0 -47 21 -47 53c0 50 28 86 68 86z" />
    <glyph glyph-name="dieresis" unicode="&#xa8;" horiz-adv-x="521" 
d="M279 692c28 0 44 -18 44 -49c0 -44 -28 -81 -63 -81c-26 0 -44 19 -44 49c0 48 26 81 63 81zM429 692c27 0 43 -18 43 -49c0 -45 -28 -81 -62 -81c-27 0 -44 20 -44 50c0 47 26 80 63 80z" />
    <glyph glyph-name="ring" unicode="&#x2da;" horiz-adv-x="521" 
d="M355 755c64 0 99 -33 99 -92c0 -68 -45 -112 -115 -112c-60 0 -96 35 -96 92c0 69 43 112 112 112zM353 709c-32 0 -56 -26 -56 -62c0 -31 19 -50 48 -50c35 0 57 24 57 63c0 32 -17 49 -49 49z" />
    <glyph glyph-name="cedilla" unicode="&#xb8;" horiz-adv-x="521" 
d="M308 0l-23 -47c10 2 19 3 25 3c38 0 67 -31 67 -70c0 -49 -45 -77 -124 -77c-21 0 -33 1 -57 7l-8 56c28 -11 55 -16 79 -16c26 0 43 12 43 31c0 17 -12 27 -34 27c-10 0 -28 -2 -58 -6l46 92h44z" />
    <glyph glyph-name="hungarumlaut" unicode="&#x2dd;" horiz-adv-x="521" 
d="M400 715l55 -55l-211 -124zM561 715l54 -55l-211 -124z" />
    <glyph glyph-name="ogonek" unicode="&#x2db;" horiz-adv-x="521" 
d="M336 0h67c-47 -36 -68 -62 -68 -87c0 -24 16 -33 62 -32l-50 -58h-12c-43 0 -73 26 -73 63c0 41 24 78 74 114z" />
    <glyph glyph-name="caron" unicode="&#x2c7;" horiz-adv-x="522" 
d="M331 549l-127 175c45 -2 88 -30 140 -89c46 46 132 89 175 87z" />
    <glyph glyph-name="emdash" unicode="&#x2014;" horiz-adv-x="592" 
d="M91 284h362c53 0 78 4 118 20l-66 -85h-363c-44 0 -75 -5 -116 -20z" />
    <glyph glyph-name="AE" unicode="&#xc6;" horiz-adv-x="949" 
d="M516 241h-235l-151 -167c-24 -27 -31 -38 -31 -51c0 -8 5 -15 16 -23h-180c38 20 57 37 122 108l466 496c23 24 33 43 33 61c0 12 -6 19 -26 30h405l-23 -129c-11 45 -41 59 -127 59c-27 0 -50 -1 -97 -5l-45 -208h106c49 0 71 2 93 9l-29 -135c-2 41 -18 52 -79 52h-107
l-55 -257c44 -7 78 -9 142 -9c119 0 159 12 227 67l-79 -139h-446c39 15 58 47 75 127zM532 315l70 293l-254 -293h184z" />
    <glyph glyph-name="ordfeminine" unicode="&#xaa;" horiz-adv-x="421" 
d="M285 335l-41 -60c-16 -5 -25 -7 -38 -7c-68 0 -113 49 -113 121c0 109 88 192 203 192c19 0 39 -2 61 -5c6 -1 12 -2 15 -2c7 0 14 2 32 8l19 7l-45 -208c-4 -18 -6 -35 -6 -44c0 -13 8 -21 22 -21c10 0 19 2 41 10l-53 -53c-12 -1 -17 -2 -26 -2c-36 0 -57 17 -57 47
c0 9 1 19 5 35l36 169c-18 7 -34 10 -52 10c-72 0 -123 -56 -123 -136c0 -46 22 -74 59 -74c18 0 36 4 61 13z" />
    <glyph glyph-name="Lslash" unicode="&#x141;" horiz-adv-x="522" 
d="M421 0h-424c38 12 60 49 76 127l34 157l-84 -48l16 72l83 48l46 216c6 28 9 48 9 67c0 28 -6 41 -27 56h188c-39 -13 -58 -46 -76 -126l-35 -162l216 131l-16 -72l-215 -131l-55 -255c71 -8 93 -10 133 -10c98 0 140 13 208 67z" />
    <glyph glyph-name="Oslash" unicode="&#xd8;" horiz-adv-x="720" 
d="M606 658l65 74h89l-108 -122c36 -55 52 -115 52 -197c0 -130 -49 -255 -132 -334c-64 -61 -147 -93 -241 -93c-76 0 -131 18 -181 61l-66 -74h-85l109 123c-32 53 -47 114 -47 187c0 136 63 277 160 355c59 48 133 73 213 73c70 0 122 -16 172 -53zM177 170l367 424
c-35 37 -72 53 -123 53c-147 0 -260 -158 -260 -363c0 -44 4 -70 16 -114zM582 538l-372 -429c36 -42 76 -60 137 -60c83 0 148 41 197 125c37 65 60 156 60 243c0 47 -7 84 -22 121z" />
    <glyph glyph-name="OE" unicode="&#x152;" horiz-adv-x="1005" 
d="M524 0l15 69c-57 -55 -128 -83 -212 -83c-163 0 -266 115 -266 296c0 125 50 251 131 333c65 64 143 95 241 95c104 0 170 -38 217 -123c5 37 5 42 5 58c0 26 -9 40 -30 50h364l-22 -129c-11 45 -41 59 -127 59c-28 0 -51 -1 -95 -5l-45 -208h105c48 0 70 2 92 9
l-29 -135c-3 42 -18 52 -79 52h-105l-55 -256c40 -8 75 -10 142 -10c117 0 157 12 225 67l-79 -139h-393zM417 645c-143 0 -255 -160 -255 -362c0 -146 68 -231 183 -231c77 0 141 37 187 108c41 62 68 166 68 256c0 143 -69 229 -183 229z" />
    <glyph glyph-name="ordmasculine" unicode="&#xba;" horiz-adv-x="421" 
d="M281 586c76 0 126 -47 126 -118c0 -112 -80 -199 -183 -199c-82 0 -130 45 -130 122c0 55 25 114 64 150c31 29 76 45 123 45zM265 538c-56 0 -101 -62 -101 -138c0 -52 27 -83 73 -83c57 0 100 59 100 138c0 53 -26 83 -72 83z" />
    <glyph glyph-name="ae" unicode="&#xe6;" horiz-adv-x="771" 
d="M333 94l-77 -96c-23 -10 -35 -12 -58 -12c-102 0 -168 74 -168 189c0 178 131 308 311 308c30 0 30 0 86 -9c8 -1 17 -2 25 -2c22 0 39 5 69 19l-15 -62c48 39 88 55 140 55c81 0 129 -37 129 -98c0 -57 -34 -103 -105 -142c-67 -37 -129 -55 -213 -62
c-10 -39 -14 -62 -14 -82c0 -32 31 -47 98 -47c66 0 120 21 185 71l-30 -93c-63 -32 -120 -47 -181 -47c-50 0 -97 10 -127 27c-24 13 -36 36 -36 66c0 16 2 32 9 62l55 255c-41 18 -58 22 -93 22c-68 0 -115 -23 -154 -76c-31 -44 -48 -97 -48 -151c0 -78 39 -128 100 -128
c32 0 62 9 112 33zM468 235c132 22 213 72 213 130c0 33 -26 54 -66 54c-46 0 -90 -29 -115 -75c-13 -25 -22 -55 -32 -109z" />
    <glyph glyph-name="dotlessi" unicode="&#x131;" horiz-adv-x="250" 
d="M225 516l-74 -345c-8 -37 -12 -62 -12 -77c0 -25 15 -40 40 -40c15 0 27 3 43 9l-65 -70c-15 -2 -23 -3 -34 -3c-49 0 -78 27 -78 72c0 16 2 27 9 60l36 169c31 147 31 147 31 161c0 18 -11 31 -33 40h12h25c44 0 67 5 100 24z" />
    <glyph glyph-name="lslash" unicode="&#x142;" horiz-adv-x="264" 
d="M312 537l-15 -70l-93 -76l-47 -220c-8 -39 -12 -62 -12 -77c0 -25 15 -40 41 -40c14 0 26 3 42 9l-65 -70c-15 -2 -22 -3 -34 -3c-49 0 -78 27 -78 73c0 16 0 19 9 59l45 208l-92 -74l15 71l92 74l19 91c29 140 30 140 30 154c0 18 -9 30 -34 47c30 -1 35 -1 43 -1
c40 0 64 6 96 25l-55 -256z" />
    <glyph glyph-name="oslash" unicode="&#xf8;" horiz-adv-x="532" 
d="M428 456l48 57h66l-78 -92c25 -36 36 -73 36 -123c0 -85 -39 -183 -95 -239c-49 -49 -112 -75 -181 -75c-48 0 -85 10 -122 33l-40 -48h-67l71 84c-24 36 -34 74 -34 126c0 87 38 179 97 237c46 46 112 72 183 72c46 0 78 -9 116 -32zM133 126l238 269
c-26 23 -48 32 -79 32c-93 0 -167 -106 -167 -241c0 -24 2 -36 8 -60zM398 350l-239 -272c26 -24 47 -33 81 -33c97 0 167 101 167 243c0 25 -2 37 -9 62z" />
    <glyph glyph-name="oe" unicode="&#x153;" horiz-adv-x="808" 
d="M763 126l-30 -97c-62 -31 -119 -45 -180 -45c-76 0 -118 24 -145 83c-56 -60 -113 -86 -188 -86c-116 0 -191 73 -191 186c0 96 43 199 105 256c48 42 109 65 178 65c83 0 128 -28 167 -104c62 70 122 99 204 99c80 0 130 -39 130 -101c0 -99 -129 -177 -337 -204
c2 -84 39 -125 113 -125c66 0 115 20 174 73zM483 229c135 17 236 74 236 133c0 32 -28 56 -64 56c-74 0 -148 -81 -172 -189zM287 425c-88 0 -164 -110 -164 -238c0 -90 42 -140 116 -140c93 0 165 103 165 238c0 90 -42 140 -117 140z" />
    <glyph glyph-name="germandbls" unicode="&#xdf;" horiz-adv-x="570" 
d="M125 428h-56l70 68c19 73 36 109 64 141c38 45 93 68 163 68c87 0 141 -42 141 -110c0 -35 -14 -63 -50 -99c-18 -18 -39 -35 -58 -46c-43 -28 -57 -41 -57 -55c0 -10 8 -21 25 -36c5 -4 5 -4 83 -61c56 -41 82 -85 82 -141c0 -101 -89 -169 -221 -169
c-56 0 -103 11 -139 32l-11 95c53 -41 110 -62 165 -62c66 0 112 36 112 89c0 44 -34 83 -140 159c-41 30 -50 43 -50 70c0 32 6 39 62 77c76 51 104 85 104 127s-26 65 -72 65c-34 0 -61 -13 -78 -37s-20 -32 -41 -129l-75 -329c-34 -151 -55 -210 -96 -275
c-36 -57 -78 -83 -135 -83c-24 0 -43 3 -67 12l53 63c14 -8 22 -11 32 -11c49 0 75 49 111 213z" />
    <glyph glyph-name="onesuperior" unicode="&#xb9;" horiz-adv-x="404" 
d="M242 599h-120c83 15 132 40 198 101c7 7 15 14 24 21l-81 -377c-2 -10 -3 -23 -3 -32c0 -22 7 -29 31 -34h-161c39 6 45 14 57 66z" />
    <glyph glyph-name="logicalnot" unicode="&#xac;" 
d="M565 236h-72v151h-389v72h461v-223z" />
    <glyph glyph-name="mu" unicode="&#xb5;" horiz-adv-x="564" 
d="M534 64l-65 -70c-15 -2 -22 -3 -33 -3c-46 0 -79 29 -79 70c0 5 0 11 1 18c-45 -61 -104 -93 -169 -93c-32 0 -50 7 -81 32l-39 -232h-88l108 505c31 146 31 146 31 162c0 17 -10 30 -33 39h36c45 0 67 5 101 25l-72 -336c-10 -48 -11 -52 -11 -66c0 -35 29 -56 78 -56
c43 0 88 21 120 56c25 28 40 61 51 114l13 62c31 145 31 145 31 162s-10 30 -33 39h37c45 0 66 5 100 25l-76 -354c-10 -49 -11 -53 -11 -68c0 -23 17 -39 40 -39c13 0 28 3 43 8z" />
    <glyph glyph-name="trademark" unicode="&#x2122;" horiz-adv-x="826" 
d="M266 652l-53 -250c-3 -13 -4 -19 -4 -27c0 -14 5 -21 21 -27h-124c29 5 33 11 42 56l54 248h-48c-46 0 -50 -1 -84 -21l38 71c12 -5 17 -6 25 -6l20 -1h19h170c29 0 42 1 63 5l-34 -68l-4 5c-12 15 -13 15 -43 15h-58zM593 440l125 203c18 29 20 33 26 52h104
c-23 -8 -29 -18 -30 -54l-16 -237c-1 -6 -1 -14 -1 -17c0 -24 8 -34 35 -39h-133c28 6 32 13 35 55l21 223l-178 -286l-15 15c-13 13 -19 24 -25 47l-54 225l-72 -223c-4 -13 -7 -27 -7 -33c0 -8 4 -15 14 -23h-102c19 4 26 15 41 57l83 236c3 9 6 21 6 27
c0 11 -4 16 -20 27h103v-8c0 -10 1 -17 8 -39z" />
    <glyph glyph-name="Eth" unicode="&#xd0;" horiz-adv-x="729" 
d="M119 342h-73l14 66h73l35 164c6 28 9 48 9 67c0 28 -6 41 -27 56h223c89 0 116 -2 154 -13c120 -33 188 -130 188 -268c0 -150 -80 -294 -201 -362c-67 -37 -141 -52 -262 -52h-255c38 12 60 48 76 126zM213 342l-56 -259c43 -12 77 -16 126 -16c97 0 172 27 231 83
c61 57 100 158 100 256c0 143 -88 222 -248 222c-27 0 -51 -1 -93 -6l-46 -214h215l-14 -66h-215z" />
    <glyph glyph-name="onehalf" unicode="&#xbd;" horiz-adv-x="945" 
d="M211 599h-120c83 15 132 40 198 101c7 7 15 14 24 21l-81 -377c-2 -10 -3 -23 -3 -32c0 -22 7 -29 31 -34h-161c39 6 45 14 57 66zM656 692h63l-487 -692h-64zM762 0h-305c95 86 124 114 202 193c62 62 80 90 80 119c0 32 -29 53 -72 53c-36 0 -62 -7 -110 -29l33 72
c37 10 67 15 96 15c83 0 136 -41 136 -104c0 -33 -15 -62 -48 -96c-26 -25 -26 -25 -116 -107c-39 -35 -49 -44 -61 -57c47 -1 76 -2 88 -2c62 0 91 6 144 28z" />
    <glyph glyph-name="plusminus" unicode="&#xb1;" 
d="M571 386v-69h-196v-191h-69v191h-197v69h197v201h69v-201h196zM571 69v-69h-462v69h462z" />
    <glyph glyph-name="Thorn" unicode="&#xde;" horiz-adv-x="541" 
d="M184 0h-187c38 12 60 49 76 127l95 445c6 28 9 48 9 67c0 28 -6 41 -27 56h188c-39 -12 -60 -48 -76 -126l-5 -20h64c86 0 132 -9 171 -34c39 -24 61 -68 61 -121c0 -129 -100 -223 -237 -223c-57 0 -91 11 -112 38c25 -4 37 -5 55 -5c114 0 194 72 194 173
c0 72 -50 110 -145 110c-22 0 -38 -1 -65 -4l-77 -360c-6 -31 -9 -49 -9 -67c0 -27 7 -41 27 -56z" />
    <glyph glyph-name="onequarter" unicode="&#xbc;" horiz-adv-x="945" 
d="M208 599h-120c83 15 132 40 198 101c7 7 15 14 24 21l-81 -377c-2 -10 -3 -23 -3 -32c0 -22 7 -29 31 -34h-161c39 6 45 14 57 66zM664 692h63l-488 -692h-63zM688 93h-232l281 324h90l-58 -272h12c34 0 56 4 79 15l-40 -67h-62l-6 -27c-3 -17 -4 -23 -4 -32
c0 -21 7 -29 32 -34h-154c39 8 45 15 56 66zM702 145l45 213l-186 -213h141z" />
    <glyph glyph-name="divide" unicode="&#xf7;" 
d="M571 386v-69h-462v69h462zM341 241c27 0 45 -22 45 -55c0 -35 -19 -59 -46 -59c-30 0 -47 21 -47 55c0 36 19 59 48 59zM341 577c27 0 45 -22 45 -55c0 -35 -19 -59 -46 -59c-30 0 -47 21 -47 55c0 36 19 59 48 59z" />
    <glyph glyph-name="brokenbar" unicode="&#xa6;" horiz-adv-x="222" 
d="M162 325h-72v350h72v-350zM162 -175h-72v350h72v-350z" />
    <glyph glyph-name="degree" unicode="&#xb0;" 
d="M386 705c78 0 144 -66 144 -146s-65 -145 -145 -145c-81 0 -147 65 -147 146s65 145 148 145zM383 651c-49 0 -90 -41 -90 -91s41 -91 92 -91c50 0 90 40 90 90c0 52 -41 92 -92 92z" />
    <glyph glyph-name="thorn" unicode="&#xfe;" horiz-adv-x="550" 
d="M268 717l-69 -318c41 62 88 89 159 89c104 0 162 -64 162 -180c0 -169 -115 -295 -269 -295c-33 0 -51 3 -82 15l-21 92c27 -27 61 -41 102 -41c103 0 179 91 179 213c0 76 -41 123 -108 123c-39 0 -77 -18 -104 -51c-27 -31 -38 -59 -56 -142l-72 -338
c-6 -28 -8 -42 -8 -52c0 -18 7 -30 26 -46h-164c38 24 49 42 60 98l130 608c30 141 30 141 30 154c0 18 -9 30 -34 47h39c44 0 67 6 100 24z" />
    <glyph glyph-name="threequarters" unicode="&#xbe;" horiz-adv-x="945" 
d="M150 469l13 61c25 -4 38 -5 55 -5c64 0 101 23 101 63c0 34 -28 57 -70 57c-37 0 -68 -10 -117 -38l42 78c39 11 63 15 91 15c81 0 134 -39 134 -99c0 -52 -29 -83 -96 -104c51 -11 79 -44 79 -92c0 -79 -80 -135 -195 -135c-30 0 -60 4 -109 14l-24 81
c48 -27 90 -39 134 -39c72 0 111 27 111 77c0 47 -35 70 -105 70c-18 0 -25 -1 -44 -4zM708 692h63l-487 -692h-64zM732 93h-231l280 324h91l-58 -272h12c34 0 55 4 79 15l-41 -67h-62l-5 -27c-3 -13 -4 -22 -4 -32c0 -21 7 -29 32 -34h-155c39 8 45 15 57 66zM746 145
l46 213l-186 -213h140z" />
    <glyph glyph-name="twosuperior" unicode="&#xb2;" horiz-adv-x="404" 
d="M330 278h-305c100 91 127 117 202 193c62 63 80 90 80 119c0 32 -29 53 -72 53c-36 0 -62 -7 -110 -29l33 72c37 10 67 15 96 15c83 0 136 -41 136 -104c0 -33 -15 -62 -48 -96c-26 -25 -26 -25 -116 -107c-40 -36 -49 -45 -61 -57c47 -1 76 -2 87 -2c64 0 90 5 145 28z
" />
    <glyph glyph-name="registered" unicode="&#xae;" horiz-adv-x="816" 
d="M455 714c191 0 344 -154 344 -346c0 -210 -176 -385 -387 -385c-195 0 -348 152 -348 346c0 211 176 385 391 385zM444 671c-178 0 -332 -157 -332 -340c0 -171 133 -305 302 -305c183 0 336 155 336 339c0 174 -132 306 -306 306zM423 521l-82 -307
c-5 -17 -6 -25 -6 -34c0 -15 7 -21 34 -30h-162c43 8 51 17 64 66l77 287c5 18 6 26 6 34c0 14 -7 21 -34 30h152c92 0 132 -26 132 -86c0 -67 -51 -113 -135 -124l11 -25c66 -141 89 -168 147 -179c-25 -5 -46 -8 -66 -8c-33 0 -53 10 -72 38c-20 27 -55 97 -71 142l-21 60
c10 -2 15 -3 23 -3c62 0 110 38 110 88c0 36 -24 52 -77 52c-6 0 -14 0 -30 -1z" />
    <glyph glyph-name="minus" unicode="&#x2212;" 
d="M571 386v-69h-462v69h462z" />
    <glyph glyph-name="eth" unicode="&#xf0;" horiz-adv-x="532" 
d="M222 616l92 37c-15 38 -17 43 -27 64l57 25c14 -26 18 -35 32 -62l92 38l19 -43l-90 -38l28 -61c69 -156 78 -186 78 -255c0 -95 -38 -197 -97 -259c-50 -51 -112 -78 -183 -78c-120 0 -190 72 -190 198c0 159 123 305 258 305c35 0 61 -8 95 -30c-14 46 -31 94 -56 153
l-91 -38zM292 425c-47 0 -87 -25 -120 -77c-30 -46 -45 -98 -45 -153c0 -96 40 -148 114 -148c92 0 164 103 164 234c0 93 -40 144 -113 144z" />
    <glyph glyph-name="multiply" unicode="&#xd7;" 
d="M479 539l49 -48l-141 -139l144 -143l-49 -48l-142 143l-139 -140l-49 49l141 139l-144 142l49 49l142 -144z" />
    <glyph glyph-name="threesuperior" unicode="&#xb3;" horiz-adv-x="404" 
d="M147 469l13 61c25 -4 38 -5 55 -5c64 0 101 23 101 63c0 34 -28 57 -70 57c-37 0 -68 -10 -117 -38l42 78c39 11 63 15 91 15c81 0 134 -39 134 -99c0 -52 -29 -83 -96 -104c51 -11 79 -44 79 -92c0 -79 -80 -135 -195 -135c-30 0 -60 4 -109 14l-24 81
c48 -27 90 -39 134 -39c72 0 111 27 111 77c0 47 -35 70 -105 70c-18 0 -25 -1 -44 -4z" />
    <glyph glyph-name="copyright" unicode="&#xa9;" horiz-adv-x="816" 
d="M455 714c191 0 344 -154 344 -346c0 -210 -176 -385 -387 -385c-195 0 -348 152 -348 346c0 211 176 385 391 385zM444 671c-178 0 -332 -157 -332 -340c0 -171 133 -305 302 -305c183 0 336 155 336 339c0 174 -132 306 -306 306zM593 551l-6 -100
c-32 48 -53 60 -104 60c-49 0 -92 -16 -123 -46c-33 -31 -56 -89 -56 -140c0 -82 51 -134 133 -134c64 0 104 17 154 63l-37 -94c-43 -17 -82 -25 -127 -25c-122 0 -197 70 -197 182c0 140 116 248 266 248c35 0 63 -4 97 -14z" />
    <glyph glyph-name="Aacute" unicode="&#xc1;" horiz-adv-x="680" 
d="M471 256h-271l-87 -146c-30 -49 -37 -65 -37 -79s8 -23 26 -31h-178c36 13 47 24 84 86l307 486c29 47 40 71 40 86c0 18 -9 29 -31 37h163l100 -564c17 -93 27 -114 65 -131h-180c23 10 34 26 34 48c0 8 0 8 -8 54zM459 323l-49 284l-169 -284h218zM615 897l45 -74
l-282 -77z" />
    <glyph glyph-name="Acircumflex" unicode="&#xc2;" horiz-adv-x="680" 
d="M471 256h-271l-87 -146c-30 -49 -37 -65 -37 -79s8 -23 26 -31h-178c36 13 47 24 84 86l307 486c29 47 40 71 40 86c0 18 -9 29 -31 37h163l100 -564c17 -93 27 -114 65 -131h-180c23 10 34 26 34 48c0 8 0 8 -8 54zM459 323l-49 284l-169 -284h218zM467 902l145 -155
c-50 2 -100 22 -159 62c-49 -32 -138 -60 -184 -59z" />
    <glyph glyph-name="Adieresis" unicode="&#xc4;" horiz-adv-x="680" 
d="M471 256h-271l-87 -146c-30 -49 -37 -65 -37 -79s8 -23 26 -31h-178c36 13 47 24 84 86l307 486c29 47 40 71 40 86c0 18 -9 29 -31 37h163l100 -564c17 -93 27 -114 65 -131h-180c23 10 34 26 34 48c0 8 0 8 -8 54zM459 323l-49 284l-169 -284h218zM403 882
c28 0 44 -18 44 -50c0 -47 -29 -84 -64 -84c-28 0 -46 20 -46 51c0 49 27 83 66 83zM551 882c27 0 44 -19 44 -50c0 -46 -29 -84 -64 -84c-28 0 -46 20 -46 51c0 49 27 83 66 83z" />
    <glyph glyph-name="Agrave" unicode="&#xc0;" horiz-adv-x="680" 
d="M471 256h-271l-87 -146c-30 -49 -37 -65 -37 -79s8 -23 26 -31h-178c36 13 47 24 84 86l307 486c29 47 40 71 40 86c0 18 -9 29 -31 37h163l100 -564c17 -93 27 -114 65 -131h-180c23 10 34 26 34 48c0 8 0 8 -8 54zM459 323l-49 284l-169 -284h218zM307 897l172 -151
l-249 77z" />
    <glyph glyph-name="Aring" unicode="&#xc5;" horiz-adv-x="680" 
d="M471 256h-271l-87 -146c-30 -49 -37 -65 -37 -79s8 -23 26 -31h-178c36 13 47 24 84 86l307 486c29 47 40 71 40 86c0 18 -9 29 -31 37h163l100 -564c17 -93 27 -114 65 -131h-180c23 10 34 26 34 48c0 8 0 8 -8 54zM459 323l-49 284l-169 -284h218zM472 953
c67 0 104 -34 104 -96c0 -72 -47 -118 -122 -118c-63 0 -101 36 -101 96c0 73 45 118 119 118zM469 905c-34 0 -59 -27 -59 -65c0 -32 19 -52 50 -52c37 0 60 25 60 65c0 34 -17 52 -51 52z" />
    <glyph glyph-name="Atilde" unicode="&#xc3;" horiz-adv-x="680" 
d="M471 256h-271l-87 -146c-30 -49 -37 -65 -37 -79s8 -23 26 -31h-178c36 13 47 24 84 86l307 486c29 47 40 71 40 86c0 18 -9 29 -31 37h163l100 -564c17 -93 27 -114 65 -131h-180c23 10 34 26 34 48c0 8 0 8 -8 54zM459 323l-49 284l-169 -284h218zM270 770l16 37
c15 36 45 55 86 55c20 0 42 -3 92 -14c59 -13 91 -18 111 -18c27 0 49 12 78 40c-24 -57 -24 -57 -32 -71c-17 -25 -38 -37 -69 -37c-24 0 -38 2 -123 20c-47 10 -70 13 -85 13c-30 0 -55 -12 -81 -42c3 6 5 11 7 17z" />
    <glyph glyph-name="Ccedilla" unicode="&#xc7;" horiz-adv-x="633" 
d="M621 681l-10 -136c-38 61 -78 82 -155 82c-79 0 -150 -28 -203 -80c-56 -57 -95 -158 -95 -250c0 -142 83 -230 216 -230c90 0 165 28 226 86l-48 -127c-58 -25 -125 -40 -189 -40l-18 -35c11 1 19 2 26 2c41 0 71 -32 71 -74c0 -51 -47 -80 -131 -80c-23 0 -34 1 -60 8
l-8 58c30 -12 57 -17 83 -17c28 0 46 13 46 32s-13 29 -36 29c-12 0 -21 -1 -58 -6h-4l43 86c-81 11 -128 29 -170 66c-56 50 -90 136 -90 229c0 131 63 259 165 337c72 55 157 82 254 82c52 0 94 -6 145 -22z" />
    <glyph glyph-name="Eacute" unicode="&#xc9;" horiz-adv-x="532" 
d="M517 695l-22 -129c-11 45 -41 59 -127 59c-28 0 -51 -1 -95 -5l-45 -208h105c48 0 70 2 92 9l-29 -135c-3 42 -18 52 -79 52h-105l-55 -256c40 -8 74 -10 141 -10c118 0 159 12 226 67l-79 -139h-448c38 12 60 48 76 127l95 445c6 27 9 48 9 67c0 28 -6 40 -27 56h367z
M481 905l51 -70l-274 -101z" />
    <glyph glyph-name="Ecircumflex" unicode="&#xca;" horiz-adv-x="532" 
d="M517 695l-22 -129c-11 45 -41 59 -127 59c-28 0 -51 -1 -95 -5l-45 -208h105c48 0 70 2 92 9l-29 -135c-3 42 -18 52 -79 52h-105l-55 -256c40 -8 74 -10 141 -10c118 0 159 12 226 67l-79 -139h-448c38 12 60 48 76 127l95 445c6 27 9 48 9 67c0 28 -6 40 -27 56h367z
M401 909l142 -169c-49 2 -98 26 -156 76c-51 -39 -139 -74 -187 -73z" />
    <glyph glyph-name="Edieresis" unicode="&#xcb;" horiz-adv-x="532" 
d="M517 695l-22 -129c-11 45 -41 59 -127 59c-28 0 -51 -1 -95 -5l-45 -208h105c48 0 70 2 92 9l-29 -135c-3 42 -18 52 -79 52h-105l-55 -256c40 -8 74 -10 141 -10c118 0 159 12 226 67l-79 -139h-448c38 12 60 48 76 127l95 445c6 27 9 48 9 67c0 28 -6 40 -27 56h367z
M311 882c27 0 44 -19 44 -50c0 -46 -29 -84 -64 -84c-28 0 -46 20 -46 51c0 49 27 83 66 83zM476 882c27 0 44 -19 44 -49c0 -47 -29 -85 -64 -85c-28 0 -46 20 -46 51c0 49 27 83 66 83z" />
    <glyph glyph-name="Egrave" unicode="&#xc8;" horiz-adv-x="532" 
d="M517 695l-22 -129c-11 45 -41 59 -127 59c-28 0 -51 -1 -95 -5l-45 -208h105c48 0 70 2 92 9l-29 -135c-3 42 -18 52 -79 52h-105l-55 -256c40 -8 74 -10 141 -10c118 0 159 12 226 67l-79 -139h-448c38 12 60 48 76 127l95 445c6 27 9 48 9 67c0 28 -6 40 -27 56h367z
M280 897l172 -151l-249 77z" />
    <glyph glyph-name="Iacute" unicode="&#xcd;" horiz-adv-x="289" 
d="M184 0h-187c38 12 60 49 76 127l95 445c6 28 9 48 9 67c0 28 -6 41 -27 56h188c-39 -12 -60 -48 -76 -126l-96 -446c-6 -31 -9 -49 -9 -67c0 -27 7 -41 27 -56zM417 897l45 -74l-282 -77z" />
    <glyph glyph-name="Icircumflex" unicode="&#xce;" horiz-adv-x="289" 
d="M184 0h-187c38 12 60 49 76 127l95 445c6 28 9 48 9 67c0 28 -6 41 -27 56h188c-39 -12 -60 -48 -76 -126l-96 -446c-6 -31 -9 -49 -9 -67c0 -27 7 -41 27 -56zM280 902l145 -155c-50 2 -100 22 -159 62c-49 -32 -138 -60 -184 -59z" />
    <glyph glyph-name="Idieresis" unicode="&#xcf;" horiz-adv-x="289" 
d="M184 0h-187c38 12 60 49 76 127l95 445c6 28 9 48 9 67c0 28 -6 41 -27 56h188c-39 -12 -60 -48 -76 -126l-96 -446c-6 -31 -9 -49 -9 -67c0 -27 7 -41 27 -56zM203 882c27 0 43 -19 43 -50c0 -46 -28 -84 -62 -84c-27 0 -44 20 -44 51c0 49 26 83 63 83zM354 882
c27 0 43 -18 43 -50c0 -46 -28 -84 -62 -84c-27 0 -44 20 -44 53c0 47 27 81 63 81z" />
    <glyph glyph-name="Igrave" unicode="&#xcc;" horiz-adv-x="289" 
d="M184 0h-187c38 12 60 49 76 127l95 445c6 28 9 48 9 67c0 28 -6 41 -27 56h188c-39 -12 -60 -48 -76 -126l-96 -446c-6 -31 -9 -49 -9 -67c0 -27 7 -41 27 -56zM144 897l172 -151l-249 77z" />
    <glyph glyph-name="Ntilde" unicode="&#xd1;" horiz-adv-x="742" 
d="M558 132l87 437c7 37 9 51 9 67c0 28 -7 41 -27 56h171c-39 -13 -60 -48 -76 -127l-110 -510l38 -63c-16 -3 -24 -4 -38 -4c-48 0 -77 14 -103 51c-9 12 -60 104 -70 124l-198 412l-89 -452c-7 -32 -9 -51 -9 -68c0 -27 7 -40 27 -55h-172c38 12 60 48 76 126l87 408
c9 39 13 68 13 86c0 27 -11 49 -38 75h146c4 -20 13 -40 41 -93zM313 770l16 37c15 36 45 55 86 55c20 0 42 -3 92 -14c59 -13 91 -18 111 -18c27 0 49 12 78 40c-24 -57 -24 -57 -32 -71c-17 -25 -38 -37 -69 -37c-24 0 -38 2 -123 20c-47 10 -70 13 -85 13
c-30 0 -55 -12 -81 -42c3 6 5 11 7 17z" />
    <glyph glyph-name="Oacute" unicode="&#xd3;" horiz-adv-x="720" 
d="M437 710c168 0 266 -109 266 -296c0 -248 -157 -428 -373 -428c-168 0 -269 111 -269 295c0 138 63 278 160 356c60 49 131 73 216 73zM420 645c-146 0 -258 -158 -258 -365c0 -147 66 -229 183 -229c85 0 148 40 197 124c37 64 60 156 60 243c0 142 -68 227 -182 227z
M611 897l45 -74l-282 -77z" />
    <glyph glyph-name="Ocircumflex" unicode="&#xd4;" horiz-adv-x="720" 
d="M437 710c168 0 266 -109 266 -296c0 -248 -157 -428 -373 -428c-168 0 -269 111 -269 295c0 138 63 278 160 356c60 49 131 73 216 73zM420 645c-146 0 -258 -158 -258 -365c0 -147 66 -229 183 -229c85 0 148 40 197 124c37 64 60 156 60 243c0 142 -68 227 -182 227z
M481 902l145 -155c-50 2 -100 22 -159 62c-49 -32 -138 -60 -184 -59z" />
    <glyph glyph-name="Odieresis" unicode="&#xd6;" horiz-adv-x="720" 
d="M437 710c168 0 266 -109 266 -296c0 -248 -157 -428 -373 -428c-168 0 -269 111 -269 295c0 138 63 278 160 356c60 49 131 73 216 73zM420 645c-146 0 -258 -158 -258 -365c0 -147 66 -229 183 -229c85 0 148 40 197 124c37 64 60 156 60 243c0 142 -68 227 -182 227z
M412 882c27 0 44 -19 44 -50c0 -46 -29 -84 -64 -84c-28 0 -46 20 -46 51c0 49 27 83 66 83zM577 882c27 0 44 -19 44 -49c0 -47 -29 -85 -64 -85c-28 0 -46 20 -46 51c0 49 27 83 66 83z" />
    <glyph glyph-name="Ograve" unicode="&#xd2;" horiz-adv-x="720" 
d="M437 710c168 0 266 -109 266 -296c0 -248 -157 -428 -373 -428c-168 0 -269 111 -269 295c0 138 63 278 160 356c60 49 131 73 216 73zM420 645c-146 0 -258 -158 -258 -365c0 -147 66 -229 183 -229c85 0 148 40 197 124c37 64 60 156 60 243c0 142 -68 227 -182 227z
M318 897l172 -151l-249 77z" />
    <glyph glyph-name="Otilde" unicode="&#xd5;" horiz-adv-x="720" 
d="M437 710c168 0 266 -109 266 -296c0 -248 -157 -428 -373 -428c-168 0 -269 111 -269 295c0 138 63 278 160 356c60 49 131 73 216 73zM420 645c-146 0 -258 -158 -258 -365c0 -147 66 -229 183 -229c85 0 148 40 197 124c37 64 60 156 60 243c0 142 -68 227 -182 227z
M294 770l16 37c15 36 45 55 86 55c20 0 42 -3 92 -14c59 -13 91 -18 111 -18c27 0 49 12 78 40c-24 -57 -24 -57 -32 -71c-17 -25 -38 -37 -69 -37c-24 0 -38 2 -123 20c-47 10 -70 13 -85 13c-30 0 -55 -12 -81 -42c3 6 5 11 7 17z" />
    <glyph glyph-name="Scaron" unicode="&#x160;" horiz-adv-x="536" 
d="M515 677l-13 -136c-24 58 -79 91 -152 91c-80 0 -135 -43 -135 -104c0 -50 31 -83 142 -150c99 -60 132 -104 132 -178c0 -130 -112 -214 -286 -214c-59 0 -104 8 -163 31l-26 141c59 -63 134 -97 217 -97c98 0 159 48 159 126c0 51 -29 82 -133 143
c-106 61 -143 108 -143 179c0 54 27 107 72 143c44 34 102 51 176 51c56 0 101 -8 153 -26zM376 747l-145 155c49 -2 101 -22 160 -62c44 31 136 61 183 59z" />
    <glyph glyph-name="Uacute" unicode="&#xda;" horiz-adv-x="698" 
d="M453 0l25 78c-62 -60 -134 -90 -217 -90c-111 0 -195 68 -195 159c0 21 4 53 14 96l70 329c6 27 9 51 9 68c0 26 -7 40 -27 55h187c-38 -13 -59 -48 -75 -126l-63 -292c-11 -50 -14 -73 -14 -99c0 -73 52 -119 137 -119c64 0 119 26 163 77c29 34 33 45 54 141l62 292
c5 21 8 49 8 71c0 30 -8 45 -29 55h191c-38 -13 -59 -48 -76 -126l-95 -446c-6 -29 -9 -50 -9 -67c0 -27 7 -41 27 -56h-147zM635 897l45 -74l-282 -77z" />
    <glyph glyph-name="Ucircumflex" unicode="&#xdb;" horiz-adv-x="698" 
d="M453 0l25 78c-62 -60 -134 -90 -217 -90c-111 0 -195 68 -195 159c0 21 4 53 14 96l70 329c6 27 9 51 9 68c0 26 -7 40 -27 55h187c-38 -13 -59 -48 -75 -126l-63 -292c-11 -50 -14 -73 -14 -99c0 -73 52 -119 137 -119c64 0 119 26 163 77c29 34 33 45 54 141l62 292
c5 21 8 49 8 71c0 30 -8 45 -29 55h191c-38 -13 -59 -48 -76 -126l-95 -446c-6 -29 -9 -50 -9 -67c0 -27 7 -41 27 -56h-147zM484 902l145 -155c-50 2 -100 22 -159 62c-49 -32 -138 -60 -184 -59z" />
    <glyph glyph-name="Udieresis" unicode="&#xdc;" horiz-adv-x="698" 
d="M453 0l25 78c-62 -60 -134 -90 -217 -90c-111 0 -195 68 -195 159c0 21 4 53 14 96l70 329c6 27 9 51 9 68c0 26 -7 40 -27 55h187c-38 -13 -59 -48 -75 -126l-63 -292c-11 -50 -14 -73 -14 -99c0 -73 52 -119 137 -119c64 0 119 26 163 77c29 34 33 45 54 141l62 292
c5 21 8 49 8 71c0 30 -8 45 -29 55h191c-38 -13 -59 -48 -76 -126l-95 -446c-6 -29 -9 -50 -9 -67c0 -27 7 -41 27 -56h-147zM401 882c27 0 44 -19 44 -50c0 -46 -29 -84 -64 -84c-28 0 -46 20 -46 51c0 49 27 83 66 83zM566 882c27 0 44 -19 44 -49c0 -47 -29 -85 -64 -85
c-28 0 -46 20 -46 51c0 49 27 83 66 83z" />
    <glyph glyph-name="Ugrave" unicode="&#xd9;" horiz-adv-x="698" 
d="M453 0l25 78c-62 -60 -134 -90 -217 -90c-111 0 -195 68 -195 159c0 21 4 53 14 96l70 329c6 27 9 51 9 68c0 26 -7 40 -27 55h187c-38 -13 -59 -48 -75 -126l-63 -292c-11 -50 -14 -73 -14 -99c0 -73 52 -119 137 -119c64 0 119 26 163 77c29 34 33 45 54 141l62 292
c5 21 8 49 8 71c0 30 -8 45 -29 55h191c-38 -13 -59 -48 -76 -126l-95 -446c-6 -29 -9 -50 -9 -67c0 -27 7 -41 27 -56h-147zM335 897l172 -151l-249 77z" />
    <glyph glyph-name="Yacute" unicode="&#xdd;" horiz-adv-x="594" 
d="M377 308l-39 -181c-6 -29 -9 -50 -9 -68c0 -27 7 -40 27 -55h-187c38 12 60 49 75 126l39 178c-67 178 -157 340 -217 387c24 6 38 8 58 8c52 0 82 -19 115 -72c39 -63 72 -135 112 -243l200 243c11 13 16 25 16 35s-5 18 -18 29h146zM555 897l45 -74l-282 -77z" />
    <glyph glyph-name="Ydieresis" unicode="&#x178;" horiz-adv-x="594" 
d="M377 308l-39 -181c-6 -29 -9 -50 -9 -68c0 -27 7 -40 27 -55h-187c38 12 60 49 75 126l39 178c-67 178 -157 340 -217 387c24 6 38 8 58 8c52 0 82 -19 115 -72c39 -63 72 -135 112 -243l200 243c11 13 16 25 16 35s-5 18 -18 29h146zM342 882c27 0 44 -19 44 -50
c0 -46 -29 -84 -64 -84c-28 0 -46 20 -46 51c0 49 27 83 66 83zM507 882c27 0 44 -19 44 -49c0 -47 -29 -85 -64 -85c-28 0 -46 20 -46 51c0 49 27 83 66 83z" />
    <glyph glyph-name="Zcaron" unicode="&#x17d;" 
d="M672 695l-522 -610c71 -9 146 -14 218 -14c99 0 173 20 234 64l-85 -135h-548l524 614c-40 7 -88 10 -146 10c-93 0 -139 -13 -206 -58l72 129h459zM437 747l-145 155c49 -2 101 -22 160 -62c44 31 136 61 183 59z" />
    <glyph glyph-name="aacute" unicode="&#xe1;" horiz-adv-x="554" 
d="M331 88l-76 -94c-25 -8 -38 -10 -58 -10c-101 0 -167 74 -167 189c0 175 134 311 308 311c31 0 54 -3 94 -10c10 -2 18 -3 23 -3c16 0 39 7 67 19l-70 -329c-7 -31 -11 -57 -11 -70c0 -23 16 -37 41 -37c15 0 26 3 43 10l-65 -71c-14 -2 -22 -3 -34 -3
c-50 0 -79 26 -79 71c0 15 0 15 8 53l60 278c-31 19 -55 26 -90 26c-57 0 -113 -25 -146 -64c-36 -44 -58 -107 -58 -169c0 -45 8 -71 30 -94c18 -19 44 -30 70 -30c33 0 68 8 110 27zM505 713l50 -68l-266 -98z" />
    <glyph glyph-name="acircumflex" unicode="&#xe2;" horiz-adv-x="554" 
d="M331 88l-76 -94c-25 -8 -38 -10 -58 -10c-101 0 -167 74 -167 189c0 175 134 311 308 311c31 0 54 -3 94 -10c10 -2 18 -3 23 -3c16 0 39 7 67 19l-70 -329c-7 -31 -11 -57 -11 -70c0 -23 16 -37 41 -37c15 0 26 3 43 10l-65 -71c-14 -2 -22 -3 -34 -3
c-50 0 -79 26 -79 71c0 15 0 15 8 53l60 278c-31 19 -55 26 -90 26c-57 0 -113 -25 -146 -64c-36 -44 -58 -107 -58 -169c0 -45 8 -71 30 -94c18 -19 44 -30 70 -30c33 0 68 8 110 27zM375 724l126 -175c-45 2 -89 30 -139 90c-49 -47 -133 -89 -176 -87z" />
    <glyph glyph-name="adieresis" unicode="&#xe4;" horiz-adv-x="554" 
d="M332 88l-76 -94c-25 -8 -38 -10 -58 -10c-101 0 -167 74 -167 189c0 175 134 311 308 311c31 0 54 -3 94 -10c10 -2 18 -3 23 -3c16 0 39 7 67 19l-70 -329c-7 -31 -11 -57 -11 -70c0 -23 16 -37 41 -37c15 0 26 3 43 10l-65 -71c-14 -2 -22 -3 -34 -3
c-50 0 -79 26 -79 71c0 15 0 15 8 53l60 278c-31 19 -55 26 -90 26c-57 0 -113 -25 -146 -64c-36 -44 -58 -107 -58 -169c0 -45 8 -71 30 -94c18 -19 44 -30 70 -30c33 0 68 8 110 27zM299 692c27 0 43 -18 43 -49c0 -44 -28 -81 -62 -81c-27 0 -44 19 -44 49
c0 48 26 81 63 81zM441 692c27 0 43 -18 43 -49c0 -45 -28 -81 -62 -81c-27 0 -44 19 -44 49c0 48 26 81 63 81z" />
    <glyph glyph-name="agrave" unicode="&#xe0;" horiz-adv-x="554" 
d="M331 88l-76 -94c-25 -8 -38 -10 -58 -10c-101 0 -167 74 -167 189c0 175 134 311 308 311c31 0 54 -3 94 -10c10 -2 18 -3 23 -3c16 0 39 7 67 19l-70 -329c-7 -31 -11 -57 -11 -70c0 -23 16 -37 41 -37c15 0 26 3 43 10l-65 -71c-14 -2 -22 -3 -34 -3
c-50 0 -79 26 -79 71c0 15 0 15 8 53l60 278c-31 19 -55 26 -90 26c-57 0 -113 -25 -146 -64c-36 -44 -58 -107 -58 -169c0 -45 8 -71 30 -94c18 -19 44 -30 70 -30c33 0 68 8 110 27zM279 713l145 -166l-224 98z" />
    <glyph glyph-name="aring" unicode="&#xe5;" horiz-adv-x="554" 
d="M331 88l-76 -94c-25 -8 -38 -10 -58 -10c-101 0 -167 74 -167 189c0 175 134 311 308 311c31 0 54 -3 94 -10c10 -2 18 -3 23 -3c16 0 39 7 67 19l-70 -329c-7 -31 -11 -57 -11 -70c0 -23 16 -37 41 -37c15 0 26 3 43 10l-65 -71c-14 -2 -22 -3 -34 -3
c-50 0 -79 26 -79 71c0 15 0 15 8 53l60 278c-31 19 -55 26 -90 26c-57 0 -113 -25 -146 -64c-36 -44 -58 -107 -58 -169c0 -45 8 -71 30 -94c18 -19 44 -30 70 -30c33 0 68 8 110 27zM371 755c64 0 99 -33 99 -92c0 -68 -45 -112 -115 -112c-60 0 -96 35 -96 92
c0 69 43 112 112 112zM369 709c-32 0 -56 -26 -56 -62c0 -31 19 -50 48 -50c35 0 57 24 57 63c0 32 -17 49 -49 49z" />
    <glyph glyph-name="atilde" unicode="&#xe3;" horiz-adv-x="554" 
d="M331 88l-76 -94c-25 -8 -38 -10 -58 -10c-101 0 -167 74 -167 189c0 175 134 311 308 311c31 0 54 -3 94 -10c10 -2 18 -3 23 -3c16 0 39 7 67 19l-70 -329c-7 -31 -11 -57 -11 -70c0 -23 16 -37 41 -37c15 0 26 3 43 10l-65 -71c-14 -2 -22 -3 -34 -3
c-50 0 -79 26 -79 71c0 15 0 15 8 53l60 278c-31 19 -55 26 -90 26c-57 0 -113 -25 -146 -64c-36 -44 -58 -107 -58 -169c0 -45 8 -71 30 -94c18 -19 44 -30 70 -30c33 0 68 8 110 27zM192 586l15 36c14 35 42 55 80 55c19 0 38 -3 82 -15c52 -14 82 -20 98 -20
c23 0 43 12 68 41c-21 -56 -21 -56 -29 -69c-15 -24 -34 -36 -60 -36c-21 0 -34 3 -109 21c-41 10 -61 14 -75 14c-29 0 -52 -13 -77 -44z" />
    <glyph glyph-name="ccedilla" unicode="&#xe7;" horiz-adv-x="441" 
d="M404 118l-42 -104c-39 -19 -73 -27 -108 -27c-2 0 -5 0 -9 1l-17 -35c10 2 19 3 25 3c38 0 67 -30 67 -70c0 -49 -45 -77 -124 -77c-21 0 -32 1 -58 7l-7 56c28 -11 55 -16 79 -16c26 0 43 12 43 31c0 17 -12 27 -34 27c-10 0 -29 -2 -58 -6l40 80
c-111 9 -175 73 -175 173c0 101 52 210 126 266c46 34 107 54 168 54c73 0 122 -34 122 -84c0 -39 -29 -64 -72 -64c-16 0 -25 2 -42 10c13 7 20 19 20 34c0 21 -23 38 -54 38c-98 0 -177 -101 -177 -225c0 -85 46 -135 123 -135c57 0 105 18 164 63z" />
    <glyph glyph-name="eacute" unicode="&#xe9;" horiz-adv-x="441" 
d="M396 125l-29 -96c-57 -28 -122 -45 -174 -45c-110 0 -170 57 -170 160c0 93 40 194 103 257c53 54 116 80 192 80c77 0 128 -38 128 -95c0 -103 -127 -182 -335 -208c-1 -7 -1 -11 -1 -14c0 -27 9 -52 25 -73c21 -27 46 -38 88 -38c65 0 122 24 173 72zM117 229
c68 8 124 26 174 55c43 25 61 49 61 78c0 32 -26 54 -64 54c-75 0 -152 -85 -171 -187zM473 713l50 -68l-266 -98z" />
    <glyph glyph-name="ecircumflex" unicode="&#xea;" horiz-adv-x="441" 
d="M396 125l-29 -96c-57 -28 -122 -45 -174 -45c-110 0 -170 57 -170 160c0 93 40 194 103 257c53 54 116 80 192 80c77 0 128 -38 128 -95c0 -103 -127 -182 -335 -208c-1 -7 -1 -11 -1 -14c0 -27 9 -52 25 -73c21 -27 46 -38 88 -38c65 0 122 24 173 72zM117 229
c68 8 124 26 174 55c43 25 61 49 61 78c0 32 -26 54 -64 54c-75 0 -152 -85 -171 -187zM349 724l126 -175c-45 2 -89 30 -139 90c-49 -47 -133 -89 -176 -87z" />
    <glyph glyph-name="edieresis" unicode="&#xeb;" horiz-adv-x="441" 
d="M397 125l-29 -96c-57 -28 -122 -45 -174 -45c-110 0 -170 57 -170 160c0 93 40 194 103 257c53 54 116 80 192 80c77 0 128 -38 128 -95c0 -103 -127 -182 -335 -208c-1 -7 -1 -11 -1 -14c0 -27 9 -52 25 -73c21 -27 46 -38 88 -38c65 0 122 24 173 72zM118 229
c68 8 124 26 174 55c43 25 61 49 61 78c0 32 -26 54 -64 54c-75 0 -152 -85 -171 -187zM253 692c28 0 44 -18 44 -49c0 -44 -28 -81 -63 -81c-26 0 -44 19 -44 49c0 48 26 81 63 81zM403 692c27 0 43 -18 43 -49c0 -45 -28 -81 -62 -81c-27 0 -44 20 -44 50
c0 47 26 80 63 80z" />
    <glyph glyph-name="egrave" unicode="&#xe8;" horiz-adv-x="441" 
d="M397 125l-29 -96c-57 -28 -122 -45 -174 -45c-110 0 -170 57 -170 160c0 93 40 194 103 257c53 54 116 80 192 80c77 0 128 -38 128 -95c0 -103 -127 -182 -335 -208c-1 -7 -1 -11 -1 -14c0 -27 9 -52 25 -73c21 -27 46 -38 88 -38c65 0 122 24 173 72zM118 229
c68 8 124 26 174 55c43 25 61 49 61 78c0 32 -26 54 -64 54c-75 0 -152 -85 -171 -187zM244 713l145 -166l-224 98z" />
    <glyph glyph-name="iacute" unicode="&#xed;" horiz-adv-x="250" 
d="M222 64l-65 -71c-15 -2 -23 -3 -34 -3c-49 0 -78 27 -78 72c0 16 2 27 9 61l31 147c32 147 32 147 32 162c0 18 -11 31 -33 40h12h25c44 0 66 6 99 24l-69 -325c-8 -37 -12 -61 -12 -77c0 -25 15 -40 40 -40c15 0 27 3 43 10zM333 713l49 -68l-266 -98z" />
    <glyph glyph-name="icircumflex" unicode="&#xee;" horiz-adv-x="250" 
d="M221 64l-65 -71c-15 -2 -22 -3 -33 -3c-50 0 -79 27 -79 73c0 17 0 17 9 60l32 147c25 115 31 149 31 162c0 18 -11 31 -33 40h12h25c44 0 66 5 100 24l-70 -325c-8 -39 -12 -62 -12 -77c0 -25 15 -40 41 -40c14 0 26 3 42 10zM223 724l126 -175c-45 2 -89 30 -139 90
c-49 -47 -133 -89 -176 -87z" />
    <glyph glyph-name="idieresis" unicode="&#xef;" horiz-adv-x="250" 
d="M222 64l-65 -71c-15 -2 -23 -3 -34 -3c-49 0 -78 27 -78 72c0 16 2 27 9 61l31 147c32 147 32 147 32 162c0 18 -11 31 -33 40h12h25c44 0 66 6 99 24l-69 -325c-8 -37 -12 -61 -12 -77c0 -25 15 -40 40 -40c15 0 27 3 43 10zM150 690c26 0 41 -18 41 -47
c0 -44 -26 -79 -59 -79c-26 0 -42 19 -42 50c0 44 25 76 60 76zM288 690c26 0 41 -18 41 -48c0 -43 -26 -78 -59 -78c-26 0 -42 19 -42 50c0 44 25 76 60 76z" />
    <glyph glyph-name="igrave" unicode="&#xec;" horiz-adv-x="250" 
d="M221 64l-65 -71c-14 -2 -22 -3 -33 -3c-50 0 -78 27 -78 73c0 17 2 30 8 60l32 147c25 118 31 149 31 162c0 18 -11 31 -33 40h12h25c44 0 66 5 100 24l-70 -325c-7 -31 -11 -62 -11 -78c0 -24 15 -39 40 -39c15 0 26 3 42 10zM120 713l145 -166l-224 98z" />
    <glyph glyph-name="ntilde" unicode="&#xf1;" horiz-adv-x="571" 
d="M542 64l-65 -71c-15 -2 -22 -3 -33 -3c-50 0 -79 27 -79 73c0 17 1 20 9 59l40 189c7 31 8 37 8 49c0 38 -28 59 -78 59c-48 0 -97 -25 -129 -64c-26 -32 -42 -76 -61 -163l-20 -94c-6 -28 -8 -42 -8 -52c0 -18 7 -30 26 -46h-164c38 23 49 43 60 98l22 105
c45 212 45 212 45 226c0 18 -10 31 -33 41h13c16 -1 29 -1 33 -1c34 0 61 7 91 25l-21 -95c59 64 111 89 189 89c79 0 126 -34 126 -93c0 -17 -4 -44 -10 -75l-32 -149c-7 -32 -11 -61 -11 -77c0 -25 15 -40 40 -40c14 0 26 3 42 10zM207 586l15 36c14 36 43 55 80 55
c19 0 38 -3 83 -15c52 -14 81 -20 97 -20c23 0 43 12 68 41c-2 -5 -7 -19 -16 -42c-17 -44 -39 -63 -73 -63c-21 0 -34 3 -109 21c-41 10 -61 14 -74 14c-30 0 -53 -13 -78 -44z" />
    <glyph glyph-name="oacute" unicode="&#xf3;" horiz-adv-x="532" 
d="M315 488c112 0 185 -72 185 -185c0 -89 -38 -187 -95 -244c-50 -50 -111 -75 -181 -75c-122 0 -193 70 -193 191c0 89 38 182 97 241c48 47 113 72 187 72zM292 425c-47 0 -88 -25 -120 -73c-28 -43 -47 -108 -47 -166c0 -88 42 -139 115 -139c95 0 166 104 166 241
c0 88 -41 137 -114 137zM473 713l50 -68l-266 -98z" />
    <glyph glyph-name="ocircumflex" unicode="&#xf4;" horiz-adv-x="532" 
d="M318 488c112 0 185 -72 185 -185c0 -89 -38 -187 -95 -244c-50 -50 -111 -75 -181 -75c-122 0 -193 70 -193 191c0 89 38 182 97 241c48 47 113 72 187 72zM295 425c-47 0 -88 -25 -120 -73c-28 -43 -47 -108 -47 -166c0 -88 42 -139 115 -139c95 0 166 104 166 241
c0 88 -41 137 -114 137zM365 724l126 -175c-45 2 -89 30 -139 90c-49 -47 -133 -89 -176 -87z" />
    <glyph glyph-name="odieresis" unicode="&#xf6;" horiz-adv-x="532" 
d="M318 488c112 0 185 -72 185 -185c0 -89 -38 -187 -95 -244c-50 -50 -111 -75 -181 -75c-122 0 -193 70 -193 191c0 89 38 182 97 241c48 47 113 72 187 72zM295 425c-47 0 -88 -25 -120 -73c-28 -43 -47 -108 -47 -166c0 -88 42 -139 115 -139c95 0 166 104 166 241
c0 88 -41 137 -114 137zM285 692c28 0 44 -18 44 -49c0 -44 -28 -81 -63 -81c-26 0 -44 19 -44 49c0 48 26 81 63 81zM435 692c27 0 43 -18 43 -49c0 -45 -28 -81 -62 -81c-27 0 -44 20 -44 50c0 47 26 80 63 80z" />
    <glyph glyph-name="ograve" unicode="&#xf2;" horiz-adv-x="532" 
d="M318 488c112 0 185 -72 185 -185c0 -89 -38 -187 -95 -244c-50 -50 -111 -75 -181 -75c-122 0 -193 70 -193 191c0 89 38 182 97 241c48 47 113 72 187 72zM295 425c-47 0 -88 -25 -120 -73c-28 -43 -47 -108 -47 -166c0 -88 42 -139 115 -139c95 0 166 104 166 241
c0 88 -41 137 -114 137zM262 713l145 -166l-224 98z" />
    <glyph glyph-name="otilde" unicode="&#xf5;" horiz-adv-x="532" 
d="M315 488c112 0 185 -72 185 -185c0 -89 -38 -187 -95 -244c-50 -50 -111 -75 -181 -75c-122 0 -193 70 -193 191c0 89 38 182 97 241c48 47 113 72 187 72zM292 425c-47 0 -88 -25 -120 -73c-28 -43 -47 -108 -47 -166c0 -88 42 -139 115 -139c95 0 166 104 166 241
c0 88 -41 137 -114 137zM174 587l15 35c14 35 42 53 82 53c19 0 40 -3 87 -14c54 -12 87 -17 105 -17c26 0 47 11 75 39c-22 -54 -23 -55 -31 -68c-16 -24 -36 -35 -66 -35c-22 0 -26 1 -116 19c-43 8 -67 12 -81 12c-28 0 -53 -12 -77 -40c3 6 5 11 7 16z" />
    <glyph glyph-name="scaron" unicode="&#x161;" horiz-adv-x="431" 
d="M396 457l-18 -98c-24 38 -61 57 -115 57c-56 0 -92 -26 -92 -65c0 -32 23 -51 92 -77c83 -31 116 -68 116 -128c0 -92 -85 -155 -209 -155c-51 0 -101 10 -156 30l-14 105c18 -17 27 -23 54 -36c52 -27 78 -34 124 -34c65 0 108 32 108 80c0 32 -21 50 -98 80
c-78 31 -110 67 -110 123c0 85 79 142 195 142c52 0 87 -7 123 -24zM285 549l-127 175c45 -2 88 -30 140 -89c46 46 132 89 175 87z" />
    <glyph glyph-name="uacute" unicode="&#xfa;" horiz-adv-x="564" 
d="M534 64l-65 -71c-14 -2 -21 -3 -32 -3c-47 0 -80 29 -80 71c0 4 0 11 1 18c-45 -58 -115 -93 -187 -93c-75 0 -120 37 -120 99c0 20 3 38 14 93l20 91c5 24 10 48 16 73c12 58 15 73 15 89c0 18 -10 30 -33 39h12c17 -1 30 -1 34 -1c34 0 60 7 91 25l-68 -313
c-8 -40 -10 -52 -10 -65c0 -36 28 -57 77 -57c44 0 89 21 120 56c26 28 40 60 51 114l9 40c31 144 31 144 31 161c0 18 -10 31 -33 40h12c17 -1 30 -1 34 -1c34 0 60 7 91 25l-71 -331c-12 -53 -12 -53 -12 -68c0 -24 17 -41 40 -41c13 0 29 3 43 10zM510 713l50 -68
l-266 -98z" />
    <glyph glyph-name="ucircumflex" unicode="&#xfb;" horiz-adv-x="564" 
d="M534 64l-65 -71c-14 -2 -21 -3 -32 -3c-47 0 -80 29 -80 71c0 4 0 11 1 18c-45 -58 -115 -93 -187 -93c-75 0 -120 37 -120 99c0 20 3 38 14 93l20 91c5 24 10 48 16 73c12 58 15 73 15 89c0 18 -10 30 -33 39h12c17 -1 30 -1 34 -1c34 0 60 7 91 25l-68 -313
c-8 -40 -10 -52 -10 -65c0 -36 28 -57 77 -57c44 0 89 21 120 56c26 28 40 60 51 114l9 40c31 144 31 144 31 161c0 18 -10 31 -33 40h12c17 -1 30 -1 34 -1c34 0 60 7 91 25l-71 -331c-12 -53 -12 -53 -12 -68c0 -24 17 -41 40 -41c13 0 29 3 43 10zM380 724l126 -175
c-45 2 -89 30 -139 90c-49 -47 -133 -89 -176 -87z" />
    <glyph glyph-name="udieresis" unicode="&#xfc;" horiz-adv-x="564" 
d="M534 64l-65 -71c-14 -2 -21 -3 -32 -3c-47 0 -80 29 -80 71c0 4 0 11 1 18c-45 -58 -115 -93 -187 -93c-75 0 -120 37 -120 99c0 20 3 38 14 93l20 91c5 24 10 48 16 73c12 58 15 73 15 89c0 18 -10 30 -33 39h12c17 -1 30 -1 34 -1c34 0 60 7 91 25l-68 -313
c-8 -40 -10 -52 -10 -65c0 -36 28 -57 77 -57c44 0 89 21 120 56c26 28 40 60 51 114l9 40c31 144 31 144 31 161c0 18 -10 31 -33 40h12c17 -1 30 -1 34 -1c34 0 60 7 91 25l-71 -331c-12 -53 -12 -53 -12 -68c0 -24 17 -41 40 -41c13 0 29 3 43 10zM301 692
c28 0 44 -18 44 -49c0 -44 -28 -81 -63 -81c-26 0 -44 19 -44 49c0 48 26 81 63 81zM451 692c27 0 43 -18 43 -49c0 -45 -28 -81 -62 -81c-27 0 -44 20 -44 50c0 47 26 80 63 80z" />
    <glyph glyph-name="ugrave" unicode="&#xf9;" horiz-adv-x="564" 
d="M534 64l-65 -71c-14 -2 -21 -3 -32 -3c-47 0 -80 29 -80 71c0 4 0 11 1 18c-45 -58 -115 -93 -187 -93c-75 0 -120 37 -120 99c0 20 3 38 14 93l20 91c5 24 10 48 16 73c12 58 15 73 15 89c0 18 -10 30 -33 39h12c17 -1 30 -1 34 -1c34 0 60 7 91 25l-68 -313
c-8 -40 -10 -52 -10 -65c0 -36 28 -57 77 -57c44 0 89 21 120 56c26 28 40 60 51 114l9 40c31 144 31 144 31 161c0 18 -10 31 -33 40h12c17 -1 30 -1 34 -1c34 0 60 7 91 25l-71 -331c-12 -53 -12 -53 -12 -68c0 -24 17 -41 40 -41c13 0 29 3 43 10zM298 713l145 -166
l-224 98z" />
    <glyph glyph-name="yacute" unicode="&#xfd;" horiz-adv-x="551" 
d="M346 30l13 59c-61 -61 -120 -89 -187 -89c-70 0 -119 38 -119 93c0 20 6 54 18 113l14 63c30 142 30 142 30 154c0 17 -10 31 -32 47c80 -1 98 3 136 24l-68 -319c-6 -26 -7 -35 -7 -47c0 -32 31 -56 74 -56c42 0 93 25 123 59c25 30 40 63 53 120l4 18
c20 93 30 142 30 154c0 17 -9 31 -32 47c79 -1 98 3 136 24l-96 -447c-22 -104 -38 -145 -75 -189c-47 -56 -104 -81 -185 -81c-101 0 -169 39 -169 98c0 39 25 64 65 64c19 0 33 -3 48 -10c-16 -8 -22 -18 -22 -32c0 -34 39 -60 88 -60c84 0 132 58 160 193zM510 713
l50 -68l-266 -98z" />
    <glyph glyph-name="ydieresis" unicode="&#xff;" horiz-adv-x="551" 
d="M346 30l13 59c-61 -61 -120 -89 -187 -89c-70 0 -119 38 -119 93c0 20 6 54 18 113l14 63c30 142 30 142 30 154c0 17 -10 31 -32 47c80 -1 98 3 136 24l-68 -319c-6 -26 -7 -35 -7 -47c0 -32 31 -56 74 -56c42 0 93 25 123 59c25 30 40 63 53 120l4 18
c20 93 30 142 30 154c0 17 -9 31 -32 47c79 -1 98 3 136 24l-96 -447c-22 -104 -38 -145 -75 -189c-47 -56 -104 -81 -185 -81c-101 0 -169 39 -169 98c0 39 25 64 65 64c19 0 33 -3 48 -10c-16 -8 -22 -18 -22 -32c0 -34 39 -60 88 -60c84 0 132 58 160 193zM294 692
c28 0 44 -18 44 -49c0 -44 -28 -81 -63 -81c-26 0 -44 19 -44 49c0 48 26 81 63 81zM444 692c27 0 43 -18 43 -49c0 -45 -28 -81 -62 -81c-27 0 -44 20 -44 50c0 47 26 80 63 80z" />
    <glyph glyph-name="zcaron" unicode="&#x17e;" horiz-adv-x="493" 
d="M510 472l-371 -392c12 1 22 1 28 1c11 0 27 -1 48 -3c45 -4 70 -6 93 -6c60 0 102 11 146 38l-64 -109c-38 -5 -56 -7 -78 -7c-27 0 -50 2 -152 12c-15 1 -35 2 -58 2c-46 0 -88 -3 -129 -10l374 398h-93c-89 0 -109 -6 -166 -47l67 123h355zM338 549l-127 175
c45 -2 88 -30 140 -89c46 46 132 89 175 87z" />
    <glyph glyph-name="uni00A0" unicode="&#xa0;" horiz-adv-x="247" 
 />
    <glyph glyph-name="uni00AD" unicode="&#xad;" horiz-adv-x="355" 
d="M91 284h124c53 0 78 4 119 20l-67 -85h-125c-44 0 -75 -5 -116 -20z" />
    <glyph glyph-name="uni02C9" unicode="&#x2c9;" horiz-adv-x="522" 
d="M183 658h335l-14 -63h-334z" />
    <glyph glyph-name="uni03A9" unicode="&#x3a9;" horiz-adv-x="816" 
d="M765 0h-283v93c69 52 163 137 163 286c0 127 -82 234 -235 234c-135 0 -242 -92 -242 -237c0 -147 96 -233 163 -283v-93h-284v93h180c-81 49 -180 143 -180 304c0 183 146 315 361 315c240 0 358 -141 358 -312c0 -146 -90 -252 -185 -307h184v-93z" />
    <glyph glyph-name="uni03BC" unicode="&#x3bc;" horiz-adv-x="564" 
d="M534 64l-65 -70c-15 -2 -22 -3 -33 -3c-46 0 -79 29 -79 70c0 5 0 11 1 18c-45 -61 -104 -93 -169 -93c-32 0 -50 7 -81 32l-39 -232h-88l108 505c31 146 31 146 31 162c0 17 -10 30 -33 39h36c45 0 67 5 101 25l-72 -336c-10 -48 -11 -52 -11 -66c0 -35 29 -56 78 -56
c43 0 88 21 120 56c25 28 40 61 51 114l13 62c31 145 31 145 31 162s-10 30 -33 39h37c45 0 66 5 100 25l-76 -354c-10 -49 -11 -53 -11 -68c0 -23 17 -39 40 -39c13 0 28 3 43 8z" />
    <glyph glyph-name="pi" unicode="&#x3c0;" horiz-adv-x="824" 
d="M731 85l21 -75c-21 -11 -52 -19 -91 -19c-102 0 -144 64 -144 152v273h-204v-274c0 -62 -7 -107 -19 -142h-117c14 39 22 96 22 149v267c-34 -1 -85 -12 -114 -26c-7 16 -25 58 -32 74c31 17 95 36 168 36h528v-84h-118v-258c0 -51 17 -82 62 -82c14 0 28 4 38 9z" />
    <glyph glyph-name="Euro" unicode="&#x20ac;" 
d="M633 678l-7 -121c-35 53 -78 80 -133 80c-107 0 -172 -88 -207 -192h258l-11 -56h-263c-5 -21 -8 -57 -11 -77h260l-11 -56h-254c-1 -9 -1 -18 -1 -26c0 -118 55 -172 153 -172c90 0 144 38 206 95l-48 -127c-66 -27 -111 -40 -179 -40c-148 0 -235 88 -235 251v19h-82
l11 56h76c2 21 6 56 11 77h-73l11 56h78c48 144 154 260 319 260c43 0 82 -8 132 -27z" />
    <glyph glyph-name="litre" unicode="&#x2113;" horiz-adv-x="572" 
d="M483 57c-31 -29 -91 -72 -165 -72c-46 0 -79 14 -104 40c-28 29 -40 80 -40 124v80l-63 -60c-12 18 -24 36 -36 55c33 31 66 62 99 94v205c0 122 52 205 153 205c85 0 115 -66 115 -118c0 -95 -50 -174 -124 -255c-13 -14 -31 -34 -40 -45v-148c0 -68 27 -96 71 -96
c42 0 77 31 96 49c12 -19 25 -39 38 -58zM369 594c0 33 -14 53 -38 53c-37 0 -53 -43 -53 -104v-141c7 8 20 24 26 33c42 55 65 114 65 159z" />
    <glyph glyph-name="Omega" unicode="&#x2126;" horiz-adv-x="816" 
d="M765 0h-283v93c69 52 163 137 163 286c0 127 -82 234 -235 234c-135 0 -242 -92 -242 -237c0 -147 96 -233 163 -283v-93h-284v93h180c-81 49 -180 143 -180 304c0 183 146 315 361 315c240 0 358 -141 358 -312c0 -146 -90 -252 -185 -307h184v-93z" />
    <glyph glyph-name="estimated" unicode="&#x212e;" horiz-adv-x="723" 
d="M685 330h-507v-228c49 -48 109 -74 180 -74c127 0 193 66 246 150c13 -8 26 -16 38 -23c-63 -98 -139 -167 -284 -167c-194 0 -321 156 -321 343c0 189 123 342 325 342s322 -156 323 -343zM542 370v190c-44 41 -112 74 -181 74c-71 0 -135 -25 -183 -74v-190h364z" />
    <glyph glyph-name="partialdiff" unicode="&#x2202;" horiz-adv-x="680" 
d="M617 462c0 -65 -9 -127 -26 -185c-49 -161 -154 -289 -313 -289c-128 0 -216 86 -216 207c0 202 153 299 279 299c81 0 137 -37 160 -79h3c2 16 3 32 3 53c0 102 -52 176 -155 176c-39 0 -83 -12 -116 -33l-27 75c30 21 93 44 164 44c155 0 244 -109 244 -268zM487 327
c-13 46 -53 87 -122 87c-101 0 -189 -93 -189 -220c0 -70 42 -118 108 -118c97 0 173 108 203 251z" />
    <glyph glyph-name="Delta" unicode="&#x2206;" horiz-adv-x="740" 
d="M716 0h-682v50c90 217 180 433 270 650h144c90 -217 179 -433 268 -650v-50zM579 94c-63 151 -125 302 -187 453c-10 26 -14 48 -17 61h-5c-3 -12 -8 -35 -17 -58c-63 -152 -126 -304 -188 -456h414z" />
    <glyph glyph-name="product" unicode="&#x220f;" horiz-adv-x="854" 
d="M762 -230h-116v831h-438v-831h-116v930h670v-930z" />
    <glyph glyph-name="summation" unicode="&#x2211;" horiz-adv-x="742" 
d="M711 -230h-693v59c125 137 250 273 375 410c-118 132 -235 264 -353 396v65h646v-93h-483c108 -122 215 -243 322 -365c-113 -127 -227 -253 -341 -379h527v-93z" />
    <glyph glyph-name="uni2215" unicode="&#x2215;" horiz-adv-x="136" 
d="M301 692h63l-488 -692h-63z" />
    <glyph glyph-name="uni2219" unicode="&#x2219;" horiz-adv-x="284" 
d="M154 320c28 0 46 -22 46 -56c0 -48 -28 -85 -64 -85c-30 0 -47 21 -47 57c0 49 27 84 65 84z" />
    <glyph glyph-name="radical" unicode="&#x221a;" horiz-adv-x="654" 
d="M641 729l-252 -741h-76c-55 110 -108 219 -162 329c-21 -13 -43 -26 -64 -39l-30 57c46 28 93 57 139 84c51 -105 102 -211 154 -316c70 208 141 417 211 626h80z" />
    <glyph glyph-name="infinity" unicode="&#x221e;" horiz-adv-x="942" 
d="M881 295c0 -105 -72 -187 -193 -187c-89 0 -166 50 -216 123h-2c-51 -70 -129 -123 -217 -123c-123 0 -195 78 -195 182c0 110 75 186 192 186c92 0 166 -50 219 -124h2c41 57 115 124 213 124c118 0 197 -72 197 -181zM793 292c0 55 -32 106 -112 106
c-69 0 -123 -45 -166 -106c43 -64 102 -106 167 -106c78 0 111 52 111 106zM424 292c-42 64 -106 106 -168 106c-72 0 -110 -47 -110 -107c0 -62 47 -106 112 -106c64 0 124 45 166 107z" />
    <glyph glyph-name="integral" unicode="&#x222b;" horiz-adv-x="567" 
d="M479 650c-10 5 -32 12 -56 12c-57 0 -88 -35 -88 -97v-609c0 -130 -73 -195 -185 -195c-32 0 -76 7 -97 17c8 27 16 55 23 82c14 -6 36 -11 58 -11c56 0 87 33 87 97v608c0 126 65 196 183 196c39 0 81 -10 100 -19c-9 -27 -17 -54 -25 -81z" />
    <glyph glyph-name="approxequal" unicode="&#x2248;" 
d="M556 421c-34 -49 -75 -85 -139 -85c-37 0 -75 12 -108 32c-28 17 -60 33 -93 33c-38 0 -70 -32 -91 -66l-48 53c33 46 72 85 138 85c41 0 78 -14 108 -32c32 -20 62 -33 93 -33c38 0 69 30 92 66zM556 202c-34 -49 -75 -85 -139 -85c-37 0 -75 12 -108 32
c-28 17 -60 33 -93 33c-38 0 -70 -32 -91 -66l-48 53c33 47 72 85 138 85c41 0 78 -14 108 -32c32 -20 62 -33 93 -33c38 0 69 30 92 66z" />
    <glyph glyph-name="notequal" unicode="&#x2260;" 
d="M536 150h-253l-60 -126h-78l61 126h-109v72h143l71 147h-214v72h249l63 133h77l-63 -133h113v-72h-148l-71 -147h219v-72z" />
    <glyph glyph-name="lessequal" unicode="&#x2264;" 
d="M536 0h-439v72h439v-72zM536 136l-439 195v55l439 196v-78l-334 -144v-2l334 -145v-77z" />
    <glyph glyph-name="greaterequal" unicode="&#x2265;" 
d="M535 0h-438v72h438v-72zM536 331l-439 -195v78l333 144v2l-333 145v77l439 -196v-55z" />
    <glyph glyph-name="lozenge" unicode="&#x25ca;" horiz-adv-x="675" 
d="M613 350c-84 -117 -168 -233 -252 -350h-55c-84 116 -168 233 -252 349l252 351h55c84 -117 168 -233 252 -350zM521 350c-63 87 -125 174 -187 261l-189 -261c63 -88 126 -174 188 -262c63 88 125 174 188 262z" />
    <glyph glyph-name="zero.oldstyle" unicode="&#xf730;" horiz-adv-x="591" 
d="M329 510c144 0 232 -88 232 -232c0 -85 -36 -168 -96 -222c-53 -48 -121 -72 -203 -72c-67 0 -120 17 -159 50c-48 42 -75 109 -75 183c0 89 37 174 99 227c52 45 117 66 202 66zM308 438c-102 0 -173 -92 -173 -223c0 -102 53 -162 142 -162c109 0 177 87 177 226
c0 102 -53 159 -146 159z" />
    <glyph glyph-name="one.oldstyle" unicode="&#xf731;" horiz-adv-x="341" 
d="M168 343h-162c96 18 224 95 296 177l-89 -414c-5 -21 -7 -42 -7 -59c0 -27 9 -40 33 -47h-193c36 7 55 35 71 106z" />
    <glyph glyph-name="two.oldstyle" unicode="&#xf732;" horiz-adv-x="552" 
d="M382 0h-426c28 19 228 161 305 217c76 55 104 90 104 131c0 52 -43 84 -113 84c-55 0 -103 -15 -171 -54l46 105c66 19 100 25 149 25c62 0 108 -14 141 -43c30 -28 49 -71 49 -113c0 -77 -53 -135 -195 -212c-67 -37 -72 -40 -97 -56c29 -3 73 -5 107 -5
c68 0 135 15 191 43z" />
    <glyph glyph-name="three.oldstyle" unicode="&#xf733;" horiz-adv-x="539" 
d="M90 133l18 85c38 -7 52 -8 78 -8c110 0 175 45 175 120c0 63 -47 105 -118 105c-54 0 -108 -18 -168 -56l54 107c58 18 93 24 135 24c121 0 196 -62 196 -160c0 -54 -24 -105 -63 -136c-29 -22 -55 -32 -108 -44c46 -8 67 -17 93 -41c32 -28 46 -61 46 -109
c0 -71 -33 -135 -90 -172c-55 -36 -128 -56 -203 -56c-47 0 -101 8 -165 23l-29 113c63 -40 130 -61 194 -61c118 0 190 56 190 148c0 82 -60 124 -175 124c-25 0 -35 -1 -60 -6z" />
    <glyph glyph-name="four.oldstyle" unicode="&#xf734;" horiz-adv-x="585" 
d="M313 3h-371l440 491h127l-90 -417h33c45 0 76 8 117 29l-61 -103h-105l-43 -204h-91zM333 77l79 350l-320 -350h241z" />
    <glyph glyph-name="five.oldstyle" unicode="&#xf735;" horiz-adv-x="548" 
d="M204 409l-43 -198c45 14 76 19 109 19c120 0 197 -70 197 -180c0 -147 -129 -257 -301 -257c-49 0 -102 8 -152 22l-47 122c61 -42 144 -69 210 -69c109 0 187 66 187 158c0 81 -61 133 -156 133c-39 0 -59 -4 -137 -30l79 368h236c79 0 111 6 146 28l-46 -116h-282z" />
    <glyph glyph-name="six.oldstyle" unicode="&#xf736;" horiz-adv-x="618" 
d="M195 333l53 89c38 17 71 24 115 24c126 0 211 -83 211 -205c0 -147 -114 -256 -270 -256c-145 0 -246 100 -246 244c0 152 92 307 234 393c86 53 178 78 298 82l-40 -62c-213 -7 -389 -185 -389 -395c0 -114 63 -187 162 -187c91 0 153 65 153 160c0 91 -61 154 -150 154
c-45 0 -88 -13 -131 -41z" />
    <glyph glyph-name="seven.oldstyle" unicode="&#xf737;" horiz-adv-x="520" 
d="M540 501l-374 -595c-27 -42 -36 -60 -36 -72c0 -10 7 -18 22 -28h-154l385 613c-39 8 -86 11 -151 11c-85 0 -152 -20 -205 -63l84 134h429z" />
    <glyph glyph-name="eight.oldstyle" unicode="&#xf738;" horiz-adv-x="611" 
d="M427 376c44 -24 62 -37 83 -59c28 -29 46 -75 46 -118c0 -52 -27 -111 -68 -146c-49 -43 -125 -67 -209 -67c-69 0 -133 16 -176 44c-45 28 -74 83 -74 137c0 90 56 146 204 204c-66 40 -98 88 -98 147c0 106 104 186 242 186c129 0 218 -65 218 -159
c0 -75 -53 -129 -168 -169zM372 407c82 32 123 75 123 131c0 64 -50 105 -126 105c-77 0 -134 -44 -134 -105c0 -49 40 -87 137 -131zM286 344c-52 -29 -68 -39 -95 -59c-39 -30 -62 -70 -62 -109c0 -38 23 -79 58 -101c26 -18 59 -26 102 -26c99 0 164 52 164 130
c0 65 -37 102 -167 165z" />
    <glyph glyph-name="nine.oldstyle" unicode="&#xf739;" horiz-adv-x="618" 
d="M428 162l-52 -89c-39 -17 -71 -24 -115 -24c-126 0 -212 83 -212 205c0 148 115 257 270 257c146 0 246 -100 246 -245c0 -152 -92 -306 -234 -393c-86 -53 -176 -78 -298 -82l40 61c99 4 192 42 263 108c79 73 129 184 129 288c0 115 -64 188 -164 188
c-90 0 -153 -65 -153 -160c0 -91 61 -155 147 -155c47 0 90 13 133 41z" />
    </font>
</defs>
</svg>
