<?xml version="1.0" standalone="no"?>
<!DOCTYPE svg PUBLIC "-//W3C//DTD SVG 20010904//EN"
 "http://www.w3.org/TR/2001/REC-SVG-20010904/DTD/svg10.dtd">
<svg version="1.0" xmlns="http://www.w3.org/2000/svg"
 width="512.000000pt" height="512.000000pt" viewBox="0 0 512.000000 512.000000"
 preserveAspectRatio="xMidYMid meet">
<metadata>
Created by potrace 1.14, written by Peter Selinger 2001-2017
</metadata>
<g transform="translate(0.000000,512.000000) scale(0.100000,-0.100000)"
fill="#000000" stroke="none">
<path d="M2375 4224 c-16 -2 -77 -9 -135 -15 -230 -24 -477 -83 -675 -161
-127 -50 -355 -167 -420 -216 l-50 -37 54 -3 c47 -3 61 1 110 31 191 117 442
215 701 272 208 46 337 59 600 59 263 0 392 -13 600 -59 580 -128 1031 -424
1220 -802 132 -264 130 -540 -5 -806 -53 -105 -120 -193 -227 -299 -88 -86
-98 -100 -98 -132 0 -20 5 -36 11 -36 24 0 258 248 313 331 196 303 226 623
86 935 -112 249 -368 498 -670 653 -283 145 -522 219 -865 266 -105 15 -486
28 -550 19z"/>
<path d="M2400 4120 c-356 -20 -677 -105 -975 -258 -110 -57 -110 -57 -71 -60
32 -3 65 9 165 57 503 240 1160 289 1735 129 547 -152 942 -472 1066 -863 30
-94 38 -290 17 -391 -32 -150 -106 -293 -219 -425 -48 -56 -68 -87 -68 -106 0
-27 1 -26 51 22 112 110 216 277 259 417 159 516 -183 1038 -858 1309 -318
129 -718 190 -1102 169z"/>
<path d="M910 3580 l0 -120 228 0 c164 0 231 -3 240 -12 9 -9 12 -183 12 -720
l0 -708 175 0 175 0 0 345 c0 398 -9 368 107 363 l67 -3 290 -357 291 -357
733 -1 732 0 0 120 0 119 -400 3 c-311 2 -402 6 -412 16 -10 10 -14 152 -16
697 l-2 685 -130 0 -130 0 0 -773 c0 -751 -1 -774 -19 -791 -11 -10 -28 -16
-38 -14 -27 5 -683 756 -683 782 0 13 96 137 258 332 141 171 285 345 320 387
l63 77 -170 0 -170 0 -60 -100 c-59 -98 -92 -142 -295 -385 -167 -202 -159
-195 -237 -195 -102 0 -99 -8 -99 250 0 215 0 219 22 234 19 13 59 16 235 16
l213 0 0 115 0 115 -650 0 -650 0 0 -120z"/>
<path d="M769 3474 c-146 -204 -216 -453 -189 -675 29 -249 131 -442 339 -650
303 -301 743 -494 1293 -566 163 -21 519 -23 656 -4 51 7 95 11 98 9 2 -2
-371 -87 -829 -188 l-833 -184 -53 -79 -53 -80 39 7 c21 4 46 10 57 13 10 3
16 1 14 -3 -47 -95 -56 -186 -25 -256 21 -48 92 -125 138 -149 79 -40 209 -40
287 0 38 19 110 91 131 129 58 108 17 269 -88 346 -28 21 -30 25 -14 29 10 3
187 42 393 87 206 45 384 84 395 87 17 5 16 1 -8 -24 -37 -40 -67 -122 -67
-186 0 -106 81 -217 186 -257 149 -55 324 10 389 145 27 57 32 154 10 213 -23
58 -92 133 -145 157 -22 10 -39 19 -37 21 4 4 735 164 748 164 6 0 1 -13 -11
-29 -52 -74 -63 -166 -30 -254 72 -193 343 -250 492 -104 58 56 81 108 86 189
3 55 0 76 -20 120 -28 61 -74 110 -127 137 l-36 19 40 10 c22 6 77 18 123 28
l82 17 40 75 c22 42 38 78 36 80 -2 2 -201 -40 -441 -93 -240 -53 -439 -94
-442 -92 -2 3 11 8 29 12 57 13 228 84 353 148 l120 62 -67 3 c-58 2 -75 -1
-127 -27 -149 -76 -373 -151 -568 -192 -194 -40 -328 -52 -573 -52 -245 0
-379 12 -573 52 -588 122 -1073 439 -1252 817 -136 288 -122 576 41 855 30 51
35 67 32 111 l-3 53 -36 -51z m3171 -1885 c86 -39 131 -105 132 -193 1 -66
-23 -117 -75 -161 -104 -89 -274 -68 -352 44 -27 38 -30 51 -30 114 0 61 4 78
26 109 68 99 192 135 299 87z m-1065 -263 c65 -39 98 -93 103 -170 5 -75 -18
-128 -75 -175 -93 -77 -255 -64 -335 26 -50 55 -62 158 -27 230 55 114 217
157 334 89z m-1236 -202 c92 -27 161 -118 161 -210 0 -16 -11 -52 -24 -81 -80
-171 -342 -171 -422 0 -40 87 -26 165 42 234 33 33 54 44 105 56 82 20 77 20
138 1z"/>
<path d="M3794 1571 c-85 -22 -144 -93 -144 -173 0 -98 69 -173 171 -185 159
-19 272 151 185 280 -40 60 -140 96 -212 78z"/>
<path d="M2704 1321 c-157 -39 -197 -232 -68 -324 95 -67 238 -35 291 66 22
44 21 116 -4 163 -35 69 -140 114 -219 95z"/>
<path d="M1490 1089 c-148 -62 -159 -259 -18 -328 164 -79 341 72 270 232 -29
65 -85 100 -166 104 -33 2 -72 -2 -86 -8z"/>
<path d="M837 3328 c-173 -299 -148 -676 64 -964 83 -114 248 -270 352 -333
l37 -23 0 25 c0 19 -17 37 -72 77 -94 69 -232 208 -286 287 -57 84 -105 183
-134 273 -20 65 -23 96 -23 225 0 173 15 236 90 388 44 86 44 87 21 87 -18 0
-31 -11 -49 -42z"/>
<path d="M1525 1880 c181 -87 455 -162 714 -195 165 -21 477 -21 642 0 253 32
528 107 703 190 l71 33 -47 1 c-32 1 -74 -10 -125 -30 -558 -225 -1295 -224
-1851 2 -66 27 -109 39 -141 38 l-46 -1 80 -38z"/>
</g>
</svg>
